<svg width="26" height="25" viewBox="0 0 26 25" fill="none" xmlns="http://www.w3.org/2000/svg">
<g clip-path="url(#clip0_287_692)">
<path d="M22.3147 9.24288C22.8619 8.43483 23.4169 7.62538 23.6124 6.64057C23.7952 5.71889 23.3744 5.17832 22.4335 5.17832C21.9972 5.18601 21.5624 5.2317 21.134 5.31486C19.5787 5.58935 18.0594 6.02518 16.5195 6.36982C15.9686 6.49327 15.9658 6.48392 15.7362 5.96158C15.6778 5.82831 15.6268 5.69223 15.5683 5.55896C15.0577 4.39785 14.4994 3.2606 13.841 2.17572C13.5824 1.74971 13.3144 1.32557 12.9057 1.02021C12.367 0.618057 11.9485 0.62835 11.4514 1.07212C11.0826 1.40905 10.7627 1.79576 10.5007 2.22107C10.0771 2.89024 9.73616 3.60056 9.41537 4.32257C9.18624 4.83695 9.17502 4.84863 8.63679 4.66673C7.5531 4.30299 6.43339 4.05701 5.29703 3.93303C4.5956 3.85447 3.88949 3.87271 3.20161 3.82454C3.10482 3.66041 3.18806 3.52013 3.19273 3.37844C3.21939 2.58956 2.7251 1.96715 1.95867 1.81657C1.35591 1.69873 0.689544 2.06255 0.497351 2.61481C0.10034 3.75534 0.953289 4.86219 2.15227 4.72471C2.44407 4.69104 2.51702 4.79206 2.57313 5.02306C2.7686 5.83345 3.08751 6.60129 3.38539 7.37708C3.61592 7.97797 3.84646 8.57933 4.06297 9.18537C4.21027 9.59734 4.20326 9.60622 3.81093 9.79841C3.26802 10.0626 2.72417 10.3236 2.26777 10.7337C1.45131 11.4669 1.46627 12.2558 2.31454 12.9357C2.92244 13.422 3.61453 13.7578 4.35197 13.9897C5.02441 14.2016 5.70806 14.3746 6.38705 14.57C7.09877 14.7749 7.13525 14.8403 6.8832 15.5151C6.5208 16.4882 6.13501 17.452 5.78803 18.4312C5.32602 19.7429 4.88785 21.0625 4.76253 22.4626C4.63487 23.8982 5.46397 24.5743 6.84626 24.146C7.04553 24.0874 7.24001 24.0136 7.42798 23.9253C7.81985 23.7336 8.22013 23.5512 8.58675 23.3174C10.3104 22.2199 11.9653 21.0354 13.204 19.3716C13.4042 19.1032 13.5702 19.105 13.8171 19.2865C14.1183 19.5077 14.4362 19.7073 14.7524 19.9065C16.8524 21.2337 19.1541 21.8215 21.6264 21.7326C23.0377 21.6816 23.4267 21.1369 23.0985 19.7532C22.7777 18.4003 22.1282 17.1934 21.415 16.0201C20.8637 15.1153 20.274 14.2343 19.7218 13.3304C19.4188 12.8342 19.4333 12.7991 19.8176 12.3507C20.6841 11.3416 21.5675 10.346 22.3147 9.24288Z" fill="#FFF856"/>
<path d="M14.5407 13.2723C13.6836 13.4056 12.8236 13.5188 11.9688 13.6712C11.4432 13.7648 11.3716 13.9397 11.5353 14.4592C11.7612 15.1732 12.2653 15.5964 12.9541 15.8153C14.11 16.1847 15.1005 15.4585 15.1121 14.2441C15.1121 14.0163 15.1121 13.7872 15.0186 13.5735C14.927 13.3701 14.7923 13.2331 14.5407 13.2723ZM12.9676 15.3739C12.4219 15.1508 12.0235 14.7968 11.9342 14.1767C12.2007 13.9626 12.5066 14.0224 12.7867 13.9766C13.2777 13.8966 13.7687 13.8302 14.2625 13.7563C14.5459 13.7138 14.6754 13.8148 14.696 14.1192C14.7652 15.1288 13.9099 15.7601 12.9672 15.3739H12.9676Z" fill="#FFF856"/>
<path d="M17.2582 9.4026C16.9495 9.1122 16.5801 9.00512 16.1672 9.13933C15.6575 9.30534 15.1721 9.97871 15.1576 10.48C15.1576 10.5642 15.1576 10.6058 15.1576 10.6469C15.1651 10.7779 15.1973 10.9125 15.3484 10.9219C15.4994 10.9313 15.549 10.8078 15.5644 10.6741C15.5785 10.5511 15.5789 10.423 15.6149 10.3065C15.7374 9.91184 16.1719 9.51764 16.4927 9.5153C16.9182 9.51203 17.0861 9.8389 17.2591 10.148C17.3297 10.2743 17.3774 10.4136 17.4499 10.5385C17.5023 10.6278 17.5808 10.711 17.701 10.6699C17.8572 10.6161 17.853 10.4828 17.8113 10.3622C17.6893 10.0077 17.5359 9.664 17.2582 9.4026Z" fill="#FFF856"/>
<path d="M9.6636 10.3772C8.92943 10.3576 8.13963 11.3812 8.3365 12.0967C8.34387 12.1374 8.36497 12.1743 8.3963 12.2013C8.42762 12.2282 8.46725 12.2436 8.50858 12.2449C8.5501 12.2461 8.59072 12.2327 8.62343 12.2071C8.65613 12.1815 8.67886 12.1452 8.68768 12.1046C8.75315 11.8661 8.7812 11.6118 8.88595 11.391C9.20721 10.6999 9.88058 10.6157 10.3697 11.1951C10.489 11.3354 10.5769 11.5033 10.6844 11.6543C10.7499 11.7478 10.8429 11.7904 10.9528 11.7408C11.0702 11.6875 11.0679 11.5837 11.0407 11.478C10.9028 10.9412 10.2154 10.3922 9.6636 10.3772Z" fill="#FFF856"/>
<path d="M22.3147 9.24288C22.8619 8.43483 23.4169 7.62538 23.6124 6.64057C23.7952 5.71889 23.3744 5.17832 22.4335 5.17832C21.9972 5.18601 21.5624 5.2317 21.134 5.31486C19.5787 5.58935 18.0594 6.02518 16.5195 6.36982C15.9686 6.49327 15.9658 6.48392 15.7362 5.96158C15.6778 5.82831 15.6268 5.69223 15.5683 5.55896C15.0577 4.39785 14.4994 3.2606 13.841 2.17572C13.5824 1.74971 13.3144 1.32557 12.9057 1.02021C12.367 0.618057 11.9485 0.62835 11.4514 1.07212C11.0826 1.40905 10.7627 1.79576 10.5007 2.22107C10.0771 2.89024 9.73616 3.60056 9.41537 4.32257C9.18624 4.83695 9.17502 4.84863 8.63679 4.66673C7.5531 4.30299 6.43339 4.05701 5.29703 3.93303C4.5956 3.85447 3.88949 3.87271 3.20161 3.82454C3.10482 3.66041 3.18806 3.52013 3.19273 3.37844C3.21939 2.58956 2.7251 1.96715 1.95867 1.81657C1.35591 1.69873 0.689544 2.06255 0.497351 2.61481C0.10034 3.75534 0.953289 4.86219 2.15227 4.72471C2.44407 4.69104 2.51702 4.79206 2.57313 5.02306C2.7686 5.83345 3.08751 6.60129 3.38539 7.37708C3.61592 7.97797 3.84646 8.57933 4.06297 9.18537C4.21027 9.59734 4.20326 9.60622 3.81093 9.79841C3.26802 10.0626 2.72417 10.3236 2.26777 10.7337C1.45131 11.4669 1.46627 12.2558 2.31454 12.9357C2.92244 13.422 3.61453 13.7578 4.35197 13.9897C5.02441 14.2016 5.70806 14.3746 6.38705 14.57C7.09877 14.7749 7.13525 14.8403 6.8832 15.5151C6.5208 16.4882 6.13501 17.452 5.78803 18.4312C5.32602 19.7429 4.88785 21.0625 4.76253 22.4626C4.63487 23.8982 5.46397 24.5743 6.84626 24.146C7.04553 24.0874 7.24001 24.0136 7.42798 23.9253C7.81985 23.7336 8.22013 23.5512 8.58675 23.3174C10.3104 22.2199 11.9653 21.0354 13.204 19.3716C13.4042 19.1032 13.5702 19.105 13.8171 19.2865C14.1183 19.5077 14.4362 19.7073 14.7523 19.9065C16.8524 21.2337 19.1541 21.8215 21.6264 21.7326C23.0377 21.6816 23.4267 21.1369 23.0985 19.7532C22.7777 18.4003 22.1282 17.1934 21.415 16.0201C20.8637 15.1153 20.274 14.2343 19.7218 13.3304C19.4188 12.8342 19.4333 12.7991 19.8176 12.3507C20.6841 11.3416 21.5675 10.346 22.3147 9.24288ZM8.78082 5.17036C8.83091 5.18834 8.87364 5.22242 8.90232 5.26726C8.931 5.3121 8.94402 5.36518 8.93934 5.4182C8.89912 5.52716 8.85937 5.645 8.81261 5.75957C8.49914 6.50601 8.23254 7.27128 8.01438 8.05092C7.94517 8.30951 7.83949 8.4872 7.54676 8.55968C6.68016 8.77278 5.82487 9.02953 4.98418 9.32893C4.83595 9.38224 4.67369 9.46266 4.54509 9.26112C4.37067 8.98896 4.34261 8.71494 4.53621 8.52789C4.86354 8.21131 5.22034 7.92326 5.55282 7.61042C6.36882 6.84165 7.18295 6.07147 7.98446 5.29054C8.23697 5.04925 8.48855 5.03709 8.78082 5.17083V5.17036ZM2.92479 4.63026C2.88223 4.39645 3.0777 4.29638 3.2755 4.28656C4.01201 4.25102 4.74757 4.25101 5.56077 4.44648C4.86307 5.11425 4.19999 5.68708 3.4719 6.26787C3.14644 5.746 3.02579 5.18861 2.92479 4.63073V4.63026ZM3.72909 7.02962C3.58881 6.88232 3.61967 6.72848 3.76604 6.59567C4.04193 6.34409 4.31456 6.08878 4.5956 5.84374C5.01646 5.47526 5.44152 5.1091 5.87267 4.75137C6.10648 4.55778 6.11303 4.56433 6.48385 4.59332C6.20562 4.87951 5.94188 5.16382 5.66458 5.43504C5.14396 5.94257 4.61851 6.44448 4.08822 6.94078C3.9933 7.02916 3.88481 7.1947 3.72909 7.03009V7.02962ZM4.29024 7.30412C5.13196 6.50917 5.96807 5.7072 6.8154 4.91925C7.15115 4.60735 7.22036 4.62231 7.71604 4.94404C6.58112 6.05604 5.49156 7.21247 4.23038 8.19635C3.91146 7.65297 3.91567 7.65624 4.28977 7.30459L4.29024 7.30412ZM19.2102 13.2813C19.5179 13.7985 19.8242 14.3175 20.1524 14.8244C20.8207 15.8532 21.4805 16.8848 22.0056 17.9963C22.2993 18.6173 22.5593 19.2514 22.7033 19.9257C22.7513 20.1276 22.7795 20.3337 22.7875 20.5411C22.7936 20.9386 22.6668 21.0957 22.2754 21.2107C21.8312 21.3417 21.3725 21.337 20.8113 21.3412C18.7627 21.2351 16.7267 20.7501 14.9193 19.5147C14.5419 19.257 14.1617 19.0003 13.7717 18.7641C13.4065 18.5406 13.299 18.5486 13.0432 18.9044C11.9424 20.434 10.4713 21.547 8.93887 22.593C8.33751 23.0036 7.70575 23.3641 7.02443 23.6293C6.73403 23.7424 6.44083 23.8425 6.12051 23.843C5.59864 23.843 5.35455 23.6658 5.23764 23.1631C5.10203 22.5813 5.1993 22.0066 5.32135 21.4385C5.68843 19.726 6.32954 18.1024 6.95335 16.4737C7.11655 16.0472 7.28068 15.6199 7.41068 15.1826C7.54489 14.7272 7.44622 14.5181 7.00151 14.3577C6.57364 14.2029 6.12612 14.101 5.68562 13.9836C4.7817 13.7386 3.89136 13.4604 3.08564 12.9652C2.83687 12.8123 2.59604 12.6486 2.3945 12.4358C1.99328 12.0117 1.98626 11.6638 2.37672 11.2364C2.76719 10.8089 3.26054 10.5494 3.76604 10.3044C4.79808 9.80496 5.89138 9.47109 6.98935 9.15498C7.32885 9.05771 7.67208 8.97493 8.01438 8.88842C8.18833 8.84447 8.30711 8.76544 8.34171 8.56577C8.59002 7.0965 9.24656 5.76985 9.81191 4.41235C10.1246 3.64187 10.5205 2.90787 10.9927 2.2234C11.2204 1.89841 11.4715 1.59305 11.7853 1.34895C12.122 1.08662 12.3516 1.09598 12.6766 1.36907C12.9829 1.62626 13.2041 1.955 13.4103 2.29215C14.0841 3.39294 14.6532 4.54749 15.1713 5.72824C15.2649 5.93727 15.3476 6.1491 15.4435 6.35719C15.6913 6.89355 15.8176 6.96136 16.4166 6.8351C16.945 6.7238 17.4688 6.59286 17.9939 6.46754C19.1045 6.2024 20.2109 5.91762 21.3369 5.71935C21.7254 5.6484 22.12 5.61614 22.5149 5.62303C23.0784 5.63518 23.2869 5.89658 23.2163 6.46475C23.1667 6.86129 23.0213 7.22603 22.8488 7.58423C22.2469 8.83231 21.3669 9.88446 20.4919 10.9399C20.108 11.4033 19.7129 11.8583 19.3168 12.3124C19.0493 12.6126 19.0049 12.9371 19.2097 13.2817L19.2102 13.2813Z" fill="#1B1B1B"/>
<path d="M14.5407 13.2723C13.6836 13.4056 12.8236 13.5188 11.9688 13.6712C11.4432 13.7648 11.3716 13.9397 11.5353 14.4592C11.7612 15.1732 12.2653 15.5964 12.9541 15.8153C14.11 16.1847 15.1005 15.4585 15.1121 14.2441C15.1121 14.0163 15.1121 13.7872 15.0186 13.5735C14.927 13.3701 14.7923 13.2331 14.5407 13.2723ZM12.9676 15.3739C12.4219 15.1508 12.0235 14.7968 11.9342 14.1767C12.2007 13.9626 12.5066 14.0224 12.7867 13.9766C13.2777 13.8966 13.7687 13.8302 14.2625 13.7563C14.5459 13.7138 14.6754 13.8148 14.696 14.1192C14.7652 15.1288 13.9099 15.7601 12.9672 15.3739H12.9676Z" fill="#1B1B1B"/>
<path d="M17.2582 9.4026C16.9495 9.1122 16.5801 9.00512 16.1672 9.13933C15.6575 9.30534 15.1721 9.97871 15.1576 10.48C15.1576 10.5642 15.1576 10.6058 15.1576 10.6469C15.1651 10.7779 15.1973 10.9125 15.3484 10.9219C15.4994 10.9313 15.549 10.8078 15.5644 10.6741C15.5785 10.5511 15.5789 10.423 15.6149 10.3065C15.7374 9.91184 16.1719 9.51764 16.4927 9.5153C16.9182 9.51203 17.0861 9.8389 17.2591 10.148C17.3297 10.2743 17.3774 10.4136 17.4499 10.5385C17.5023 10.6278 17.5808 10.711 17.701 10.6699C17.8572 10.6161 17.853 10.4828 17.8113 10.3622C17.6893 10.0077 17.5359 9.664 17.2582 9.4026Z" fill="#1B1B1B"/>
<path d="M9.6636 10.3772C8.92943 10.3576 8.13963 11.3812 8.3365 12.0967C8.34387 12.1374 8.36497 12.1743 8.3963 12.2013C8.42762 12.2282 8.46725 12.2436 8.50858 12.2449C8.5501 12.2461 8.59072 12.2327 8.62343 12.2071C8.65613 12.1815 8.67886 12.1452 8.68768 12.1046C8.75315 11.8661 8.7812 11.6118 8.88595 11.391C9.20721 10.6999 9.88058 10.6157 10.3697 11.1951C10.489 11.3354 10.5769 11.5033 10.6844 11.6543C10.7499 11.7478 10.8429 11.7904 10.9528 11.7408C11.0702 11.6875 11.0679 11.5837 11.0407 11.478C10.9028 10.9412 10.2154 10.3922 9.6636 10.3772Z" fill="#1B1B1B"/>
</g>
<defs>
<clipPath id="clip0_287_692">
<rect width="25" height="25" fill="white" transform="translate(0.0999756)"/>
</clipPath>
</defs>
</svg>
