<svg width="120" height="24" viewBox="0 0 120 24" fill="none" xmlns="http://www.w3.org/2000/svg">
<path d="M0.788818 12L12.7888 0L24.7888 12L12.7888 24L0.788818 12Z" fill="#FF8201"/>
<path d="M60.2603 0.983155C60.4868 0.561931 61.0909 0.561931 61.3173 0.983155L62.3859 2.97117C62.5581 3.29143 62.9733 3.38619 63.2673 3.17234L65.0927 1.84486C65.4795 1.5636 66.0238 1.82572 66.045 2.30347L66.1452 4.55827C66.1614 4.92151 66.4943 5.18702 66.852 5.12193L69.0726 4.71792C69.5431 4.63232 69.9198 5.10464 69.7316 5.5443L68.8436 7.6193C68.7006 7.95357 68.8853 8.33724 69.2359 8.43381L71.4118 9.03329C71.8729 9.1603 72.0073 9.74928 71.647 10.0638L69.9467 11.548C69.6727 11.7871 69.6727 12.2129 69.9467 12.452L71.647 13.9362C72.0073 14.2507 71.8729 14.8397 71.4118 14.9667L69.2359 15.5662C68.8853 15.6628 68.7006 16.0464 68.8436 16.3807L69.7316 18.4557C69.9198 18.8954 69.5431 19.3677 69.0726 19.2821L66.852 18.8781C66.4943 18.813 66.1614 19.0785 66.1452 19.4417L66.045 21.6965C66.0238 22.1743 65.4795 22.4364 65.0927 22.1551L63.2673 20.8277C62.9733 20.6138 62.5581 20.7086 62.3859 21.0288L61.3173 23.0168C61.0909 23.4381 60.4868 23.4381 60.2603 23.0168L59.1917 21.0288C59.0195 20.7086 58.6044 20.6138 58.3103 20.8277L56.4849 22.1551C56.0982 22.4364 55.5539 22.1743 55.5326 21.6965L55.4324 19.4417C55.4162 19.0785 55.0833 18.813 54.7256 18.8781L52.505 19.2821C52.0345 19.3677 51.6578 18.8954 51.846 18.4557L52.734 16.3807C52.8771 16.0464 52.6923 15.6628 52.3418 15.5662L50.1658 14.9667C49.7047 14.8397 49.5703 14.2507 49.9306 13.9362L51.631 12.452C51.9049 12.2129 51.9049 11.7871 51.631 11.548L49.9306 10.0638C49.5703 9.74928 49.7047 9.1603 50.1658 9.03329L52.3418 8.43381C52.6923 8.33724 52.8771 7.95357 52.734 7.6193L51.846 5.5443C51.6578 5.10464 52.0345 4.63232 52.505 4.71792L54.7256 5.12193C55.0833 5.18702 55.4162 4.92151 55.4324 4.55827L55.5326 2.30347C55.5539 1.82572 56.0982 1.5636 56.4849 1.84486L58.3103 3.17234C58.6044 3.38619 59.0195 3.29143 59.1917 2.97117L60.2603 0.983155Z" fill="#0536FC"/>
<circle cx="108.394" cy="12.0002" r="11.6056" fill="#FF8201"/>
</svg>
