<svg width="61" height="49" viewBox="0 0 61 49" fill="none" xmlns="http://www.w3.org/2000/svg">
<path d="M56.9752 12.182C55.7015 10.182 53.154 9.20766 49.1289 9.20766C45.3077 9.20766 40.7222 10.0795 37.5633 10.7461C37.2067 6.7974 35.7291 1.3615 30.8889 0.694837C30.6341 0.643555 30.4303 0.643555 30.1756 0.643555C26.2015 0.643555 18.7118 5.05381 13.5659 8.84868C8.01236 12.9 1.38887 18.7461 1.03222 23.8743C0.879371 26.541 2.35692 29.4641 5.56676 32.9512C11.5789 39.4128 24.7239 48.0282 29.9208 48.0282C30.1246 48.0282 30.3284 48.0282 30.4813 47.9769C35.2196 47.4128 37.1557 42.0795 37.92 38.6948C40.2637 38.7974 43.7792 38.9513 47.04 38.9513C50.4027 38.9513 52.7464 38.7974 54.2239 38.4384C57.6885 37.6179 59.4718 33.2589 59.4718 25.5154C59.4718 21.2077 58.8094 15.1051 56.9752 12.182Z" fill="#FEF7E3" stroke="#3A040F" stroke-width="1.1472" stroke-miterlimit="10"/>
<path d="M57.4337 24.9515C57.4337 30.131 56.5166 34.9515 54.2748 35.4643C49.995 36.4899 35.5762 35.4643 35.5762 35.4643C35.5762 35.4643 34.71 44.7976 30.0226 45.3104C25.3352 45.8233 2.35681 30.7976 2.81536 23.413C3.32486 16.0284 25.4881 1.413 30.3283 2.07967C35.2195 2.74634 34.9138 13.3617 34.9138 13.3617C35.9838 13.054 52.6953 8.69505 55.1919 12.6951C55.7523 13.5668 56.2109 15.1053 56.5675 16.9515C57.1789 19.3104 57.4337 22.1822 57.4337 24.9515Z" fill="#F89E1E"/>
<path d="M34.7612 9.15612C34.2517 6.43817 33.0799 3.56637 30.6343 3.25868C25.7431 2.59201 3.63085 17.2074 3.12135 24.592C3.12135 24.6946 3.12135 24.7971 3.12135 24.8997C2.9685 24.3356 2.8666 23.8228 2.91755 23.3612C3.42705 15.9766 25.5903 1.36124 30.4305 2.02791C33.2837 2.43817 34.3536 6.13048 34.7612 9.15612Z" fill="white"/>
<path d="M56.7203 16.9509C56.4146 15.6688 56.007 14.5919 55.5994 13.874C53.0519 9.82269 36.0346 13.156 35.0156 13.3612C35.0156 13.3612 35.0156 13.3612 35.0666 13.3612C36.1365 13.0535 52.8481 8.69449 55.3446 12.6945C55.9051 13.6176 56.3636 15.1047 56.7203 16.9509Z" fill="white"/>
<path opacity="0.5" d="M57.4852 24.695C57.4852 29.8745 56.5681 34.695 54.3263 35.2078C50.0465 36.2335 35.6276 35.2078 35.6276 35.2078C35.6276 35.2078 34.7615 44.5412 30.0741 45.054C25.5905 45.6181 3.9368 31.5668 2.96875 23.9258C6.48429 31.7207 25.4377 43.8232 29.6156 43.3104C34.3029 42.7976 35.1691 33.4642 35.1691 33.4642C35.1691 33.4642 49.5879 34.4899 53.8677 33.4642C55.8038 33.0027 56.7719 29.2591 56.9757 24.8489C57.1285 24.7976 57.2814 24.7463 57.4852 24.695Z" fill="url(#paint0_radial_796_1489)"/>
<path d="M20.3987 14.9727C22.095 13.3568 22.7332 11.2631 21.8241 10.2963C20.9149 9.3295 18.8029 9.8557 17.1066 11.4716C15.4103 13.0875 14.7721 15.1812 15.6812 16.148C16.5903 17.1148 18.7024 16.5886 20.3987 14.9727Z" fill="white"/>
<path d="M12.8749 20.9841C13.7332 20.1664 13.99 19.0367 13.4484 18.4607C12.9068 17.8847 11.7719 18.0807 10.9136 18.8984C10.0552 19.716 9.79842 20.8458 10.34 21.4218C10.8816 21.9978 12.0165 21.8018 12.8749 20.9841Z" fill="white"/>
<path d="M57.4337 24.9515C57.4337 30.131 56.5166 34.9515 54.2748 35.4643C49.995 36.4899 35.5762 35.4643 35.5762 35.4643C35.5762 35.4643 34.71 44.7976 30.0226 45.3104C25.3352 45.8233 2.35681 30.7976 2.81536 23.413C3.32486 16.0284 25.4881 1.413 30.3283 2.07967C35.2195 2.74634 34.9138 13.3617 34.9138 13.3617C35.9838 13.054 52.6953 8.69505 55.1919 12.6951C55.7523 13.5668 56.2109 15.1053 56.5675 16.9515C57.1789 19.3104 57.4337 22.1822 57.4337 24.9515Z" fill="url(#paint1_radial_796_1489)"/>
<defs>
<radialGradient id="paint0_radial_796_1489" cx="0" cy="0" r="1" gradientUnits="userSpaceOnUse" gradientTransform="translate(25.6088 3.01362) rotate(85.9899) scale(49.0872 78.6008)">
<stop offset="0.5995" stop-color="#DD8C8E" stop-opacity="0.55"/>
<stop offset="0.7258" stop-color="#CA6C77" stop-opacity="0.7318"/>
<stop offset="0.9121" stop-color="#A93550"/>
</radialGradient>
<radialGradient id="paint1_radial_796_1489" cx="0" cy="0" r="1" gradientUnits="userSpaceOnUse" gradientTransform="translate(11.7602 -11.9829) scale(71.6 72.0668)">
<stop stop-color="#FFFF00"/>
<stop offset="0.0332642" stop-color="#FFFF00" stop-opacity="0.9667"/>
<stop offset="1" stop-color="#FFFF00" stop-opacity="0"/>
</radialGradient>
</defs>
</svg>
