<svg width="136" height="135" viewBox="0 0 136 135" fill="none" xmlns="http://www.w3.org/2000/svg">
<g clip-path="url(#clip0_217_4319)">
<path d="M22.3698 113.758C25.4701 117.063 28.6494 120.291 31.9075 123.441C33.4616 124.935 35.0394 126.41 36.6408 127.867C37.5875 128.731 38.5223 129.946 39.7687 130.364C39.8889 130.394 40.0144 130.397 40.1358 130.372C40.2572 130.347 40.3711 130.294 40.4689 130.218C40.5668 130.142 40.6459 130.044 40.7003 129.933C40.7546 129.821 40.7827 129.699 40.7825 129.575V129.409C40.7839 129.234 40.7269 129.063 40.6205 128.924C40.514 128.784 40.3642 128.685 40.1947 128.64L40.0685 128.612C39.0666 128.407 38.6367 129.946 39.6465 130.155L39.1652 129.575L40.175 128.786C38.6406 128.273 37.0195 126.025 35.8361 124.944C34.4161 123.629 33.0119 122.289 31.6235 120.925C28.8466 118.211 26.1328 115.434 23.4821 112.594C22.7761 111.841 21.648 112.988 22.3501 113.722L22.3698 113.758Z" fill="#FF8200"/>
<path d="M23.111 97.4306C36.3407 108.7 49.2153 120.411 62.0072 132.173C62.7606 132.871 63.8966 131.743 63.1353 131.045C50.3435 119.279 37.4727 107.572 24.2391 96.3025C23.4502 95.6399 22.3261 96.764 23.111 97.4306Z" fill="#0536FC"/>
<path d="M25.178 82.08C43.5564 97.2687 61.2749 113.206 78.3333 129.891C79.0709 130.608 80.203 129.496 79.4653 128.758C62.4175 112.089 44.6977 96.1524 26.3061 80.9479C25.5172 80.2971 24.3812 81.4212 25.178 82.08Z" fill="#FF8200"/>
<path d="M26.7241 65.9584C44.4635 79.4142 61.827 93.3314 78.8144 107.71C79.6033 108.369 80.7314 107.245 79.9425 106.582C62.8499 92.1192 45.3799 78.1164 27.5327 64.5739C26.7122 63.9546 25.9154 65.3391 26.7438 65.9544L26.7241 65.9584Z" fill="#0536FC"/>
<path d="M28.8783 49.8538C45.9051 62.6943 62.8189 75.6886 79.6196 88.8367C80.4085 89.4639 81.5603 88.3397 80.7517 87.7047C63.8432 74.4776 46.815 61.4058 29.6672 48.4891C28.8467 47.8698 28.05 49.2779 28.8783 49.8696V49.8538Z" fill="#FF8200"/>
<path d="M43.393 41.3462C55.6313 50.7419 67.842 60.1704 80.025 69.6318C80.8139 70.255 81.9696 69.1309 81.1571 68.5037C68.8504 58.9687 56.5319 49.456 44.2016 39.9657C43.3851 39.3385 42.5883 40.7269 43.4127 41.3462H43.393Z" fill="#0536FC"/>
<path d="M39.1335 32.609C40.7161 35.584 42.6697 38.3461 44.9476 40.8292C45.6458 41.5905 46.7739 40.4585 46.0797 39.7011C43.8973 37.3183 42.0271 34.6673 40.5141 31.8123C40.0289 30.905 38.6484 31.7136 39.1335 32.6209V32.609Z" fill="#FF8200"/>
<path d="M51.3252 29.3421C54.5557 31.0421 57.0762 35.7005 59.3087 38.4932L67.0359 48.1531C67.6788 48.942 68.803 47.8178 68.1679 47.0211L59.5296 36.2291C57.3799 33.539 55.242 29.5985 52.1298 27.9457C51.2226 27.4685 50.414 28.8451 51.3409 29.3263L51.3252 29.3421Z" fill="#FF8200"/>
<path d="M64.2715 23.8836C70.4662 33.1312 77.1209 42.0621 84.2107 50.6427C84.8694 51.4316 85.9936 50.2995 85.3427 49.5106C78.339 41.0371 71.7658 32.2167 65.6481 23.0829C65.0801 22.2309 63.6759 23.0316 64.2715 23.8718V23.8836Z" fill="#FF8200"/>
<path d="M74.7398 20.338C81.4165 29.071 88.2706 37.6672 95.3022 46.1267C95.957 46.9156 97.0851 45.7836 96.4303 44.9947C89.4881 36.643 82.7181 28.1546 76.1204 19.5294C75.505 18.7405 74.1166 19.5294 74.7398 20.338Z" fill="#FF8200"/>
<path d="M92.3214 26.8698C96.6655 31.4769 100.782 36.2786 104.671 41.2749C105.307 42.0875 106.427 40.9475 105.804 40.1468C101.912 35.1505 97.7936 30.3475 93.4495 25.7378C92.7434 24.9883 91.6153 26.1322 92.3214 26.8698Z" fill="#FF8200"/>
<path d="M80.1323 129.702L85.3902 131.319C86.3842 131.623 87.8042 132.443 88.8061 131.883C88.9597 131.795 89.0793 131.659 89.1458 131.495C89.2123 131.331 89.2219 131.15 89.1729 130.98C89.1341 130.803 89.0442 130.642 88.9144 130.517C88.7846 130.391 88.6208 130.307 88.4432 130.274C88.2395 130.224 88.0245 130.254 87.842 130.357C87.6596 130.461 87.5233 130.63 87.4611 130.83L87.4256 130.913C87.0311 131.867 88.6089 132.281 88.9678 131.339L88.9994 131.256L88.0172 131.816L88.1513 131.848L87.5952 131.287L87.6307 131.406L87.9975 130.503C88.3525 130.503 88.2105 130.439 87.5676 130.317L86.3842 129.958L84.6289 129.418L80.5504 128.16C79.5643 127.86 79.1462 129.402 80.1284 129.702H80.1323Z" fill="#FF8200"/>
<path d="M79.7066 107.83C90.7274 113.457 101.89 118.79 113.195 123.828C114.126 124.247 114.938 122.87 113.984 122.452C102.676 117.411 91.5137 112.077 80.4955 106.449C79.5804 105.984 78.7718 107.36 79.7066 107.83Z" fill="#0536FC"/>
<path d="M80.3806 87.3458C85.4808 90.8681 91.3935 93.2624 96.9473 95.9565L114.394 104.409C115.313 104.859 116.125 103.479 115.182 103.033L97.7362 94.5759C92.1706 91.8819 86.2618 89.4915 81.1695 85.9652C80.3214 85.3775 79.5207 86.7541 80.3806 87.3458Z" fill="#FF8200"/>
<path d="M80.1867 69.7583C91.4639 75.4659 102.69 81.3115 114.109 86.7194C115.036 87.1572 115.848 85.7806 114.918 85.3388C103.479 79.931 92.2686 74.0853 80.9954 68.3777C80.0803 67.9123 79.2677 69.2928 80.1867 69.7583Z" fill="#0536FC"/>
<path d="M81.2478 52.7965C91.4008 60.2909 102.713 66.464 114.109 71.8757C115.036 72.3175 115.845 70.937 114.918 70.4952C103.522 65.0834 92.2055 58.9262 82.0564 51.4159C81.2281 50.8046 80.4313 52.2048 81.2675 52.7965H81.2478Z" fill="#FF8200"/>
<path d="M93.1011 46.5164C100.54 49.4984 107.451 54.7445 114.109 59.1386C114.969 59.7105 115.77 58.326 114.918 57.758C108.129 53.2614 101.112 47.9995 93.5231 44.9583C92.5686 44.5639 92.1544 46.1417 93.1011 46.5006V46.5164Z" fill="#0536FC"/>
<path d="M106.39 41.9851C108.62 43.4577 110.841 44.9408 113.052 46.4344C113.904 47.0143 114.705 45.6455 113.841 45.0578C111.627 43.5589 109.408 42.0745 107.183 40.6045C106.319 40.0326 105.518 41.4171 106.394 41.9851H106.39Z" fill="#FF8200"/>
<path d="M116.446 124.363C116.333 95.2687 116.03 66.1732 115.539 37.0764C115.54 36.847 115.48 36.6214 115.366 36.4225C115.252 36.2237 115.087 36.0587 114.888 35.9443L92.9211 25.5981L79.6362 19.3422C78.1571 18.644 77.1749 17.9932 75.6168 18.1155C72.7926 18.3403 69.2741 20.423 66.6314 21.3854L51.0942 27.0338L29.3603 34.9227C29.0889 35.0088 28.8508 35.1766 28.6785 35.4033C28.5062 35.63 28.4082 35.9044 28.3979 36.1889C25.2423 66.8096 21.3452 97.4579 19.8857 128.224C19.8938 128.57 20.0349 128.899 20.2796 129.143C20.5243 129.387 20.8538 129.527 21.1993 129.534L74.7766 134.591C80.3304 135.111 84.2433 133.841 89.7655 132.39L115.483 125.625C117.116 125.199 116.422 122.663 114.785 123.097L90.0653 129.597C86.6415 130.496 82.8864 132.047 79.3561 132.413C78.9341 132.457 75.4669 132.019 74.1022 131.901L21.1993 126.923L22.5128 128.236C23.8657 99.6865 27.3881 71.251 30.3346 42.8353C30.4292 41.9478 30.2833 37.4314 30.3346 37.3643C30.5791 37.0724 31.4114 37.033 31.7309 36.8555C33.7584 35.7353 36.4011 35.1594 38.5706 34.3705L57.5947 27.452L74.0706 21.4603C74.8595 21.1763 77.7547 20.6281 75.7233 20.3874C76.9067 20.5294 78.4174 21.6576 79.4981 22.1664L97.1495 30.4813L106.052 34.6703C107.725 35.4592 111.022 36.2914 112.363 37.6365C112.612 37.8889 113.345 37.8929 113.547 38.1887C113.519 38.1453 113.034 43.3165 113.042 43.7859L113.148 50.4914C113.272 58.6985 113.378 66.9056 113.468 75.1126C113.652 91.5241 113.775 107.937 113.838 124.351C113.827 126.055 116.446 126.059 116.446 124.363Z" fill="#1B1B1B"/>
<path d="M78.6261 52.2911C78.5709 79.4367 78.279 106.582 78.2317 133.732C78.2317 135.42 80.8548 135.424 80.8587 133.732C80.9179 106.582 81.2058 79.4367 81.2531 52.2911C81.2531 50.6029 78.6301 50.5989 78.6261 52.2911Z" fill="#1B1B1B"/>
<path d="M29.3603 37.4724C45.3432 42.5726 61.2669 47.9409 77.3287 52.7808C81.9713 54.1771 87.2568 50.2445 91.5287 48.4419L115.195 38.4033C116.745 37.7446 115.408 35.4844 113.87 36.1352L91.2013 45.7478C87.6 47.2743 83.7305 48.5523 80.2752 50.3825C78.7881 51.1714 79.1471 50.6863 79.6244 50.7533C78.7763 50.635 77.873 50.1932 77.0605 49.9368L30.0742 34.948C28.461 34.4312 27.7707 36.9675 29.3761 37.4803L29.3603 37.4724Z" fill="#1B1B1B"/>
<path d="M55.0704 44.1181C52.1462 72.5549 50.27 101.068 49.4417 129.657C49.3904 131.345 52.0174 131.345 52.0647 129.657C52.8931 101.078 54.7693 72.5654 57.6935 44.1181C57.867 42.4378 55.24 42.4496 55.0704 44.1181Z" fill="#1B1B1B"/>
<path d="M97.4492 44.8589C97.1178 72.3096 97.2848 99.7563 97.9501 127.199C97.9896 128.883 100.617 128.891 100.573 127.199C99.9105 99.759 99.7435 72.3122 100.072 44.8589C100.096 43.1707 97.4689 43.1707 97.4492 44.8589Z" fill="#1B1B1B"/>
<path d="M77.9242 31.2477C71.3212 25.8715 60.0993 19.3789 57.8312 10.5039C56.3271 6.22816 58.7989 4.30854 65.2468 4.74506C66.3403 5.84912 67.2809 7.09484 68.0434 8.4489C69.0682 10.1095 69.9776 11.8386 70.765 13.624C73.3457 19.3582 74.9457 25.4849 75.4984 31.7487L76.8079 30.4352C72.6461 29.9433 68.5216 29.1751 64.4618 28.1356C58.9396 26.7471 50.1632 24.7394 47.1773 19.2764C44.8856 15.0795 48.6604 8.92618 53.3898 9.02085C57.6892 9.10368 61.9532 12.7365 64.8287 15.6199C69.562 20.4045 73.041 26.7195 76.733 32.3206C76.8366 32.4915 76.9774 32.6369 77.145 32.7459C77.3125 32.8548 77.5025 32.9246 77.7008 32.95C77.899 32.9754 78.1004 32.9558 78.29 32.8926C78.4797 32.8293 78.6526 32.7242 78.796 32.5849C82.4485 28.7233 103.102 5.459 92.0769 1.74729C87.2173 0.114288 82.6852 5.03695 80.5512 8.78811C76.6896 15.5765 75.6877 24.1201 75.5496 31.7881C75.522 33.4764 78.149 33.4764 78.1767 31.7881C78.2713 26.4395 78.8709 21.0711 80.4684 15.9433C81.049 13.9219 81.8424 11.9676 82.8351 10.1134C83.5574 8.78001 84.4717 7.55998 85.5488 6.49245C87.0582 4.22571 88.5611 4.20073 90.0573 6.4175C92.7343 7.30894 93.0327 8.81045 90.9527 10.922C90.3847 12.0554 89.793 13.1743 89.1777 14.2788C88.2521 15.9354 87.2673 17.5592 86.2233 19.1502C83.4815 23.2766 80.3796 27.152 76.9539 30.731L79.0168 30.9953C74.1533 23.6192 69.6093 15.2175 62.2648 9.99116C55.3738 5.09217 44.8185 5.14739 43.8758 15.8605C42.7279 28.9166 67.9724 32.0603 76.8434 33.0622C77.1911 33.0622 77.5246 32.9243 77.7708 32.6789C78.0171 32.4334 78.1559 32.1003 78.157 31.7526C77.514 25.0471 70.6625 -7.02515 57.8588 1.40017C52.9953 4.59517 54.9675 11.849 57.4091 15.8565C61.748 22.9565 69.7947 27.9581 76.1177 33.1056C77.4193 34.1627 79.2732 32.3167 77.9755 31.2517L77.9242 31.2477Z" fill="#1B1B1B"/>
<path d="M88.953 22.6202C77.0132 26.7934 65.6374 33.4201 54.9322 40.0862C53.1848 41.1709 51.5597 41.8336 50.8536 43.7387C49.9543 46.1606 50.3211 49.6791 50.1831 52.2035C48.7473 78.292 48.2543 104.44 47.4772 130.548C47.4299 132.24 50.0529 132.236 50.1042 130.548C50.8339 106.061 51.4177 81.562 52.5616 57.0907C52.7351 53.4302 53.0192 49.7777 53.2085 46.1172C53.3465 43.435 53.8435 43.8413 56.6401 42.1136C67.0495 35.6921 78.0742 29.1995 89.6512 25.1525C91.2289 24.6003 90.5545 22.064 88.953 22.6202Z" fill="#1B1B1B"/>
<path d="M62.5135 25.2404C72.5924 28.2858 82.3015 32.4425 91.4617 37.6338C92.6924 38.3359 95.6862 39.606 96.5895 40.7065C98.5617 43.1127 97.1812 46.1026 96.8104 48.6862C96.0925 53.6956 95.915 58.7958 95.5837 63.8446C94.1637 85.5391 93.0277 107.233 94.0059 128.928C94.0808 130.608 96.7078 130.62 96.629 128.928C95.5206 104.295 96.9248 79.5553 98.7984 54.9894C98.9986 51.5875 99.4615 48.2063 100.183 44.8758C100.431 43.8305 101.26 42.0082 100.822 40.8643C99.8555 38.3399 94.9328 36.5767 92.7831 35.3421C83.4188 30.0451 73.4974 25.8 63.1998 22.6844C61.5786 22.1874 60.8883 24.7197 62.5016 25.2167L62.5135 25.2404Z" fill="#1B1B1B"/>
<path d="M56.4352 44.6585C67.2627 37.953 78.8002 32.6319 90.389 27.3898C91.9273 26.6916 90.5941 24.4314 89.0637 25.1217C77.4749 30.3639 65.9374 35.681 55.1099 42.3905C53.6741 43.2819 54.9916 45.546 56.4352 44.6585Z" fill="#1B1B1B"/>
<path d="M59.1209 26.601C72.2125 31.645 84.8558 37.7832 96.9165 44.9506C98.372 45.8184 99.6776 43.5464 98.2419 42.6865C85.9814 35.4097 73.128 29.1816 59.819 24.0687C58.2412 23.4613 57.5549 26.0015 59.1209 26.601Z" fill="#1B1B1B"/>
<path d="M74.2405 30.719C74.4929 27.3347 73.8815 24.3724 73.3412 21.067C72.856 18.1126 72.4339 15.2766 72.9467 12.2946C73.2097 11.1112 73.5213 9.94368 73.8815 8.7919C74.1445 6.22013 75.5908 5.20377 78.2204 5.74285C80.8685 4.28603 82.2201 4.95264 82.2753 7.74267C82.4879 9.03597 82.5908 10.3449 82.583 11.6556C82.6184 14.0284 82.3895 16.3978 81.9006 18.7201C80.9266 23.1773 79.0821 27.3983 76.4731 31.1411C75.5264 32.5453 77.8023 33.8628 78.7411 32.4664C82.729 26.5498 85.135 19.7732 85.2218 12.5904C85.2691 8.52763 84.9378 2.4808 80.1414 1.28169C75.6289 0.153578 72.6154 4.37412 71.3374 8.09373C68.6157 16.0181 72.1815 22.7513 71.5859 30.719C71.4597 32.4033 74.0867 32.3954 74.2129 30.719H74.2405Z" fill="#1B1B1B"/>
<path d="M76.6267 32.1299C78.2045 23.4206 89.249 10.1199 99.4532 12.6838C105.465 14.1906 105.812 20.3518 102.08 24.3357C99.8398 26.7023 96.6882 27.791 93.5878 28.4655C88.5508 29.57 83.4033 29.5187 78.3938 30.8322C76.7608 31.2582 77.4511 33.7905 79.092 33.3645C87.1387 31.27 97.6309 32.7689 103.942 26.2014C107.638 22.3516 108.742 15.6698 104.273 11.8791C99.4769 7.81243 91.6511 10.4513 87.044 13.4569C80.8118 17.5 75.4513 24.0556 74.1023 31.4633C73.8025 33.116 76.3309 33.8299 76.6346 32.1614L76.6267 32.1299Z" fill="#1B1B1B"/>
</g>
<defs>
<clipPath id="clip0_217_4319">
<rect width="135" height="135" fill="white" transform="translate(0.666016)"/>
</clipPath>
</defs>
</svg>
