<svg width="404" height="411" viewBox="0 0 404 411" fill="none" xmlns="http://www.w3.org/2000/svg">
<g clip-path="url(#clip0_626_904)">
<path fill-rule="evenodd" clip-rule="evenodd" d="M190.018 4.63168C191.302 3.34506 189.59 3.34506 190.018 1.20071C184.454 -0.0858977 169.048 -0.943638 169.476 7.63377C174.611 11.0647 186.594 8.92038 190.018 4.63168Z" fill="#FFFF00"/>
<path fill-rule="evenodd" clip-rule="evenodd" d="M75.7508 26.5034C82.1703 22.2147 94.1533 22.6436 95.4372 13.2085C94.1533 11.493 91.1575 11.493 90.3016 11.9219C80.0304 16.2106 62.9118 22.2147 59.916 32.9365C60.7719 33.7942 61.6279 34.652 62.4838 35.5097C68.4753 35.0809 70.6152 29.5055 75.7508 26.5034Z" fill="#FFFF00"/>
<path fill-rule="evenodd" clip-rule="evenodd" d="M66.3357 60.8128C74.4671 54.8086 83.8823 49.2333 92.0137 43.658C95.8654 41.0848 100.145 37.6538 104.425 35.0806C108.704 32.9363 116.408 32.0785 116.408 25.2166C114.268 21.7856 111.272 23.5011 109.988 24.3589C103.141 28.6476 92.8696 32.9363 84.3103 39.7982C76.1789 45.8024 66.3357 50.9488 59.9162 56.5241C56.4925 59.5262 50.9289 64.6727 54.7806 69.8191C60.3442 69.3902 62.484 63.8149 66.3357 60.8128Z" fill="#FFFF00"/>
<path fill-rule="evenodd" clip-rule="evenodd" d="M380.891 318.136C378.323 319.852 377.039 325.856 374.899 328.858C370.191 334.862 363.344 338.293 362.916 344.726C363.772 345.155 364.628 345.584 365.056 346.871C371.475 345.584 374.043 340.866 378.751 335.72C380.463 334.005 389.022 322.854 388.594 320.281C388.166 316.85 383.458 316.421 380.891 318.136Z" fill="#FFFF00"/>
<path fill-rule="evenodd" clip-rule="evenodd" d="M52.6406 336.149C50.9288 334.005 47.933 324.141 44.0813 324.141C35.9499 324.141 44.5093 338.293 46.6491 341.295C49.6449 345.155 54.7804 348.586 59.0601 353.304C67.1915 361.881 77.4627 368.743 86.022 376.463C90.3016 380.323 96.2932 387.185 100.573 380.323C87.3059 364.883 63.7677 352.017 52.6406 336.149Z" fill="#FFFF00"/>
<path fill-rule="evenodd" clip-rule="evenodd" d="M54.3515 365.312C40.6566 353.732 34.2371 339.151 23.11 327.571C20.5422 327.142 19.6862 328.858 18.4023 330.144C19.6862 336.148 23.9659 340.437 26.9617 344.726C33.8091 354.161 40.2286 364.025 49.2159 371.745C51.7837 373.889 64.1947 385.04 65.0506 376.462C65.9066 373.46 55.6354 366.169 54.3515 365.312Z" fill="#FFFF00"/>
<path fill-rule="evenodd" clip-rule="evenodd" d="M284.598 386.326C281.175 386.755 278.179 389.757 274.755 391.043C263.628 394.903 249.077 400.479 239.662 402.194C233.671 403.052 228.963 400.907 228.963 406.054C228.963 415.918 252.073 405.625 254.641 404.767C261.488 402.623 290.59 395.761 289.734 388.899C289.306 385.897 286.738 386.326 284.598 386.326Z" fill="#FFFF00"/>
<path fill-rule="evenodd" clip-rule="evenodd" d="M404.001 148.732C399.721 148.303 398.009 151.734 394.157 153.878C388.166 157.738 380.462 159.883 371.903 161.169C368.479 161.598 364.628 161.598 360.776 162.027C356.496 152.592 349.649 145.73 347.081 135.008C348.365 133.722 349.649 132.864 351.361 132.006C357.352 127.717 363.772 123.858 370.191 120.427C371.475 117.424 372.331 113.994 372.331 110.991C371.475 103.272 345.369 72.822 338.094 66.3889C337.666 65.9601 336.81 65.5312 336.382 64.6735C335.954 65.5312 335.098 65.9601 334.242 66.3889C334.67 65.5312 335.098 64.6735 335.526 64.2446C333.814 62.958 332.102 61.2425 329.535 59.527C329.107 59.9559 329.107 60.3848 328.679 61.2425C327.823 60.3848 327.823 59.0981 327.395 58.2404C325.255 56.5249 323.115 54.8094 320.547 53.5228V53.9517C318.407 53.9517 317.979 52.6651 317.551 51.3785C313.7 48.8053 309.848 46.6609 305.996 45.3743C305.568 45.3743 305.568 45.3743 305.14 45.3743C305.14 45.3743 305.14 45.3743 305.14 44.9454C300.861 43.2299 297.437 43.2299 295.725 45.8032L295.297 46.232C295.297 46.6609 294.869 47.0898 294.869 47.0898C294.441 47.9475 294.013 48.8053 293.157 49.663C286.31 62.1002 277.323 73.2509 264.056 78.8262C259.348 81.3994 255.496 76.6818 253.357 74.1086C251.645 74.1086 249.933 73.6797 248.221 71.5354C248.221 61.2425 248.221 51.3785 249.505 43.2299C249.933 42.8011 249.933 42.8011 250.361 42.3722C251.217 35.5103 252.501 26.504 252.501 26.504C251.645 27.7906 250.789 29.0772 249.933 30.3638C249.505 19.6421 232.814 19.6421 222.115 18.3555C203.285 16.64 178.463 20.9287 163.484 18.3555C151.501 23.073 164.768 55.6672 161.344 69.8199C146.793 73.6797 133.526 78.8262 120.259 84.4015C118.119 78.8262 109.988 71.1065 106.992 63.8157C105.28 59.9559 105.708 54.3806 103.14 52.6651C96.293 47.5186 89.8735 56.5249 86.0218 60.8136C74.0388 72.822 58.632 80.5417 49.2167 92.1212C43.2252 91.6923 39.8015 93.8366 39.3735 98.1253C37.6616 105.845 45.365 107.56 51.3566 111.849C59.06 117.424 64.6235 128.575 69.7591 131.577C62.0557 141.012 57.7761 154.307 50.5006 164.6C37.2337 162.456 20.543 163.742 5.56418 163.314C-0.427341 166.745 -0.427341 175.322 0.428591 182.613C1.71249 194.621 5.99215 209.203 8.98791 222.498C11.9837 236.222 13.6955 250.803 20.971 258.952C38.9455 256.807 50.0727 247.801 65.0515 242.226C68.9032 256.807 76.1786 268.816 82.1701 281.253C71.8989 288.544 55.2083 294.977 53.0684 309.13C51.3566 320.28 62.0557 322.853 69.7591 329.715C82.1701 340.866 92.4413 347.299 104.852 358.021C110.416 362.738 116.407 372.173 124.111 370.458C127.535 370.029 131.814 363.167 133.526 359.736C138.234 349.443 139.946 334.862 147.221 326.713C162.2 333.575 172.043 345.583 187.45 352.017C189.162 363.167 181.03 387.184 188.306 395.761C190.874 398.763 200.717 399.192 207.564 398.335C227.679 396.619 254.64 387.184 273.043 382.466C279.462 380.751 281.602 381.18 282.886 377.32C284.17 373.46 280.746 370.029 280.318 364.883C279.462 357.592 280.318 350.301 278.179 345.155C285.026 339.579 293.585 335.719 301.289 330.573C308.564 333.146 311.988 338.722 317.979 344.297C321.831 348.157 329.107 358.021 335.098 357.592C339.806 357.163 347.081 346.441 350.505 341.724C356.496 332.717 359.92 324.569 363.772 317.278C366.34 312.989 371.903 308.701 370.191 301.839C368.907 296.692 360.776 294.977 356.924 291.975C352.645 288.115 351.789 283.826 347.509 279.537C353.929 270.96 354.785 256.807 358.636 245.657C371.903 248.23 384.314 251.661 397.153 255.092C396.297 257.665 394.157 260.238 392.874 262.812C397.153 259.809 403.573 255.95 403.145 251.661C403.145 250.803 403.145 249.088 403.145 246.086C402.289 244.799 402.717 243.083 403.145 240.939C403.145 234.935 403.145 226.358 403.573 217.351C403.573 216.922 403.573 216.065 403.573 215.636C403.573 212.634 403.573 209.632 403.573 206.201C403.573 203.199 403.573 200.196 403.573 197.194C403.573 195.908 403.573 194.621 403.573 192.906C404.001 170.604 404.429 150.448 404.001 148.732ZM389.022 238.366C382.174 237.937 377.039 234.935 371.903 233.648C359.92 230.646 349.221 228.931 344.941 240.081C342.374 246.514 342.374 253.805 339.806 262.383C338.094 268.387 331.674 276.964 331.674 281.682C332.102 284.684 335.526 288.115 338.094 291.117C343.229 296.692 346.653 302.268 353.501 306.127C348.365 318.565 340.662 328.858 333.814 339.15C328.679 335.291 324.827 329.286 319.263 324.569C314.556 320.709 306.424 314.705 300.861 314.705C295.297 314.705 292.301 319.422 287.594 322.853C279.462 328 270.903 329.715 264.484 336.577C264.056 349.014 266.624 358.021 267.051 369.6C246.081 375.176 225.111 381.609 201.145 384.182C196.865 372.173 205.424 359.736 202.001 345.583C200.717 340.008 187.45 335.291 181.458 331.86C174.183 327.142 166.907 320.28 161.772 317.278C156.636 314.276 147.221 310.416 142.513 311.274C136.522 312.56 132.242 325.427 130.102 329.715C126.251 337.864 124.111 344.726 121.543 352.017C104.424 337.435 85.5938 324.569 69.3311 309.558C71.8989 296.692 97.1489 296.263 98.4328 282.54C99.2888 273.962 88.5896 264.098 84.7379 253.376C82.5981 248.23 80.4583 242.655 79.6023 238.795C77.8905 231.504 79.6023 225.5 72.3269 224.213C66.7633 223.355 54.7803 231.075 50.5006 232.791C43.6532 235.793 37.2337 238.366 29.9583 242.226C21.3989 223.355 18.8311 199.339 14.1235 177.466C22.2549 177.895 29.9583 177.037 37.2337 177.466C44.0811 177.895 50.5006 180.897 56.4922 179.611C62.4837 178.324 65.0515 167.602 67.6193 162.456C70.1871 157.309 74.4667 148.732 77.4625 144.014C80.8862 139.297 86.0218 136.295 86.0218 131.577C86.0218 125.144 80.8862 123.858 76.6066 120.427C72.7549 116.996 68.4752 110.563 64.1955 105.845C62.0557 103.701 59.4879 103.272 59.4879 101.985C59.0599 97.2676 73.6108 89.5479 77.4625 86.5458C84.31 81.3994 89.0176 75.3952 95.4371 72.822C97.1489 78.3973 101.429 82.2571 104.852 87.4036C107.42 91.2634 110.416 98.9831 115.551 99.8408C124.111 101.556 137.378 92.9789 146.793 89.9768C151.501 88.2613 175.467 83.5437 176.751 77.5396C178.89 63.8157 172.899 49.663 173.327 34.6525C193.869 33.7948 216.124 32.0793 235.382 35.0814C237.522 50.5207 230.246 72.822 236.238 82.2571C238.378 85.6881 247.365 88.2613 250.789 89.5479C255.068 91.2634 261.916 95.1232 267.479 94.6944C273.043 94.2655 278.179 88.6902 283.314 84.8304C291.874 78.3973 297.437 72.3931 303.429 64.2446C303.857 63.3868 304.712 62.5291 305.14 61.6714C313.7 65.5312 320.547 73.6797 328.251 80.1128C335.954 86.5458 342.801 94.2655 350.077 100.699C346.653 105.845 343.229 110.991 339.806 115.709C335.526 122.142 331.674 129.004 328.251 136.295C336.382 150.876 343.657 166.316 351.361 181.326C363.772 181.755 374.043 180.468 383.886 178.324L388.594 184.757C388.166 201.912 389.878 219.067 389.022 238.366Z" fill="#0000FF"/>
<path fill-rule="evenodd" clip-rule="evenodd" d="M284.17 168.888C282.458 166.315 280.746 163.742 278.606 161.169C246.081 122.57 191.729 138.867 188.306 139.725C168.619 144.014 155.78 156.88 145.937 171.033C143.797 174.464 141.229 177.895 139.517 181.754C139.089 182.183 139.089 182.612 138.661 183.041C138.661 183.47 138.234 183.899 138.234 184.328C134.81 191.19 133.098 199.767 133.526 210.06V210.489C133.526 213.92 133.098 217.78 134.81 219.924C135.666 224.213 136.95 228.501 138.234 232.361C138.234 234.077 138.661 236.221 140.373 237.937C153.64 268.386 184.882 288.543 221.687 289.401C222.115 289.401 222.543 289.401 223.399 289.401C216.551 291.116 209.704 292.403 202.856 292.403C199.005 292.403 195.153 291.974 191.729 291.545C182.742 289.83 175.039 285.541 168.619 281.252C166.051 279.537 163.911 278.25 161.344 276.964C154.924 273.533 147.221 269.244 140.801 263.24C137.806 259.809 135.238 256.378 132.67 252.947C119.831 230.217 118.547 199.338 126.678 174.893C129.674 169.317 132.67 165.029 134.81 161.598C136.95 158.167 140.801 155.165 144.225 151.734C147.649 148.303 149.789 144.014 152.784 141.012C154.496 139.296 156.636 138.01 158.776 136.723C170.759 131.577 187.022 128.575 209.704 126.859C233.67 125.144 257.636 134.579 273.899 153.02C277.323 157.738 281.174 163.313 284.17 168.888Z" fill="#0000FF"/>
<path fill-rule="evenodd" clip-rule="evenodd" d="M271.331 204.485C270.903 199.768 270.047 195.479 268.763 191.19C267.48 186.473 265.34 182.184 263.2 177.895C261.488 174.893 259.776 171.891 257.636 169.318C255.069 165.887 252.073 162.885 249.077 160.312C246.509 157.738 243.513 155.594 240.09 153.879C237.522 152.163 234.526 150.876 231.53 149.59C228.535 148.303 225.539 147.445 222.543 146.588C219.547 145.73 216.552 145.301 213.556 144.872C211.416 144.443 208.848 144.443 206.708 144.443C205.852 144.443 204.996 144.443 204.569 144.443C201.573 144.443 199.005 144.872 196.437 145.301C190.446 146.159 184.882 147.874 179.746 150.448C172.899 153.45 166.907 157.738 161.772 162.885C155.352 169.318 150.217 176.609 147.221 185.186C146.365 187.759 145.509 190.332 144.653 193.335C143.797 196.766 143.369 200.197 142.941 204.056C142.941 205.772 142.941 207.487 142.941 209.203C142.941 212.205 142.941 214.778 143.369 217.351C143.797 219.496 143.797 221.64 144.653 224.213C145.509 228.073 146.793 231.933 148.505 235.793C149.789 238.795 151.501 241.368 153.213 243.941C154.924 246.514 156.636 249.088 158.776 251.232C160.06 252.948 161.344 254.234 162.628 255.521C164.768 257.665 166.907 259.381 169.047 261.096C170.331 261.954 172.043 263.24 173.755 264.098C175.895 265.385 178.463 266.671 181.03 267.958C182.742 268.816 184.454 269.674 186.594 270.102C189.162 270.96 191.73 271.818 194.297 272.247C196.437 272.676 198.149 273.104 200.289 273.104C200.717 272.247 201.573 271.818 202.857 271.818C204.141 271.818 204.996 272.676 205.424 273.533C206.28 273.533 206.708 273.533 207.564 273.533C225.111 273.533 240.946 266.671 252.501 255.092C252.929 253.805 253.785 252.948 255.496 252.09C261.916 244.799 266.624 236.222 269.619 226.786C271.331 221.211 272.187 215.207 272.187 208.774C271.759 208.345 271.759 206.201 271.331 204.485ZM164.768 237.937C164.34 237.508 163.912 236.65 163.484 236.222C163.912 236.65 164.34 237.079 164.768 237.937ZM255.069 218.638C252.073 234.506 221.259 259.809 197.721 255.521C195.581 255.092 191.302 252.519 187.45 250.374C184.454 248.659 181.458 246.514 178.035 244.799C167.763 239.653 165.624 236.65 165.196 235.793C152.785 213.92 160.916 178.753 170.331 172.749C175.039 169.747 185.738 166.316 212.272 164.171C213.128 164.171 214.412 164.171 215.268 164.171C226.823 164.171 237.95 169.318 245.653 177.895C252.929 186.044 256.352 196.337 256.352 207.487C256.352 210.918 255.924 214.778 255.069 218.638Z" fill="#0000FF"/>
<path fill-rule="evenodd" clip-rule="evenodd" d="M387.738 183.899L383.03 177.466C373.187 179.61 362.916 180.897 350.505 180.468C342.802 165.457 335.526 150.018 327.395 135.436C330.818 127.717 334.67 121.284 338.95 114.851C342.374 109.704 345.797 104.987 349.221 99.8402C341.946 93.4072 335.098 85.6875 327.395 79.2544C319.691 72.8214 312.844 64.6728 304.285 60.813C303.857 61.6707 303.001 62.5285 302.573 63.3862C296.581 71.5348 291.018 77.5389 282.458 83.972C277.323 87.8318 271.759 93.4071 266.624 93.836C261.06 94.2649 254.64 90.4051 249.933 88.6896C246.509 87.403 237.522 84.8297 235.382 81.3988C229.39 71.9636 237.094 49.6624 234.526 34.223C215.268 31.221 193.013 32.5076 172.471 33.7942C171.615 49.2335 177.607 62.9574 175.895 76.6812C175.039 82.6854 150.645 87.8318 145.937 89.1184C136.95 92.1205 123.255 101.127 114.696 98.9825C109.56 97.6958 106.564 89.9762 103.996 86.5452C100.573 81.3988 96.721 77.5389 94.5811 71.9636C88.1617 74.5369 83.454 80.9699 76.6066 85.6875C72.7549 88.6896 58.632 95.9804 58.632 101.127C58.632 102.413 61.1998 102.842 63.3396 104.987C68.0472 109.704 71.8989 116.137 75.7506 119.568C80.0303 122.999 85.1659 124.286 85.1659 130.719C85.1659 135.865 80.0303 138.439 76.6066 143.156C73.6108 147.874 69.3311 156.88 66.7633 161.598C64.1955 166.744 61.6277 177.466 55.6362 178.752C50.0727 180.039 43.2252 177.037 36.3777 176.608C29.1023 176.179 21.3989 177.037 13.2676 176.608C18.8311 199.338 21.3989 223.355 28.6744 242.654C35.5218 238.794 41.9413 236.65 49.2167 233.219C53.4964 231.503 65.4794 223.784 71.043 224.641C78.3184 225.928 76.6066 231.932 78.3184 239.223C79.1744 243.083 81.7422 248.658 83.454 253.805C87.7337 264.526 98.0049 274.39 97.1489 282.968C95.4371 296.692 70.615 297.549 68.0472 309.987C84.7379 324.997 103.14 337.863 120.259 352.445C122.827 344.725 124.967 338.292 128.818 330.144C130.958 325.426 135.238 312.989 141.229 311.702C145.937 310.844 155.352 314.704 160.488 317.706C165.624 320.708 172.899 327.57 180.174 332.288C185.738 335.719 199.433 340.865 200.717 346.012C204.14 360.164 195.581 372.173 199.861 384.61C223.827 382.037 244.797 375.604 265.768 370.028C265.34 358.449 262.772 349.443 263.2 337.005C270.047 330.144 278.179 328.428 286.31 323.282C291.018 320.28 294.013 315.133 299.577 315.133C305.568 315.133 313.272 321.137 317.979 324.997C323.543 329.715 327.395 335.719 332.53 339.579C339.378 328.857 347.081 318.993 352.217 306.556C345.369 302.267 342.374 297.121 336.81 291.545C334.242 288.543 330.39 285.541 330.39 282.11C329.962 277.392 336.382 269.244 338.522 262.811C341.09 253.805 341.09 246.943 343.657 240.51C347.937 228.93 359.064 231.075 370.619 234.077C375.755 235.363 380.89 237.936 387.738 238.794C389.878 219.066 388.166 201.911 387.738 183.899ZM207.564 274.39C206.708 274.39 205.852 274.39 205.424 274.39C204.996 273.533 204.14 272.675 202.857 272.675C201.573 272.675 200.717 273.104 200.289 273.962C198.149 273.533 196.437 273.533 194.297 273.104C191.729 272.675 189.162 271.817 186.594 270.959C184.882 270.531 182.742 269.673 181.03 268.815C178.463 267.528 176.323 266.242 173.755 264.955C172.043 264.098 170.759 262.811 169.047 261.953C166.907 260.238 164.768 258.522 162.628 256.378C161.344 255.091 160.06 253.805 158.776 252.089C156.636 249.945 154.924 247.372 153.213 244.798C151.501 242.225 149.789 239.223 148.505 236.65C146.793 232.79 145.509 228.93 144.653 225.07C144.225 222.926 143.797 220.782 143.369 218.208C142.941 215.635 142.941 212.633 142.941 210.06C142.941 208.344 142.941 206.629 142.941 204.913C143.369 201.482 143.797 197.623 144.653 194.192C145.509 191.618 146.365 189.045 147.221 186.043C150.645 177.466 155.78 170.175 161.772 163.742C166.907 158.595 172.899 154.307 179.746 151.305C184.882 148.731 190.446 147.016 196.437 146.158C199.005 145.729 202.001 145.3 204.568 145.3C205.424 145.3 206.28 145.3 206.708 145.3C208.848 145.3 211.416 145.3 213.556 145.729C216.551 146.158 219.547 146.587 222.543 147.445C225.539 148.303 228.535 149.16 231.53 150.447C234.526 151.734 237.094 153.02 240.09 154.736C243.085 156.451 246.081 159.024 249.077 161.169C252.073 163.742 255.068 166.744 257.636 170.175C259.776 172.748 261.488 175.75 263.2 178.752C265.34 183.041 267.479 187.33 268.763 192.047C270.047 196.336 270.903 200.625 271.331 205.342C271.331 207.058 271.759 208.773 271.759 210.489C271.759 216.922 270.903 222.926 269.191 228.501C266.624 237.936 261.488 246.514 255.068 253.805C253.785 254.662 252.501 255.52 252.073 256.807C240.518 267.528 224.683 274.39 207.564 274.39ZM174.183 122.141C178.463 121.284 190.446 123.428 190.446 117.424C190.446 116.566 190.446 116.137 190.018 115.28C190.446 115.708 190.446 116.566 190.446 117.424C190.446 123.428 178.463 121.713 174.183 122.141ZM134.382 144.014C121.115 158.167 111.272 176.608 109.132 204.485C108.276 216.064 106.992 232.361 109.132 244.369C109.988 249.945 114.268 256.807 117.263 262.382C114.696 257.236 110.416 250.374 109.132 244.369C106.992 232.361 108.276 216.064 109.132 204.485C111.7 176.608 121.543 158.595 134.382 144.014C138.234 140.154 144.653 138.01 145.081 132.005C144.653 138.439 138.234 140.154 134.382 144.014ZM126.251 175.321C129.246 169.746 132.242 165.028 134.382 162.026C136.522 158.595 140.374 155.593 143.797 152.162C147.221 148.731 149.361 144.443 152.357 141.441C154.068 139.725 156.208 138.439 158.348 137.152C170.331 132.005 186.594 129.003 209.276 127.288C233.242 125.572 257.208 135.008 273.471 153.449C277.751 158.167 281.602 163.742 284.17 169.317C282.458 166.744 280.746 164.171 278.607 161.598C246.081 122.999 191.729 139.296 188.306 140.154C168.619 144.443 155.78 157.309 145.937 171.462C143.797 174.893 141.229 178.323 139.518 182.183C139.09 182.612 139.09 183.041 138.662 183.47C138.662 183.899 138.234 184.328 138.234 184.757C134.81 191.618 133.098 200.196 133.526 210.489V210.918C133.526 214.349 133.098 218.208 134.81 220.353C135.666 224.641 136.95 228.93 138.234 232.79C138.234 234.505 138.662 236.65 140.374 238.365C153.64 268.815 184.882 288.972 221.687 289.83C222.115 289.83 222.543 289.83 223.399 289.83C216.551 291.545 209.704 292.832 202.857 292.832C199.005 292.832 195.153 292.403 191.729 291.974C182.742 290.259 175.039 285.97 168.619 281.681C166.051 279.966 163.912 278.679 161.344 277.393C154.924 273.962 147.221 269.673 140.801 263.669C137.806 260.238 135.238 256.807 132.67 253.376C119.403 230.646 118.547 199.767 126.251 175.321ZM146.365 289.401C143.369 288.972 141.657 288.114 140.801 287.257C141.657 287.685 143.369 288.543 146.365 289.401ZM206.708 314.275C188.734 312.56 171.187 304.84 159.204 298.836C170.759 305.269 188.306 312.989 206.708 314.275C216.124 315.133 235.382 316.849 237.094 309.129C235.382 317.277 216.124 315.133 206.708 314.275Z" fill="#FE8302"/>
<path fill-rule="evenodd" clip-rule="evenodd" d="M164.768 237.936C164.34 237.078 163.912 236.65 163.484 236.221C163.912 236.65 164.34 237.507 164.768 237.936Z" fill="#FE8302"/>
</g>
<defs>
<clipPath id="clip0_626_904">
<rect width="404" height="410" fill="white" transform="translate(0 0.341797)"/>
</clipPath>
</defs>
</svg>
