<svg width="32" height="33" viewBox="0 0 32 33" fill="none" xmlns="http://www.w3.org/2000/svg">
<path d="M16.525 8.58049C14.1682 6.18109 10.3995 5.41995 7.37039 6.638C4.03825 7.97915 6.02361 12.2725 7.70708 14.2375C7.81379 14.35 7.95851 14.4133 8.10942 14.4133C8.26033 14.4133 8.40506 14.35 8.51177 14.2375C10.5914 11.9422 13.001 9.85772 16.1222 9.60558C16.8494 9.5464 16.8539 8.34374 16.1222 8.40411C12.6834 8.68583 10.0134 10.8402 7.70483 13.3888H8.50952C7.48148 12.1849 6.73629 10.9396 6.7318 9.28125C6.7318 7.65718 8.48372 7.40149 9.72611 7.25708C11.7811 7.02034 14.2299 7.91642 15.717 9.4304C16.2456 9.96781 17.0514 9.11908 16.5217 8.58049H16.525Z" fill="#0536FC"/>
<path d="M9.68559 7.09862C9.71844 6.73982 9.75128 5.96953 10.269 5.92563C10.7867 5.88172 11.2979 6.24679 11.6921 6.48766C12.5872 7.05313 13.375 7.75991 14.0218 8.57773C14.5342 9.22382 15.6931 8.59027 15.1728 7.9354C14.1939 6.70093 12.8392 5.39495 11.2887 4.84797C9.44907 4.19686 8.49513 5.46521 8.35059 7.09862C8.27701 7.91783 9.61201 7.91156 9.68427 7.09862H9.68559Z" fill="#0536FC"/>
<path d="M10.7594 5.17971C11.8903 3.76421 13.9999 3.27492 15.776 3.1261C17.552 2.97729 18.1064 5.64994 18.229 6.87734C18.3051 7.6464 19.5512 7.65355 19.474 6.87734C19.2814 4.93922 18.651 2.85943 16.6603 2.04394C15.6791 1.64037 14.2943 2.14156 13.3315 2.36299C11.9823 2.67252 10.7422 3.24634 9.88244 4.32493C9.39182 4.93327 10.2713 5.79519 10.7619 5.17971H10.7594Z" fill="#0536FC"/>
<path d="M17.7142 9.73091C19.8974 6.97342 22.5908 6.46828 25.3749 8.54494C26.4246 9.32704 26.9046 9.53813 26.2701 10.8205C25.8225 11.7124 25.282 12.6409 24.6252 13.3608H25.4286C22.9869 11.0584 20.6437 8.76701 17.2442 8.67306C16.5112 8.65354 16.5135 9.89319 17.2442 9.91271C20.3259 9.9969 22.4263 12.1626 24.6297 14.2368C24.7376 14.35 24.8816 14.4133 25.0314 14.4133C25.1812 14.4133 25.3251 14.35 25.4331 14.2368C26.3899 13.1722 27.1498 11.9166 27.6711 10.5386C28.112 9.32705 27.5592 8.75968 26.6551 8.02639C23.2981 5.31648 19.7709 5.25426 16.9197 8.85486C16.4441 9.45638 17.2431 10.3373 17.7231 9.73091H17.7142Z" fill="#0536FC"/>
<path d="M17.8569 8.31853C17.8306 6.8512 19.7068 5.72357 20.8452 5.02464C22.8483 3.79608 24.1182 4.61223 25.4556 6.17072C25.5414 5.86358 25.626 5.55644 25.7118 5.2493C24.7314 5.5445 23.8448 5.94389 23.203 6.72747C22.7454 7.28098 23.5656 8.06673 24.0244 7.50672C24.5461 6.86965 25.221 6.55274 26.0207 6.31289C26.4657 6.17831 26.5527 5.71272 26.277 5.39147C24.6753 3.52476 22.9845 2.59683 20.6038 3.87205C18.9483 4.76091 16.658 6.30095 16.6958 8.31527C16.7095 9.02505 17.8707 9.02722 17.8569 8.31527V8.31853Z" fill="#0536FC"/>
<path d="M25.9269 5.60167C26.0098 5.98494 25.9902 6.37748 25.8692 6.75453C25.7482 7.13157 25.5285 7.48494 25.2239 7.79235C24.5006 8.55389 26.1323 9.28363 26.8445 8.53221C27.788 7.53802 27.9638 6.408 27.7362 5.20861C27.6604 4.81267 27.0295 4.60025 26.5818 4.69707C26.0435 4.81267 25.8418 5.20428 25.9269 5.60022V5.60167Z" fill="#0536FC"/>
<path d="M8.43781 14.8742C10.4539 18.311 16.2485 11.2023 17.8258 10.0269C18.4461 9.56394 17.846 8.4951 17.2186 8.96408C16.2023 9.7239 10.429 15.8715 9.47789 14.2562C9.07941 13.5775 8.03695 14.1956 8.43781 14.8778V14.8742Z" fill="#0536FC"/>
<path d="M17.1889 9.95412C18.7666 10.1079 19.8062 12.6933 20.9348 13.6822C22.1749 14.7653 23.5951 14.5682 24.8229 13.5901C25.3499 13.1677 24.8332 12.2124 24.2991 12.6413C21.1619 15.1585 20.0681 9.13528 17.193 8.85042C16.5269 8.78544 16.532 9.88588 17.193 9.94978L17.1889 9.95412Z" fill="#0536FC"/>
<path d="M5.14259 8.89782C3.86355 9.4271 2.52351 10.4306 2.82524 11.9242C3.15804 13.5925 6.29961 14.1006 7.6441 14.397C8.35073 14.5526 8.65135 13.5163 7.94361 13.3607C6.68787 13.0833 5.17809 12.8198 4.17194 11.9941C3.1192 11.1293 5.02058 10.113 5.70946 9.82617C6.37505 9.54989 5.80041 8.62365 5.14148 8.89782H5.14259Z" fill="#0536FC"/>
<path d="M24.2355 14.4131C25.6576 14.3904 27.2112 14.3117 28.3774 13.3926C28.8633 13.0099 29.2863 12.558 29.2069 11.8892C29.105 11.0177 28.2446 10.4848 27.4803 10.2654C26.7336 10.0509 26.4137 11.2192 27.1615 11.4326C27.5466 11.5435 28.2589 11.8844 27.7825 12.322C27.5862 12.4964 27.3678 12.644 27.133 12.7607C26.2774 13.2066 25.1658 13.1875 24.2331 13.203C23.458 13.2161 23.4569 14.4262 24.2331 14.4131H24.2355Z" fill="#0536FC"/>
<path d="M19.9956 21.3696C22.6896 21.2719 26.5704 21.4483 28.8181 19.4031C29.3306 18.9383 29.0617 16.5428 29.0859 15.8778C29.1286 14.6566 29.172 13.4358 29.2161 12.2154C29.2445 11.4348 28.1774 11.4372 28.1501 12.2154L27.9306 18.3818C27.8665 20.1802 21.0732 20.1206 19.9935 20.1599C19.3066 20.185 19.3045 21.3946 19.9935 21.3696H19.9956Z" fill="#0536FC"/>
<path d="M2.92821 12.1818C2.91057 13.7777 2.79295 15.3691 2.79178 16.9651C2.79178 17.5745 2.6659 19.258 3.32811 19.6496C5.75467 21.0885 9.1869 21.1625 11.9475 21.3679C12.7156 21.4251 12.7097 20.2849 11.9475 20.2288C9.47743 20.0447 6.76506 19.8999 4.45495 18.9471C3.26696 18.4577 4.11031 13.3119 4.12324 12.1818C4.1303 11.4467 2.93644 11.4478 2.92821 12.1818Z" fill="#0536FC"/>
<path d="M2.78223 19.138C2.83331 20.9283 2.88168 22.719 2.92734 24.5101C2.95404 25.5915 2.68239 27.0018 3.37083 27.9435C5.68573 31.1088 12.2276 30.9962 15.6279 31.0717C19.3522 31.1562 25.9672 31.36 28.6989 28.1677C29.356 27.3983 29.2016 26.5062 29.2004 25.5644C29.2004 23.6067 29.2024 21.6493 29.2062 19.6922C29.2062 18.9544 28.0279 18.9544 28.0267 19.6922C28.0267 21.038 28.0267 22.3845 28.0267 23.7317C28.0267 24.6531 28.3913 26.3732 27.9513 27.2237C27.4277 28.2375 25.8616 28.6994 24.8643 29.0114C22.2012 29.8427 19.2919 29.9126 16.523 29.9373C13.63 29.9599 10.6975 29.756 7.88917 29.0587C6.68296 28.7602 5.05882 28.2781 4.29028 27.2327C3.73187 26.4679 4.10685 24.4414 4.08363 23.5537C4.04648 22.0826 4.00778 20.6114 3.96753 19.1403C3.94548 18.4036 2.76714 18.4013 2.78804 19.1403L2.78223 19.138Z" fill="#0536FC"/>
<path d="M11.1308 14.9593C11.4101 20.1472 11.3881 25.3664 11.227 30.5621C11.2039 31.2921 12.3856 31.2898 12.403 30.5621C12.564 25.3708 12.586 20.1517 12.3068 14.9593C12.2686 14.2327 11.0915 14.2293 11.1308 14.9593Z" fill="#0536FC"/>
<path d="M18.1908 12.2082C18.1908 18.32 18.0932 24.4235 18.0869 30.5317C18.0869 31.3016 19.373 31.3016 19.3743 30.5317C19.3743 24.42 19.4719 18.3153 19.4782 12.2082C19.4782 11.4384 18.1921 11.4384 18.1908 12.2082Z" fill="#0536FC"/>
<path d="M19.7794 14.3249C20.1374 14.4348 20.5196 14.4147 20.8832 14.4076C21.229 14.3994 21.6621 14.4265 21.9869 14.228C22.4717 13.9349 22.2568 12.773 21.7687 13.0709C21.5029 13.2328 21.1652 13.1973 20.8799 13.2068C20.5947 13.2163 20.2036 13.2316 19.9911 13.1678C19.4756 13.0094 19.255 14.1665 19.773 14.3249H19.7794Z" fill="#0536FC"/>
<path d="M15.3624 10.8585C16.0316 12.0393 17.7788 12.4138 18.8762 12.9756C19.3324 13.2097 19.7335 12.4903 19.2751 12.2551C18.7345 11.981 18.1831 11.7526 17.6393 11.498C17.1301 11.2593 16.3419 10.9693 16.0457 10.4372C15.784 9.98039 15.1007 10.396 15.3624 10.8585Z" fill="#0536FC"/>
<path d="M14.2259 13.5226C14.4055 13.539 14.8652 13.7952 15.0843 13.8947C15.4516 14.061 15.8152 14.2355 16.1977 14.3833C16.5802 14.5312 16.9053 14.0998 16.5282 13.9533C16.0792 13.7802 15.6599 13.5744 15.2298 13.3809C14.9254 13.2446 14.5869 13.0572 14.2259 13.0245C13.8066 12.987 13.8111 13.4858 14.2259 13.5226Z" fill="#0536FC"/>
<path d="M12.6296 27.7041C13.6454 28.9375 14.7989 30.0508 16.0676 31.0222C16.5178 31.3667 16.9536 30.6032 16.5106 30.2647C15.307 29.331 14.2132 28.2638 13.2502 27.0834C12.8901 26.6477 12.2707 27.2719 12.6296 27.7041Z" fill="#0536FC"/>
<path d="M12.6652 23.4131C15.009 25.2048 16.7454 27.5128 18.7639 29.5916C19.131 29.9691 19.7291 29.411 19.3644 29.0356C17.3446 26.9568 15.6095 24.6478 13.2657 22.8582C12.8464 22.5356 12.2424 23.0905 12.6652 23.4131Z" fill="#0536FC"/>
<path d="M12.6246 19.3603C14.6139 21.9011 16.5398 24.4976 18.7662 26.8073C19.1506 27.2053 19.737 26.5798 19.3525 26.1817C17.1261 23.8733 15.2003 21.2708 13.2109 18.7348C12.8707 18.298 12.2832 18.926 12.6246 19.3603Z" fill="#0536FC"/>
<path d="M12.6469 16.4931C13.9026 17.683 15.317 18.7783 16.3921 20.1222C17.1442 21.0635 17.8295 22.0104 18.8656 22.69C19.3129 22.9848 19.7326 22.2875 19.2899 21.9961C18.1503 21.2472 17.4397 20.0837 16.5888 19.0686C15.624 17.9183 14.3361 16.9604 13.2414 15.9223C12.855 15.5572 12.2605 16.1257 12.6469 16.4909V16.4931Z" fill="#0536FC"/>
<path d="M15.4042 15.2352C16.5021 16.7872 17.8608 18.0151 18.7946 19.7678C19.0603 20.2663 19.6796 19.7875 19.4119 19.2837C18.4351 17.4562 17.053 16.1745 15.9092 14.5609C15.5917 14.1109 15.0877 14.7905 15.4042 15.2378V15.2352Z" fill="#0536FC"/>
<path d="M18.1251 14.8587C18.3301 15.2275 18.6368 15.5381 19.0132 15.7581C19.3571 15.9596 19.6735 15.4495 19.3304 15.2496C19.0478 15.0802 18.8189 14.8428 18.6676 14.5621C18.4819 14.2237 17.9394 14.5218 18.1251 14.8587Z" fill="#0536FC"/>
<path d="M6.16758 22.7607C6.16758 22.7607 6.19215 22.8378 6.22205 22.9697C6.25196 23.1016 6.26478 23.2965 6.31284 23.4926C6.33313 23.593 6.35447 23.698 6.36835 23.8042C6.38224 23.9104 6.41215 24.0377 6.4271 24.1544C6.44205 24.2711 6.45273 24.3948 6.4805 24.515C6.50827 24.6353 6.51895 24.7578 6.53497 24.8815C6.55099 25.0053 6.58518 25.115 6.60013 25.241C6.61526 25.3591 6.637 25.4761 6.66526 25.5912C6.6909 25.7021 6.69624 25.8246 6.72508 25.925C6.75391 26.0254 6.77315 26.1316 6.79131 26.232C6.82121 26.4374 6.88955 26.5822 6.91198 26.7211C6.93441 26.86 6.95576 26.9347 6.95576 26.9347C6.89335 26.914 6.83233 26.8887 6.77313 26.8588C6.70309 26.8243 6.63498 26.7853 6.56915 26.7421C6.48084 26.6934 6.40126 26.6278 6.3342 26.5483C6.24848 26.4615 6.16684 26.3699 6.08962 26.274C6.00993 26.1625 5.9402 26.0429 5.88136 25.9169C5.74888 25.6481 5.65486 25.3588 5.6026 25.059C5.58765 24.9061 5.57269 24.752 5.56735 24.6014C5.55969 24.4539 5.56724 24.3059 5.5898 24.1602C5.60248 24.0228 5.62605 23.8869 5.66028 23.754C5.69444 23.6328 5.73438 23.5136 5.77991 23.3969C5.84292 23.2273 5.93014 23.0697 6.03836 22.93C6.11419 22.8191 6.16758 22.7607 6.16758 22.7607Z" fill="#0536FC"/>
<path d="M9.73866 27.8196C9.58686 27.9555 9.40312 28.0717 9.19554 28.1631C9.01812 28.2438 8.8182 28.2963 8.60953 28.3169C8.40086 28.3376 8.18838 28.3259 7.98663 28.2828C7.75594 28.2295 7.54493 28.1403 7.36903 28.0217C7.1956 27.9067 7.07054 27.7598 7.00769 27.5973C6.95043 27.4723 6.94058 27.3388 6.97919 27.2103C6.99182 27.1569 7.01314 27.1047 7.04271 27.0548L7.27706 27.0362C7.41722 27.0222 7.55958 27.016 7.71507 26.9895C7.98392 26.9266 8.27229 26.9185 8.54729 26.9662C8.86657 27.0467 9.14535 27.1921 9.34883 27.3844C9.50798 27.5152 9.63932 27.6618 9.73866 27.8196Z" fill="#0536FC"/>
</svg>
