<svg width="21" height="21" viewBox="0 0 21 21" fill="none" xmlns="http://www.w3.org/2000/svg">
<path fill-rule="evenodd" clip-rule="evenodd" d="M20.3002 10.8775C20.3002 10.1684 20.2366 9.48658 20.1184 8.83203H10.7002V12.7002H16.082C15.8502 13.9502 15.1457 15.0093 14.0866 15.7184V18.2275H17.3184C19.2093 16.4866 20.3002 13.923 20.3002 10.8775Z" fill="#4285F4"/>
<path fill-rule="evenodd" clip-rule="evenodd" d="M10.7001 20.6508C13.4001 20.6508 15.6637 19.7553 17.3182 18.2281L14.0864 15.719C13.191 16.319 12.0455 16.6735 10.7001 16.6735C8.0955 16.6735 5.89095 14.9144 5.10459 12.5508H1.76367V15.1417C3.40913 18.4099 6.79096 20.6508 10.7001 20.6508Z" fill="#34A853"/>
<path fill-rule="evenodd" clip-rule="evenodd" d="M5.10475 12.5501C4.90475 11.9501 4.79111 11.3092 4.79111 10.6501C4.79111 9.99101 4.90475 9.3501 5.10475 8.75009V6.15918H1.76383C1.08656 7.50918 0.700195 9.03646 0.700195 10.6501C0.700195 12.2637 1.08656 13.791 1.76383 15.141L5.10475 12.5501Z" fill="#FBBC05"/>
<path fill-rule="evenodd" clip-rule="evenodd" d="M10.7001 4.62767C12.1682 4.62767 13.4864 5.13222 14.5228 6.12313L17.391 3.25494C15.6592 1.6413 13.3955 0.650391 10.7001 0.650391C6.79096 0.650391 3.40913 2.8913 1.76367 6.15949L5.10459 8.75041C5.89095 6.38677 8.0955 4.62767 10.7001 4.62767Z" fill="#EA4335"/>
</svg>
