<svg width="24" height="24" viewBox="0 0 24 24" fill="none" xmlns="http://www.w3.org/2000/svg">
<path d="M12.0003 16H12.0093M9.06231 4.826L3.23931 9.921C2.73931 10.358 3.07531 11.134 3.76231 11.134C4.18231 11.134 4.52331 11.449 4.52331 11.837V15.081C4.52331 17.871 4.52331 19.266 5.46231 20.133C6.40031 21 7.91031 21 10.9323 21H13.0683C16.0893 21 17.6003 21 18.5383 20.133C19.4773 19.266 19.4773 17.871 19.4773 15.081V11.837C19.4773 11.449 19.8173 11.134 20.2373 11.134C20.9253 11.134 21.2603 10.358 20.7613 9.921L14.9383 4.826C13.5473 3.61 12.8513 3 12.0003 3C11.1493 3 10.4533 3.609 9.06231 4.826Z" stroke="#1B1B1B" stroke-width="1.5" stroke-linecap="round" stroke-linejoin="round"/>
</svg>
