<svg width="207" height="54" viewBox="0 0 207 54" fill="none" xmlns="http://www.w3.org/2000/svg">
<path d="M71.9361 10.4502C68.6331 10.4502 65.4044 11.4296 62.6581 13.2647C59.9118 15.0997 57.7713 17.7079 56.5073 20.7594C55.2433 23.8109 54.9126 27.1687 55.557 30.4082C56.2014 33.6477 57.7919 36.6233 60.1274 38.9589C62.4629 41.2944 65.4386 42.8849 68.6781 43.5293C71.9176 44.1737 75.2754 43.843 78.3269 42.579C81.3784 41.315 83.9866 39.1745 85.8216 36.4282C87.6567 33.6819 88.6361 30.4531 88.6361 27.1502C88.6361 22.7211 86.8766 18.4734 83.7448 15.3415C80.6129 12.2097 76.3652 10.4502 71.9361 10.4502ZM71.9361 36.9202C70.0009 36.9222 68.1087 36.35 66.4989 35.2761C64.889 34.2023 63.6339 32.6749 62.8925 30.8875C62.151 29.1 61.9565 27.1327 62.3335 25.2347C62.7106 23.3366 63.6422 21.5931 65.0106 20.2247C66.379 18.8563 68.1225 17.9247 70.0206 17.5476C71.9186 17.1706 73.8859 17.3651 75.6734 18.1066C77.4608 18.848 78.9882 20.1031 80.062 21.713C81.1359 23.3228 81.7081 25.215 81.7061 27.1502C81.7061 29.7414 80.6768 32.2264 78.8445 34.0586C77.0123 35.8909 74.5273 36.9202 71.9361 36.9202Z" fill="#2B48FF"/>
<path d="M108.646 30.7002H95.396V42.2502H108.646V30.7002Z" fill="#2B48FF"/>
<path d="M108.646 12.0498H95.396V23.5998H108.646V12.0498Z" fill="#2B48FF"/>
<path d="M189.306 29.9394C189.127 30.0045 188.937 30.0351 188.746 30.0294C188.403 30.0152 188.067 29.9221 187.765 29.7574C187.463 29.5926 187.204 29.3607 187.006 29.0794L185.166 26.8194L187.536 23.8994H189.156L186.816 26.7794L188.076 28.3094C188.157 28.4267 188.264 28.5232 188.389 28.591C188.514 28.6588 188.654 28.696 188.796 28.6994C188.971 28.6997 189.144 28.6657 189.306 28.5994V29.9394Z" fill="#231F20"/>
<path d="M185.066 23.8994H183.666V29.9294H185.066V23.8994Z" fill="#231F20"/>
<path d="M177.706 28.6194C177.905 28.7209 178.123 28.7789 178.346 28.7894C178.462 28.7938 178.577 28.7717 178.682 28.7249C178.788 28.6781 178.882 28.6078 178.956 28.5194L176.656 23.8994H178.166L179.706 27.0094L180.966 23.8994H182.456L180.236 28.6594C180.116 29.0649 179.87 29.4217 179.534 29.6787C179.198 29.9356 178.789 30.0794 178.366 30.0894C178.125 30.0991 177.885 30.0652 177.656 29.9894L177.706 28.6194Z" fill="#231F20"/>
<path d="M174.036 23.9102H172.536L170.116 29.9102H171.506L172.036 28.6102H174.496L175.016 29.9102H176.456L174.036 23.9102ZM172.476 27.5402L173.266 25.6002L174.056 27.5402H172.476Z" fill="#231F20"/>
<path d="M154.696 23.9102H153.406L150.546 27.8902H150.486V23.9102H149.086V29.9302H150.386L153.236 25.9402H153.286V29.9302H154.696V23.9102Z" fill="#231F20"/>
<path d="M186.546 11.8303C185.931 11.8382 185.331 12.0279 184.823 12.3755C184.316 12.7231 183.922 13.2131 183.692 13.7838C183.462 14.3546 183.406 14.9806 183.531 15.5832C183.656 16.1857 183.956 16.7379 184.394 17.1703C184.832 17.6026 185.388 17.8958 185.992 18.013C186.596 18.1302 187.221 18.0661 187.789 17.8288C188.357 17.5915 188.842 17.1917 189.183 16.6795C189.524 16.1673 189.706 15.5657 189.706 14.9503C189.706 14.5372 189.624 14.1282 189.465 13.7471C189.305 13.3659 189.072 13.0201 188.778 12.7299C188.484 12.4397 188.135 12.2107 187.752 12.0563C187.369 11.9018 186.959 11.825 186.546 11.8303ZM186.546 16.8303C186.302 16.8408 186.059 16.7982 185.834 16.7054C185.609 16.6126 185.406 16.4719 185.241 16.293C185.075 16.1142 184.951 15.9014 184.875 15.6696C184.8 15.4377 184.777 15.1923 184.806 14.9503C184.788 14.7101 184.819 14.4686 184.899 14.2412C184.978 14.0137 185.104 13.8051 185.267 13.6284C185.431 13.4517 185.63 13.3107 185.851 13.2143C186.072 13.1179 186.31 13.0681 186.551 13.0681C186.792 13.0681 187.03 13.1179 187.251 13.2143C187.472 13.3107 187.67 13.4517 187.834 13.6284C187.998 13.8051 188.124 14.0137 188.203 14.2412C188.282 14.4686 188.314 14.7101 188.296 14.9503C188.316 15.1889 188.285 15.429 188.205 15.6547C188.125 15.8804 187.999 16.0866 187.833 16.2596C187.668 16.4327 187.467 16.5685 187.245 16.6583C187.024 16.7481 186.785 16.7897 186.546 16.7803V16.8303Z" fill="#231F20"/>
<path d="M181.146 14.6695C181.341 14.5519 181.504 14.3883 181.62 14.193C181.737 13.9977 181.804 13.7767 181.816 13.5495C181.816 12.5495 180.926 11.9395 179.656 11.9395H177.526V17.9395H179.976C181.326 17.9395 182.136 17.1895 182.136 16.0795C182.125 15.7738 182.026 15.4779 181.85 15.2276C181.674 14.9774 181.43 14.7835 181.146 14.6695ZM178.936 13.0895H179.556C180.036 13.0895 180.396 13.2995 180.396 13.7195C180.396 14.1395 180.116 14.3695 179.666 14.3695H178.936V13.0895ZM179.876 16.8095H178.936V15.4495H179.936C180.035 15.4382 180.135 15.4479 180.23 15.4779C180.325 15.5079 180.412 15.5575 180.487 15.6235C180.561 15.6895 180.621 15.7705 180.662 15.8611C180.703 15.9517 180.725 16.0499 180.726 16.1495C180.718 16.2503 180.688 16.3483 180.64 16.4373C180.592 16.5263 180.526 16.6043 180.446 16.6664C180.366 16.7284 180.274 16.7732 180.176 16.7978C180.078 16.8225 179.976 16.8264 179.876 16.8095Z" fill="#231F20"/>
<path d="M153.966 11.9395H157.676V13.1795H155.376V14.2395H157.526V15.4795H155.376V16.7195H157.736V17.9595H153.966V11.9395Z" fill="#231F20"/>
<path d="M147.526 11.9395H152.516V13.1895H150.726V17.9595H149.316V13.1895H147.526V11.9395Z" fill="#231F20"/>
<path d="M135.176 15.4295H132.556V17.9595H131.146V11.9395H132.556V14.1995H135.176V11.9395H136.586V17.9595H135.176V15.4295Z" fill="#231F20"/>
<path d="M129.136 11.9395H127.726V17.9595H129.136V11.9395Z" fill="#231F20"/>
<path d="M124.346 17.9595V14.3495H124.296L122.846 17.0195H121.936L120.486 14.3495H120.436V17.9595H119.046V11.9395H120.446L122.396 15.4095L124.346 11.9395H125.716V17.9595H124.346Z" fill="#231F20"/>
<path d="M140.006 11.9395H138.596V17.9595H140.006V11.9395Z" fill="#231F20"/>
<path d="M161.886 11.9395H159.586V17.9395H160.996V15.9395H161.886C162.16 15.9529 162.435 15.9116 162.693 15.818C162.951 15.7243 163.188 15.5802 163.39 15.3941C163.592 15.2079 163.755 14.9835 163.869 14.7337C163.983 14.484 164.047 14.214 164.056 13.9395C164.048 13.6646 163.986 13.3939 163.872 13.1436C163.758 12.8932 163.595 12.6682 163.393 12.4818C163.191 12.2954 162.953 12.1513 162.694 12.0582C162.435 11.9651 162.161 11.9247 161.886 11.9395ZM161.766 14.7295H160.996V13.1495H161.766C161.877 13.1366 161.989 13.1476 162.095 13.1816C162.201 13.2157 162.298 13.272 162.38 13.3468C162.463 13.4217 162.528 13.5133 162.572 13.6155C162.616 13.7177 162.638 13.8282 162.636 13.9395C162.636 14.0503 162.614 14.1601 162.569 14.2615C162.525 14.363 162.459 14.4539 162.377 14.5284C162.295 14.6029 162.198 14.6593 162.093 14.694C161.988 14.7286 161.876 14.7407 161.766 14.7295Z" fill="#231F20"/>
<path d="M171.096 11.9395H176.086V13.1895H174.286V17.9595H172.876V13.1895H171.096V11.9395Z" fill="#231F20"/>
<path d="M122.306 23.7999C121.69 23.8059 121.09 23.9939 120.581 24.3403C120.072 24.6867 119.676 25.176 119.445 25.7466C119.213 26.3172 119.156 26.9436 119.279 27.5468C119.403 28.15 119.703 28.7032 120.14 29.1365C120.578 29.5699 121.134 29.864 121.738 29.982C122.342 30.1 122.968 30.0365 123.537 29.7995C124.105 29.5625 124.59 29.1626 124.932 28.6502C125.274 28.1378 125.456 27.5357 125.456 26.9199C125.456 26.5077 125.374 26.0995 125.215 25.719C125.057 25.3385 124.824 24.9932 124.531 24.7031C124.239 24.413 123.891 24.1838 123.509 24.0288C123.127 23.8738 122.718 23.796 122.306 23.7999ZM122.306 28.7999C122.067 28.8095 121.829 28.7679 121.607 28.678C121.386 28.5882 121.186 28.4521 121.021 28.2789C120.857 28.1057 120.731 27.8993 120.652 27.6736C120.574 27.4479 120.544 27.208 120.566 26.9699C120.548 26.7297 120.579 26.4883 120.659 26.2608C120.738 26.0333 120.864 25.8247 121.027 25.648C121.191 25.4713 121.39 25.3303 121.611 25.2339C121.832 25.1375 122.07 25.0878 122.311 25.0878C122.552 25.0878 122.79 25.1375 123.011 25.2339C123.232 25.3303 123.43 25.4713 123.594 25.648C123.758 25.8247 123.884 26.0333 123.963 26.2608C124.042 26.4883 124.074 26.7297 124.056 26.9699C124.068 27.2045 124.032 27.4391 123.949 27.6588C123.866 27.8785 123.738 28.0784 123.573 28.2459C123.409 28.4134 123.211 28.5447 122.993 28.6315C122.774 28.7183 122.541 28.7586 122.306 28.7499V28.7999Z" fill="#231F20"/>
<path d="M137.076 26.6402C137.271 26.5232 137.435 26.3598 137.552 26.1644C137.668 25.9689 137.735 25.7476 137.746 25.5202C137.746 24.5202 136.856 23.9102 135.576 23.9102H133.456V29.9102H135.906C137.256 29.9102 138.066 29.1602 138.066 28.0502C138.055 27.7445 137.956 27.4486 137.78 27.1983C137.604 26.9481 137.36 26.7542 137.076 26.6402ZM134.866 25.0602H135.486C135.966 25.0602 136.326 25.2702 136.326 25.6902C136.326 26.1102 136.046 26.3402 135.596 26.3402H134.866V25.0602ZM135.866 28.7802H134.866V27.3702H135.866C135.965 27.3589 136.065 27.3686 136.16 27.3986C136.255 27.4286 136.342 27.4782 136.417 27.5442C136.491 27.6102 136.551 27.6912 136.592 27.7818C136.633 27.8724 136.655 27.9706 136.656 28.0702C136.653 28.1738 136.628 28.2756 136.582 28.369C136.537 28.4624 136.473 28.5452 136.394 28.6122C136.315 28.6791 136.222 28.7286 136.123 28.7576C136.023 28.7865 135.919 28.7942 135.816 28.7802H135.866Z" fill="#231F20"/>
<path d="M167.556 27.4102H164.936V29.9302H163.526V23.9102H164.936V26.1702H167.556V23.9102H168.956V29.9302H167.556V27.4102Z" fill="#231F20"/>
<path d="M141.166 23.9102H139.756V29.9302H141.166V23.9102Z" fill="#231F20"/>
<path d="M142.656 23.9102H147.646V25.1602H145.846V29.9302H144.436V25.1602H142.656V23.9102Z" fill="#231F20"/>
<path d="M131.626 28.3596C131.126 28.6309 130.565 28.7719 129.996 28.7696C129.753 28.7814 129.509 28.7416 129.282 28.6529C129.056 28.5642 128.85 28.4285 128.679 28.2548C128.508 28.0811 128.376 27.8733 128.291 27.6449C128.206 27.4165 128.17 27.1728 128.186 26.9296C128.167 26.6888 128.2 26.4467 128.282 26.2195C128.364 25.9924 128.494 25.7853 128.662 25.6122C128.831 25.439 129.034 25.3037 129.259 25.2153C129.484 25.127 129.725 25.0875 129.966 25.0996C130.525 25.098 131.076 25.2391 131.566 25.5096V24.0896C131.058 23.9084 130.525 23.8105 129.986 23.7996C129.568 23.7903 129.153 23.8643 128.764 24.0171C128.375 24.17 128.02 24.3988 127.72 24.6901C127.421 24.9814 127.182 25.3294 127.018 25.7139C126.854 26.0984 126.768 26.5117 126.766 26.9296C126.76 27.3539 126.841 27.7749 127.004 28.1665C127.168 28.5582 127.409 28.9121 127.715 29.2065C128.021 29.5009 128.383 29.7293 128.781 29.8778C129.178 30.0263 129.602 30.0916 130.026 30.0696C130.573 30.0698 131.116 29.968 131.626 29.7696V28.3596Z" fill="#231F20"/>
<path d="M159.816 23.9102H158.406V29.9302H159.816V23.9102Z" fill="#231F20"/>
<path d="M196.366 23.9102H195.076L192.216 27.8902H192.166V23.9102H190.756V29.9302H192.056L194.916 25.9402H194.956V29.9302H196.366V23.9102Z" fill="#231F20"/>
<path d="M146.466 16.3899C145.965 16.6581 145.404 16.7957 144.836 16.7899C144.593 16.8015 144.351 16.762 144.125 16.6739C143.899 16.5858 143.694 16.451 143.523 16.2784C143.352 16.1058 143.22 15.8992 143.134 15.672C143.048 15.4449 143.011 15.2022 143.026 14.9599C143.007 14.7191 143.04 14.477 143.122 14.2498C143.204 14.0226 143.334 13.8156 143.502 13.6424C143.67 13.4693 143.874 13.334 144.099 13.2456C144.323 13.1572 144.565 13.1178 144.806 13.1299C145.365 13.1283 145.916 13.2694 146.406 13.5399V12.1199C145.898 11.9387 145.365 11.8408 144.826 11.8299C144.408 11.8206 143.992 11.8945 143.603 12.0474C143.214 12.2003 142.86 12.4291 142.56 12.7204C142.26 13.0117 142.022 13.3597 141.858 13.7442C141.694 14.1287 141.608 14.5419 141.606 14.9599C141.6 15.3837 141.681 15.8043 141.844 16.1955C142.008 16.5866 142.25 16.94 142.555 17.2335C142.861 17.5271 143.224 17.7546 143.622 17.902C144.019 18.0493 144.443 18.1132 144.866 18.0899C145.412 18.0877 145.954 17.9896 146.466 17.7999V16.3899Z" fill="#231F20"/>
<path d="M170.026 16.3899C169.525 16.6594 168.964 16.797 168.396 16.7899C168.154 16.8017 167.912 16.7622 167.686 16.674C167.461 16.5857 167.256 16.4508 167.086 16.278C166.916 16.1053 166.785 15.8985 166.7 15.6713C166.616 15.4442 166.58 15.2017 166.596 14.9599C166.577 14.7199 166.61 14.4788 166.691 14.2523C166.773 14.0259 166.902 13.8193 167.069 13.6463C167.236 13.4733 167.438 13.3379 167.662 13.2488C167.886 13.1598 168.126 13.1192 168.366 13.1299C168.925 13.1283 169.476 13.2694 169.966 13.5399V12.1199C169.458 11.9387 168.925 11.8408 168.386 11.8299C167.968 11.8206 167.553 11.8945 167.164 12.0474C166.775 12.2003 166.42 12.4291 166.12 12.7204C165.821 13.0117 165.582 13.3597 165.418 13.7442C165.254 14.1287 165.169 14.5419 165.166 14.9599C165.161 15.3833 165.243 15.8032 165.407 16.1937C165.571 16.5842 165.813 16.9369 166.119 17.2302C166.424 17.5235 166.787 17.7511 167.183 17.8989C167.58 18.0468 168.003 18.1118 168.426 18.0899C168.972 18.0886 169.514 17.9904 170.026 17.7999V16.3899Z" fill="#231F20"/>
<path d="M131.946 41.9394C131.765 41.9997 131.576 42.0301 131.386 42.0294C131.044 42.016 130.709 41.9231 130.409 41.7583C130.109 41.5934 129.851 41.361 129.656 41.0794L127.806 38.8194L130.186 35.8994H131.796L129.456 38.7694L130.706 40.2994C130.786 40.418 130.893 40.516 131.018 40.5855C131.143 40.655 131.283 40.6941 131.426 40.6994C131.602 40.7 131.776 40.6624 131.936 40.5894L131.946 41.9394Z" fill="#231F20"/>
<path d="M127.966 35.8994H126.566V41.9294H127.966V35.8994Z" fill="#231F20"/>
<path d="M120.586 40.6194C120.789 40.7201 121.01 40.7779 121.236 40.7894C121.351 40.7938 121.466 40.7717 121.572 40.7249C121.678 40.6781 121.771 40.6078 121.846 40.5194L119.546 35.8994H121.056L122.596 38.9994L123.856 35.8994H125.346L123.126 40.6494C123.007 41.0568 122.762 41.4158 122.426 41.6747C122.09 41.9335 121.68 42.0788 121.256 42.0894C121.012 42.0933 120.769 42.0596 120.536 41.9894L120.586 40.6194Z" fill="#231F20"/>
<path d="M142.106 35.9102H140.606L138.186 41.9102H139.576L140.096 40.6102H142.566L143.086 41.9102H144.526L142.106 35.9102ZM140.546 39.5402L141.336 37.5902L142.126 39.5402H140.546Z" fill="#231F20"/>
<path d="M153.116 39.4002H150.496V41.9302H149.086V35.9102H150.496V38.1602H153.116V35.9102H154.526V41.9302H153.116V39.4002Z" fill="#231F20"/>
<path d="M147.076 35.9102H145.666V41.9302H147.076V35.9102Z" fill="#231F20"/>
<path d="M162.146 35.9102H160.866L157.996 39.8902H157.946V35.9102H156.546V41.9302H157.846L160.696 37.9302H160.746V41.9302H162.146V35.9102Z" fill="#231F20"/>
<path d="M135.706 35.8994H133.406V41.8994H134.816V39.8994H135.706C136.236 39.8994 136.745 39.6887 137.12 39.3136C137.495 38.9386 137.706 38.4298 137.706 37.8994C137.706 37.369 137.495 36.8603 137.12 36.4852C136.745 36.1101 136.236 35.8994 135.706 35.8994ZM135.576 38.6894H134.816V37.1094H135.576C135.687 37.095 135.801 37.1048 135.908 37.1381C136.015 37.1714 136.114 37.2275 136.197 37.3025C136.281 37.3775 136.347 37.4697 136.392 37.5727C136.436 37.6757 136.458 37.7872 136.456 37.8994C136.457 38.0112 136.434 38.1218 136.389 38.2241C136.343 38.3263 136.277 38.4178 136.194 38.4924C136.111 38.5671 136.013 38.6233 135.906 38.6572C135.8 38.6912 135.687 38.7021 135.576 38.6894Z" fill="#231F20"/>
<path d="M146.036 34.1895H144.906V35.2495H146.036V34.1895Z" fill="#231F20"/>
<path d="M147.846 34.1895H146.716V35.2495H147.846V34.1895Z" fill="#231F20"/>
<path fill-rule="evenodd" clip-rule="evenodd" d="M20.636 43.7802L20.566 43.7002C20.3086 43.2987 19.9675 42.9576 19.566 42.7002C18.8872 42.1797 18.2876 41.5632 17.786 40.8702C17.1446 39.9894 16.667 39.0003 16.376 37.9502C16.3152 37.7606 16.2684 37.5667 16.236 37.3702C16.236 37.2302 16.156 37.1802 16.006 37.1802H10.886C10.666 37.1802 10.666 37.1802 10.666 36.9602V13.1502C10.896 13.2902 11.086 13.3802 11.266 13.5102C11.726 13.8502 12.186 14.2002 12.626 14.5602C13.2744 15.1057 13.8403 15.7424 14.306 16.4502C14.983 17.4472 15.4743 18.5584 15.756 19.7302C15.9926 20.9161 16.1595 22.1148 16.256 23.3202C16.446 24.7302 16.596 26.1402 16.766 27.5502V27.8102C16.766 28.0302 16.766 28.0102 16.576 28.0302C16.3206 28.0327 16.0673 28.0766 15.826 28.1602C15.5844 28.2557 15.3688 28.4069 15.1966 28.6015C15.0245 28.7961 14.9008 29.0285 14.8355 29.28C14.7702 29.5314 14.7652 29.7947 14.8209 30.0485C14.8766 30.3022 14.9914 30.5392 15.156 30.7402C15.4278 31.0586 15.8031 31.2711 16.216 31.3402L16.996 31.5002C17.0333 31.5142 17.0745 31.5137 17.1115 31.4989C17.1485 31.4841 17.1786 31.4561 17.196 31.4202C17.536 30.7302 17.916 30.0502 18.196 29.3502C18.476 28.6502 18.746 27.9002 18.976 27.1602C19.4217 25.8707 19.6777 24.5233 19.736 23.1602C19.736 22.1602 19.736 21.1602 19.676 20.1602C19.606 18.6502 19.486 17.1602 19.406 15.6502C19.406 14.9902 19.346 14.3302 19.406 13.6502C19.4402 12.6695 19.7832 11.7246 20.386 10.9502C20.666 10.5702 20.646 10.6502 20.876 10.9502C21.475 11.6821 21.8253 12.5858 21.876 13.5302C21.876 14.3802 21.876 15.2302 21.816 16.0802C21.726 17.9902 21.606 19.9002 21.506 21.8202C21.4318 23.5127 21.6552 25.205 22.166 26.8202C22.4594 27.8442 22.8236 28.8467 23.256 29.8202C23.506 30.3502 23.786 30.8202 24.056 31.3902C24.0741 31.4387 24.1102 31.4782 24.1568 31.5006C24.2035 31.5229 24.2569 31.5264 24.306 31.5102C24.6909 31.4381 25.0715 31.3447 25.446 31.2302C25.7386 31.1222 25.9911 30.9273 26.1699 30.6717C26.3486 30.4162 26.4449 30.1121 26.446 29.8002C26.4775 29.421 26.3745 29.0429 26.155 28.7321C25.9356 28.4212 25.6138 28.1975 25.246 28.1002C25.0412 28.0644 24.8339 28.0443 24.626 28.0402H24.446C24.446 27.6102 24.546 27.2102 24.596 26.8102C24.766 25.3702 24.926 23.9302 25.116 22.5002C25.1933 21.521 25.3404 20.5485 25.556 19.5902C25.9095 18.2519 26.5322 16.9997 27.386 15.9102C27.6584 15.559 27.9523 15.225 28.266 14.9102C28.9308 14.2529 29.6808 13.6878 30.496 13.2302H30.586C30.586 13.3002 30.586 13.3602 30.586 13.4202C30.586 20.0869 30.586 26.7702 30.586 33.4702V36.9902C30.586 37.2102 30.586 37.2102 30.376 37.2102H25.226C25.076 37.2102 25.016 37.2102 24.986 37.4102C24.8358 38.1173 24.5973 38.8027 24.276 39.4502C23.9259 40.172 23.4821 40.8445 22.956 41.4502C22.4919 41.9743 21.9759 42.45 21.416 42.8702C21.1848 43.0901 20.9708 43.3275 20.776 43.5802C20.7214 43.6409 20.6743 43.7081 20.636 43.7802ZM12.386 16.6302H12.326V28.4502C12.326 28.5502 12.326 28.6602 12.326 28.7602C12.326 28.8602 12.326 28.8802 12.446 28.8802H13.126C13.1719 28.8836 13.2174 28.8703 13.2542 28.8427C13.2909 28.8152 13.3165 28.7752 13.326 28.7302C13.4501 28.3259 13.6526 27.9501 13.922 27.624C14.1914 27.298 14.5224 27.0283 14.896 26.8302C14.9362 26.8145 14.969 26.784 14.9876 26.745C15.0061 26.706 15.0092 26.6614 14.996 26.6202C14.996 26.4102 14.996 26.2002 14.926 25.9902C14.706 24.4502 14.556 22.9002 14.376 21.3602C14.226 19.8508 13.6849 18.4066 12.806 17.1702L12.386 16.6302ZM28.926 28.8502V16.6402H28.866L28.326 17.4002C27.5812 18.4828 27.1047 19.7271 26.936 21.0302C26.706 22.8902 26.496 24.7402 26.266 26.5902C26.266 26.7302 26.266 26.7802 26.416 26.8502C26.6296 26.9821 26.8335 27.1291 27.026 27.2902C27.4702 27.6871 27.7956 28.1994 27.966 28.7702C27.9729 28.7929 27.9858 28.8133 28.0035 28.8292C28.0211 28.845 28.0427 28.8558 28.066 28.8602L28.926 28.8502ZM12.326 33.0102C12.326 33.7802 12.326 34.5602 12.326 35.3302C12.326 35.4602 12.326 35.5002 12.496 35.5002H15.876C16.006 35.5002 16.056 35.5002 16.066 35.3302C16.0893 34.601 16.1932 33.8766 16.376 33.1702C16.376 33.0802 16.376 33.0502 16.286 33.0302L15.706 32.9102C15.1406 32.7711 14.6206 32.4887 14.196 32.0902C13.7751 31.6991 13.4676 31.2016 13.306 30.6502C13.2964 30.604 13.2689 30.5634 13.2297 30.5372C13.1904 30.5111 13.1424 30.5013 13.096 30.5102H12.486C12.346 30.5102 12.306 30.5102 12.306 30.6902C12.336 31.4502 12.326 32.2402 12.326 33.0102ZM27.056 35.5002C27.616 35.5002 28.166 35.5002 28.716 35.5002C28.886 35.5002 28.946 35.4502 28.926 35.3002C28.906 35.1502 28.926 35.2402 28.926 35.2002C28.926 34.5702 28.926 33.9402 28.926 33.3002V30.6702C28.926 30.5602 28.926 30.5302 28.786 30.5302H28.246C27.976 30.5302 27.976 30.5302 27.896 30.7802C27.7503 31.2289 27.5083 31.6403 27.1871 31.9858C26.8658 32.3312 26.473 32.6024 26.036 32.7802C25.71 32.9007 25.3759 32.9976 25.036 33.0702C24.916 33.0702 24.886 33.1502 24.916 33.2602C25.0955 33.9533 25.1961 34.6645 25.216 35.3802C25.216 35.5102 25.216 35.5502 25.396 35.5502L27.056 35.5002ZM18.826 31.9002C19.096 32.0402 19.346 32.1502 19.596 32.2902C19.9413 32.4761 20.2497 32.7235 20.506 33.0202C20.636 33.1602 20.646 33.1702 20.746 33.0202C21.0607 32.6602 21.4451 32.3676 21.876 32.1602L22.446 31.9002C21.6994 30.6189 21.0925 29.2611 20.636 27.8502C20.1778 29.2605 19.571 30.6181 18.826 31.9002ZM23.356 37.1602H21.706C21.556 37.1602 21.506 37.1602 21.506 37.3502C21.506 38.3502 21.506 39.4302 21.506 40.4702C21.506 40.5202 21.506 40.5602 21.506 40.6602C22.4183 39.6755 23.0562 38.4687 23.356 37.1602ZM17.926 37.1602C18.066 38.1602 19.246 40.3502 19.786 40.5902C19.7907 40.5705 19.7907 40.5499 19.786 40.5302C19.786 39.4502 19.786 38.3602 19.786 37.2802C19.786 37.1602 19.726 37.1502 19.626 37.1502H17.926V37.1602ZM18.766 35.4902H19.606C19.806 35.4902 19.836 35.4902 19.786 35.2802C19.7395 34.9938 19.6555 34.7147 19.536 34.4502C19.398 34.1967 19.2068 33.9761 18.9755 33.8035C18.7442 33.6308 18.4783 33.5103 18.196 33.4502C18.076 33.4502 17.996 33.4502 17.976 33.5902C17.8196 34.1681 17.729 34.7619 17.706 35.3602C17.706 35.4702 17.706 35.5002 17.846 35.5002L18.766 35.4902ZM22.486 35.4902H23.386C23.486 35.4902 23.536 35.4902 23.536 35.3502C23.5312 34.7722 23.4506 34.1972 23.296 33.6402C23.236 33.4302 23.216 33.4202 22.996 33.4902C22.58 33.5941 22.2084 33.829 21.936 34.1602C21.6569 34.4978 21.4892 34.9135 21.456 35.3502C21.456 35.4502 21.456 35.4902 21.596 35.4902H22.486Z" fill="#2B48FF"/>
<path d="M43.9059 12.1904H43.0559V42.5004H43.9059V12.1904Z" fill="#2B48FF"/>
</svg>
