<svg width="111" height="47" viewBox="0 0 111 47" fill="none" xmlns="http://www.w3.org/2000/svg">
<path d="M40.6024 3.44922H43.3024V7.94922H47.8024V3.44922H50.5024V15.0492H47.8024V10.3492H43.3024V15.0492H40.6024V3.44922Z" fill="#0536FC"/>
<path d="M56.3024 3.44922H58.8024L63.6024 15.0492H60.7024L59.7024 12.2492H55.6024L54.6024 15.0492H51.6024L56.3024 3.44922ZM56.4024 9.94922H58.8024L58.1024 8.04922C58.1024 8.04922 57.8024 7.34922 57.6024 6.64922C57.4024 7.34922 57.1024 8.04922 57.1024 8.04922L56.4024 9.94922Z" fill="#0536FC"/>
<path d="M64.8024 3.44922H69.8024C72.2024 3.44922 73.6024 4.54922 73.6024 6.34922C73.6024 7.54922 73.0024 8.24922 72.1024 8.74922C73.1024 9.14922 74.1024 10.0492 74.1024 11.6492C74.1024 13.8492 72.2024 15.1492 69.9024 15.1492H64.7024V3.44922H64.8024ZM67.5024 7.84922H69.7024C70.6024 7.84922 71.1024 7.34922 71.1024 6.64922C71.1024 5.94922 70.6024 5.54922 69.7024 5.54922H67.5024V7.84922ZM67.5024 12.8492H69.9024C71.1024 12.8492 71.6024 12.3492 71.6024 11.4492C71.6024 10.6492 71.1024 10.0492 69.9024 10.0492H67.5024V12.8492Z" fill="#0536FC"/>
<path d="M81.5024 3.44922H84.0024V15.0492H81.5024V10.2492C80.8024 10.8492 80.2024 11.1492 79.1024 11.1492C77.1024 11.1492 75.3024 9.94922 75.3024 6.84922V3.44922H77.8024V6.74922C77.8024 8.24922 78.6024 8.84922 79.6024 8.84922C80.6024 8.84922 81.5024 8.24922 81.5024 6.54922V3.44922Z" fill="#0536FC"/>
<path d="M89.9024 3.44922H92.4024L97.1024 15.0492H94.2024L93.2024 12.2492H89.1024L88.1024 15.0492H85.2024L89.9024 3.44922ZM90.0024 9.94922H92.4024L91.7024 8.04922C91.7024 8.04922 91.4024 7.34922 91.2024 6.64922C91.0024 7.34922 90.7024 8.04922 90.7024 8.04922L90.0024 9.94922Z" fill="#0536FC"/>
<path d="M108.402 15.0496H105.802V7.54961C105.702 7.74961 105.302 8.44961 105.302 8.44961L101.102 15.1496H98.4024V3.44961H101.002V10.9496C101.102 10.7496 101.502 10.0496 101.502 10.0496L105.702 3.44961H108.402V15.0496ZM104.002 0.349609C104.002 0.749609 103.802 1.04961 103.402 1.04961C103.002 1.04961 102.802 0.749609 102.802 0.349609H101.402C101.402 1.54961 102.202 2.34961 103.402 2.34961C104.602 2.34961 105.402 1.54961 105.402 0.349609H104.002Z" fill="#0536FC"/>
<path d="M42.0024 32.6498H39.8024V28.5498H40.8024C41.3024 27.4498 41.7024 26.1498 41.9024 24.4498L42.5024 19.0498H50.2024V28.5498H51.0024V32.6498H48.8024V30.7498H42.1024V32.6498H42.0024ZM47.5024 21.2498H44.7024L44.3024 24.7498C44.1024 26.3498 43.9024 27.4498 43.4024 28.6498H47.5024V21.2498Z" fill="#0536FC"/>
<path d="M52.4024 28.3494C52.6024 28.4494 52.8024 28.5494 53.1024 28.5494C53.5024 28.5494 53.8024 28.2494 53.9024 27.6494L54.9024 19.1494H62.6024V30.7494H60.0024V21.3494H57.1024L56.3024 28.2494C56.1024 29.8494 55.3024 30.8494 53.5024 30.8494C52.8024 30.8494 52.4024 30.7494 51.9024 30.6494L52.4024 28.3494Z" fill="#0536FC"/>
<path d="M67.0024 30.7494H64.1024L66.8024 25.9494C65.3024 25.3494 64.3024 24.3494 64.3024 22.5494C64.3024 20.3494 65.8024 19.1494 68.6024 19.1494H73.8024V30.7494H71.1024V26.1494H69.6024L67.0024 30.7494ZM71.0024 21.2494H68.4025C67.4025 21.2494 66.9025 21.8494 66.9025 22.5494C66.9025 23.2494 67.3025 23.8494 68.4025 23.8494H71.0024V21.2494Z" fill="#0536FC"/>
<path d="M43.4024 42.35L39.7024 34.75H42.6024L44.7024 39.15L46.4024 34.75H49.2024L45.1024 44.65C44.6024 45.95 43.7024 46.55 42.5024 46.55C41.9024 46.55 41.5024 46.45 40.9024 46.35L41.4024 43.65C41.6024 43.75 41.9024 43.95 42.2024 43.95C42.5024 43.95 42.8024 43.85 43.0024 43.25L43.4024 42.35Z" fill="#0536FC"/>
<path d="M56.0024 39.15L60.4024 46.45H57.3024L54.1024 41.15L53.1024 42.25V46.35H50.4024V34.75H53.1024V38.75C53.4024 38.35 53.8024 38.05 53.8024 38.05L56.9024 34.85H60.3024L56.0024 39.15Z" fill="#0536FC"/>
<path d="M61.6024 34.75H67.0024C69.8024 34.75 71.6024 36.05 71.6024 38.55C71.6024 41.15 69.8024 42.35 67.0024 42.35H64.3024V46.35H61.6024V34.75ZM64.3024 40.25H67.0024C68.4024 40.25 68.9025 39.55 68.9025 38.65C68.9025 37.75 68.4024 37.05 67.0024 37.05H64.3024V40.25Z" fill="#0536FC"/>
<path d="M75.3024 34.75H77.8024L82.5024 46.35H79.6024L78.6024 43.55H74.5024L73.5024 46.35H70.6024L75.3024 34.75ZM75.3024 41.25H77.7024L77.0024 39.35C77.0024 39.35 76.7024 38.65 76.5024 37.95C76.3024 38.65 76.0024 39.35 76.0024 39.35L75.3024 41.25Z" fill="#0536FC"/>
<path d="M82.2024 31.25H84.5024V33.65H82.2024V31.25ZM83.7024 34.75H86.4024V46.35H83.7024V34.75ZM85.5024 31.25H87.8024V33.65H85.5024V31.25Z" fill="#0536FC"/>
<path d="M88.5024 34.75H91.2024V39.25H95.7024V34.75H98.4024V46.35H95.7024V41.65H91.2024V46.35H88.5024V34.75Z" fill="#0536FC"/>
<path d="M110.602 46.35H108.002V38.75C107.902 38.95 107.502 39.65 107.502 39.65L103.302 46.35H100.602V34.75H103.202V42.25C103.302 42.05 103.702 41.35 103.702 41.35L107.902 34.75H110.602V46.35Z" fill="#0536FC"/>
<path d="M0.60244 7.84961H12.9024L9.50244 31.4496H14.7024L18.1024 7.84961H30.4024V3.34961H0.60244V7.84961Z" fill="#0536FC"/>
<path d="M30.5024 14.8496V10.3496H20.4024L19.8024 14.8496H30.5024Z" fill="#FF8200"/>
<path d="M30.3024 17.6492H25.1024V31.5492C25.1024 37.7492 21.7024 42.0492 15.4024 42.0492C9.20244 42.0492 5.70244 37.7492 5.70244 31.5492V10.4492H0.502441V31.4492C0.502441 41.1492 6.50244 46.6492 15.3024 46.6492C24.1024 46.6492 30.1024 41.1492 30.1024 31.4492L30.3024 17.6492Z" fill="#0536FC"/>
</svg>
