<svg width="24" height="24" viewBox="0 0 24 24" fill="none" xmlns="http://www.w3.org/2000/svg">
<path d="M7.0003 8.4996L9.9423 10.2396C11.6573 11.2536 12.3423 11.2536 14.0583 10.2396L17.0003 8.4996M2.0163 13.4756C2.0813 16.5406 2.1143 18.0736 3.2453 19.2086C4.3763 20.3446 5.9503 20.3836 9.0993 20.4626C11.0393 20.5126 12.9613 20.5126 14.9013 20.4626C18.0503 20.3836 19.6243 20.3446 20.7553 19.2086C21.8863 18.0736 21.9193 16.5406 21.9853 13.4756C22.0053 12.4896 22.0053 11.5096 21.9853 10.5236C21.9193 7.4586 21.8863 5.9256 20.7553 4.7906C19.6243 3.6546 18.0503 3.6156 14.9013 3.5366C12.9676 3.4878 11.033 3.4878 9.0993 3.5366C5.9503 3.6156 4.3763 3.6546 3.2453 4.7906C2.1143 5.9256 2.0813 7.4586 2.0153 10.5236C1.99425 11.5075 1.99525 12.4917 2.0163 13.4756Z" stroke="#1B1B1B" stroke-width="1.5" stroke-linecap="round" stroke-linejoin="round"/>
</svg>
