<svg width="136" height="135" viewBox="0 0 136 135" fill="none" xmlns="http://www.w3.org/2000/svg">
<g clip-path="url(#clip0_217_4251)">
<path d="M23.2608 35.7543C15.9664 54.1505 9.78301 72.968 4.74383 92.1053C3.29606 97.5827 1.95082 103.085 0.708151 108.614C0.657466 108.813 0.652441 109.021 0.693438 109.223C0.734435 109.425 0.820387 109.615 0.944925 109.778C1.06946 109.942 1.22938 110.076 1.41273 110.169C1.59608 110.263 1.79814 110.314 2.00389 110.318L23.9883 111.404L58.8616 113.149L66.9076 113.55C67.2018 113.549 67.4875 113.452 67.7214 113.274C67.9553 113.096 68.1245 112.846 68.2034 112.562C70.1579 104.144 72.1111 95.7235 74.0632 87.3023C77.1711 73.8983 80.279 60.4943 83.3869 47.0903C84.0963 44.0404 84.8045 40.988 85.5115 37.9332C85.563 37.7334 85.5685 37.5245 85.5276 37.3223C85.4867 37.12 85.4004 36.9297 85.2753 36.7656C85.1503 36.6015 84.9896 36.4679 84.8055 36.3749C84.6213 36.2818 84.4184 36.2317 84.2121 36.2284L64.0265 35.7326L31.9873 34.9399L24.5602 34.7553C22.8265 34.7155 22.8265 37.4048 24.5602 37.4482L44.7458 37.9476L76.785 38.7367L84.2121 38.9213L82.9164 37.2166L77.0565 62.4802C73.9462 75.8842 70.8383 89.2881 67.7328 102.692C67.0234 105.742 66.3152 108.794 65.6082 111.849L66.9076 110.861L44.9268 109.775L10.0499 108.031L2.00389 107.629L3.30326 109.334C7.6757 90.0338 13.2053 71.0143 19.8622 52.3784C21.7684 47.0433 23.7664 41.742 25.856 36.4746C26.4966 34.8603 23.8942 34.1617 23.2608 35.7543Z" fill="#1B1B1B"/>
<path d="M2.60839 110.954L67.9066 124.223C68.2509 124.308 68.6145 124.258 68.9229 124.083C69.2312 123.908 69.4608 123.621 69.5643 123.282C75.5581 103.05 81.903 82.9279 88.5989 62.9173C90.4858 57.2782 92.4017 51.6487 94.3466 46.029C94.6325 45.1929 93.8761 44.3242 93.0472 44.3242L83.13 44.3532C81.3999 44.3532 81.3962 47.0496 83.13 47.0424L93.0472 47.0171L91.7515 45.3123C84.8577 65.2554 78.3125 85.3131 72.116 105.485C70.3715 111.173 68.6558 116.866 66.9692 122.566L68.6233 121.624L3.32503 108.359C1.63475 107.997 0.910867 110.607 2.60114 110.954H2.60839Z" fill="#1B1B1B"/>
<path d="M89.6341 60.524L133.817 58.9604L132.47 57.614C132.637 73.5974 132.806 89.5796 132.977 105.561L134.32 104.214C113.868 105.923 93.3791 107.087 72.8545 107.707C71.128 107.761 71.1207 110.451 72.8545 110.4C93.3646 109.782 113.853 108.618 134.32 106.907C134.675 106.9 135.013 106.755 135.264 106.505C135.515 106.254 135.659 105.915 135.666 105.561C135.5 89.5772 135.332 73.595 135.163 57.614C135.158 57.2584 135.015 56.9186 134.763 56.6671C134.512 56.4156 134.172 56.2723 133.817 56.2676L89.6341 57.8312C87.9041 57.8927 87.8968 60.5855 89.6341 60.524Z" fill="#1B1B1B"/>
<path d="M82.3483 78.9296L96.7718 89.064C96.9776 89.1867 97.2127 89.2515 97.4523 89.2515C97.6919 89.2515 97.9269 89.1867 98.1327 89.064C111.152 80.4598 123.289 70.5899 134.367 59.5982C135.597 58.3784 133.694 56.4746 132.463 57.698C121.552 68.5313 109.597 78.2594 96.7718 86.7403H98.1327L83.7056 76.6059C82.2868 75.6069 80.9404 77.9379 82.3483 78.9296Z" fill="#1B1B1B"/>
<path d="M113.175 77.797L132.604 92.9986C133.18 93.4474 133.943 93.5488 134.504 92.9986C134.979 92.5353 135.076 91.5508 134.504 91.0948L115.079 75.8931C114.503 75.4443 113.74 75.343 113.175 75.8931C112.705 76.3564 112.607 77.3409 113.175 77.797Z" fill="#1B1B1B"/>
<path d="M33.6338 75.7015C27.3866 76.6534 20.9332 80.613 20.2093 87.4212C19.5976 93.1906 23.3582 98.113 28.4254 100.386C33.4926 102.659 39.4213 103.072 44.8649 102.084C49.7837 101.193 54.156 98.826 56.0164 93.9579C58.6006 87.1751 54.3334 80.6565 48.2165 77.7754C46.6601 77.0515 45.292 79.3607 46.8592 80.0991C51.4487 82.2707 55.1477 86.6141 53.823 91.9636C52.8023 96.0934 49.5231 98.2143 45.6105 99.1771C37.8902 101.077 24.3861 99.6911 22.9275 89.8462C21.9213 83.0634 28.5702 79.1761 34.3504 78.2966C36.0588 78.0396 35.3313 75.4445 33.6265 75.7015H33.6338Z" fill="#1B1B1B"/>
<path d="M44.8257 58.7548C39.5088 57.7739 33.8479 59.1747 30.6882 63.822C29.3921 65.7062 28.7569 67.9668 28.8819 70.2504C29.007 72.5339 29.8853 74.7116 31.3795 76.443C33.1892 78.5205 35.8423 79.791 38.4917 80.4244C41.3872 81.1482 44.5651 81.2894 47.4426 80.3701C51.9487 78.9223 55.2641 74.9047 55.3474 70.1053C55.4487 64.0138 50.425 59.837 44.8257 58.7294C43.1354 58.3965 42.4115 60.988 44.1018 61.3246C48.1845 62.1353 51.9523 64.6038 52.5821 68.8711C52.7858 70.4658 52.5139 72.0851 51.8004 73.5257C50.9645 75.1583 49.6187 76.4736 47.9674 77.2718C43.9498 79.2842 38.0573 78.4336 34.5429 75.7299C33.0568 74.6157 32.0274 72.9984 31.6473 71.1803C31.3633 69.5859 31.5782 67.9428 32.2626 66.475C34.3836 62.0449 39.4291 60.474 44.1091 61.3355C45.803 61.6612 46.5305 59.0697 44.8257 58.7548Z" fill="#1B1B1B"/>
<path d="M39.4073 67.3763C39.3546 67.6487 39.2224 67.8994 39.0273 68.0967C38.8322 68.2941 38.5831 68.4292 38.3113 68.485C38.0395 68.5409 37.7573 68.515 37.5002 68.4106C37.2431 68.3062 37.0227 68.128 36.8668 67.8984C36.7109 67.6689 36.6266 67.3983 36.6243 67.1208C36.6221 66.8434 36.7021 66.5714 36.8542 66.3394C37.0063 66.1074 37.2238 65.9256 37.4792 65.817C37.7345 65.7085 38.0163 65.678 38.2889 65.7294C38.6551 65.8005 38.9783 66.0135 39.1879 66.3221C39.3974 66.6307 39.4763 67.0097 39.4073 67.3763Z" fill="#1B1B1B"/>
<path d="M48.8428 67.9013C48.7899 68.1738 48.6574 68.4246 48.4621 68.6219C48.2668 68.8191 48.0175 68.9541 47.7455 69.0097C47.4735 69.0653 47.1912 69.0391 46.9341 68.9343C46.6771 68.8295 46.4568 68.6509 46.3012 68.421C46.1456 68.1912 46.0616 67.9204 46.0598 67.6428C46.0581 67.3652 46.1386 67.0933 46.2913 66.8614C46.4439 66.6296 46.6619 66.4482 46.9176 66.3402C47.1734 66.2321 47.4553 66.2024 47.728 66.2545C48.094 66.3255 48.4168 66.5387 48.6258 66.8474C48.8348 67.1562 48.9128 67.5352 48.8428 67.9013Z" fill="#1B1B1B"/>
<path d="M41.3076 69.6123C40.8513 70.2492 40.5555 70.9868 40.4452 71.7625C40.3349 72.5381 40.4135 73.329 40.6742 74.0678C40.7577 74.3485 40.9282 74.5955 41.1611 74.7731C41.394 74.9506 41.6772 75.0497 41.97 75.0559L49.0207 74.6144L50.0378 74.5528C50.3625 74.5519 50.676 74.4336 50.9204 74.2197C51.1648 74.0059 51.3237 73.7109 51.3678 73.3891C51.4119 73.0674 51.3381 72.7406 51.1602 72.4689C50.9823 72.1972 50.7122 71.9989 50.3997 71.9106L43.7689 69.3517L42.817 68.9897C42.4724 68.8973 42.1053 68.9442 41.7951 69.1203C41.4849 69.2964 41.2565 69.5876 41.1593 69.9308C41.0753 70.275 41.1259 70.6383 41.3008 70.9464C41.4757 71.2545 41.7617 71.4842 42.1003 71.5885L48.7275 74.1438L49.683 74.5058L50.045 71.86L42.9799 72.2907L41.9628 72.3522L43.2621 73.3403C43.2116 73.2051 43.1681 73.0674 43.1318 72.9277C43.1318 72.8662 43.1029 72.8046 43.092 72.7431C43.092 72.877 43.092 72.8951 43.092 72.7938C43.092 72.6924 43.0703 72.5042 43.0739 72.3595C43.0739 72.2979 43.121 71.9396 43.0739 72.2219C43.1117 71.9744 43.1761 71.7318 43.2658 71.498C43.1717 71.7441 43.3128 71.4184 43.3418 71.3677C43.4246 71.2245 43.5165 71.0867 43.6168 70.9551C44.0367 70.3869 43.7254 69.4277 43.1318 69.1128C42.8212 68.9488 42.4598 68.9091 42.121 69.0018C41.7822 69.0946 41.4914 69.3129 41.3076 69.6123Z" fill="#FF8200"/>
<path d="M42.0783 86.6384C42.0082 87.0016 41.8319 87.3358 41.5719 87.5988C41.3119 87.8619 40.9798 88.0419 40.6175 88.1163C40.2552 88.1907 39.879 88.1561 39.5363 88.0168C39.1937 87.8775 38.9001 87.6398 38.6925 87.3337C38.4849 87.0276 38.3726 86.6668 38.3699 86.297C38.3672 85.9271 38.4742 85.5647 38.6773 85.2556C38.8804 84.9466 39.1706 84.7046 39.5112 84.5603C39.8518 84.4161 40.2274 84.376 40.5908 84.4451C40.8328 84.4906 41.0635 84.5836 41.2695 84.7187C41.4755 84.8538 41.6528 85.0283 41.791 85.2322C41.9293 85.4361 42.0259 85.6652 42.0752 85.9066C42.1245 86.1479 42.1256 86.3967 42.0783 86.6384Z" fill="#1B1B1B"/>
<path d="M41.4197 95.0982C41.3501 95.4624 41.1739 95.7979 40.9136 96.062C40.6532 96.3262 40.3204 96.5072 39.9571 96.5822C39.5939 96.6571 39.2166 96.6226 38.873 96.4831C38.5293 96.3436 38.2348 96.1053 38.0266 95.7983C37.8184 95.4914 37.7059 95.1296 37.7034 94.7587C37.7009 94.3878 37.8084 94.0245 38.0124 93.7148C38.2164 93.405 38.5077 93.1627 38.8494 93.0186C39.1911 92.8744 39.5679 92.8348 39.9322 92.9048C40.4197 92.9995 40.8499 93.2834 41.1287 93.6944C41.4074 94.1055 41.5121 94.6102 41.4197 95.0982Z" fill="#1B1B1B"/>
<path d="M12.935 101.42C16.4902 99.5657 20.1995 98.0228 24.0213 96.8092C25.6646 96.288 24.9624 93.6893 23.2975 94.2141C19.2548 95.5001 15.3312 97.1337 11.5705 99.0967C10.0322 99.8966 11.3931 102.22 12.9278 101.42H12.935Z" fill="#1B1B1B"/>
<path d="M51.9526 98.3556C54.0072 98.9333 55.9064 99.9636 57.511 101.371C59.1155 102.778 60.3848 104.527 61.2256 106.489C61.5151 107.158 62.4888 107.31 63.0643 106.973C63.752 106.572 63.8388 105.801 63.5493 105.131C62.5315 102.869 61.0297 100.857 59.1498 99.2377C57.27 97.6186 55.0577 96.4316 52.6692 95.7605C52.4988 95.713 52.3207 95.6994 52.1451 95.7207C51.9695 95.742 51.7998 95.7977 51.6457 95.8846C51.4916 95.9715 51.3562 96.0879 51.247 96.2271C51.1379 96.3663 51.0573 96.5257 51.0097 96.6961C50.9622 96.8665 50.9487 97.0446 50.97 97.2202C50.9913 97.3958 51.047 97.5655 51.1338 97.7196C51.2207 97.8737 51.3371 98.0092 51.4763 98.1183C51.6156 98.2275 51.7749 98.3081 51.9453 98.3556H51.9526Z" fill="#1B1B1B"/>
<path d="M99.7539 31.6737C102.897 29.9764 105.666 27.6632 107.895 24.8723C110.124 22.0814 111.769 18.87 112.73 15.4297L110.134 14.7058C109.674 16.3632 109.598 18.1039 109.912 19.7952C110.226 21.4865 110.922 23.0838 111.947 24.4654C112.972 25.847 114.299 26.9765 115.826 27.7677C117.353 28.559 119.041 28.9913 120.761 29.0315C120.532 28.1967 120.305 27.3605 120.081 26.5232C113.356 29.4731 108.784 36.0243 108.031 43.2812H110.724C110.076 37.3526 108.65 29.8893 101.864 28.2172C100.181 27.8045 99.4643 30.3888 101.14 30.8123C106.591 32.1551 107.51 38.5941 108.017 43.2812C108.017 43.6383 108.159 43.9808 108.411 44.2333C108.664 44.4858 109.006 44.6277 109.363 44.6277C109.721 44.6277 110.063 44.4858 110.316 44.2333C110.568 43.9808 110.71 43.6383 110.71 43.2812C111.369 36.9255 115.618 31.3914 121.423 28.8469C122.723 28.2787 121.966 26.3748 120.747 26.3387C119.439 26.3058 118.156 25.9741 116.996 25.369C115.836 24.7638 114.83 23.9012 114.054 22.8473C113.279 21.7933 112.755 20.5759 112.523 19.2884C112.291 18.0008 112.357 16.6771 112.715 15.4188C113.178 13.7466 110.587 13.0372 110.12 14.6949C109.252 17.8002 107.764 20.6976 105.746 23.2126C103.728 25.7275 101.222 27.8078 98.3784 29.3283C96.8547 30.1463 98.212 32.47 99.7394 31.652L99.7539 31.6737Z" fill="#0536FC"/>
<path d="M85.0308 15.9544C85.0308 16.0739 85.0308 16.1933 85.0308 16.3164C85.0308 16.367 85.0308 16.5806 85.0308 16.3164C84.999 16.5074 84.9543 16.696 84.8969 16.881C84.8643 16.9916 84.8256 17.1004 84.7811 17.2067C84.8028 17.1561 84.8969 16.9787 84.7811 17.2067C84.6652 17.4348 84.5603 17.5976 84.4191 17.7895C84.2381 18.0645 84.5385 17.7098 84.3865 17.8256C84.3191 17.8913 84.2563 17.9615 84.1983 18.0356L84.0354 18.1912C84.0029 18.2202 83.7169 18.459 83.9631 18.2708C83.8117 18.3834 83.6534 18.4862 83.4889 18.5785L83.2899 18.6834C83.1487 18.7486 83.1523 18.7522 83.2899 18.6834L83.127 18.745C82.9424 18.8029 82.765 18.8608 82.5732 18.9006C82.5008 18.9006 82.2402 18.9477 82.5225 18.9006C82.4248 18.9006 82.3234 18.9187 82.2257 18.9223C82.023 18.9223 81.8239 18.9223 81.6213 18.9042C81.4186 18.8861 81.929 18.9766 81.5706 18.9042C81.4584 18.8789 81.3462 18.8572 81.2304 18.8246C81.1146 18.792 81.0132 18.7558 80.9046 18.7196C80.6875 18.6074 80.796 18.6834 80.9046 18.7196C80.7381 18.6291 80.568 18.5495 80.4051 18.4482C80.3255 18.3975 80.2531 18.3396 80.1735 18.2889C79.9998 18.1804 80.3798 18.4953 80.1373 18.2528C79.978 18.0935 79.8224 17.9342 79.6668 17.7713C79.7066 17.8293 79.8333 17.9451 79.6668 17.7713C79.627 17.7134 79.5401 17.5832 79.4822 17.4854C79.4243 17.3877 79.4062 17.3551 79.37 17.29C79.3338 17.2248 79.1962 16.9063 79.3157 17.1959C79.2441 17.018 79.1849 16.8354 79.1383 16.6493C79.1166 16.5733 79.1021 16.4973 79.0877 16.4213C79.0587 16.262 79.0587 16.2657 79.0877 16.4213C79.0877 16.3634 79.0877 16.3019 79.0877 16.244C79.0768 16.0631 79.0768 15.8818 79.0877 15.701C79.0877 15.6504 79.1492 15.2703 79.0877 15.5852L79.1311 15.3572C79.1745 15.169 79.2361 14.9953 79.294 14.8034C79.4062 14.4415 79.1637 15.0133 79.341 14.7057C79.3953 14.6043 79.446 14.503 79.5039 14.4053C79.5618 14.3076 79.6053 14.246 79.6559 14.1664C79.7066 14.0868 79.8622 13.9239 79.6849 14.1266C79.8064 13.9833 79.9357 13.8468 80.0722 13.7176C80.0722 13.7176 80.3472 13.4787 80.1916 13.6054C80.036 13.7321 80.3291 13.5077 80.3291 13.5077C80.5192 13.3833 80.7175 13.2721 80.9227 13.1747C80.6766 13.2615 80.8757 13.2 80.9227 13.1747L81.2485 13.0697L81.4765 13.0118C81.4765 13.0118 81.8384 12.9466 81.643 12.9756C81.4475 13.0045 81.824 12.9756 81.8203 12.9756C81.9217 12.9756 82.0194 12.9756 82.1207 12.9756H82.4212C82.7397 12.9756 82.2547 12.9213 82.5334 12.9756C82.8121 13.0299 82.9786 13.0878 83.1994 13.1602C83.5215 13.2652 83.0908 13.0661 83.2464 13.1819C83.4021 13.2977 83.4889 13.305 83.6084 13.3701L83.8002 13.4896L83.9848 13.6199C83.8581 13.5258 83.8617 13.5258 83.9848 13.6199L84.3829 14.018C84.6326 14.2677 84.2562 13.8045 84.4517 14.0977C84.5132 14.1954 84.5784 14.2858 84.6363 14.3836C84.6942 14.4813 84.7448 14.5827 84.7991 14.684C84.9367 14.9265 84.7485 14.4885 84.8462 14.7817C84.9186 15.0025 84.9765 15.2233 85.0308 15.4477C85.0308 15.5056 85.0634 15.7083 85.0308 15.4477C85.0308 15.607 85.0525 15.7662 85.0561 15.9291C85.0561 16.2862 85.198 16.6287 85.4505 16.8812C85.703 17.1337 86.0455 17.2755 86.4026 17.2755C86.7597 17.2755 87.1021 17.1337 87.3546 16.8812C87.6071 16.6287 87.749 16.2862 87.749 15.9291C87.7356 14.7628 87.3686 13.628 86.6965 12.6748C86.0244 11.7216 85.0788 10.9947 83.9848 10.5904C82.9016 10.2033 81.7263 10.1549 80.615 10.4516C79.5037 10.7484 78.509 11.3762 77.763 12.2517C76.998 13.148 76.5317 14.2606 76.4288 15.4345C76.326 16.6084 76.5919 17.7851 77.1893 18.8008C77.7868 19.8164 78.6861 20.6205 79.7621 21.1009C80.838 21.5814 82.037 21.7144 83.1921 21.4813C85.8307 21.0071 87.7019 18.5495 87.7381 15.9291C87.7381 15.572 87.5963 15.2295 87.3438 14.977C87.0913 14.7245 86.7488 14.5826 86.3917 14.5826C86.0346 14.5826 85.6921 14.7245 85.4396 14.977C85.1871 15.2295 85.0453 15.572 85.0453 15.9291L85.0308 15.9544Z" fill="#0536FC"/>
<path d="M61.2359 20.2798C61.2358 21.3348 60.9113 22.3643 60.3063 23.2287C59.7013 24.093 58.8451 24.7504 57.8538 25.1117C56.8626 25.473 55.7842 25.5207 54.7649 25.2483C53.7457 24.9759 52.8348 24.3967 52.1559 23.5892C51.4769 22.7816 51.0628 21.7847 50.9696 20.7338C50.8764 19.6829 51.1086 18.6288 51.6347 17.7143C52.1609 16.7998 52.9556 16.0693 53.9111 15.6218C54.8665 15.1743 55.9364 15.0314 56.9758 15.2126C58.1651 15.4285 59.2416 16.053 60.0194 16.9782C60.7972 17.9034 61.2275 19.0711 61.2359 20.2798C61.2576 22.0099 63.9505 22.0135 63.9251 20.2798C63.9067 18.6775 63.4053 17.118 62.4864 15.8052C61.5675 14.4924 60.2739 13.4874 58.7746 12.9215C57.2566 12.3717 55.6058 12.3042 54.048 12.7283C52.4901 13.1523 51.1012 14.0472 50.0713 15.2906C49.0414 16.534 48.4207 18.0652 48.2941 19.6748C48.1676 21.2844 48.5413 22.8938 49.3641 24.2829C50.2047 25.6603 51.4439 26.7499 52.9176 27.4073C54.3913 28.0646 56.0299 28.2587 57.6164 27.9639C61.2793 27.3051 63.8889 23.9354 63.936 20.2798C63.9504 18.5461 61.2576 18.5461 61.2359 20.2798Z" fill="#0536FC"/>
<path d="M75.1894 101.399L78.4469 106.875C78.9319 107.693 79.3807 108.5 80.1516 109.079C80.5099 109.385 80.9655 109.553 81.4365 109.553C81.9075 109.553 82.3631 109.385 82.7214 109.079C82.8943 108.902 82.991 108.665 82.991 108.417C82.991 108.17 82.8943 107.932 82.7214 107.755C82.5425 107.585 82.3055 107.491 82.0591 107.491C81.8126 107.491 81.5755 107.585 81.3967 107.755C81.4394 107.729 81.4858 107.709 81.5342 107.697C81.4365 107.697 81.6247 107.661 81.5342 107.697C81.6319 107.697 81.393 107.653 81.3967 107.653C81.4908 107.693 81.3967 107.653 81.3605 107.621C81.128 107.466 80.9237 107.272 80.7561 107.049C80.3471 106.502 79.9272 105.674 79.5399 105.022L76.8181 100.436C76.2028 99.4011 74.5849 100.342 75.2002 101.381L75.1894 101.399Z" fill="#1B1B1B"/>
<path d="M76.944 95.9046C79.8587 100.708 83.3443 105.14 87.3245 109.105C88.1787 109.955 89.4962 108.634 88.6456 107.78C84.7771 103.93 81.3899 99.6255 78.5583 94.96C77.9357 93.9321 76.3142 94.8731 76.944 95.9046Z" fill="#1B1B1B"/>
<path d="M79.1093 91.0321C81.6598 94.5647 84.2984 98.0333 87.025 101.438C88.3642 103.11 89.7227 104.763 91.1005 106.397C92.1863 107.671 93.7173 109.158 95.4727 108.181C96.526 107.591 95.585 105.973 94.5281 106.563C93.9779 106.871 93.2541 106.027 92.9211 105.655C92.2877 104.931 91.6941 104.207 91.086 103.483C89.8795 102.035 88.7008 100.58 87.5498 99.1179C85.2044 96.1596 82.929 93.1519 80.7236 90.0947C80.025 89.1247 78.3999 90.0585 79.1093 91.0393V91.0321Z" fill="#1B1B1B"/>
<path d="M76.7955 38.6595C78.2722 41.5261 79.7465 44.3939 81.2184 47.2629C81.2778 47.3742 81.359 47.4724 81.4573 47.5515C81.5555 47.6306 81.6686 47.6892 81.79 47.7235C81.9113 47.7579 82.0384 47.7675 82.1635 47.7516C82.2886 47.7357 82.4093 47.6948 82.5182 47.6312C82.6271 47.5676 82.7221 47.4826 82.7974 47.3814C82.8727 47.2803 82.9269 47.165 82.9566 47.0424C82.9863 46.9198 82.9909 46.7925 82.9703 46.6681C82.9496 46.5436 82.9041 46.4246 82.8364 46.3182C81.3596 43.4516 79.8853 40.5839 78.4134 37.7149C78.354 37.6036 78.2728 37.5054 78.1746 37.4263C78.0764 37.3471 77.9632 37.2886 77.8419 37.2542C77.7205 37.2198 77.5935 37.2103 77.4684 37.2262C77.3432 37.2421 77.2226 37.283 77.1137 37.3466C77.0047 37.4102 76.9098 37.4952 76.8344 37.5963C76.7591 37.6975 76.705 37.8128 76.6753 37.9354C76.6456 38.058 76.6409 38.1853 76.6616 38.3097C76.6823 38.4341 76.7278 38.5531 76.7955 38.6595Z" fill="#1B1B1B"/>
<path d="M72.6011 38.5893C75.1372 42.9085 77.6708 47.2265 80.2019 51.5433C80.81 52.5821 82.4315 51.641 81.8162 50.5986C79.2802 46.2818 76.7466 41.9638 74.2154 37.6446C73.6073 36.6059 71.9894 37.5469 72.6011 38.5893Z" fill="#1B1B1B"/>
<path d="M67.0021 38.167C70.6215 44.0498 74.4195 49.8143 78.396 55.4607C79.0873 56.4379 80.7088 55.5041 80.0139 54.516C76.0398 48.8697 72.2418 43.1051 68.6199 37.2223C67.9865 36.198 66.3687 37.1391 67.0021 38.167Z" fill="#1B1B1B"/>
<path d="M105.151 76.906L113.837 69.9132C114.405 69.4572 114.315 68.4872 113.837 68.0094C113.581 67.7658 113.241 67.6299 112.887 67.6299C112.533 67.6299 112.193 67.7658 111.937 68.0094L103.25 75.0021C102.686 75.4582 102.776 76.4499 103.25 76.906C103.507 77.1507 103.848 77.2872 104.202 77.2872C104.557 77.2872 104.898 77.1507 105.154 76.906H105.151Z" fill="#1B1B1B"/>
<path d="M118.694 67.1994L119.237 66.6528C119.367 66.535 119.463 66.3852 119.516 66.2185C119.592 66.0566 119.632 65.8799 119.632 65.7009C119.632 65.522 119.592 65.3452 119.516 65.1833C119.464 65.0162 119.368 64.8662 119.237 64.749L118.966 64.5391C118.76 64.4172 118.525 64.3534 118.285 64.3545L117.924 64.4016C117.697 64.4693 117.491 64.5939 117.326 64.7635L116.787 65.3028C116.659 65.4216 116.563 65.5711 116.508 65.7371C116.409 65.9831 116.383 66.2522 116.432 66.5127C116.482 66.7731 116.605 67.014 116.787 67.2066L117.058 67.4165C117.264 67.5384 117.5 67.6022 117.739 67.6011L118.101 67.5541C118.327 67.4864 118.531 67.3617 118.694 67.1921V67.1994Z" fill="#1B1B1B"/>
</g>
<defs>
<clipPath id="clip0_217_4251">
<rect width="135" height="135" fill="white" transform="translate(0.666016)"/>
</clipPath>
</defs>
</svg>
