<svg width="24" height="24" viewBox="0 0 24 24" fill="none" xmlns="http://www.w3.org/2000/svg">
<path d="M11 19H13M9 2L9.089 2.534C9.282 3.691 9.379 4.27 9.775 4.622C10.19 4.989 10.776 5 12 5C13.224 5 13.81 4.99 14.225 4.622C14.622 4.27 14.718 3.692 14.911 2.534L15 2M5 9C5 5.7 5 4.05 6.025 3.025C7.05 2 8.7 2 12 2C15.3 2 16.95 2 17.975 3.025C19 4.05 19 5.7 19 9V15C19 18.3 19 19.95 17.975 20.975C16.95 22 15.3 22 12 22C8.7 22 7.05 22 6.025 20.975C5 19.95 5 18.3 5 15V9Z" stroke="#1B1B1B" stroke-width="1.5" stroke-linecap="round" stroke-linejoin="round"/>
</svg>
