<svg width="31" height="27" viewBox="0 0 31 27" fill="none" xmlns="http://www.w3.org/2000/svg">
<path d="M14.867 11.7372C11.9551 12.2513 12.8935 16.5827 15.6346 16.471C17.0389 16.4132 18.2613 15.2307 18.0118 13.7865C17.7707 12.3836 16.3953 11.5622 15.0379 11.7193C14.222 11.8103 14.211 13.0974 15.0379 13.0065C15.7614 12.9252 16.4849 13.1443 16.7233 13.905C16.9479 14.6133 16.274 15.1164 15.6346 15.188C14.3171 15.3355 13.7576 13.2394 15.2088 12.983C16.0246 12.8342 15.6787 11.5939 14.867 11.7372Z" fill="white"/>
<path d="M8.8076 26.0829C10.635 22.5521 13.0604 19.2654 15.2847 15.9758C15.7519 15.2868 14.6356 14.6418 14.1739 15.3254C11.9511 18.6163 9.52422 21.9031 7.69685 25.4338C7.31649 26.1697 8.42724 26.8201 8.8076 26.0829Z" fill="white"/>
<path d="M16.3444 16.2449C18.2834 19.5923 20.3878 22.8515 22.4274 26.1369C22.8643 26.8425 23.9791 26.1962 23.5395 25.4892C21.4999 22.201 19.3956 18.9432 17.4566 15.5958C17.0431 14.8778 15.9282 15.5255 16.3444 16.2449Z" fill="white"/>
<path d="M17.9209 14.1886L29.4557 14.3581C30.2825 14.3705 30.2825 13.0834 29.4557 13.071L17.9209 12.9015C17.0941 12.8891 17.0941 14.1776 17.9209 14.1886Z" fill="white"/>
<path d="M16.7813 12.174C18.9629 8.686 20.3947 4.66606 22.2083 0.978247C22.5735 0.236825 21.4641 -0.4164 21.0976 0.329156C19.2826 4.01559 17.8452 8.03278 15.6692 11.5235C15.2282 12.2305 16.3431 12.8768 16.7813 12.174Z" fill="white"/>
<path d="M7.18826 2.3358C9.53931 5.79898 11.7236 9.74588 14.5832 12.8094C15.1496 13.4172 16.0578 12.5062 15.4927 11.8999C12.7117 8.91489 10.588 5.05343 8.29901 1.68258C7.83597 0.993526 6.7197 1.64262 7.18826 2.33167V2.3358Z" fill="white"/>
<path d="M0.620148 14.3583C4.9474 14.7276 9.35183 14.6174 13.6929 14.6739C14.5197 14.6835 14.5197 13.3964 13.6929 13.3853C9.35183 13.3302 4.9474 13.4405 0.620148 13.0711C-0.206716 13.0009 -0.206716 14.288 0.620148 14.3583Z" fill="white"/>
<path d="M15.9087 7.06427C16.1085 8.15986 16.4737 9.17278 17.149 10.0685C17.2197 10.1802 17.3301 10.261 17.458 10.2945C17.5858 10.328 17.7216 10.3118 17.838 10.2491C18.8757 9.76812 20.0154 9.58207 21.111 9.2844C21.7367 9.11352 21.4707 8.14195 20.8437 8.31283C19.6557 8.63806 18.4527 8.86407 17.3295 9.38224L18.0186 9.56277C17.3929 8.73591 17.0663 7.81534 16.8816 6.79967C16.7645 6.16023 15.7943 6.43172 15.9169 7.06703L15.9087 7.06427Z" fill="white"/>
<path d="M16.9275 2.48469C17.3175 3.75117 17.8921 4.94875 18.2835 6.2166C18.3442 6.4123 18.5454 6.61074 18.7686 6.58594C20.3824 6.4054 21.9465 6.18628 23.4335 5.49861C24.0233 5.22299 23.5107 4.35891 22.925 4.62902C21.6075 5.23815 20.1977 5.41868 18.7686 5.57854L19.2551 5.94787C18.8651 4.68139 18.2904 3.48381 17.8977 2.21596C17.7075 1.59719 16.7359 1.86178 16.933 2.49158L16.9275 2.48469Z" fill="white"/>
<path d="M18.6239 1.12667C18.8665 2.0252 19.2772 2.85757 20.2046 3.17867C21.161 3.51079 22.2952 2.90305 23.0987 2.44552C23.6637 2.12442 23.1552 1.25345 22.5901 1.57593C22.0251 1.89841 21.2933 2.33802 20.6043 2.2388C19.9621 2.14509 19.7416 1.38713 19.5983 0.860693C19.4301 0.233654 18.4572 0.499629 18.6336 1.12805L18.6239 1.12667Z" fill="white"/>
<path d="M5.91366 6.90645C7.69279 7.2372 9.51051 7.3819 11.3062 7.5955C11.5666 7.62858 11.8257 7.34193 11.8092 7.09249C11.7045 5.47184 12.1358 3.99727 12.6361 2.47721C12.8414 1.85844 11.8685 1.59523 11.6645 2.20159C11.1298 3.80984 10.686 5.37124 10.7977 7.0856L11.3021 6.58121C9.59596 6.37036 7.86781 6.23531 6.17687 5.9211C5.54295 5.80396 5.27146 6.77415 5.90952 6.89266L5.91366 6.90645Z" fill="white"/>
<path d="M8.59235 9.63796C9.97488 9.83842 11.3454 10.1145 12.6977 10.4648C12.8267 10.4995 12.9642 10.482 13.0803 10.4159C13.1965 10.3499 13.2818 10.2407 13.3179 10.112C13.6486 8.44589 13.5287 6.74531 13.6748 5.05989C13.7313 4.41218 12.7225 4.41769 12.6674 5.05989C12.5296 6.6516 12.6578 8.27087 12.3463 9.84467L12.9665 9.49326C11.5253 9.12486 10.0651 8.83549 8.59235 8.62643C7.94878 8.54099 7.95842 9.54976 8.59235 9.63383V9.63796Z" fill="white"/>
<path d="M6.5596 4.55164C7.64279 4.57645 8.69566 4.86999 9.78161 4.89066C9.91409 4.88815 10.0404 4.83403 10.1335 4.73983C10.2267 4.64562 10.2794 4.51876 10.2805 4.38627C10.2567 3.41047 10.307 2.43427 10.4307 1.46606C10.5285 0.830752 9.55836 0.557887 9.46603 1.19871C9.32229 2.25489 9.25963 3.32052 9.2786 4.38627L9.78161 3.88188C8.69566 3.86121 7.64279 3.56767 6.5596 3.54287C5.90913 3.52771 5.91051 4.5351 6.5596 4.55026V4.55164Z" fill="white"/>
<path d="M1.79029 12.0365C2.60475 12.6883 3.41783 13.3415 4.16476 14.0705C4.19922 13.8073 4.23229 13.5441 4.26674 13.2795C3.28998 13.8709 2.34979 14.5208 1.45127 15.2254C0.941373 15.6264 1.65937 16.3279 2.16237 15.9379C2.99806 15.2882 3.87247 14.6899 4.78078 14.1463C4.84654 14.1068 4.90251 14.0529 4.94448 13.9887C4.98646 13.9245 5.01336 13.8516 5.02317 13.7755C5.03298 13.6994 5.02545 13.6221 5.00113 13.5493C4.97681 13.4765 4.93635 13.4102 4.88276 13.3553C4.13582 12.6249 3.32274 11.9772 2.50828 11.3198C2.00665 10.9174 1.28866 11.6258 1.7958 12.0323L1.79029 12.0365Z" fill="white"/>
<path d="M4.43608 10.5883C5.75079 11.4717 6.71271 12.7065 7.727 13.9027V13.1902C6.44674 14.4553 5.1086 15.6556 3.82558 16.9221C3.36254 17.3782 4.07502 18.0907 4.53806 17.6346C5.81694 16.3681 7.15646 15.1678 8.43948 13.9027C8.53153 13.8069 8.58294 13.6792 8.58294 13.5464C8.58294 13.4136 8.53153 13.2859 8.43948 13.1902C7.36456 11.9223 6.33649 10.6545 4.9446 9.71873C4.40438 9.35491 3.9 10.2286 4.43608 10.5883Z" fill="white"/>
<path d="M8.85716 16.5139C9.51728 15.5492 10.2587 14.6604 11.2206 13.981C11.2947 13.9351 11.3558 13.8711 11.3982 13.795C11.4406 13.7189 11.4629 13.6333 11.4629 13.5462C11.4629 13.4591 11.4406 13.3734 11.3982 13.2973C11.3558 13.2212 11.2947 13.1572 11.2206 13.1114C10.8476 12.8842 10.5251 12.583 10.2731 12.2262C10.0211 11.8695 9.84504 11.4648 9.75569 11.0373C9.61788 10.402 8.64631 10.6721 8.79101 11.3047C9.04459 12.4664 9.73226 13.3374 10.7204 13.981V13.1114C9.61788 13.8941 8.75656 14.8905 7.99585 16.0054C7.62789 16.5442 8.50161 17.0473 8.86543 16.5139H8.85716Z" fill="white"/>
<path d="M20.5394 10.5769C20.3381 10.8938 19.2591 12.5338 18.9394 12.5338C18.8512 12.5351 18.7649 12.5593 18.689 12.604C18.613 12.6488 18.55 12.7125 18.5061 12.7889C18.4622 12.8653 18.4389 12.9519 18.4385 13.04C18.4381 13.1282 18.4606 13.2149 18.5039 13.2917C19.1929 14.4424 20.0887 15.4347 20.8784 16.5137C21.2587 17.0319 22.1338 16.5303 21.7493 16.0052C20.9597 14.9275 20.0625 13.9381 19.3735 12.7818L18.9394 13.5398C19.9316 13.5398 20.9238 11.8461 21.4089 11.0854C21.7604 10.5341 20.888 10.0311 20.5394 10.5769Z" fill="white"/>
<path d="M24.3497 10.4774C23.7654 11.0968 23.2292 11.7598 22.7455 12.4605C22.5857 12.6879 22.1047 13.1992 22.1461 13.5272C22.3222 14.7916 22.8509 15.9808 23.6716 16.9587C24.0851 17.4631 24.7879 16.7451 24.3841 16.2448C23.9438 15.7014 23.6037 15.084 23.3795 14.4216C23.3074 14.2065 23.2476 13.9875 23.2003 13.7656C23.1218 13.428 23.2623 13.49 23.1011 13.7532C23.6599 12.8302 24.3175 11.9707 25.0621 11.1899C25.5114 10.7214 24.8003 10.0089 24.3497 10.4774Z" fill="white"/>
<path d="M27.3363 11.5796C26.3978 12.0026 25.7363 12.8047 25.0294 13.5241C24.9665 13.5869 24.9213 13.6653 24.8986 13.7512C24.8758 13.8372 24.8763 13.9276 24.8998 14.0133C25.1562 14.9063 25.6729 15.7098 26.4874 16.1811C27.0511 16.5063 27.5582 15.6367 26.9959 15.3115C26.4061 14.9683 26.0561 14.3895 25.87 13.7459C25.8273 13.9099 25.7846 14.0726 25.7405 14.2366C26.3896 13.5764 26.9808 12.8378 27.8435 12.445C28.4347 12.1777 27.922 11.3095 27.3363 11.5754V11.5796Z" fill="white"/>
<path d="M7.36889 23.7076C8.029 23.5973 8.75527 23.4416 9.42089 23.5959C10.205 23.7792 10.1527 24.8031 10.1237 25.426C10.0934 26.0765 11.1008 26.0724 11.1311 25.426C11.178 24.4393 11.0595 23.3162 10.1072 22.787C9.22658 22.2977 8.03176 22.5816 7.10154 22.7346C6.46072 22.8407 6.73358 23.8123 7.36889 23.7076Z" fill="white"/>
<path d="M7.53833 21.1553C8.94813 20.9086 10.3814 20.6881 11.8105 20.6647L11.3254 20.294C11.8477 21.7038 12.3286 23.1273 12.8523 24.5358C13.0756 25.138 14.0499 24.8775 13.817 24.2602C13.2947 22.8531 12.8137 21.4281 12.29 20.0197C12.2594 19.9143 12.1957 19.8216 12.1084 19.7551C12.021 19.6886 11.9147 19.6519 11.8049 19.6504C10.289 19.6752 8.75657 19.915 7.25719 20.1768C6.61775 20.2884 6.88924 21.26 7.52455 21.1415L7.53833 21.1553Z" fill="white"/>
<path d="M10.2516 18.7807C11.332 18.6181 12.4221 18.5877 13.475 18.2722C13.2862 18.1936 13.096 18.1178 12.9058 18.0406C13.4019 18.8675 13.8498 19.6778 14.0428 20.6342C14.1723 21.2709 15.1452 21.0008 15.0074 20.3669C14.798 19.3278 14.3087 18.4375 13.7671 17.5321C13.7105 17.4366 13.6243 17.3622 13.5216 17.3202C13.4189 17.2782 13.3053 17.2708 13.198 17.2992C12.1479 17.6162 11.0523 17.6465 9.97458 17.8091C9.33377 17.9056 9.60663 18.8758 10.2419 18.7738L10.2516 18.7807Z" fill="white"/>
<path d="M16.9991 20.7541C17.5072 19.9052 18.0161 19.0572 18.526 18.2101L18.0906 18.4595C18.7645 18.4698 19.429 18.62 20.042 18.9005C20.6263 19.1762 21.1444 18.3024 20.5505 18.0296C19.7795 17.6684 18.9417 17.4717 18.0906 17.4521C18.0027 17.4522 17.9164 17.4753 17.8403 17.519C17.7641 17.5628 17.7007 17.6257 17.6564 17.7016C17.1465 18.5496 16.6376 19.3976 16.1295 20.2456C15.7946 20.8051 16.6656 21.3108 16.9991 20.7541Z" fill="white"/>
<path d="M18.0173 24.1474L20.0528 20.4155L19.4836 20.6471C20.5365 21.0371 21.7175 21.0095 22.8049 20.8166C23.4429 20.7022 23.1714 19.732 22.5361 19.8519C21.6197 20.0145 20.6357 20.0104 19.751 19.6824C19.6439 19.6527 19.5299 19.6592 19.4269 19.7011C19.324 19.743 19.2378 19.8178 19.1818 19.9139L17.1464 23.6458C16.8363 24.2164 17.7059 24.7249 18.0173 24.1543V24.1474Z" fill="white"/>
<path d="M20.3917 26.0129C20.8933 25.1198 21.0987 24.1276 21.4597 23.1781L20.841 23.5295C21.6547 23.7724 22.4999 23.8932 23.3491 23.8878C23.9982 23.8878 23.9982 22.8804 23.3491 22.879C22.5902 22.8859 21.8347 22.7776 21.1083 22.558C20.9794 22.5251 20.8427 22.5434 20.7271 22.6092C20.6114 22.675 20.5258 22.7831 20.4882 22.9107C20.1588 23.7762 19.9783 24.6913 19.5235 25.5043C19.2038 26.0707 20.0747 26.5793 20.3931 26.0129H20.3917Z" fill="white"/>
</svg>
