<svg width="136" height="136" viewBox="0 0 136 136" fill="none" xmlns="http://www.w3.org/2000/svg">
<g clip-path="url(#clip0_217_4279)">
<path d="M11.8682 58.4082C6.62391 58.5173 4.77017 64.5044 4.01369 68.7605C3.38278 72.3165 3.13828 75.9302 3.28446 79.5388C3.2897 79.8727 3.42448 80.1916 3.66034 80.4281C3.89621 80.6646 4.21472 80.8003 4.54868 80.8064H71.4571C71.7905 80.7986 72.108 80.6624 72.3435 80.4263C72.579 80.1901 72.7144 79.8722 72.7213 79.5388C73.062 74.6523 73.1132 69.1183 71.4639 64.4601C70.7823 62.4939 69.7021 60.7526 67.6542 60.0847C65.9912 59.5395 64.1716 59.3726 62.4405 59.1885C50.1731 57.8664 37.6195 58.1663 25.2976 58.2685C20.8234 58.3026 16.3492 58.4048 11.8784 58.4082C10.2496 58.4082 10.2462 60.9435 11.8784 60.9435C21.6208 60.9435 31.3563 60.7117 41.0987 60.8174C47.1097 60.8855 53.1309 60.9946 59.1249 61.4273C61.1643 61.5453 63.1959 61.7728 65.2109 62.1089C65.8627 62.2213 66.506 62.3784 67.1362 62.5791C67.4974 62.6984 67.1941 62.5178 67.5281 62.7563C67.801 62.9785 68.0428 63.2364 68.2471 63.523C70.0463 66.1366 70.1451 70.0827 70.2678 73.1325C70.3626 75.2687 70.3399 77.4085 70.1996 79.5422L71.4673 78.2746H4.54868L5.81631 79.5422C5.69091 76.5058 5.84948 73.4644 6.28997 70.4575C6.74318 67.3907 7.7382 61.0321 11.8682 60.9469C13.4971 60.9094 13.5005 58.3741 11.8682 58.4082Z" fill="#1B1B1B"/>
<path d="M65.6886 60.1292C61.8073 60.9981 59.6197 64.6647 58.5156 68.2154C56.9651 73.2144 56.7879 78.595 56.5767 83.7814C56.1223 95.0833 55.668 106.387 55.2136 117.694C55.1489 119.323 57.6841 119.319 57.7489 117.694C58.1714 107.287 58.5928 96.8825 59.0131 86.4802C59.2142 81.5187 59.2721 76.4891 60.291 71.6094C61.0202 68.1098 62.3866 63.4652 66.3769 62.5725C67.9683 62.2317 67.2936 59.7714 65.6954 60.1292H65.6886Z" fill="#1B1B1B"/>
<path d="M2.95753 80.0644C2.55543 92.7884 1.99318 105.55 0.671023 118.23C0.599464 118.911 1.30825 119.49 1.93865 119.497L29.4926 119.76L48.3571 119.937L54.4601 119.998C55.3086 119.998 56.2627 120.134 57.1078 119.974C59.5272 119.507 61.9739 118.414 64.3183 117.664L71.7912 115.279C72.0557 115.2 72.2885 115.04 72.4558 114.821C72.6231 114.601 72.7161 114.334 72.7215 114.059V79.5396C72.7215 77.9074 70.1896 77.9074 70.1896 79.5396V114.038L71.1199 112.815C66.3935 114.328 61.5616 115.66 56.9034 117.371C56.6785 117.453 56.106 117.517 56.7671 117.473H56.5899C56.1707 117.439 55.7414 117.473 55.3222 117.473L49.9348 117.422L12.4886 117.081L1.92503 116.979L3.18924 118.247C4.5148 105.577 5.07365 92.8157 5.47575 80.0814C5.52687 78.4492 2.99501 78.4492 2.9439 80.0814L2.95753 80.0644Z" fill="#1B1B1B"/>
<path d="M18.6978 93.9287C19.6417 92.2249 21.7817 89.5908 24.0375 90.9096C25.5471 91.7921 25.496 94.1093 24.794 95.4826C23.7377 97.5578 21.6624 98.8902 19.8666 100.253C17.9175 101.746 16.1898 103.375 15.2698 105.705C14.8847 106.673 15.982 107.44 16.827 107.266C20.9123 106.412 25.1409 106.529 29.1728 107.607C30.7505 108.026 31.4252 105.583 29.8543 105.164C25.38 103.98 20.6902 103.863 16.1626 104.823L17.7198 106.38C18.5172 104.366 20.4221 102.99 22.0918 101.739C23.8569 100.417 25.6664 99.0435 26.8011 97.108C27.3156 96.2536 27.6381 95.2975 27.7463 94.3061C27.8546 93.3146 27.746 92.3115 27.4281 91.3662C27.0934 90.3833 26.451 89.5343 25.596 88.9451C24.741 88.3559 23.719 88.0578 22.6813 88.0949C19.8394 88.2142 17.805 90.3166 16.5101 92.6645C15.7196 94.0923 17.9073 95.3906 18.6978 93.9423V93.9287Z" fill="#0536FC"/>
<path d="M34.3558 107.402C36.8979 107.671 39.6478 107.426 41.8525 106.039C43.8085 104.823 45.2601 102.809 45.4884 100.492C45.7372 98.0178 44.3026 95.8266 41.8593 95.2542C39.3275 94.6578 36.5605 95.2951 34.3626 96.5763L36.2675 97.6702C36.5446 95.3984 36.7718 93.1324 36.949 90.872L35.6814 92.1396L44.2719 91.2468C44.6048 91.2383 44.9218 91.1024 45.1576 90.8672C45.3934 90.6321 45.5301 90.3155 45.5396 89.9826C45.5396 89.3522 44.9569 88.6434 44.2719 88.715L35.6814 89.6044C35.3484 89.6146 35.0319 89.7515 34.7964 89.987C34.5608 90.2225 34.424 90.539 34.4137 90.872C34.2343 93.1437 34.0071 95.4098 33.7322 97.6702C33.6129 98.6618 34.8874 99.2002 35.6405 98.764C37.208 97.8542 39.1469 97.3294 40.9631 97.6463C42.6124 97.936 43.2939 99.2513 42.885 100.846C41.9309 104.557 37.5726 105.201 34.366 104.857C33.6845 104.785 33.0984 105.494 33.0984 106.124C33.1053 106.458 33.2411 106.777 33.4774 107.013C33.7136 107.249 34.032 107.385 34.366 107.392L34.3558 107.402Z" fill="#0536FC"/>
<path d="M42.8985 58.3127C46.6026 48.826 55.0875 41.6155 64.7617 38.736C76.0068 35.3761 88.8842 37.4275 98.7867 43.6566C117.825 55.6275 117.736 84.6774 102.392 99.5141C98.2536 103.472 93.2887 106.462 87.8552 108.269C82.4217 110.077 76.6548 110.656 70.9704 109.965C69.3552 109.761 69.3688 112.296 70.9704 112.497C81.8475 113.86 93.021 110.483 101.543 103.637C110.335 96.5836 115.46 85.8258 116.077 74.6318C116.704 63.264 112.431 51.1431 103.424 43.8509C93.8286 36.0883 80.1334 33.0964 68.0944 35.3318C55.8576 37.5945 45.0283 45.9738 40.4723 57.6415C39.8794 59.1578 42.326 59.8189 42.9156 58.323L42.8985 58.3127Z" fill="#1B1B1B"/>
<path d="M120.769 101.154C122.816 100.168 124.594 98.7008 125.951 96.8777C127.308 95.0546 128.202 92.9299 128.558 90.6854L126.071 90.3447C126.177 93.1048 126.374 96.1955 128.347 98.3355C130.034 100.165 132.777 100.956 135.026 99.6986C136.478 98.8739 135.203 96.8668 133.748 97.5109C128.081 100.015 124.234 105.57 123.594 111.687C123.461 112.964 125.383 113.39 125.955 112.324C127.424 109.642 126.896 106.5 126.129 103.679C125.485 101.321 124.183 98.8467 121.467 98.6865C119.838 98.5877 119.842 101.123 121.467 101.218C123.014 101.31 123.542 103.73 123.825 104.912C124.299 106.899 124.803 109.155 123.767 111.046L126.129 111.687C126.681 106.415 130.218 101.804 135.026 99.6986L133.748 97.5007C132.344 98.298 130.617 97.3405 129.809 96.1103C128.708 94.444 128.678 92.27 128.603 90.3481C128.552 88.985 126.337 88.5318 126.115 90.0073C125.836 91.9301 125.085 93.7536 123.928 95.3146C122.771 96.8757 121.246 98.1255 119.487 98.9523C118.015 99.6338 119.3 101.835 120.769 101.14V101.154Z" fill="#FF8200"/>
<path d="M46.2034 48.7708C45.4741 47.6088 44.7824 46.423 44.1418 45.2065C43.5011 43.9899 42.4686 42.5349 43.1365 41.1514C43.6749 40.0473 44.9017 39.1545 45.8149 38.3708C46.9496 37.3928 48.1389 36.4796 49.3622 35.6175C51.6061 34.0524 53.9274 32.6012 56.3171 31.2694C57.5098 30.5878 58.7025 29.937 59.9258 29.2861C60.9481 28.7409 62.5905 27.3779 63.7559 27.8277L62.9994 27.245C65.0327 29.9802 66.6825 32.9806 67.903 36.1627C68.4755 37.6722 70.9256 37.018 70.3463 35.4812C69.5836 33.4324 68.6548 31.4494 67.5691 29.5519C66.7274 28.0969 65.5824 25.4628 63.7389 25.1868C61.8306 24.9107 59.8099 26.4612 58.2288 27.3165C56.1842 28.4308 54.1226 29.5689 52.1224 30.7855C48.5239 32.9766 44.4723 35.4948 41.7428 38.7627C40.4309 40.3302 39.9947 42.0681 40.7614 44.007C41.5963 46.1163 42.806 48.1302 44.0157 50.0487C44.8778 51.4117 47.0825 50.1543 46.2034 48.7674V48.7708Z" fill="#1B1B1B"/>
<path d="M48.9158 32.3903C44.9459 31.167 41.3032 26.151 42.5981 21.9289C43.1092 20.2592 44.5404 18.6883 46.3465 18.4975C48.3365 18.2862 50.1425 19.7344 51.1171 21.3394C52.5824 23.7247 52.6437 26.7064 52.7494 29.4223C52.8107 31.0477 55.346 31.0579 55.2812 29.4223C55.1654 26.3247 55.012 23.0296 53.4275 20.2694C52.0917 17.942 49.6791 16.0644 46.9258 15.952C44.2474 15.843 41.7973 17.6319 40.6524 19.9798C39.3336 22.6752 39.6948 25.7318 40.9761 28.3693C42.4209 31.3373 45.0448 33.8522 48.2275 34.8438C49.7882 35.3242 50.456 32.881 48.909 32.4005L48.9158 32.3903Z" fill="#1B1B1B"/>
<path d="M11.5377 35.6491C14.4559 32.8652 16.4847 29.2796 17.3681 25.3445L14.8806 25.0037C14.9794 27.6003 15.7223 30.5683 17.5487 32.5209C19.1742 34.252 22.1047 34.5416 23.478 32.3539C24.2992 31.0488 22.5409 29.9686 21.4879 30.8205C19.5588 32.3946 18.0126 34.3864 16.966 36.6455C15.9194 38.9046 15.3997 41.372 15.4462 43.8614C15.4837 45.5345 17.7907 45.4391 17.9815 43.8614C18.2984 41.2205 18.5097 38.3786 17.0308 36.0239C16.4578 35.0767 15.6317 34.3084 14.6455 33.8056C14.1957 33.5909 13.7186 33.4477 13.262 33.2569C13.0796 33.1944 12.9057 33.1097 12.744 33.0048C12.635 32.9264 12.56 32.8173 12.5702 32.94C12.4407 31.3248 9.90548 31.3112 10.0384 32.94C10.065 33.4242 10.2193 33.8927 10.4856 34.2979C10.752 34.7031 11.1209 35.0305 11.5548 35.247C12.4203 35.7274 13.4494 35.8603 14.1991 36.5316C16.2061 38.3309 15.7359 41.4931 15.4497 43.8614H17.9849C17.9453 41.706 18.4026 39.5704 19.3216 37.6203C20.2405 35.6701 21.5963 33.9579 23.2837 32.6163L21.2937 31.0829C20.5168 32.3164 19.0481 30.4014 18.7039 29.8016C17.9033 28.3285 17.4631 26.6866 17.4193 25.0105C17.3647 23.6475 15.252 23.2215 14.9283 24.6698C14.1599 28.1853 12.3558 31.3899 9.74872 33.8703C8.56629 34.9982 10.3587 36.7872 11.5411 35.6627L11.5377 35.6491Z" fill="#FF8200"/>
<path d="M91.2255 72.6249C92.1143 70.831 93.2397 69.1646 94.5718 67.6702C92.657 67.8399 90.7281 67.7516 88.8368 67.4078C88.2943 65.3813 87.9991 63.2966 87.9577 61.1991C86.7294 62.814 85.3029 64.268 83.7118 65.5268C81.7381 64.3529 79.9983 62.8245 78.5799 61.0186C79.3503 63.2441 79.6474 65.606 79.4523 67.953C77.13 68.8048 74.6453 69.1205 72.1838 68.8765C74.4244 70.0371 76.3395 71.739 77.7553 73.8278C76.8598 75.6228 75.7598 77.3082 74.4772 78.8506C76.2815 78.3961 78.1635 78.3426 79.9907 78.6938C80.6112 80.8534 80.9805 83.0774 81.0913 85.3216C82.0709 83.5478 83.4103 81.9983 85.0237 80.7724C87.0423 82.1009 88.8757 83.6914 90.4759 85.5022C89.7238 83.2524 89.4261 80.8756 89.6001 78.5098C91.9646 77.8523 94.4159 77.5615 96.8685 77.6477C94.6146 76.4464 92.68 74.7244 91.2255 72.6249Z" fill="#FF8200"/>
<path d="M92.3194 73.2653C93.1685 71.5736 94.2263 69.9949 95.468 68.5662C96.1189 67.8063 95.7509 66.3206 94.5718 66.4024C92.7707 66.5544 90.9576 66.4823 89.1742 66.1877L90.0534 67.0703C89.5552 65.1509 89.2763 63.1812 89.2219 61.199C89.1844 60.2142 87.7839 59.3827 87.0581 60.3028C85.8171 61.9066 84.392 63.3591 82.8122 64.6304L84.3456 64.4328C82.4909 63.2876 80.8481 61.8304 79.4898 60.1256C78.6754 59.1374 77.0022 60.1971 77.3737 61.3557C78.0799 63.4791 78.3602 65.721 78.1983 67.9529L79.1286 66.7329C76.9078 67.5192 74.5446 67.8213 72.1975 67.6189C70.9299 67.5269 70.4937 69.3943 71.5603 69.9804C73.5926 71.0576 75.3434 72.5971 76.6717 74.475V73.1972C75.823 74.8925 74.7948 76.4919 73.6048 77.9678C72.8313 78.9322 73.5299 80.3838 74.8384 80.0874C76.4239 79.7069 78.0704 79.6535 79.6772 79.9306L78.7912 79.0446C79.3707 81.0969 79.7249 83.2061 79.8476 85.3351C79.9293 86.5482 81.5514 87.1138 82.209 85.9757C83.0913 84.399 84.2732 83.01 85.6882 81.8866H84.4104C86.3224 83.1738 88.0648 84.6965 89.5967 86.4187C90.452 87.3455 92.0809 86.3812 91.7129 85.1851C91.0242 83.0378 90.7422 80.7808 90.8814 78.5301L89.9545 79.7534C92.2061 79.1385 94.5352 78.8549 96.8686 78.9117C98.1158 78.9117 98.603 77.1705 97.5058 76.5537C95.4561 75.4401 93.6844 73.8781 92.3228 71.9841C91.3891 70.6619 89.1912 71.9261 90.1317 73.2653C91.7234 75.5315 93.8061 77.4092 96.2245 78.7584C96.4392 77.9712 96.6505 77.1841 96.8652 76.3969C94.2976 76.3336 91.7344 76.6435 89.256 77.317C88.9917 77.3956 88.7592 77.5561 88.592 77.7753C88.4248 77.9946 88.3316 78.2612 88.3257 78.5369C88.1785 81.0159 88.4904 83.5009 89.2458 85.8666L91.3619 84.6331C89.6774 82.7577 87.7631 81.1022 85.6644 79.7057C85.472 79.5879 85.2509 79.5256 85.0254 79.5256C84.7999 79.5256 84.5788 79.5879 84.3865 79.7057C82.6089 81.0685 81.1175 82.7683 79.9975 84.7081L82.359 85.3487C82.2277 82.9925 81.8427 80.6572 81.2106 78.3836C81.1539 78.1716 81.0425 77.9782 80.8877 77.8227C80.7328 77.6672 80.5398 77.5551 80.328 77.4976C78.276 77.1279 76.17 77.1824 74.1398 77.6577C74.551 78.362 74.9622 79.0673 75.3734 79.7738C76.7177 78.1428 77.883 76.372 78.8491 74.4921C78.9606 74.2976 79.0193 74.0773 79.0193 73.8531C79.0193 73.629 78.9606 73.4087 78.8491 73.2142C77.2935 70.9644 75.2295 69.1128 72.8245 67.8097C72.6098 68.5935 72.3985 69.3806 72.1839 70.1678C74.7595 70.382 77.3513 70.0499 79.7896 69.1932C80.0521 69.1104 80.2824 68.9483 80.4489 68.7292C80.6155 68.5102 80.7102 68.2449 80.7199 67.9699C80.8895 65.5094 80.5781 63.0395 79.8033 60.6981L77.6837 61.9282C79.1952 63.7954 81.0178 65.3874 83.0712 66.6341C83.3156 66.767 83.5956 66.8195 83.8716 66.784C84.1475 66.7485 84.4052 66.6269 84.608 66.4365C86.1862 65.1633 87.6111 63.711 88.8539 62.1088L86.69 61.2126C86.7531 63.4222 87.0628 65.6178 87.6135 67.7586C87.6702 67.9712 87.782 68.165 87.9375 68.3206C88.0931 68.4761 88.2869 68.5879 88.4995 68.6446C90.5032 68.997 92.5428 69.1 94.5718 68.9513C94.272 68.2289 93.9721 67.5099 93.6756 66.7875C92.2825 68.371 91.091 70.1211 90.1283 71.9977C89.4025 73.4391 91.5902 74.7238 92.3194 73.2653Z" fill="#1B1B1B"/>
<path d="M78.2588 43.7445C82.5057 43.26 86.78 44.3833 90.24 46.8932C90.7954 47.2919 91.6507 46.9886 91.9711 46.4366C92.1338 46.1448 92.1776 45.8015 92.0931 45.4782C92.0087 45.155 91.8025 44.8769 91.5178 44.7021C87.6768 41.9499 82.9571 40.7078 78.2588 41.2127C77.9259 41.2213 77.609 41.3571 77.3732 41.5923C77.1374 41.8274 77.0007 42.144 76.9912 42.4769C76.9912 43.1039 77.5739 43.84 78.2588 43.7445Z" fill="#1B1B1B"/>
<path d="M97.2903 49.0468V48.706C97.2973 48.5358 97.2597 48.3666 97.1813 48.2153C97.1306 48.0596 97.0401 47.9199 96.9189 47.8098C96.807 47.6891 96.6663 47.5988 96.51 47.5474C96.36 47.4686 96.1919 47.431 96.0227 47.4384L95.6819 47.4827C95.4695 47.5464 95.277 47.6638 95.1231 47.8235L94.9254 48.079C94.8107 48.2729 94.7506 48.4943 94.7516 48.7197V49.0604C94.7443 49.2296 94.7819 49.3978 94.8607 49.5477C94.9175 49.7043 95.008 49.8464 95.1257 49.9642C95.2435 50.0819 95.3857 50.1724 95.5422 50.2292C95.6921 50.308 95.8603 50.3457 96.0295 50.3383L96.3703 50.294C96.583 50.231 96.7757 50.1135 96.9291 49.9532L97.1267 49.6976C97.2415 49.5037 97.3015 49.2823 97.3005 49.057L97.2903 49.0468Z" fill="#1B1B1B"/>
<path d="M4.19802 73.9879C6.01541 76.2301 7.8328 78.4701 9.65019 80.7077C9.8161 80.8721 10.0402 80.9644 10.2738 80.9644C10.5073 80.9644 10.7315 80.8721 10.8974 80.7077C11.057 80.5393 11.146 80.3162 11.146 80.0841C11.146 79.8521 11.057 79.6289 10.8974 79.4605L5.4452 72.7441C5.36354 72.6623 5.26654 72.5973 5.15975 72.5529C5.05296 72.5085 4.93847 72.4855 4.82281 72.4854C4.70716 72.4852 4.59261 72.5078 4.4857 72.5519C4.37879 72.596 4.28161 72.6608 4.19972 72.7424C4.11783 72.8241 4.05282 72.9211 4.00842 73.0279C3.96402 73.1347 3.94108 73.2492 3.94092 73.3648C3.94076 73.4805 3.96339 73.595 4.0075 73.702C4.05161 73.8089 4.11635 73.906 4.19802 73.9879Z" fill="#1B1B1B"/>
<path d="M4.73286 69.9974C7.55245 73.8457 10.7164 77.4294 14.1856 80.7042C15.0136 81.4845 16.2608 80.2407 15.4327 79.4604C12.0677 76.2936 8.99623 72.8287 6.25606 69.1081C6.13262 68.9121 5.93938 68.7705 5.71543 68.7116C5.49148 68.6528 5.25355 68.6812 5.04977 68.7911C4.84928 68.9105 4.70371 69.1038 4.64443 69.3294C4.58515 69.5551 4.6169 69.795 4.73286 69.9974Z" fill="#1B1B1B"/>
<path d="M5.94262 66.6511C10.2589 71.1719 14.4276 75.829 18.4485 80.6223C19.1778 81.4947 20.4181 80.2407 19.6957 79.3752C15.6816 74.5795 11.5118 69.9225 7.1864 65.404C6.40265 64.5793 5.14184 65.8299 5.94262 66.6478V66.6511Z" fill="#1B1B1B"/>
<path d="M61.0605 80.4107C60.4698 92.3759 59.8826 104.34 59.2988 116.303C59.2408 117.438 61.0026 117.434 61.0605 116.303C61.6466 104.34 62.2338 92.3759 62.8222 80.4107C62.8767 79.2794 61.1184 79.2828 61.0605 80.4107Z" fill="#1B1B1B"/>
<path d="M64.8364 80.4109C64.875 87.6214 64.7103 94.8285 64.3423 102.032C64.1628 105.597 63.9299 109.158 63.6437 112.715C63.5653 113.679 63.0576 115.594 64.4036 115.966C65.3714 116.232 65.9745 115.09 65.5179 114.32C65.4181 114.154 65.2673 114.025 65.0879 113.952C64.9085 113.879 64.7103 113.865 64.5229 113.915L64.4309 113.945C63.3609 114.306 63.8209 116.01 64.9011 115.649L64.9897 115.618L63.9777 115.22V114.654L64.5024 114.248L64.3866 114.276L65.2453 114.501C65.0988 114.388 65.3748 112.916 65.3884 112.725C65.4463 111.999 65.5043 111.274 65.5554 110.548C65.6644 109.094 65.7644 107.64 65.8552 106.186C66.0279 103.351 66.1722 100.511 66.288 97.667C66.5152 91.9173 66.614 86.1652 66.5845 80.4109C66.5845 79.2762 64.8159 79.2728 64.8193 80.4109H64.8364Z" fill="#1B1B1B"/>
<path d="M68.7789 80.0703C67.9517 91.3122 67.6946 102.589 68.0087 113.857C68.0394 114.988 69.8046 114.995 69.7705 113.857C69.4579 102.588 69.715 91.3101 70.5406 80.0669C70.6258 78.9356 68.8606 78.939 68.7789 80.0669V80.0703Z" fill="#1B1B1B"/>
<path d="M44.3905 39.0393C45.8317 41.8198 47.4373 44.5121 49.1987 47.1017C49.321 47.2988 49.5142 47.4416 49.7386 47.5006C49.9631 47.5595 50.2015 47.5302 50.405 47.4186C50.6054 47.2993 50.751 47.1059 50.8103 46.8803C50.8696 46.6546 50.8378 46.4147 50.7219 46.2123C48.9605 43.6227 47.3549 40.9305 45.9137 38.1499C45.7912 37.9574 45.5988 37.8198 45.377 37.766C45.1553 37.7123 44.9213 37.7466 44.7242 37.8616C44.5271 37.9767 44.3822 38.1636 44.32 38.3832C44.2578 38.6028 44.2831 38.8379 44.3905 39.0393Z" fill="#1B1B1B"/>
<path d="M48.967 35.5251C50.4096 38.3057 51.9634 41.0204 53.6286 43.6693C54.2318 44.6302 55.7584 43.7442 55.1518 42.7799C53.4866 40.1333 51.9328 37.4186 50.4902 34.6357C49.9688 33.6134 48.4456 34.5199 48.967 35.5251Z" fill="#1B1B1B"/>
<path d="M52.9092 31.9686C54.5631 34.622 56.1533 37.3141 57.6799 40.0447C58.2387 41.0363 59.7619 40.1469 59.2031 39.1553C57.6697 36.4292 56.0794 33.7372 54.4324 31.0793C53.8361 30.1149 52.3095 31.0009 52.9126 31.9686H52.9092Z" fill="#1B1B1B"/>
<path d="M57.7589 28.85C59.7076 31.995 61.4392 35.2693 62.9419 38.6502C63.0606 38.8514 63.2539 38.9976 63.4798 39.0569C63.7057 39.1163 63.9459 39.084 64.1482 38.9671C64.346 38.8454 64.4893 38.6522 64.5483 38.4275C64.6074 38.2029 64.5775 37.9641 64.4651 37.7609C62.9624 34.38 61.2308 31.1056 59.2821 27.9606C58.6858 26.9996 57.1592 27.8822 57.7589 28.85Z" fill="#1B1B1B"/>
</g>
<defs>
<clipPath id="clip0_217_4279">
<rect width="135" height="135" fill="white" transform="translate(0.666016 0.5)"/>
</clipPath>
</defs>
</svg>
