<svg width="20" height="20" viewBox="0 0 20 20" fill="none" xmlns="http://www.w3.org/2000/svg">
<path d="M5.48163 12.902C4.30247 13.6037 1.2108 15.037 3.09413 16.8312C4.0133 17.707 5.03747 18.3337 6.32497 18.3337H13.6733C14.9616 18.3337 15.9858 17.707 16.905 16.8312C18.7883 15.037 15.6966 13.6037 14.5175 12.902C13.149 12.0935 11.5886 11.6671 9.99913 11.6671C8.40967 11.6671 6.85014 12.0935 5.48163 12.902ZM13.75 5.41699C13.75 6.41155 13.3549 7.36538 12.6516 8.06864C11.9484 8.7719 10.9945 9.16699 9.99997 9.16699C9.00541 9.16699 8.05158 8.7719 7.34832 8.06864C6.64506 7.36538 6.24997 6.41155 6.24997 5.41699C6.24997 4.42243 6.64506 3.4686 7.34832 2.76534C8.05158 2.06208 9.00541 1.66699 9.99997 1.66699C10.9945 1.66699 11.9484 2.06208 12.6516 2.76534C13.3549 3.4686 13.75 4.42243 13.75 5.41699Z" stroke="#1B1B1B" stroke-width="1.5" stroke-linecap="round" stroke-linejoin="round"/>
</svg>
