<svg width="122" height="68" viewBox="0 0 122 68" fill="none" xmlns="http://www.w3.org/2000/svg">
<path d="M10.1215 5.61157C12.446 8.57458 15.1267 11.2513 18.1037 13.5819C21.2309 16.0291 24.6725 18.0363 28.2142 19.8409C35.0842 23.3318 42.2297 26.3594 49.4502 29.0505C56.6585 31.751 64.0248 34.0083 71.5061 35.8092C78.8936 37.5888 86.3978 38.826 93.9564 39.5106C101.514 40.191 109.109 40.2056 116.65 39.5542C117.6 39.471 118.549 39.3762 119.496 39.27C120.203 39.19 120.211 38.0824 119.493 38.1623C112.036 38.9829 104.509 39.1396 97.0042 38.6307C89.4725 38.1144 81.9842 37.028 74.6059 35.3811C67.2009 33.7303 59.9023 31.6234 52.7537 29.0728C45.5568 26.5134 38.499 23.5785 31.6104 20.2807C28.0318 18.5696 24.4902 16.7253 21.214 14.4882C18.0887 12.3542 15.2423 9.84668 12.7414 7.0243C12.1143 6.3152 11.5094 5.5884 10.9265 4.84389C10.4824 4.27668 9.68324 5.04598 10.1242 5.60772L10.1215 5.61157Z" fill="white"/>
<path d="M12.1629 6.2077C12.1796 5.40166 12.3417 4.60714 12.6415 3.86174C12.7629 3.55144 12.9173 3.2553 13.1024 2.97834C13.1266 2.9418 13.1523 2.90568 13.179 2.87141C13.1643 2.8905 13.1134 2.94424 13.1818 2.86134C13.2276 2.80923 13.273 2.75855 13.3224 2.71055L13.3979 2.64207C13.3979 2.64207 13.5234 2.54594 13.4591 2.59122C13.3947 2.63651 13.491 2.57238 13.504 2.56522C13.5466 2.54167 13.5878 2.51772 13.6325 2.49788C13.5533 2.51723 13.7084 2.46208 13.6325 2.49788C13.6712 2.48872 13.7092 2.47626 13.7489 2.46896C13.6389 2.49193 13.8155 2.47239 13.8513 2.4733C13.7595 2.47041 13.8309 2.4675 13.8513 2.4733L13.9518 2.50191C13.8455 2.47164 13.9518 2.50192 13.9771 2.51842C14.0147 2.53993 14.0512 2.56327 14.0865 2.58838C14.0033 2.52589 14.0838 2.59844 14.1097 2.61824C14.1356 2.63804 14.1595 2.67119 14.1834 2.69818C14.2439 2.7635 14.1427 2.63538 14.1956 2.71096C14.2215 2.74782 14.2467 2.78755 14.2689 2.82646C14.3457 2.94313 14.3972 3.07406 14.4203 3.21087C14.4257 3.23103 14.4572 3.43547 14.4483 3.33677C14.4679 3.52338 14.4687 3.71121 14.4505 3.89743C14.4576 3.87154 14.4654 3.81481 14.4409 3.93194C14.4246 3.99091 14.4167 4.05381 14.4018 4.1132C14.3306 4.42521 14.191 4.71696 13.9929 4.96792C13.7851 5.22435 13.5221 5.43121 13.2226 5.57365C12.9231 5.71609 12.5946 5.79059 12.2606 5.79181C12.1103 5.79015 11.9663 5.84777 11.8603 5.95201C11.7543 6.05625 11.695 6.19857 11.6955 6.34765C11.696 6.49673 11.7561 6.64035 11.8628 6.74694C11.9694 6.85353 12.1137 6.91435 12.2641 6.91601C12.7153 6.91445 13.1606 6.82447 13.5742 6.65125C13.9878 6.47802 14.3617 6.22497 14.6743 5.90662C15.0127 5.55457 15.2684 5.13232 15.4234 4.66944C15.5784 4.20657 15.6291 3.71425 15.5718 3.22693C15.4513 2.31606 14.8048 1.37025 13.7985 1.3459C12.8906 1.32322 12.2353 2.10315 11.8731 2.84553C11.3464 3.88562 11.0607 5.03202 11.0368 6.20198C11.0371 6.2757 11.052 6.34886 11.0806 6.41727C11.1093 6.48569 11.1512 6.54802 11.204 6.60071C11.2567 6.6534 11.3193 6.69542 11.3881 6.72437C11.4569 6.75331 11.5305 6.76862 11.6049 6.76941C11.6792 6.77021 11.7528 6.75648 11.8214 6.729C11.8899 6.70152 11.9522 6.66084 12.0046 6.60927C12.057 6.55771 12.0985 6.49626 12.1267 6.42846C12.1549 6.36065 12.1693 6.28781 12.169 6.21408L12.1629 6.2077Z" fill="white"/>
<path d="M12.9182 6.78053C13.1193 6.57594 13.3498 6.402 13.6024 6.26421C13.7395 6.1861 13.8808 6.11537 14.0257 6.05233L14.089 6.02707L14.1534 6.00367C14.2402 5.97273 14.3266 5.94322 14.4179 5.92438C14.5618 5.88373 14.7079 5.85049 14.8555 5.82481L14.9943 5.80403C14.9697 5.80787 14.9028 5.81201 15.0155 5.8008C15.1003 5.79404 15.1764 5.78479 15.2673 5.78439C15.4266 5.77827 15.5861 5.78138 15.7453 5.7937C15.8203 5.79961 15.8979 5.80779 15.9689 5.81718C15.9442 5.81015 15.8736 5.79934 15.9863 5.82214C16.0414 5.83784 16.0989 5.84493 16.1541 5.86063L16.2658 5.89245C16.2847 5.89782 16.3622 5.94 16.2832 5.8974C16.3166 5.91452 16.349 5.93354 16.3802 5.95437C16.355 5.93793 16.3265 5.88808 16.3923 5.96711C16.4581 6.04614 16.3727 5.87958 16.4109 6.00177C16.4491 6.12397 16.4162 6.04502 16.4152 6.02002C16.4129 6.02862 16.4016 6.19392 16.4188 6.09214C16.4042 6.16468 16.3845 6.23605 16.3598 6.3057C16.3546 6.32433 16.3128 6.40208 16.3566 6.31715C16.3399 6.34949 16.3245 6.38223 16.3063 6.41415C16.2707 6.47512 16.2322 6.53526 16.1893 6.59417C16.2405 6.52217 16.1893 6.59416 16.1853 6.6085C16.149 6.64918 16.1132 6.68843 16.0732 6.73116C15.9953 6.81723 15.9024 6.88867 15.7989 6.94215C15.7362 6.9785 15.6716 7.01172 15.6055 7.04168C15.5726 7.05861 15.5387 7.07368 15.5052 7.08733C15.5932 7.0521 15.4486 7.10524 15.4313 7.11114C15.1263 7.20786 14.8025 7.23654 14.4831 7.19516C13.7131 7.12125 12.9276 6.70126 12.2597 6.1787C12.0253 5.99602 11.6178 6.1227 11.487 6.36374C11.4149 6.49147 11.3952 6.64239 11.4318 6.7856C11.4685 6.92882 11.5588 7.0535 11.6842 7.13412C13.1054 8.24992 15.3488 8.9165 16.8193 7.57125C17.4628 6.98149 17.9215 5.80269 17.1197 5.12452C16.7495 4.8104 16.2699 4.72795 15.803 4.67851C15.378 4.64257 14.9508 4.66397 14.5333 4.74212C13.6244 4.91097 12.7882 5.33819 12.1258 5.97208C12.0189 6.07447 11.9579 6.21538 11.9564 6.36382C11.9548 6.51226 12.0128 6.65606 12.1176 6.76359C12.2224 6.87112 12.3654 6.93358 12.5151 6.93721C12.6648 6.94085 12.809 6.88537 12.916 6.78298L12.9182 6.78053Z" fill="white"/>
<path d="M11.4654 6.25893C10.4989 6.29364 9.62436 6.67694 8.87273 7.2456C8.07177 7.84516 7.45601 8.64317 6.84357 9.42352C6.66225 9.65397 6.79466 10.0606 7.04162 10.1945C7.17157 10.2679 7.32422 10.2895 7.46823 10.255C7.61223 10.2205 7.73668 10.1325 7.81605 10.0089C8.33142 9.35284 8.88449 8.66253 9.57172 8.12823C9.60187 8.10427 9.63348 8.08072 9.66469 8.05861C9.59857 8.10488 9.74191 8.0062 9.74006 8.00723C9.82099 7.95278 9.90337 7.89875 9.98707 7.85129C10.146 7.75757 10.3107 7.67351 10.4802 7.59958C10.5016 7.59018 10.603 7.55242 10.5366 7.57691C10.582 7.56038 10.6273 7.54385 10.6737 7.52917C10.7651 7.49939 10.8586 7.47332 10.9519 7.45341C11.0453 7.4335 11.1405 7.41256 11.237 7.3982C11.2891 7.39134 11.2026 7.39771 11.2935 7.39258L11.4685 7.38354C11.6175 7.38161 11.7593 7.32286 11.8643 7.21948C11.9694 7.11609 12.0298 6.97598 12.0329 6.82821C12.0304 6.67996 11.9695 6.53777 11.8633 6.43195C11.7571 6.32613 11.6141 6.26507 11.4646 6.2618L11.4654 6.25893Z" fill="white"/>
<path d="M10.8479 6.92852C11.1055 8.7837 10.882 10.6665 10.1985 12.3994C10.1592 12.5428 10.1791 12.6965 10.2539 12.827C10.3287 12.9575 10.4522 13.0542 10.5976 13.0958C10.743 13.1332 10.8965 13.1141 11.0266 13.0425C11.1566 12.9709 11.2531 12.8523 11.2962 12.7111C12.0085 10.8809 12.245 8.89735 11.9844 6.94024C11.945 6.63827 11.7497 6.37446 11.4144 6.371C11.1376 6.36705 10.8063 6.62283 10.8468 6.92666L10.8479 6.92852Z" fill="white"/>
<path d="M117.724 37.7658C117.619 37.6569 117.519 37.5445 117.424 37.4276L117.353 37.3377C117.403 37.4029 117.347 37.3266 117.34 37.3169C117.286 37.2395 117.226 37.1605 117.184 37.0817C117.103 36.9553 117.029 36.8242 116.963 36.6886C116.928 36.6214 116.897 36.5521 116.863 36.4834C116.858 36.4727 116.82 36.3861 116.851 36.4616L116.8 36.3292C116.577 35.7699 116.48 35.1707 116.515 34.5737C116.518 34.4987 116.524 34.4213 116.531 34.3504C116.54 34.3159 116.537 34.2763 116.543 34.2391C116.536 34.2635 116.526 34.335 116.548 34.2219C116.558 34.1845 116.569 34.1457 116.569 34.1054C116.569 34.0652 116.605 34.0537 116.57 34.0685C116.57 34.0685 116.525 34.1162 116.528 34.1123L116.498 34.1225L116.579 34.1007C116.591 34.104 116.705 34.0762 116.643 34.0848C116.581 34.0935 116.678 34.0839 116.682 34.0833C116.755 34.0815 116.828 34.0838 116.901 34.09C116.805 34.0797 116.984 34.1136 117.02 34.1239L117.128 34.1546C117.284 34.2069 117.047 34.1053 117.195 34.1831C117.261 34.2188 117.332 34.2576 117.391 34.2978L117.483 34.3627C117.462 34.3475 117.419 34.3028 117.501 34.3786C117.556 34.4317 117.611 34.483 117.663 34.5396C117.689 34.567 117.712 34.5954 117.737 34.6256C117.686 34.5633 117.753 34.6505 117.769 34.675C117.94 34.9303 118.056 35.2178 118.108 35.5189C118.179 35.8841 118.204 36.2558 118.185 36.626C118.173 37.0388 118.091 37.4458 117.942 37.8294C117.903 37.9724 117.922 38.1258 117.997 38.256C118.071 38.3862 118.194 38.4825 118.339 38.5237C118.483 38.5605 118.636 38.5413 118.765 38.47C118.894 38.3987 118.99 38.2807 119.033 38.1401C119.368 37.2744 119.392 36.2707 119.226 35.3582C119.073 34.5242 118.629 33.714 117.875 33.2683C117.099 32.8163 115.671 32.7273 115.469 33.842C115.33 34.621 115.369 35.4238 115.585 36.1907C115.828 37.0646 116.287 37.8673 116.92 38.5257C117.025 38.6335 117.168 38.6962 117.318 38.6998C117.468 38.7034 117.613 38.6478 117.72 38.5451C117.827 38.4425 117.888 38.3012 117.89 38.1523C117.891 38.0035 117.833 37.8593 117.728 37.7515L117.724 37.7658Z" fill="white"/>
<path d="M119.362 35.0753C119.38 35.0092 119.382 35.0034 119.367 35.0581C119.376 35.0235 119.403 34.994 119.423 34.9638C119.387 35.0018 119.391 34.9969 119.436 34.9476C119.461 34.9205 119.489 34.8943 119.516 34.8695C119.543 34.8447 119.652 34.7654 119.581 34.8152C119.645 34.7716 119.712 34.732 119.781 34.6966C119.875 34.6435 119.975 34.5997 120.079 34.5659C120.155 34.5384 120.233 34.5149 120.312 34.4957C120.33 34.4917 120.484 34.475 120.406 34.4777C120.447 34.4767 120.488 34.4779 120.528 34.4812C120.473 34.4655 120.474 34.4768 120.543 34.4854C120.662 34.5288 120.504 34.4419 120.602 34.51C120.633 34.5283 120.664 34.5484 120.693 34.5702C120.649 34.536 120.653 34.5401 120.703 34.5855C120.73 34.6115 120.756 34.6389 120.78 34.6677C120.824 34.719 120.828 34.7249 120.796 34.6879C120.923 34.8679 120.995 35.0804 121.002 35.2989C121.075 36.4567 120.19 37.3527 119.233 37.9534C119.105 38.0279 119.012 38.1486 118.973 38.2905C118.934 38.4325 118.951 38.5847 119.022 38.7156C119.097 38.845 119.221 38.9406 119.365 38.9818C119.51 39.023 119.664 39.0064 119.795 38.9358C120.872 38.259 121.897 37.2835 122.093 35.9663C122.188 35.3292 122.131 34.6462 121.746 34.0974C121.557 33.8041 121.278 33.5794 120.95 33.458C120.622 33.3366 120.264 33.3253 119.932 33.4258C119.214 33.631 118.525 34.0273 118.27 34.7582C118.231 34.9012 118.251 35.0544 118.326 35.1845C118.4 35.3146 118.523 35.4111 118.667 35.453C118.812 35.4906 118.965 35.4718 119.094 35.4003C119.223 35.3288 119.319 35.2102 119.362 35.0691L119.362 35.0753Z" fill="white"/>
<path d="M117.824 39.1692C118.073 39.3401 118.285 39.5589 118.448 39.8122C118.63 40.0961 118.756 40.4111 118.82 40.7404C118.995 41.5103 118.886 42.3358 118.737 43.097C118.701 43.24 118.721 43.3924 118.795 43.522C118.869 43.6516 118.991 43.7483 119.134 43.7919C119.416 43.8596 119.769 43.7167 119.829 43.408C120.023 42.4236 120.142 41.4023 119.901 40.409C119.699 39.5163 119.164 38.7282 118.404 38.2046C118.274 38.1281 118.12 38.1047 117.975 38.1394C117.83 38.1742 117.705 38.2643 117.628 38.3903C117.555 38.518 117.534 38.6697 117.571 38.8135C117.608 38.9573 117.7 39.0822 117.826 39.162L117.824 39.1692Z" fill="white"/>
<path d="M117.534 38.4159C116.634 38.9983 116.021 39.8517 115.614 40.8245C115.176 41.8755 115.04 43.0231 114.925 44.1488C114.894 44.4508 115.211 44.7134 115.495 44.718C115.645 44.7164 115.788 44.6576 115.894 44.5538C115.999 44.45 116.06 44.3093 116.063 44.1609C116.163 43.1773 116.294 42.1854 116.665 41.252C116.668 41.2405 116.716 41.1236 116.683 41.1872C116.697 41.1367 116.725 41.0919 116.746 41.0497C116.795 40.9473 116.847 40.8455 116.902 40.7441C117.007 40.5538 117.124 40.3705 117.253 40.1954C117.488 39.8876 117.772 39.6187 118.092 39.3984C118.221 39.324 118.314 39.203 118.354 39.0606C118.393 38.9183 118.375 38.7656 118.304 38.6344C118.228 38.5046 118.105 38.4087 117.96 38.3675C117.815 38.3262 117.66 38.343 117.528 38.4142L117.534 38.4159Z" fill="white"/>
<path d="M63.564 35.5363C61.3793 36.8732 59.6615 38.7667 57.9798 40.655C57.9099 40.7245 57.8596 40.8108 57.8335 40.9057C57.8074 41.0007 57.8065 41.1012 57.8309 41.1976C57.8557 41.2933 57.906 41.3811 57.9764 41.4519C58.0468 41.5228 58.1348 41.574 58.2312 41.6004L60.5955 41.9872C60.8885 42.034 61.2197 41.9246 61.2913 41.6061C61.3517 41.34 61.2063 40.9623 60.891 40.9106L58.5262 40.5253L58.7776 41.4706C60.3951 39.6552 62.0599 37.7883 64.1295 36.5206C64.2543 36.4463 64.344 36.3265 64.3798 36.1863C64.4155 36.0461 64.3945 35.8966 64.3212 35.7692C64.2478 35.6417 64.1278 35.5464 63.9865 35.5032C63.8452 35.4601 63.6936 35.4724 63.5636 35.5377L63.564 35.5363Z" fill="white"/>
<path d="M60.496 41.1847C58.6245 43.1272 56.8312 45.1391 55.1162 47.2204C55.0398 47.2987 54.9885 47.3977 54.9683 47.5054C54.9482 47.6131 54.9601 47.7249 55.0027 47.8273C55.0453 47.9297 55.1167 48.0184 55.2084 48.0827C55.3 48.147 55.408 48.1841 55.5193 48.1895C56.8349 48.3698 58.1529 48.5415 59.4758 48.7239C59.7802 48.7647 60.0423 48.4479 60.0408 48.1717C60.0393 47.8381 59.7756 47.6433 59.4697 47.6021C58.1526 47.4213 56.8351 47.2482 55.5132 47.0677L55.9163 48.0369C57.6301 45.9521 59.4233 43.9387 61.2958 41.9965C61.4032 41.8941 61.4641 41.753 61.4652 41.6041C61.4663 41.4552 61.4074 41.3108 61.3015 41.2025C61.1956 41.0943 61.0513 41.0312 60.9005 41.0271C60.7497 41.0229 60.6046 41.0781 60.4972 41.1804L60.496 41.1847Z" fill="white"/>
<path d="M63.7327 36.4149C65.234 38.3249 66.401 40.4667 67.1837 42.7486C67.2261 42.8908 67.3219 43.0125 67.4513 43.0885C67.5806 43.1644 67.7336 43.1888 67.8784 43.1565C68.0225 43.1193 68.1449 43.0274 68.2193 42.9006C68.2938 42.7738 68.3144 42.6221 68.2767 42.4782C67.4345 40.0123 66.169 37.7006 64.5363 35.6459C64.3459 35.4059 63.9362 35.432 63.736 35.6233C63.6319 35.7268 63.5731 35.8668 63.572 36.0141C63.5708 36.1615 63.6274 36.3048 63.7298 36.4141L63.7327 36.4149Z" fill="white"/>
<path d="M65.0196 42.747C65.8419 43.0077 66.6884 43.1806 67.5107 43.4414C67.6548 43.4813 67.8079 43.4642 67.937 43.3938C68.0661 43.3234 68.1608 43.2054 68.2006 43.0651C68.2367 42.9242 68.2154 42.7739 68.1414 42.6459C68.0673 42.5178 67.9463 42.422 67.8037 42.3785C66.9814 42.1177 66.1348 41.9448 65.3125 41.6841C65.1685 41.6446 65.0155 41.6618 64.8866 41.7321C64.7576 41.8025 64.6628 41.9203 64.6226 42.0604C64.587 42.2013 64.6084 42.3514 64.6824 42.4793C64.7564 42.6073 64.8772 42.7032 65.0196 42.747Z" fill="white"/>
<path d="M64.5721 42.3609C65.4048 44.9921 65.9861 47.6891 66.8202 50.3208L67.5146 49.6465C66.9636 49.442 66.4087 49.252 65.8581 49.0461C65.3321 48.8595 64.8184 48.6393 64.3202 48.3868C64.1897 48.311 64.0355 48.2877 63.8902 48.3218C63.745 48.3558 63.6199 48.4446 63.5416 48.5693C63.4065 48.8202 63.4598 49.1947 63.743 49.3409C64.8475 49.9131 66.0511 50.2907 67.2191 50.7232C67.6227 50.8729 68.0382 50.4392 67.915 50.0493C67.0823 47.418 66.501 44.7211 65.6668 42.0894C65.6247 41.9467 65.5287 41.8245 65.3988 41.7483C65.2689 41.6721 65.1153 41.6478 64.9701 41.6806C64.8258 41.7182 64.7033 41.8105 64.6289 41.9377C64.5545 42.0648 64.5341 42.2168 64.5721 42.3609Z" fill="white"/>
<path d="M58.8298 48.1454C58.7403 48.9119 58.6079 49.6861 58.5161 50.4611C58.4667 50.8754 58.5772 51.3077 58.9938 51.5104C59.3373 51.6767 59.7443 51.7256 60.1147 51.7995L62.4287 52.3089C62.7932 52.3873 63.2132 52.5432 63.5806 52.4451C63.7051 52.4085 63.8174 52.3409 63.9069 52.2487C63.9965 52.1565 64.0603 52.0428 64.0922 51.9183C64.1218 51.7529 64.1415 51.5856 64.1512 51.4175C64.2646 50.587 64.5203 49.7865 64.5873 48.9474C64.5854 48.7994 64.5246 48.6569 64.4181 48.5508C64.3115 48.4447 64.1678 48.3834 64.0181 48.3803C63.8693 48.3811 63.7277 48.4387 63.623 48.5411C63.5183 48.6435 63.4586 48.7827 63.4563 48.9297C63.4321 49.2025 63.3904 49.4731 63.3313 49.7399C63.269 50.041 63.1995 50.3401 63.1406 50.6407C63.0686 50.9607 63.0213 51.2861 62.999 51.6141C62.9948 51.7038 62.999 51.6141 63.0014 51.6055C63.2669 51.5183 63.1378 51.3827 63.2987 51.3625C63.2987 51.3625 63.3961 51.3905 63.3336 51.3725L63.2391 51.3454L62.7235 51.2346L60.7392 50.8043L59.7456 50.5887L59.5301 50.5392C59.4428 50.5142 59.5112 50.5338 59.55 50.5696C59.5602 50.5725 59.6458 50.7065 59.6255 50.7176C59.6286 50.6904 59.6299 50.6629 59.6292 50.6354C59.6343 50.5598 59.6437 50.4855 59.6535 50.4097C59.7448 49.6653 59.8705 48.9155 59.9553 48.1661C59.9901 47.8679 59.6656 47.6038 59.3875 47.5996C59.0516 47.5942 58.8608 47.8492 58.8257 48.1489L58.8298 48.1454Z" fill="white"/>
<path d="M64.4272 35.8531C64.3615 35.2143 64.3197 34.571 64.3018 33.9232C64.2846 33.6192 64.2885 33.3148 64.3135 33.0122C64.3307 32.9054 64.3549 32.8 64.3859 32.6966C64.4121 32.6389 64.4432 32.5835 64.4788 32.5311C64.476 32.5411 64.4262 32.5904 64.4756 32.5425C64.5055 32.509 64.5374 32.4772 64.5712 32.4475C64.6367 32.3872 64.5507 32.4416 64.6308 32.4088C64.6597 32.3954 64.7716 32.3561 64.6913 32.3781C64.7245 32.3682 64.7584 32.3603 64.7926 32.3544C64.7823 32.3515 64.7112 32.3574 64.7737 32.3598C64.8006 32.3598 64.826 32.3593 64.8506 32.3617C64.7812 32.3558 64.8155 32.3516 64.8482 32.3703C64.8272 32.355 64.7585 32.3059 64.857 32.3729C64.8785 32.3923 64.8986 32.413 64.9173 32.4351C64.88 32.381 64.9076 32.4245 64.9173 32.4351C64.9295 32.4541 65.0057 32.6076 64.9776 32.5376C65.0015 32.6025 65.0213 32.6687 65.0368 32.7359L65.0554 32.8234C65.0507 32.8003 65.0497 32.7349 65.0597 32.854C65.0641 32.9126 65.0667 32.9723 65.0663 33.0311C65.067 33.0899 65.0646 33.1487 65.059 33.2072C65.051 33.3227 65.0536 33.2614 65.0515 33.2345C65.0412 33.2719 65.0379 33.3127 65.0306 33.3509C64.9843 33.5878 64.9045 33.8164 64.7936 34.0301C64.4729 34.6573 64.0081 35.1998 63.6493 35.7991C63.5726 35.9258 63.5507 36.0783 63.5883 36.2232C63.626 36.3682 63.7201 36.4936 63.85 36.5719C63.9799 36.6502 64.1349 36.675 64.281 36.6409C64.427 36.6067 64.5521 36.5164 64.6288 36.3898C65.0093 35.7518 65.5091 35.1851 65.8266 34.512C66.1441 33.8389 66.3178 33.1029 66.1054 32.3756C66.0072 31.9873 65.7673 31.6458 65.4321 31.4171C65.2684 31.3191 65.0855 31.2575 64.8966 31.2368C64.7076 31.2162 64.5172 31.2369 64.339 31.2976C63.4948 31.5827 63.1923 32.4027 63.1645 33.2285C63.1479 34.0965 63.191 34.9658 63.2932 35.8304C63.2985 35.9782 63.3608 36.1195 63.4674 36.2255C63.5739 36.3315 63.7166 36.3942 63.8662 36.4006C64.1509 36.4047 64.4621 36.1514 64.4306 35.8463L64.4272 35.8531Z" fill="white"/>
<path d="M85.0206 40.0646C82.9691 41.5857 81.4356 43.6519 79.932 45.6787C79.6593 46.0452 80.0322 46.5039 80.4248 46.5343L82.8127 46.7149C82.9631 46.7164 83.1069 46.6592 83.2127 46.5558C83.3186 46.4524 83.3779 46.3111 83.3779 46.1626C83.3744 46.0146 83.3129 45.8725 83.2063 45.7662C83.0998 45.66 82.9565 45.5978 82.8066 45.5928L80.4168 45.4194L80.9096 46.2749C82.3609 44.3184 83.8216 42.3677 85.8175 40.888C86.0614 40.7069 86.0198 40.2952 85.8223 40.0945C85.5859 39.8516 85.2626 39.8907 85.0187 40.0718L85.0206 40.0646Z" fill="white"/>
<path d="M82.5581 45.8633C80.8375 48.0014 79.2014 50.202 77.6497 52.465C77.3917 52.8296 77.7357 53.3017 78.1436 53.3225C79.468 53.3921 80.7934 53.4465 82.1218 53.5126C82.1965 53.5136 82.2703 53.5001 82.3391 53.4729C82.4079 53.4457 82.4703 53.4052 82.5227 53.3538C82.5752 53.3024 82.6166 53.2411 82.6447 53.1735C82.6728 53.1058 82.6871 53.033 82.6866 52.9593C82.6861 52.8856 82.6709 52.8124 82.6419 52.7439C82.6128 52.6754 82.5705 52.6129 82.5174 52.5601C82.4642 52.5072 82.4013 52.465 82.3321 52.4358C82.263 52.4067 82.189 52.3911 82.1143 52.3901C80.7899 52.3205 79.4645 52.2661 78.1361 52.2L78.6304 53.056C80.1238 50.8713 81.6993 48.7458 83.357 46.6795C83.5445 46.445 83.5967 46.1284 83.3618 45.8859C83.1683 45.6879 82.7475 45.6278 82.5581 45.8633Z" fill="white"/>
<path d="M85.3115 40.8305C87.0127 42.6351 88.3893 44.7121 89.3797 46.9684C89.5027 47.2475 89.91 47.3258 90.1515 47.1898C90.2787 47.1161 90.3712 46.9962 90.41 46.855C90.4487 46.7138 90.4306 46.5622 90.3594 46.4315C89.3222 44.0906 87.887 41.9361 86.1172 40.0631C86.0656 40.008 86.0035 39.9634 85.9347 39.9319C85.8658 39.9004 85.7916 39.8827 85.7164 39.8798C85.6411 39.8769 85.5663 39.8888 85.4964 39.915C85.4265 39.9411 85.3629 39.9809 85.3092 40.0319C85.2556 40.083 85.213 40.1444 85.1841 40.2124C85.1551 40.2805 85.1403 40.3538 85.1405 40.4282C85.1407 40.5026 85.1559 40.5765 85.1853 40.6456C85.2147 40.7146 85.2576 40.7775 85.3115 40.8305Z" fill="white"/>
<path d="M87.133 47.0542C87.9753 47.2444 88.8317 47.3437 89.674 47.5339C89.8182 47.5751 89.9719 47.5586 90.1014 47.4879C90.2308 47.4172 90.3254 47.2982 90.3643 47.157C90.4031 47.0158 90.3831 46.864 90.3086 46.735C90.2341 46.606 90.1113 46.5104 89.9671 46.4692C89.1248 46.279 88.2684 46.1797 87.4261 45.9895C87.2819 45.9482 87.1282 45.9648 86.9987 46.0355C86.8693 46.1062 86.7747 46.2252 86.7358 46.3664C86.697 46.5076 86.717 46.6593 86.7915 46.7883C86.866 46.9173 86.9888 47.0129 87.133 47.0542Z" fill="white"/>
<path d="M86.686 46.6684C87.7451 49.2202 88.5688 51.8608 89.6221 54.4109L90.3157 53.7372C89.1678 53.4204 87.9921 53.1652 86.8862 52.7072C86.6032 52.5905 86.2526 52.8179 86.1911 53.0881C86.1563 53.2306 86.1784 53.3821 86.2528 53.5113C86.3272 53.6405 86.4482 53.7377 86.591 53.783C87.697 54.241 88.8727 54.4962 90.0205 54.813C90.3943 54.9202 90.8884 54.5544 90.7155 54.1397C89.6549 51.5874 88.8331 48.9459 87.7794 46.3971C87.6631 46.1147 87.406 45.9095 87.0835 45.9887C86.8166 46.0545 86.5672 46.3837 86.686 46.6684Z" fill="white"/>
<path d="M81.4839 52.9289C81.4629 53.709 81.3998 54.4879 81.3773 55.2677C81.363 55.743 81.5149 56.1503 81.9948 56.3404C82.1653 56.3953 82.3417 56.4288 82.5198 56.4401L83.1534 56.5216L85.5382 56.8263C85.9066 56.8734 86.3347 56.9946 86.6806 56.8148C87.1171 56.5854 87.0551 56.1021 87.0758 55.6949C87.1175 54.9022 87.2931 54.1247 87.2856 53.3287C87.2846 53.1806 87.2241 53.0377 87.1174 52.9315C87.0107 52.8253 86.8666 52.7645 86.7167 52.7624C86.5668 52.7603 86.4235 52.8171 86.3182 52.9204C86.2129 53.0236 86.1543 53.1648 86.1553 53.3128C86.1384 53.9175 86.0847 54.5198 85.9947 55.1166C85.9592 55.4085 85.9398 55.7025 85.9367 55.9972C85.934 56.0275 85.9345 56.0582 85.9383 56.0886L85.9313 56.1143L86.204 55.801C86.2087 55.7838 86.3325 55.8131 86.204 55.801L86.135 55.795C85.9649 55.7802 85.7968 55.752 85.6269 55.731L83.5776 55.4671L82.5739 55.3334L82.4615 55.3196C82.4615 55.3196 82.3402 55.2987 82.4087 55.3122C82.4772 55.3256 82.3621 55.2988 82.3505 55.2955C82.2873 55.2912 82.3532 55.2855 82.3679 55.3005C82.3826 55.3155 82.4973 55.464 82.4929 55.4627C82.4874 55.3777 82.4887 55.2925 82.4969 55.208C82.5208 54.4518 82.58 53.698 82.6006 52.9424C82.6001 52.8691 82.585 52.7962 82.5561 52.7281C82.5273 52.66 82.4853 52.5978 82.4324 52.5453C82.3796 52.4927 82.317 52.4507 82.2483 52.4217C82.1795 52.3926 82.1059 52.3772 82.0317 52.3761C81.9575 52.3751 81.8841 52.3885 81.8158 52.4156C81.7474 52.4427 81.6854 52.4829 81.6332 52.5341C81.5811 52.5852 81.5399 52.6461 81.512 52.7135C81.484 52.7808 81.4699 52.8532 81.4704 52.9266L81.4839 52.9289Z" fill="white"/>
<path d="M85.9723 40.1614C85.8569 39.5581 85.7624 38.9592 85.6931 38.3551C85.6509 38.0411 85.6322 37.725 85.637 37.4093C85.6378 37.2867 85.6598 37.1657 85.7022 37.0514C85.7113 37.0192 85.7256 36.9888 85.7443 36.9612L85.7868 36.8927C85.7361 36.9681 85.8013 36.8799 85.8182 36.8646C85.835 36.8492 85.8567 36.8276 85.8773 36.8102C85.8749 36.8188 85.814 36.851 85.8753 36.8174C85.9007 36.7999 86.0412 36.7363 85.9543 36.7656C85.9872 36.7549 86.1027 36.7369 86.0095 36.7427C86.0352 36.7414 86.061 36.7416 86.0867 36.7432C86.0188 36.7144 86.161 36.7428 86.0867 36.7432C86.1546 36.7719 86.009 36.71 86.0999 36.7469C86.1497 36.7612 86.1189 36.7524 86.1023 36.7383C86.1489 36.7745 86.1904 36.8166 86.2258 36.8636C86.183 36.8064 86.2555 36.9279 86.2651 36.9446C86.3157 37.0304 86.2942 36.9994 86.2826 36.9728C86.2975 37.0095 86.3104 37.0468 86.3213 37.0847C86.3391 37.1409 86.3516 37.1987 86.3668 37.2527C86.3648 37.2598 86.3869 37.3576 86.3758 37.2831C86.3804 37.3123 86.3817 37.3422 86.3848 37.3709C86.3939 37.5094 86.3912 37.648 86.3768 37.7855C86.3732 37.7984 86.3697 37.8516 86.3768 37.7855L86.3619 37.8742C86.3461 37.9317 86.3299 37.9906 86.3142 38.048C86.2797 38.184 86.2372 38.3178 86.1868 38.4485C86.1349 38.5774 86.0761 38.7033 86.0106 38.8257C85.9301 38.9809 85.8457 39.1333 85.7587 39.2835C85.5796 39.5964 85.398 39.9069 85.2423 40.2327C85.1168 40.4942 85.1555 40.8478 85.4439 41.0048C85.6937 41.1415 86.0862 41.1036 86.222 40.8218C86.8303 39.5549 87.9474 38.2061 87.3729 36.6933C87.2499 36.3016 86.9815 35.9676 86.6221 35.7592C86.4379 35.6677 86.2356 35.6193 86.0311 35.6177C85.8267 35.6162 85.6256 35.6614 85.4437 35.75C84.6755 36.0986 84.4605 36.9621 84.5083 37.7367C84.5753 38.6419 84.7006 39.5433 84.8836 40.4352C84.9005 40.5093 84.9325 40.5796 84.9774 40.6418C85.0224 40.7041 85.0794 40.757 85.1451 40.7973C85.2109 40.8376 85.2839 40.8646 85.3598 40.8765C85.4358 40.8885 85.5131 40.8852 85.5871 40.8668C85.661 40.8485 85.7302 40.8155 85.7903 40.7698C85.8505 40.7241 85.9004 40.6667 85.9371 40.601C85.9738 40.5353 85.9964 40.4626 86.0037 40.3874C86.011 40.3123 86.0028 40.2361 85.9796 40.1635L85.9723 40.1614Z" fill="white"/>
<path d="M105.377 41.4505C103.325 42.9716 101.792 45.0378 100.287 47.0627C100.016 47.4297 100.388 47.8897 100.781 47.9201L103.172 48.1016C103.247 48.1027 103.32 48.0892 103.389 48.0619C103.458 48.0347 103.52 47.9942 103.573 47.9429C103.625 47.8915 103.667 47.8302 103.695 47.7625C103.723 47.6948 103.737 47.622 103.737 47.5483C103.736 47.4746 103.721 47.4014 103.692 47.3329C103.663 47.2644 103.621 47.202 103.567 47.1491C103.514 47.0963 103.451 47.0541 103.382 47.0249C103.313 46.9957 103.239 46.9802 103.164 46.9791L100.775 46.7966L101.269 47.6541C102.721 45.6975 104.182 43.7454 106.178 42.2657C106.42 42.0856 106.379 41.6743 106.182 41.4721C105.944 41.2303 105.622 41.2698 105.378 41.4509L105.377 41.4505Z" fill="white"/>
<path d="M102.916 47.249C101.195 49.3872 99.5593 51.5878 98.0076 53.8508C97.7496 54.2154 98.0936 54.6874 98.5004 54.7064C99.8263 54.7764 101.15 54.8303 102.478 54.8979C102.629 54.9001 102.774 54.8429 102.88 54.7391C102.986 54.6352 103.045 54.4931 103.044 54.3441C103.043 54.195 102.982 54.0512 102.875 53.9443C102.767 53.8374 102.622 53.7761 102.471 53.774C101.147 53.7044 99.821 53.6514 98.4929 53.5838L98.9854 54.4409C100.479 52.2562 102.054 50.1307 103.712 48.0644C103.901 47.8289 103.952 47.5133 103.718 47.2713C103.525 47.0732 103.104 47.0131 102.915 47.2486L102.916 47.249Z" fill="white"/>
<path d="M105.667 42.2153C107.368 44.0198 108.744 46.0966 109.734 48.3528C109.857 48.6319 110.264 48.7102 110.507 48.5746C110.635 48.5009 110.727 48.3809 110.766 48.2398C110.805 48.0986 110.787 47.9469 110.715 47.8163C109.679 45.4751 108.243 43.3205 106.473 41.4479C106.422 41.3928 106.359 41.3481 106.291 41.3167C106.222 41.2852 106.148 41.2675 106.072 41.2646C105.997 41.2616 105.922 41.2736 105.852 41.2997C105.782 41.3259 105.719 41.3656 105.665 41.4167C105.612 41.4678 105.569 41.5291 105.54 41.5972C105.511 41.6652 105.496 41.7386 105.496 41.813C105.497 41.8874 105.512 41.9612 105.541 42.0303C105.571 42.0994 105.614 42.1623 105.667 42.2153Z" fill="white"/>
<path d="M107.489 48.438C108.33 48.6292 109.188 48.7275 110.029 48.9173C110.173 48.9585 110.327 48.9419 110.456 48.8713C110.586 48.8006 110.68 48.6815 110.719 48.5403C110.758 48.3992 110.738 48.2474 110.664 48.1184C110.589 47.9894 110.466 47.8938 110.322 47.8526C109.481 47.6628 108.623 47.5645 107.783 47.3732C107.639 47.3352 107.486 47.3532 107.358 47.4234C107.229 47.4937 107.134 47.6107 107.092 47.7502C107.055 47.8913 107.076 48.0424 107.15 48.171C107.224 48.2995 107.346 48.3954 107.489 48.438Z" fill="white"/>
<path d="M107.04 48.0545C108.101 50.6068 108.923 53.247 109.976 55.7971L110.671 55.1238C109.522 54.8066 108.348 54.5518 107.242 54.0938C106.959 53.9771 106.608 54.2045 106.547 54.4747C106.512 54.6172 106.534 54.7686 106.609 54.8979C106.683 55.0271 106.804 55.1243 106.947 55.1696C108.053 55.6275 109.227 55.8823 110.376 56.1996C110.75 56.3068 111.236 55.9371 111.071 55.5263C110.011 52.974 109.189 50.3324 108.136 47.7823C108.019 47.5013 107.761 47.2942 107.439 47.3752C107.172 47.441 106.923 47.7702 107.04 48.0545Z" fill="white"/>
<path d="M101.841 54.3151C101.82 55.0952 101.755 55.8722 101.734 56.6538C101.72 57.1277 101.872 57.5364 102.35 57.726C102.521 57.7812 102.698 57.8149 102.876 57.8262L103.509 57.9058L105.895 58.2124C106.263 58.2594 106.691 58.3807 107.038 58.1994C107.474 57.9715 107.412 57.4882 107.431 57.0791C107.474 56.2883 107.65 55.5109 107.642 54.7149C107.634 54.5712 107.571 54.4349 107.465 54.3342C107.359 54.2336 107.218 54.1762 107.073 54.1742C106.927 54.1721 106.788 54.2254 106.683 54.323C106.578 54.4206 106.517 54.5551 106.51 54.6986C106.494 55.3034 106.441 55.9058 106.351 56.5028C106.316 56.7947 106.296 57.0886 106.293 57.3833C106.291 57.4136 106.291 57.4443 106.295 57.4747L106.288 57.5004L106.559 57.1866C106.564 57.1695 106.689 57.1978 106.568 57.1891L106.499 57.1832C106.329 57.1669 106.159 57.1398 105.991 57.1178L103.942 56.8553L102.936 56.7211L102.826 56.7064C102.826 56.7064 102.704 56.6869 102.771 56.7C102.838 56.713 102.726 56.687 102.713 56.6833C102.649 56.6805 102.715 56.6747 102.732 56.6887C102.748 56.7027 102.861 56.8522 102.855 56.8505C102.85 56.7651 102.852 56.6796 102.861 56.5948C102.885 55.8386 102.944 55.0863 102.965 54.3292C102.964 54.2559 102.949 54.1831 102.92 54.115C102.892 54.0468 102.85 53.9847 102.797 53.9321C102.744 53.8795 102.681 53.8375 102.613 53.8085C102.544 53.7795 102.47 53.764 102.396 53.763C102.322 53.762 102.248 53.7754 102.18 53.8025C102.112 53.8296 102.05 53.8698 101.998 53.9209C101.945 53.972 101.904 54.033 101.876 54.1004C101.848 54.1677 101.834 54.2401 101.835 54.3134L101.841 54.3151Z" fill="white"/>
<path d="M106.329 41.5462C106.213 40.9443 106.117 40.345 106.049 39.7414C106.004 39.4268 105.982 39.1098 105.985 38.793C105.986 38.671 106.008 38.5506 106.049 38.4365C106.06 38.4044 106.075 38.3738 106.093 38.3453C106.1 38.3209 106.121 38.3007 106.135 38.2783C106.085 38.3537 106.15 38.2655 106.167 38.2502C106.185 38.2308 106.205 38.2127 106.226 38.1958C106.224 38.203 106.163 38.2351 106.224 38.203C106.249 38.1855 106.39 38.1219 106.303 38.1512C106.336 38.1405 106.451 38.1225 106.358 38.1283C106.384 38.1264 106.409 38.1274 106.436 38.1273C106.368 38.0986 106.508 38.1279 106.436 38.1273C106.504 38.1561 106.358 38.0928 106.447 38.1307C106.497 38.1449 106.468 38.1366 106.45 38.1221C106.497 38.1578 106.538 38.2 106.573 38.2473C106.532 38.1906 106.603 38.3102 106.614 38.3288C106.664 38.4127 106.643 38.3836 106.631 38.3552C106.646 38.3923 106.659 38.4303 106.67 38.4688C106.688 38.5251 106.701 38.5829 106.716 38.6368C106.714 38.644 106.736 38.7432 106.725 38.6673C106.729 38.6968 106.731 38.7264 106.732 38.7561C106.742 38.8946 106.74 39.0335 106.725 39.1711C106.722 39.1826 106.718 39.2372 106.725 39.1711C106.718 39.1998 106.71 39.2286 106.709 39.2594C106.693 39.3168 106.678 39.3743 106.67 39.4357C106.636 39.5717 106.593 39.7055 106.543 39.8362C106.502 39.9392 106.441 40.0704 106.367 40.2134C106.293 40.3565 106.2 40.5206 106.115 40.6712C105.936 40.9841 105.754 41.2946 105.597 41.6185C105.471 41.8815 105.51 42.2351 105.798 42.3921C106.05 42.5277 106.443 42.4899 106.578 42.2095C107.187 40.9412 108.304 39.5924 107.729 38.081C107.605 37.6895 107.337 37.3556 106.978 37.1469C106.794 37.0554 106.592 37.007 106.387 37.0054C106.183 37.0038 105.982 37.0491 105.8 37.1377C105.031 37.4863 104.817 38.3484 104.865 39.1229C104.932 40.0275 105.058 40.928 105.242 41.819C105.283 41.9626 105.379 42.0859 105.51 42.1622C105.64 42.2384 105.795 42.2616 105.94 42.2266C106.084 42.188 106.206 42.0954 106.28 41.9685C106.354 41.8415 106.375 41.69 106.339 41.5458L106.329 41.5462Z" fill="white"/>
<path d="M43.333 28.3981C40.8408 29.011 38.6173 30.3001 36.4383 31.5819C36.1025 31.7805 36.0331 32.3488 36.434 32.5487L38.5787 33.6149C38.7085 33.69 38.8616 33.7131 39.0059 33.6794C39.1502 33.6456 39.2745 33.5577 39.3528 33.4339C39.4866 33.1867 39.4373 32.805 39.1525 32.6631L37.0044 31.5976L37 32.5644C39.1129 31.3177 41.2374 30.0744 43.6278 29.4832C43.7008 29.4666 43.7695 29.4357 43.8297 29.3923C43.8899 29.3489 43.9406 29.2939 43.9786 29.2304C44.0166 29.167 44.0413 29.0964 44.0511 29.0228C44.061 28.9493 44.0558 28.8742 44.036 28.802C44.0162 28.7298 43.982 28.662 43.9356 28.6024C43.8891 28.5429 43.8313 28.4929 43.7655 28.4553C43.6997 28.4178 43.6273 28.3934 43.5525 28.3837C43.4776 28.374 43.4019 28.3791 43.3297 28.3987L43.333 28.3981Z" fill="white"/>
<path d="M38.7137 32.8681C36.332 34.1481 34.004 35.5177 31.7295 36.9769C31.4127 37.1797 31.3054 37.7487 31.7241 37.943C32.9292 38.5051 34.1382 39.0591 35.3437 39.6198C35.613 39.745 35.9657 39.7209 36.1205 39.4376C36.251 39.1968 36.2085 38.8012 35.9196 38.6673C34.714 38.1066 33.5055 37.5513 32.3 36.9906L32.2942 37.9582C34.5629 36.5046 36.8904 35.1374 39.2764 33.8566C39.3409 33.8213 39.3975 33.7736 39.443 33.7164C39.4884 33.6591 39.5218 33.5933 39.5412 33.5227C39.5607 33.4521 39.5658 33.3781 39.5562 33.305C39.5467 33.2319 39.5227 33.1611 39.4857 33.0965C39.4486 33.032 39.3992 32.9751 39.3403 32.929C39.2813 32.8828 39.214 32.8485 39.1422 32.8278C39.0704 32.8071 38.9954 32.8005 38.9216 32.8084C38.8478 32.8163 38.7766 32.8386 38.7121 32.8739L38.7137 32.8681Z" fill="white"/>
<path d="M43.1917 29.1688C44.0865 31.4723 44.5713 33.9038 44.6242 36.3542C44.6247 36.4279 44.6399 36.5011 44.6689 36.5696C44.698 36.6381 44.7403 36.7006 44.7934 36.7534C44.8466 36.8063 44.9095 36.8485 44.9787 36.8777C45.0478 36.9069 45.1219 36.9224 45.1965 36.9235C45.2712 36.9245 45.345 36.911 45.4138 36.8838C45.4826 36.8566 45.545 36.8161 45.5974 36.7647C45.6499 36.7133 45.6914 36.652 45.7195 36.5843C45.7476 36.5166 45.7618 36.4439 45.7613 36.3702C45.7084 33.8222 45.2095 31.2933 44.2867 28.8953C44.2432 28.7533 44.1467 28.6319 44.0169 28.5561C43.8871 28.4803 43.7339 28.4558 43.5887 28.4876C43.3145 28.5547 43.0782 28.8806 43.1887 29.168L43.1917 29.1688Z" fill="white"/>
<path d="M42.5625 35.7021C43.2726 36.1959 44.0353 36.6125 44.7443 37.1045C44.8734 37.1811 45.0268 37.205 45.1713 37.1711C45.3159 37.1371 45.4398 37.0479 45.5162 36.923C45.5888 36.7966 45.6086 36.6464 45.5713 36.5037C45.534 36.361 45.4426 36.237 45.3161 36.1574C44.606 35.6636 43.843 35.2484 43.1344 34.7551C43.0053 34.6785 42.8518 34.6545 42.7073 34.6885C42.5628 34.7225 42.4389 34.8116 42.3625 34.9366C42.2898 35.0629 42.2701 35.2132 42.3074 35.3558C42.3446 35.4985 42.4361 35.6226 42.5625 35.7021Z" fill="white"/>
<path d="M42.2658 35.2363C42.2625 37.9818 41.9974 40.7129 41.9945 43.457L42.8538 42.9881C41.9126 42.2704 40.9979 41.6518 40.1635 40.8329C40.1115 40.7774 40.049 40.7326 39.9797 40.701C39.9104 40.6693 39.8357 40.6515 39.7599 40.6486C39.6842 40.6457 39.6089 40.6577 39.5385 40.6839C39.4681 40.7102 39.4041 40.7501 39.3501 40.8015C39.2961 40.8528 39.2532 40.9145 39.2241 40.9828C39.1949 41.0512 39.18 41.1249 39.1802 41.1997C39.1804 41.2744 39.1957 41.3487 39.2253 41.4181C39.2549 41.4875 39.2981 41.5507 39.3523 41.604C40.2439 42.4796 41.2888 43.1882 42.2751 43.9436C42.6358 44.219 43.1335 43.8637 43.1344 43.4748C43.1359 40.7303 43.4013 37.9977 43.4042 35.2537C43.4037 35.1799 43.3885 35.1066 43.3594 35.0381C43.3304 34.9695 43.288 34.907 43.2348 34.8541C43.1815 34.8012 43.1185 34.759 43.0492 34.7298C42.9799 34.7006 42.9058 34.685 42.831 34.684C42.7562 34.6829 42.6823 34.6964 42.6134 34.7237C42.5445 34.751 42.482 34.7914 42.4295 34.8429C42.377 34.8943 42.3355 34.9556 42.3073 35.0234C42.2791 35.0911 42.2649 35.1639 42.2654 35.2377L42.2658 35.2363Z" fill="white"/>
<path d="M35.0746 38.8742C34.7521 39.5806 34.3904 40.2695 34.068 40.9758C33.879 41.3843 33.7697 41.8341 34.1321 42.2126C34.3862 42.4767 34.7775 42.6352 35.0932 42.8121L37.164 43.9782C37.4974 44.1648 37.8961 44.4796 38.2923 44.4776C38.4236 44.4756 38.5517 44.4412 38.6648 44.3775C38.778 44.3138 38.8726 44.2229 38.9402 44.1129C39.0183 43.9642 39.0881 43.8112 39.1491 43.6546C39.5127 42.9015 39.9957 42.2165 40.3154 41.44C40.4288 41.1641 40.191 40.8121 39.9168 40.7473C39.7722 40.7105 39.6201 40.7293 39.4913 40.7998C39.3626 40.8704 39.267 40.9874 39.224 41.1269L39.1782 41.231C39.1465 41.3006 39.1127 41.3664 39.077 41.4395C39.0072 41.5737 38.93 41.7181 38.8517 41.8545C38.7058 42.1118 38.5548 42.3646 38.4103 42.6223C38.25 42.9094 38.1096 43.2038 37.9782 43.5054C37.9684 43.5411 37.9718 43.5745 37.9668 43.5468C37.9618 43.5192 38.3222 43.3959 38.3424 43.3677C38.3452 43.3577 38.4145 43.4084 38.3424 43.3677L38.2443 43.3134L37.7835 43.0532L36.0413 42.0739L35.1473 41.5676C35.0901 41.5358 35.0329 41.504 34.9779 41.4697C34.8908 41.4154 34.9248 41.4175 34.9689 41.5026C34.9615 41.4897 35.0211 41.6271 35.0102 41.6209C35.035 41.628 34.9983 41.6359 35.0276 41.5919C34.9895 41.6735 35.0241 41.6048 35.0276 41.5919C35.0493 41.5472 35.0691 41.5036 35.0901 41.4556C35.4028 40.785 35.7434 40.1271 36.0521 39.4538C36.1714 39.1904 36.1413 38.8425 35.8516 38.6853C35.6057 38.5516 35.2057 38.5849 35.0765 38.8671L35.0746 38.8742Z" fill="white"/>
<path d="M44.0689 28.9045C44.2048 28.2564 44.3667 27.6148 44.5548 26.9796C44.5943 26.8359 44.6337 26.6923 44.6863 26.5524C44.72 26.4389 44.762 26.3282 44.812 26.2211C44.8435 26.1554 44.8784 26.0915 44.9167 26.0295C44.9215 26.0123 45.0059 25.9001 44.9716 25.9445C45.0172 25.8903 45.0678 25.8404 45.123 25.7957C45.172 25.7555 45.123 25.7957 45.1092 25.8057L45.2007 25.7545C45.2178 25.7439 45.2955 25.7196 45.203 25.7458L45.2785 25.7241L45.3538 25.7085C45.345 25.7059 45.2706 25.7125 45.3377 25.7039C45.4048 25.6952 45.5198 25.725 45.4118 25.6987C45.4348 25.7084 45.4589 25.7153 45.4835 25.7193C45.5157 25.7285 45.5157 25.7285 45.4835 25.7193C45.4484 25.7092 45.4513 25.7101 45.4835 25.7193C45.4835 25.7193 45.5832 25.799 45.5268 25.7456C45.4704 25.6923 45.5461 25.7729 45.5472 25.7747C45.5096 25.6989 45.5781 25.8518 45.5472 25.7747C45.56 25.8114 45.5709 25.8486 45.5797 25.8863C45.5797 25.8863 45.5957 25.9777 45.5903 25.9281C45.585 25.8785 45.5921 25.9736 45.591 25.9717C45.5925 26.0124 45.5943 26.0517 45.5924 26.093C45.5754 26.3165 45.5106 26.5329 45.4023 26.7281C45.2783 26.9572 45.1184 27.1649 44.9285 27.3439C44.4323 27.834 43.8306 28.2024 43.3038 28.6605C43.1966 28.7629 43.1358 28.9041 43.1349 29.0529C43.134 29.2017 43.1931 29.3461 43.2991 29.4541C43.4051 29.5622 43.5494 29.6251 43.7002 29.6291C43.851 29.6331 43.996 29.5778 44.1032 29.4753C44.6485 28.9962 45.2868 28.615 45.7895 28.0896C46.3168 27.5434 46.7369 26.83 46.7268 26.0446C46.7315 25.8434 46.6958 25.6425 46.6217 25.4534C46.5476 25.2643 46.4366 25.0908 46.295 24.943C46.1603 24.8177 46.0008 24.7213 45.8271 24.6603C45.6534 24.5993 45.4693 24.575 45.287 24.589C44.4367 24.6553 43.9423 25.2885 43.665 26.0226C43.3703 26.8582 43.1391 27.7155 42.9734 28.5875C42.9341 28.7304 42.9543 28.884 43.0295 29.0145C43.1047 29.145 43.2288 29.2418 43.3743 29.2835C43.5199 29.3252 43.6751 29.3085 43.8058 29.2369C43.9365 29.1654 44.0319 29.045 44.0712 28.9021L44.0689 28.9045Z" fill="white"/>
<path d="M23.1108 18.8361C20.6186 19.449 18.3951 20.7381 16.2161 22.0198C15.8803 22.2184 15.8094 22.7864 16.2103 22.9863L18.3547 24.0539C18.485 24.1283 18.6383 24.151 18.7827 24.1171C18.9272 24.0832 19.0517 23.9954 19.1306 23.8719C19.2644 23.6247 19.2151 23.243 18.9303 23.1011L16.7797 22.0333L16.7739 22.9997C18.8882 21.7534 21.0113 20.5097 23.4016 19.9185C23.476 19.9033 23.5463 19.8734 23.6081 19.8304C23.6699 19.7875 23.722 19.7325 23.7614 19.6686C23.8007 19.6048 23.8263 19.5335 23.8368 19.459C23.8473 19.3846 23.8424 19.3084 23.8223 19.2353C23.8023 19.1621 23.7676 19.0933 23.7203 19.0332C23.673 18.9731 23.614 18.9228 23.547 18.8853C23.48 18.8479 23.4063 18.8241 23.3303 18.8153C23.2543 18.8066 23.1777 18.813 23.105 18.8344L23.1108 18.8361Z" fill="white"/>
<path d="M18.4893 23.3116C16.1099 24.5871 13.7823 25.9568 11.5065 27.4207C11.1897 27.6236 11.0809 28.1922 11.5011 28.3869C12.7062 28.949 13.9152 29.503 15.1207 30.0637C15.39 30.1889 15.7427 30.1648 15.8961 29.8811C16.0266 29.6403 15.9841 29.2447 15.6951 29.1108C14.4896 28.5501 13.2811 27.9947 12.0755 27.434L12.0712 28.402C14.343 26.9452 16.6709 25.5761 19.055 24.2947C19.1854 24.2233 19.2807 24.1029 19.3198 23.9602C19.3589 23.8175 19.3388 23.6641 19.2637 23.5337C19.1887 23.4034 19.065 23.3067 18.9197 23.2651C18.7745 23.2234 18.6197 23.2401 18.4893 23.3116Z" fill="white"/>
<path d="M22.9695 19.6077C23.8644 21.9112 24.3491 24.3427 24.4021 26.7931C24.4026 26.8668 24.4178 26.94 24.4468 27.0085C24.4758 27.077 24.5181 27.1395 24.5713 27.1923C24.6244 27.2452 24.6874 27.2874 24.7565 27.3166C24.8257 27.3458 24.8997 27.3613 24.9744 27.3624C25.0491 27.3634 25.1229 27.3499 25.1917 27.3227C25.2605 27.2954 25.3229 27.255 25.3753 27.2036C25.4278 27.1522 25.4692 27.0909 25.4973 27.0232C25.5255 26.9555 25.5397 26.8828 25.5392 26.8091C25.4847 24.2607 24.9848 21.7316 24.0616 19.3334C24.0182 19.1913 23.9216 19.07 23.7918 18.9942C23.6621 18.9183 23.5088 18.8939 23.3636 18.9257C23.0909 18.9932 22.8546 19.3191 22.9652 19.6065L22.9695 19.6077Z" fill="white"/>
<path d="M22.3451 26.1415C23.0552 26.6352 23.8179 27.0519 24.5284 27.5442C24.6574 27.6208 24.8109 27.6448 24.9554 27.6108C25.0999 27.5768 25.2238 27.4877 25.3002 27.3627C25.3729 27.2364 25.3927 27.0861 25.3554 26.9435C25.3181 26.8008 25.2267 26.6767 25.1002 26.5972C24.3901 26.1034 23.6271 25.6882 22.9184 25.1948C22.7892 25.1181 22.6356 25.0941 22.4908 25.128C22.3461 25.1618 22.2219 25.2509 22.1451 25.3759C22.0732 25.5025 22.0539 25.6524 22.0911 25.7949C22.1283 25.9374 22.2192 26.0614 22.3451 26.1415Z" fill="white"/>
<path d="M22.041 25.6791C22.0392 28.425 21.7742 31.1561 21.7708 33.9016L22.6291 33.4308C21.6893 32.7136 20.7819 32.0971 19.9388 31.2756C19.8872 31.2184 19.8247 31.1719 19.7549 31.1389C19.6851 31.1058 19.6096 31.0868 19.5328 31.0831C19.4561 31.0795 19.3797 31.0911 19.3082 31.1174C19.2368 31.1438 19.1718 31.1842 19.1171 31.2362C19.0625 31.2883 19.0193 31.351 18.9902 31.4205C18.9611 31.49 18.9467 31.5649 18.9478 31.6406C18.9489 31.7164 18.9656 31.7914 18.9967 31.8613C19.0279 31.9312 19.0729 31.9944 19.1291 32.0471C20.0192 32.9223 21.0656 33.6314 22.0518 34.3868C22.4125 34.6622 22.9102 34.3069 22.9096 33.9175C22.9126 31.1734 23.178 28.441 23.1809 25.6969C23.18 25.5477 23.119 25.4038 23.0114 25.2968C22.9038 25.1898 22.7584 25.1285 22.6072 25.1263C22.456 25.1241 22.3113 25.1813 22.2051 25.2852C22.0988 25.3892 22.0397 25.5314 22.0406 25.6805L22.041 25.6791Z" fill="white"/>
<path d="M14.8517 29.312C14.5278 30.0179 14.1676 30.7073 13.8437 31.4132C13.6561 31.8221 13.5454 32.2715 13.9093 32.6503C14.1634 32.9144 14.5547 33.0729 14.8704 33.2498L16.9412 34.416C17.2732 34.6022 17.6729 34.9188 18.0607 34.9129C18.1922 34.9109 18.3205 34.8766 18.4338 34.813C18.5472 34.7494 18.6422 34.6585 18.7101 34.5486C18.7871 34.3994 18.8563 34.2463 18.9175 34.0899C19.2811 33.3367 19.7656 32.6522 20.0854 31.8756C20.1987 31.5997 19.9609 31.2478 19.6867 31.183C19.5421 31.1458 19.3898 31.1644 19.261 31.235C19.1322 31.3056 19.0366 31.4228 18.9939 31.5626C19.0049 31.5226 18.9565 31.6475 18.9481 31.6667C18.915 31.7358 18.8812 31.8017 18.8455 31.8747C18.7757 32.0089 18.6984 32.1533 18.6216 32.2901C18.4757 32.5475 18.3247 32.8003 18.1803 33.058C18.0211 33.3447 17.8768 33.6394 17.7481 33.9411C17.7383 33.9768 17.7417 34.0102 17.7294 33.9804C17.7172 33.9507 18.0848 33.8295 18.1051 33.8013C18.1253 33.7732 18.1771 33.8421 18.1051 33.8013L18.0055 33.7466L17.5462 33.4868L15.8025 32.5071L14.9215 32.0046C14.8643 31.9727 14.8068 31.9423 14.7518 31.9081C14.6636 31.8519 14.6976 31.854 14.7432 31.9395C14.7357 31.9266 14.7954 32.064 14.7831 32.0574C14.8078 32.0645 14.7784 32.0745 14.8019 32.0288C14.7638 32.1105 14.7983 32.0417 14.8019 32.0288L14.8629 31.8921C15.1756 31.2215 15.5177 30.564 15.8249 29.8903C15.9457 29.6273 15.9156 29.2794 15.6244 29.1218C15.3785 28.9881 14.98 29.0218 14.8508 29.304L14.8517 29.312Z" fill="white"/>
<path d="M23.845 19.3417C23.9817 18.6944 24.1422 18.0523 24.3309 17.4168C24.3704 17.2731 24.4098 17.1294 24.4639 16.99C24.4979 16.8767 24.5394 16.7659 24.5881 16.6583C24.6201 16.5927 24.6555 16.5289 24.6943 16.4671C24.699 16.4499 24.7835 16.3377 24.7492 16.3821C24.7942 16.3277 24.8444 16.2778 24.8991 16.2329L24.8868 16.2433L24.9768 16.1916C24.9954 16.1814 25.0731 16.1572 24.9865 16.1851C25.0105 16.178 25.0364 16.17 25.0615 16.1648C25.0866 16.1596 25.1121 16.1529 25.1372 16.1477C25.1285 16.1452 25.054 16.1518 25.1211 16.1431C25.1883 16.1344 25.3032 16.1643 25.1952 16.138C25.2182 16.1477 25.2423 16.1546 25.2669 16.1585C25.2991 16.1678 25.2991 16.1678 25.2669 16.1585C25.2332 16.1489 25.2347 16.1493 25.2669 16.1585C25.2669 16.1585 25.3666 16.2382 25.3102 16.1849C25.2538 16.1315 25.3296 16.2121 25.3306 16.214C25.293 16.1381 25.3612 16.2925 25.3306 16.214C25.3443 16.2504 25.3552 16.2877 25.3631 16.3256C25.3631 16.3256 25.3806 16.4174 25.3738 16.3674C25.367 16.3174 25.3755 16.4128 25.3759 16.4114C25.3759 16.4517 25.3773 16.4924 25.3773 16.5327C25.3596 16.756 25.2948 16.9723 25.1872 17.1678C25.0632 17.3968 24.9033 17.6046 24.7133 17.7836C24.2172 18.2737 23.6155 18.6421 23.0887 19.1002C23.0337 19.1503 22.9896 19.211 22.959 19.2787C22.9284 19.3464 22.9119 19.4197 22.9105 19.4943C22.9091 19.569 22.9229 19.6434 22.9509 19.7134C22.979 19.7833 23.0208 19.8473 23.0738 19.9016C23.1269 19.9559 23.1902 19.9994 23.2601 20.0296C23.3299 20.0598 23.4049 20.0761 23.4805 20.0774C23.5562 20.0787 23.631 20.0652 23.7007 20.0375C23.7704 20.0098 23.8334 19.9685 23.8862 19.9161C24.4333 19.4359 25.0702 19.0543 25.5743 18.5293C26.1017 17.9831 26.5218 17.2697 26.5102 16.4838C26.5152 16.2828 26.4797 16.082 26.4059 15.893C26.332 15.704 26.2212 15.5305 26.0799 15.3826C25.9452 15.2573 25.7857 15.161 25.612 15.1C25.4383 15.039 25.2542 15.0147 25.0719 15.0287C24.2216 15.095 23.7257 15.7277 23.4495 16.4637C23.1544 17.2987 22.9229 18.1554 22.7567 19.0268C22.7175 19.1697 22.7377 19.3233 22.8129 19.4538C22.8881 19.5843 23.0121 19.6811 23.1577 19.7228C23.3033 19.7645 23.4585 19.7478 23.5892 19.6762C23.7199 19.6047 23.8153 19.4842 23.8546 19.3414L23.845 19.3417Z" fill="white"/>
</svg>
