<svg width="70" height="40" viewBox="0 0 70 40" fill="none" xmlns="http://www.w3.org/2000/svg">
<path d="M-26.5864 14.9875C-23.7709 15.9781 -20.8393 16.6257 -17.857 16.9158C-14.7247 17.2199 -11.5696 17.0959 -8.43384 16.7939C-2.35545 16.2018 3.70991 15.1827 9.68211 13.9067C15.6501 12.6421 21.535 11.0141 27.3023 9.03205C32.998 7.0757 38.5407 4.70712 43.8844 1.94599C49.2258 -0.817554 54.3084 -4.04194 59.0715 -7.68863C59.6708 -8.14868 60.2646 -8.61599 60.8528 -9.09057C61.2913 -9.44509 60.8246 -10.1886 60.3788 -9.82944C55.7439 -6.1055 50.7799 -2.79564 45.5468 0.0599839C40.2928 2.9222 34.825 5.3848 29.192 7.42591C23.5395 9.47581 17.7639 11.1755 11.8996 12.5149C5.99936 13.8688 0.0320787 14.9126 -5.97655 15.6417C-9.09718 16.0219 -12.2497 16.2972 -15.3922 16.1971C-18.3899 16.1016 -21.3602 15.6377 -24.2337 14.8161C-24.9548 14.6092 -25.6686 14.381 -26.3753 14.1316C-26.9136 13.9416 -27.1202 14.7961 -26.5863 14.9838L-26.5864 14.9875Z" fill="white"/>
<path d="M22.276 12.2992C21.0899 14.1602 20.4842 16.1254 19.9046 18.0699C19.877 18.1453 19.8712 18.2213 19.8877 18.2906C19.9042 18.3599 19.9425 18.4202 19.9989 18.4658C20.0554 18.5107 20.1287 18.5385 20.2111 18.5464C20.2936 18.5543 20.3821 18.542 20.4675 18.5107L22.4627 17.5893C22.7095 17.4745 22.9254 17.2479 22.8577 17.0232C22.8016 16.8352 22.5416 16.6811 22.2755 16.8039L20.2806 17.7264L20.8436 18.1672C21.4014 16.2974 21.9762 14.3739 23.0992 12.6102C23.1678 12.5051 23.1913 12.39 23.1648 12.289C23.1383 12.1881 23.0639 12.1092 22.9572 12.069C22.8506 12.0289 22.7199 12.0305 22.5929 12.0736C22.4659 12.1168 22.3524 12.198 22.2762 12.3002L22.276 12.2992Z" fill="white"/>
<path d="M22.6097 17.4179C21.8954 19.5009 21.2701 21.5871 20.7337 23.6766C20.7042 23.7611 20.7025 23.8457 20.7288 23.9201C20.7551 23.9946 20.8084 24.0558 20.8821 24.0964C20.9559 24.1369 21.047 24.1551 21.1445 24.1487C21.242 24.1423 21.3417 24.1116 21.4316 24.0603C22.5398 23.5234 23.6465 22.9801 24.7613 22.4408C25.0173 22.316 25.0998 21.9974 24.9903 21.8324C24.8583 21.6331 24.574 21.6455 24.3166 21.7708C23.2071 22.3082 22.1001 22.8505 20.9869 23.3903L21.6848 23.7741C22.2189 21.6831 22.8435 19.596 23.5587 17.5127C23.6033 17.3986 23.596 17.2841 23.5384 17.1942C23.4809 17.1044 23.3778 17.0466 23.2519 17.0336C23.1259 17.0206 22.9874 17.0535 22.8669 17.125C22.7463 17.1964 22.6535 17.3007 22.6089 17.4148L22.6097 17.4179Z" fill="white"/>
<path d="M22.3186 13.108C24.1755 13.5049 25.8664 14.1956 27.3191 15.1505C27.4047 15.2131 27.5231 15.2383 27.6498 15.2209C27.7764 15.2036 27.9015 15.145 27.999 15.0573C28.0941 14.9672 28.1522 14.8555 28.1609 14.7464C28.1695 14.6372 28.128 14.5392 28.0452 14.4734C26.4782 13.4398 24.6486 12.6971 22.6377 12.2785C22.403 12.2295 22.1025 12.4395 22.0229 12.646C21.983 12.7557 21.9913 12.865 22.0459 12.9513C22.1005 13.0375 22.1973 13.094 22.3161 13.1089L22.3186 13.108Z" fill="white"/>
<path d="M25.8505 16.4098C26.5303 16.1951 27.1963 15.9236 27.8762 15.7089C27.9933 15.6682 28.0966 15.5936 28.1638 15.5012C28.2311 15.4088 28.2569 15.306 28.2356 15.2149C28.2114 15.1252 28.1429 15.0551 28.0447 15.0193C27.9464 14.9835 27.8259 14.9848 27.7086 15.023C27.0287 15.2378 26.3627 15.5092 25.6829 15.724C25.5659 15.7648 25.4628 15.8394 25.3956 15.9318C25.3284 16.0241 25.3025 16.1268 25.3235 16.2179C25.3479 16.3074 25.4165 16.3774 25.5147 16.4132C25.6129 16.449 25.7332 16.4478 25.8505 16.4098Z" fill="white"/>
<path d="M25.4146 16.7462C27.0888 17.91 28.592 19.2357 30.2676 20.399L30.5484 19.6579C30.038 19.8047 29.5302 19.962 29.0196 20.1078C28.5357 20.2531 28.0484 20.3723 27.5606 20.4647C27.4291 20.4832 27.2995 20.5445 27.1991 20.6356C27.0988 20.7268 27.0355 20.8408 27.0228 20.9535C27.0147 21.169 27.202 21.3665 27.4803 21.3156C28.5664 21.1182 29.6544 20.7563 30.7359 20.4445C31.1098 20.337 31.266 19.8755 31.0181 19.7029C29.3438 18.5391 27.8406 17.2135 26.1651 16.0502C26.0767 15.9855 25.954 15.9595 25.8229 15.9773C25.6917 15.9952 25.5621 16.0557 25.4613 16.1461C25.3631 16.239 25.3032 16.3538 25.2945 16.466C25.2857 16.5781 25.3289 16.6788 25.4146 16.7462Z" fill="white"/>
<path d="M23.9921 22.9603C24.2083 23.4365 24.3954 23.9369 24.613 24.4191C24.7291 24.6769 24.9703 24.8709 25.3539 24.7929C25.6699 24.728 25.9897 24.5672 26.2915 24.4374L28.195 23.6541C28.494 23.5297 28.8629 23.4235 29.0992 23.1976C29.178 23.1191 29.2363 23.0288 29.2687 22.935C29.3011 22.8412 29.3065 22.7472 29.2844 22.6618C29.2453 22.5542 29.1983 22.4502 29.1435 22.3503C28.9214 21.8268 28.816 21.2543 28.5564 20.7473C28.5005 20.6642 28.4029 20.6116 28.2848 20.6008C28.1667 20.59 28.0375 20.6218 27.9254 20.6894C27.8153 20.7588 27.7316 20.8571 27.6917 20.9637C27.6519 21.0703 27.6589 21.1769 27.7113 21.2613C27.794 21.4272 27.8627 21.6001 27.9173 21.7788C27.9821 21.9784 28.0408 22.1803 28.1079 22.3781C28.1725 22.5929 28.2573 22.7994 28.3617 22.9958C28.3916 23.0486 28.3617 22.9958 28.3603 22.9898C28.525 22.8173 28.3793 22.8002 28.4911 22.7142C28.4911 22.7142 28.5737 22.6849 28.5207 22.7037L28.4406 22.7322L28.0175 22.9082L26.3877 23.5836L25.5716 23.9217L25.3936 23.9935C25.3197 24.0197 25.3776 23.9992 25.4196 24.0015C25.4282 23.9984 25.5411 24.0347 25.5301 24.0505C25.5224 24.0336 25.5132 24.0174 25.5026 24.0021C25.4785 23.9569 25.458 23.9104 25.4374 23.8629C25.2307 23.3984 25.0475 22.9148 24.8342 22.4505C24.7501 22.2652 24.4122 22.2658 24.2044 22.3923C23.9534 22.5448 23.906 22.7779 23.9904 22.9641L23.9921 22.9603Z" fill="white"/>
<path d="M22.5347 11.9529C22.2303 11.6004 21.943 11.2335 21.673 10.8522C21.5393 10.6775 21.4222 10.4922 21.3226 10.2976C21.2941 10.2249 21.2717 10.1495 21.2555 10.0719C21.2535 10.0242 21.2563 9.97557 21.2638 9.92645C21.2656 9.93387 21.2455 9.98808 21.2659 9.93493C21.2764 9.9 21.2892 9.86517 21.3043 9.83062C21.3325 9.76207 21.2857 9.83717 21.3363 9.77796C21.354 9.75564 21.4273 9.67694 21.3723 9.72967C21.3947 9.70737 21.4185 9.68597 21.4433 9.66556C21.434 9.66884 21.3799 9.70744 21.4305 9.67813C21.4518 9.66487 21.4718 9.65208 21.4923 9.64142C21.4348 9.67202 21.4604 9.65265 21.4938 9.64777C21.471 9.6489 21.3971 9.65311 21.5018 9.64497C21.5265 9.64608 21.5507 9.64868 21.5742 9.65276C21.5233 9.63854 21.5623 9.65121 21.5742 9.65276C21.5914 9.65821 21.7126 9.71318 21.6626 9.68483C21.7073 9.71212 21.7491 9.74228 21.788 9.77512L21.8373 9.81864C21.8244 9.80709 21.7978 9.7682 21.8527 9.83503C21.8794 9.86816 21.905 9.90281 21.9279 9.9384C21.9517 9.97351 21.973 10.0101 21.9917 10.0481C22.0309 10.1216 22.0088 10.0834 21.9965 10.0682C22.0031 10.0958 22.0166 10.122 22.0259 10.1487C22.0826 10.3141 22.1095 10.4911 22.1058 10.6744C22.0988 11.2101 21.9438 11.7657 21.8955 12.3033C21.8846 12.4173 21.9274 12.52 22.0146 12.5888C22.1017 12.6575 22.226 12.6867 22.3601 12.67C22.4942 12.6532 22.6271 12.5918 22.7296 12.4993C22.8321 12.4069 22.8958 12.2909 22.9067 12.1769C22.957 11.6053 23.1303 11.0179 23.1166 10.4562C23.103 9.89443 22.9503 9.36559 22.4944 9.03209C22.2631 8.84653 21.9377 8.75891 21.5812 8.78616C21.4124 8.80768 21.2429 8.86064 21.0846 8.94123C20.9264 9.02182 20.7833 9.12805 20.6658 9.25232C20.1078 9.8396 20.1913 10.4824 20.4954 10.9936C20.825 11.5245 21.2024 12.0269 21.6251 12.4974C21.6876 12.5838 21.7929 12.6383 21.9194 12.6497C22.0459 12.6611 22.1839 12.6286 22.3053 12.5588C22.5331 12.4211 22.6802 12.1153 22.5347 11.9471L22.5347 11.9529Z" fill="white"/>
<path d="M38.5154 6.19285C37.4902 8.11529 37.0896 10.1109 36.697 12.0681C36.6254 12.4225 37.1011 12.5149 37.4238 12.3403L39.3848 11.2756C39.5045 11.2025 39.5958 11.0975 39.6389 10.9834C39.6819 10.8692 39.6733 10.7551 39.6149 10.6658C39.5538 10.5786 39.4492 10.5234 39.3231 10.5119C39.1969 10.5003 39.0591 10.5334 38.9385 10.604L36.9787 11.674L37.7055 11.9462C38.0842 10.0569 38.4727 8.16652 39.4702 6.29628C39.5919 6.06754 39.3969 5.8405 39.1616 5.81688C38.879 5.78706 38.6384 5.9694 38.5167 6.19813L38.5154 6.19285Z" fill="white"/>
<path d="M39.2911 11.1977C38.7705 13.3288 38.3414 15.456 38.0036 17.5792C37.9429 17.9252 38.4011 18.0399 38.7322 17.852C39.8081 17.243 40.8788 16.6244 41.9566 16.0113C42.0161 15.9752 42.0692 15.9308 42.1129 15.8806C42.1567 15.8304 42.1902 15.7755 42.2115 15.7188C42.2327 15.6621 42.2414 15.6049 42.237 15.5504C42.2327 15.4959 42.2153 15.4451 42.1859 15.4011C42.1565 15.357 42.1156 15.3204 42.0657 15.2935C42.0157 15.2666 41.9577 15.2498 41.8948 15.2442C41.8319 15.2385 41.7655 15.2441 41.6992 15.2605C41.633 15.277 41.5683 15.304 41.5087 15.3401C40.4329 15.9491 39.3622 16.5677 38.2844 17.1808L39.0127 17.4525C39.335 15.4051 39.7458 13.3529 40.2448 11.2959C40.301 11.0627 40.2177 10.8467 39.9362 10.8164C39.7051 10.7924 39.3483 10.9631 39.2911 11.1977Z" fill="white"/>
<path d="M38.6131 6.87255C40.5621 7.11075 42.3691 7.65836 43.9534 8.49089C44.1497 8.59368 44.4843 8.44711 44.6148 8.25526C44.6827 8.153 44.7074 8.04046 44.6838 7.94099C44.6602 7.84153 44.59 7.76277 44.488 7.72107C42.837 6.86193 40.9571 6.29724 38.9313 6.05193C38.872 6.0445 38.8088 6.04802 38.7454 6.06228C38.682 6.07655 38.6198 6.10126 38.5622 6.13499C38.5047 6.16872 38.4531 6.21078 38.4104 6.2587C38.3677 6.30662 38.3348 6.35943 38.3136 6.41406C38.2924 6.46868 38.2834 6.52401 38.287 6.5768C38.2907 6.62959 38.3069 6.67877 38.3348 6.72147C38.3627 6.76417 38.4017 6.79953 38.4495 6.82547C38.4973 6.85142 38.5529 6.86742 38.6131 6.87255Z" fill="white"/>
<path d="M42.4503 9.86898C43.1231 9.6042 43.7736 9.28465 44.4465 9.01987C44.5647 8.97916 44.6693 8.9034 44.737 8.80926C44.8048 8.71511 44.8303 8.61029 44.8079 8.51786C44.7854 8.42542 44.7169 8.35295 44.6174 8.31637C44.5179 8.2798 44.3956 8.28211 44.2773 8.32282C43.6045 8.5876 42.9539 8.90715 42.2811 9.17193C42.1628 9.21264 42.0583 9.2884 41.9905 9.38255C41.9228 9.47669 41.8973 9.58151 41.9197 9.67394C41.9422 9.76638 42.0107 9.83886 42.1102 9.87543C42.2097 9.91201 42.332 9.90969 42.4503 9.86898Z" fill="white"/>
<path d="M42.0257 10.2308C43.8219 11.227 45.4705 12.3894 47.2615 13.3875L47.5381 12.6542C46.531 13.0217 45.5259 13.4391 44.497 13.7029C44.2339 13.7706 44.0506 14.0745 44.1068 14.2639C44.1347 14.3649 44.2098 14.4437 44.3168 14.4842C44.4237 14.5246 44.5544 14.5235 44.682 14.4813C45.711 14.2174 46.716 13.8 47.7232 13.4325C48.0527 13.3153 48.2935 12.8603 48.001 12.6988C46.2036 11.703 44.556 10.5391 42.7652 9.54205C42.5672 9.43131 42.2901 9.43427 42.0716 9.63697C41.8909 9.80484 41.8248 10.1199 42.0257 10.2308Z" fill="white"/>
<path d="M41.1483 16.493C41.4208 16.9466 41.6617 17.419 41.933 17.873C42.098 18.15 42.3614 18.3111 42.7881 18.1962C42.9351 18.1482 43.0785 18.0853 43.215 18.0089L43.7159 17.7608L45.6005 16.8256C45.8917 16.6812 46.2545 16.5511 46.4452 16.2881C46.6847 15.9547 46.4601 15.7086 46.3251 15.4673C46.0633 14.997 45.9066 14.4731 45.6069 14.0237C45.5514 13.94 45.4537 13.8868 45.3352 13.876C45.2167 13.8652 45.0872 13.8976 44.975 13.966C44.8629 14.0345 44.7774 14.1335 44.7373 14.2411C44.6972 14.3488 44.7058 14.4563 44.7612 14.5401C44.972 14.8919 45.1546 15.2595 45.3082 15.6408C45.3896 15.8234 45.4838 15.9996 45.5904 16.1687C45.5995 16.1873 45.6112 16.2045 45.6253 16.22L45.6296 16.2379L45.7165 15.9329C45.7136 15.9209 45.8164 15.8801 45.7165 15.9329L45.663 15.9616C45.5311 16.0322 45.3959 16.0943 45.2618 16.1613L43.6416 16.9637L42.8464 17.3542L42.7579 17.3986C42.7579 17.3986 42.66 17.4431 42.7158 17.4189C42.7717 17.3947 42.6763 17.433 42.6664 17.4365C42.6179 17.4634 42.6648 17.4295 42.6812 17.4312C42.6977 17.4329 42.8377 17.4641 42.834 17.4654C42.7985 17.4196 42.7681 17.3705 42.7429 17.3186C42.4813 16.8774 42.2469 16.421 41.983 15.9816C41.9556 15.9401 41.9175 15.9057 41.8709 15.8804C41.8243 15.855 41.7701 15.8392 41.7114 15.8339C41.6527 15.8285 41.5907 15.8337 41.5289 15.8491C41.4671 15.8646 41.4067 15.89 41.3512 15.9239C41.2957 15.9578 41.2461 15.9995 41.2053 16.0467C41.1645 16.0939 41.1333 16.1457 41.1134 16.199C41.0936 16.2523 41.0855 16.3061 41.0896 16.3574C41.0937 16.4087 41.1099 16.4565 41.1374 16.498L41.1483 16.493Z" fill="white"/>
<path d="M38.7893 5.64744C38.4603 5.34134 38.1497 5.02763 37.8569 4.69846C37.6999 4.53036 37.5606 4.34946 37.4401 4.15722C37.3925 4.08317 37.3623 3.99955 37.3508 3.90999C37.3454 3.88615 37.3447 3.86087 37.3486 3.83504L37.3553 3.77303C37.3448 3.84326 37.3618 3.75813 37.3691 3.74064C37.3764 3.72315 37.3851 3.69944 37.3945 3.6789C37.396 3.68524 37.3604 3.73451 37.3958 3.68419C37.409 3.66119 37.4953 3.55388 37.4379 3.61426C37.4598 3.59163 37.5441 3.52403 37.4726 3.57333C37.4925 3.55992 37.513 3.54733 37.534 3.53563C37.4689 3.55171 37.5927 3.49887 37.534 3.53563C37.5991 3.51956 37.4594 3.55392 37.5459 3.53142C37.5909 3.51554 37.5631 3.52535 37.5444 3.52508C37.5955 3.52392 37.645 3.52885 37.6915 3.53971C37.6352 3.52632 37.7403 3.56378 37.7545 3.5691C37.8284 3.5958 37.7992 3.58775 37.7795 3.57749C37.8057 3.59218 37.8307 3.60827 37.8543 3.62569C37.8904 3.65078 37.9231 3.6794 37.9564 3.70437C37.9576 3.70966 38.0136 3.75759 37.9755 3.71827C37.9907 3.73357 38.0034 3.75086 38.0173 3.76663C38.0789 3.8454 38.1314 3.93011 38.1741 4.01988C38.1764 4.0294 38.1945 4.06315 38.1741 4.01988L38.1972 4.08055C38.2074 4.12286 38.2178 4.16622 38.2279 4.20853C38.2542 4.30725 38.2731 4.40857 38.2847 4.51196C38.2943 4.61497 38.2973 4.7196 38.2937 4.82541C38.2911 4.95826 38.2842 5.09146 38.2744 5.22454C38.2558 5.50068 38.2343 5.7767 38.2392 6.04913C38.2428 6.2681 38.4127 6.46169 38.7029 6.41436C38.9545 6.37376 39.2504 6.1581 39.247 5.92186C39.23 4.86104 39.5836 3.50085 38.5329 2.8735C38.2813 2.69836 37.9372 2.62944 37.5706 2.68074C37.3887 2.71631 37.2094 2.78663 37.0468 2.88618C36.8843 2.98572 36.7429 3.11178 36.6337 3.25443C36.1626 3.84165 36.3323 4.4666 36.6752 4.90889C37.0846 5.42038 37.5388 5.9008 38.0348 6.34721C38.0775 6.38346 38.1304 6.41005 38.1905 6.42538C38.2506 6.44071 38.3167 6.44446 38.3846 6.43641C38.4525 6.42836 38.5209 6.40867 38.5858 6.37853C38.6506 6.34839 38.7106 6.30842 38.7619 6.26103C38.8133 6.21364 38.8551 6.1598 38.8847 6.10275C38.9144 6.04571 38.9313 5.98665 38.9345 5.92911C38.9376 5.87157 38.927 5.81675 38.9032 5.76794C38.8794 5.71913 38.8429 5.67735 38.7959 5.64511L38.7893 5.64744Z" fill="white"/>
<path d="M52.7092 -1.54697C51.6839 0.375546 51.2833 2.37122 50.8891 4.32791C50.8189 4.68183 51.2948 4.77535 51.6175 4.60068L53.5813 3.53502C53.6408 3.49896 53.6939 3.45458 53.7377 3.4044C53.7814 3.35423 53.8149 3.29924 53.8361 3.24259C53.8574 3.18593 53.8661 3.12871 53.8617 3.0742C53.8574 3.01969 53.84 2.96896 53.8106 2.9249C53.7812 2.88083 53.7403 2.84429 53.6904 2.81738C53.6405 2.79047 53.5824 2.7737 53.5196 2.76804C53.4567 2.76237 53.3903 2.76793 53.324 2.78438C53.2578 2.80082 53.1931 2.82784 53.1336 2.8639L51.1709 3.92804L51.8993 4.20081C52.278 2.31149 52.6662 0.419959 53.6638 -1.45035C53.7845 -1.67758 53.5908 -1.90509 53.3553 -1.92977C53.0715 -1.95807 52.8323 -1.77618 52.7105 -1.54744L52.7092 -1.54697Z" fill="white"/>
<path d="M53.4903 3.45456C52.9697 5.58568 52.5406 7.71284 52.2029 9.83604C52.1421 10.182 52.6003 10.2968 52.9298 10.1083C54.007 9.49879 55.0764 8.88062 56.1545 8.26857C56.2748 8.19568 56.3667 8.09036 56.4098 7.97578C56.4529 7.8612 56.4437 7.74675 56.3843 7.6576C56.3249 7.56845 56.2201 7.51192 56.093 7.50042C55.9658 7.48893 55.8268 7.52342 55.7064 7.59631C54.6305 8.2053 53.5601 8.825 52.482 9.43704L53.2093 9.71032C53.5316 7.66289 53.9423 5.61067 54.4414 3.55366C54.4986 3.31899 54.4142 3.10447 54.1341 3.07371C53.903 3.04974 53.5462 3.22037 53.489 3.45503L53.4903 3.45456Z" fill="white"/>
<path d="M52.8123 -0.870619C54.7609 -0.632275 56.5675 -0.0845006 58.1514 0.748179C58.3476 0.850964 58.6823 0.704393 58.814 0.512099C58.8819 0.409837 58.9066 0.297292 58.883 0.197827C58.8594 0.098362 58.7893 0.0196137 58.6872 -0.0220917C57.0365 -0.881616 55.1565 -1.44633 53.1305 -1.69123C53.0712 -1.69866 53.008 -1.69515 52.9446 -1.68088C52.8812 -1.66662 52.819 -1.6419 52.7614 -1.60817C52.7039 -1.57444 52.6523 -1.53239 52.6096 -1.48447C52.5669 -1.43655 52.534 -1.38373 52.5128 -1.3291C52.4917 -1.27448 52.4826 -1.21916 52.4863 -1.16637C52.4899 -1.11358 52.5062 -1.06439 52.5341 -1.02169C52.5619 -0.978989 52.6009 -0.943627 52.6487 -0.917686C52.6965 -0.891744 52.7521 -0.875746 52.8123 -0.870619Z" fill="white"/>
<path d="M56.6417 2.12487C57.3136 1.86141 57.9651 1.54052 58.6367 1.27613C58.755 1.23542 58.8595 1.15966 58.9273 1.06551C58.9951 0.971365 59.0206 0.866538 58.9981 0.7741C58.9757 0.681662 58.9072 0.609186 58.8077 0.572608C58.7082 0.536029 58.5858 0.538344 58.4675 0.579052C57.7959 0.843439 57.1444 1.16434 56.4725 1.42779C56.3555 1.47014 56.2525 1.54602 56.1852 1.63958C56.1178 1.73315 56.0913 1.83714 56.1112 1.92982C56.1348 2.02153 56.2035 2.09332 56.3027 2.12978C56.4019 2.16624 56.5236 2.16448 56.6417 2.12487Z" fill="white"/>
<path d="M56.2242 2.49429C58.0217 3.49011 59.6692 4.65306 61.4603 5.65116L61.7382 4.91735C60.7297 5.28531 59.7259 5.70227 58.6969 5.96611C58.4337 6.03387 58.2505 6.33775 58.3067 6.52713C58.3346 6.62817 58.4097 6.70699 58.5167 6.74742C58.6236 6.78784 58.7543 6.78681 58.8819 6.74452C59.9109 6.48068 60.9148 6.06372 61.9232 5.69576C62.2528 5.57847 62.4857 5.12522 62.2011 4.96195C60.4036 3.96614 58.7559 2.80215 56.9647 1.80405C56.7669 1.69434 56.4883 1.69672 56.2714 1.90001C56.0907 2.06788 56.0246 2.38297 56.2242 2.49429Z" fill="white"/>
<path d="M55.349 8.75171C55.6215 9.20513 55.8609 9.6768 56.1336 10.1312C56.2983 10.4072 56.5618 10.5692 56.9872 10.4548C57.1345 10.4067 57.2784 10.3437 57.4152 10.2671L57.9145 10.0185L59.8001 9.08421C60.0912 8.9398 60.454 8.80983 60.6443 8.54585C60.884 8.21361 60.6595 7.96756 60.523 7.72583C60.2627 7.2562 60.1061 6.73249 59.8065 6.28332C59.7475 6.20531 59.65 6.15733 59.5341 6.14933C59.4182 6.14132 59.2928 6.1739 59.1839 6.24031C59.0751 6.30673 58.9911 6.40189 58.9494 6.50607C58.9076 6.61025 58.9114 6.71547 58.9598 6.79991C59.171 7.15141 59.354 7.51872 59.5079 7.89986C59.5893 8.08238 59.6834 8.25853 59.79 8.42754C59.7991 8.4461 59.8108 8.46328 59.8249 8.47878L59.8292 8.49668L59.9148 8.19222C59.912 8.18028 60.0157 8.13802 59.9222 8.18959L59.8688 8.21829C59.7367 8.28788 59.6005 8.35137 59.4674 8.41698L57.8479 9.22003L57.0517 9.61082L56.9641 9.65379C56.9641 9.65379 56.8665 9.69927 56.9211 9.67555C56.9757 9.65183 56.8828 9.68915 56.8717 9.6931C56.8235 9.72104 56.8703 9.68713 56.8878 9.6874C56.9052 9.68766 57.0442 9.72028 57.0393 9.72204C57.004 9.67578 56.9739 9.62623 56.9492 9.57388C56.6876 9.13275 56.4535 8.67756 56.1895 8.23731C56.1621 8.19584 56.124 8.16145 56.0774 8.13611C56.0308 8.11077 55.9766 8.09497 55.918 8.08961C55.8593 8.08425 55.7973 8.08945 55.7355 8.10489C55.6737 8.12033 55.6133 8.14572 55.5578 8.17961C55.5023 8.2135 55.4528 8.25523 55.412 8.30241C55.3712 8.34959 55.34 8.4013 55.3201 8.45459C55.3003 8.50788 55.2922 8.5617 55.2963 8.61298C55.3004 8.66426 55.3166 8.712 55.3441 8.75346L55.349 8.75171Z" fill="white"/>
<path d="M5.71932 16.127C4.07119 17.6599 2.87882 19.4568 1.71718 21.2285C1.53861 21.5021 1.69921 21.8637 2.07615 21.7898L4.09158 21.3922C4.21748 21.3743 4.34149 21.3153 4.43759 21.2275C4.53369 21.1398 4.59441 21.0301 4.60701 20.9216C4.61519 20.7153 4.43506 20.5179 4.16732 20.5705L2.1496 20.9699L2.50856 21.5312C3.63347 19.8111 4.76841 18.0874 6.34797 16.6152C6.39679 16.571 6.43694 16.5207 6.46606 16.4671C6.49519 16.4135 6.5127 16.3578 6.51758 16.3031C6.52246 16.2484 6.51461 16.1959 6.49447 16.1487C6.47434 16.1015 6.44234 16.0605 6.40035 16.0282C6.35835 15.9958 6.3072 15.9727 6.24991 15.9602C6.19261 15.9478 6.13032 15.9462 6.06669 15.9556C6.00305 15.9649 5.93934 15.9851 5.8793 16.0149C5.81926 16.0446 5.7641 16.0834 5.71705 16.1289L5.71932 16.127Z" fill="white"/>
<path d="M4.57684 21.0861C3.24522 22.976 1.98847 24.8927 0.806575 26.8363C0.641808 27.1067 0.775841 27.4913 1.16904 27.4046C2.30189 27.1567 3.43455 26.9022 4.56716 26.6532C4.82015 26.5976 5.08016 26.4146 5.09078 26.1746C5.09903 25.9711 4.91648 25.7598 4.6452 25.8198C3.51259 26.0687 2.37969 26.3222 1.24708 26.5711L1.60979 27.1405C2.78943 25.2029 4.04659 23.2879 5.38128 21.3954C5.41713 21.3438 5.44224 21.2889 5.45517 21.2335C5.46811 21.1782 5.46862 21.1237 5.45666 21.0731C5.44471 21.0225 5.42054 20.9767 5.38552 20.9385C5.3505 20.9002 5.30532 20.8702 5.25256 20.8502C5.19981 20.8301 5.1405 20.8204 5.07804 20.8217C5.01558 20.8229 4.95119 20.835 4.88853 20.8573C4.82588 20.8795 4.76619 20.9116 4.71288 20.9515C4.65957 20.9915 4.61367 21.0386 4.57782 21.0902L4.57684 21.0861Z" fill="white"/>
<path d="M5.5078 16.9669C7.12349 17.9124 8.46481 19.1363 9.4716 20.5839C9.50102 20.628 9.54187 20.6645 9.59183 20.6914C9.6418 20.7184 9.69988 20.7351 9.76278 20.7408C9.82569 20.7465 9.89217 20.7409 9.95844 20.7245C10.0247 20.708 10.0894 20.681 10.149 20.6449C10.2085 20.6088 10.2617 20.5644 10.3055 20.5142C10.3492 20.464 10.3827 20.409 10.404 20.3524C10.4253 20.2957 10.434 20.2385 10.4296 20.1839C10.4252 20.1294 10.4078 20.0786 10.3784 20.0346C9.33322 18.5283 7.94234 17.2527 6.2673 16.2642C6.17696 16.2002 6.05274 16.1746 5.9201 16.1928C5.78747 16.211 5.65648 16.2716 5.554 16.3622C5.36328 16.5373 5.30445 16.8494 5.50516 16.9679L5.5078 16.9669Z" fill="white"/>
<path d="M7.84977 21.3413C8.54557 21.2942 9.25169 21.1811 9.94604 21.1335C10.0678 21.1177 10.1882 21.062 10.2811 20.9783C10.3741 20.8946 10.4321 20.7898 10.4425 20.6866C10.4497 20.5843 10.4097 20.4926 10.331 20.4308C10.2522 20.3689 10.1407 20.3416 10.0198 20.3546C9.32403 20.4016 8.61813 20.5157 7.92355 20.5623C7.80181 20.5781 7.6814 20.6339 7.58846 20.7176C7.49551 20.8012 7.43752 20.906 7.4271 21.0093C7.4199 21.1116 7.45986 21.2032 7.53863 21.2651C7.6174 21.327 7.72888 21.3543 7.84977 21.3413Z" fill="white"/>
<path d="M7.65313 21.3242C8.74947 22.9915 9.62932 24.7796 10.7254 26.4458L11.2297 25.7355C10.1845 25.7665 9.20021 25.8445 8.20048 25.7612C8.13641 25.7534 8.06814 25.7571 7.99966 25.7723C7.93119 25.7874 7.86389 25.8136 7.80171 25.8494C7.73953 25.8852 7.68372 25.9298 7.63756 25.9806C7.59139 26.0314 7.5558 26.0874 7.53287 26.1453C7.50993 26.2031 7.50012 26.2618 7.504 26.3177C7.50788 26.3737 7.52538 26.4258 7.55547 26.471C7.58556 26.5162 7.62763 26.5537 7.67923 26.5812C7.73082 26.6086 7.7909 26.6256 7.85594 26.631C8.92439 26.7204 10.0495 26.6324 11.1461 26.602C11.5469 26.5903 11.8054 26.1282 11.6505 25.8917C10.553 24.226 9.67295 22.4368 8.57686 20.7706C8.54693 20.7261 8.50535 20.6892 8.45449 20.662C8.40364 20.6349 8.34451 20.6179 8.28047 20.6122C8.21644 20.6065 8.14874 20.6121 8.08127 20.6287C8.0138 20.6453 7.94786 20.6726 7.88723 20.7091C7.82659 20.7455 7.77245 20.7903 7.72788 20.841C7.68331 20.8917 7.6492 20.9472 7.62748 21.0044C7.60577 21.0616 7.59688 21.1194 7.60132 21.1745C7.60577 21.2295 7.62346 21.2808 7.65338 21.3253L7.65313 21.3242Z" fill="white"/>
<path d="M4.25148 26.9355C4.27286 27.4896 4.25859 28.052 4.27997 28.606C4.29048 28.9276 4.37573 29.2355 4.78614 29.2825C5.07342 29.3148 5.4239 29.2227 5.72477 29.1763L7.70069 28.8757C8.01839 28.8267 8.43228 28.8204 8.72683 28.6343C8.82401 28.5719 8.90673 28.4925 8.96748 28.4032C9.02822 28.314 9.06506 28.2179 9.07464 28.1235C9.07781 28.0021 9.07311 27.8821 9.06054 27.7642C9.05245 27.1642 9.15866 26.5475 9.10923 25.9546C9.09148 25.7441 8.78376 25.654 8.55535 25.745C8.43397 25.7915 8.3275 25.8732 8.25767 25.9736C8.18785 26.074 8.15992 26.1855 8.17958 26.2853L8.184 26.3661C8.1862 26.4206 8.18543 26.474 8.18586 26.5324C8.18358 26.6417 8.17948 26.7602 8.17171 26.8747C8.15829 27.0898 8.13944 27.3047 8.12726 27.5194C8.1141 27.7583 8.11853 27.992 8.13235 28.2256C8.13829 28.2506 8.1532 28.2681 8.13924 28.2546C8.12529 28.2411 8.3482 28.0024 8.35289 27.9769C8.35123 27.9699 8.42168 27.9665 8.35289 27.9769L8.25961 27.9917L7.8197 28.0581L6.15799 28.312L5.3039 28.4402C5.24946 28.4487 5.19503 28.4573 5.14136 28.4633C5.05627 28.473 5.08236 28.4583 5.14682 28.4863C5.13648 28.4824 5.23185 28.5331 5.22146 28.5346C5.24253 28.5271 5.21812 28.5488 5.22368 28.51C5.22554 28.5743 5.22582 28.519 5.22368 28.51C5.22328 28.4743 5.22188 28.4401 5.21976 28.4029C5.20432 27.8739 5.21438 27.339 5.19498 26.8103C5.18633 26.6041 5.03491 26.4194 4.76073 26.4649C4.52788 26.5033 4.24203 26.709 4.25029 26.9305L4.25148 26.9355Z" fill="white"/>
<path d="M5.87173 16.0379C5.72401 15.5812 5.59954 15.1155 5.49831 14.6408C5.47296 14.535 5.44761 14.4292 5.43419 14.3191C5.41615 14.2343 5.40582 14.1471 5.40328 14.058C5.40234 14.003 5.40485 13.9474 5.41078 13.8912C5.40774 13.8785 5.43049 13.7695 5.42081 13.8131C5.4355 13.7581 5.45604 13.7032 5.48216 13.6492C5.5051 13.6009 5.48216 13.6492 5.47516 13.662L5.52744 13.5861C5.53684 13.5713 5.58888 13.5186 5.52592 13.5798L5.57714 13.5296L5.6307 13.4832C5.62275 13.486 5.56634 13.5265 5.61612 13.4883C5.6659 13.4501 5.76879 13.4115 5.67279 13.4488C5.69486 13.4433 5.71668 13.4356 5.73774 13.4259C5.7669 13.4156 5.7669 13.4156 5.73774 13.4259C5.70592 13.4371 5.70857 13.4362 5.73774 13.4259C5.73774 13.4259 5.84816 13.4248 5.78243 13.4205C5.7167 13.4161 5.80851 13.4273 5.81009 13.4279C5.7504 13.4008 5.86499 13.4591 5.81009 13.4279C5.8347 13.4437 5.85798 13.4607 5.87984 13.4791C5.87984 13.4791 5.9285 13.5262 5.90473 13.499C5.88097 13.4718 5.92401 13.5255 5.92243 13.5249C5.93963 13.5487 5.95657 13.5714 5.97136 13.5972C6.04598 13.74 6.0799 13.9021 6.07091 14.0728C6.06293 14.2715 6.0181 14.4752 5.93803 14.6763C5.73792 15.2151 5.4062 15.7327 5.16915 16.2673C5.12449 16.3817 5.13196 16.4965 5.1899 16.5865C5.24784 16.6764 5.35152 16.7342 5.47812 16.7471C5.60472 16.76 5.74389 16.7269 5.86499 16.6552C5.98609 16.5834 6.07921 16.4788 6.12387 16.3645C6.36722 15.8081 6.72296 15.2649 6.91434 14.7016C7.11707 14.1136 7.16891 13.4778 6.85137 13.0102C6.77587 12.8869 6.66839 12.7835 6.53514 12.7062C6.4019 12.6289 6.24553 12.5791 6.07507 12.5598C5.9189 12.5506 5.75455 12.5711 5.59281 12.6198C5.43107 12.6685 5.27559 12.7444 5.1366 12.8425C4.48877 13.3005 4.34644 13.9246 4.41589 14.5026C4.5116 15.1503 4.6662 15.7798 4.87844 16.3859C4.90365 16.4911 4.9802 16.5736 5.09124 16.6152C5.20228 16.6567 5.33872 16.654 5.47055 16.6075C5.60237 16.561 5.71879 16.4746 5.79418 16.3673C5.86957 16.26 5.89776 16.1406 5.87255 16.0353L5.87173 16.0379Z" fill="white"/>
</svg>
