<svg width="398" height="165" viewBox="0 0 398 165" fill="none" xmlns="http://www.w3.org/2000/svg">
	<path
		d="M162.11 25.6732C143.618 29.6168 124.461 29.174 106.171 24.3804L106.179 24.3829L106.127 24.3686C81.0068 17.395 44.9164 -13.4417 37.8679 -20.3205C29.0307 -28.9448 5.28656 -53.2535 41.0741 -22.2436C76.8617 8.76635 97.3784 19.06 107.107 21.4204C116.836 23.7808 115.871 23.4656 120.326 24.0987C136.06 26.3152 152.059 25.3298 167.366 21.2254C167.7 16.2607 169.364 11.3601 172.992 8.14038C175.685 5.7479 179.38 4.94474 182.685 6.56539C185.891 8.11585 187.436 11.7402 185.886 15.0544C184.032 19.0235 179.354 20.6379 175.509 21.9583C173.818 22.5365 172.115 23.0761 170.4 23.5766C170.401 25.9999 170.751 28.4171 171.445 30.7527C173.605 38.2173 178.735 44.8684 185.141 49.2039C193.369 54.7735 203.273 57.164 213.039 58.1797C222.614 59.1466 232.256 59.2634 241.852 58.5286C243.276 58.426 244.697 58.2942 246.115 58.1334C245.257 50.396 252.166 45.0949 259.306 43.6827C262.991 42.9413 267.947 43.0014 269.777 46.9622C271.375 50.4468 269.271 54.355 266.338 56.295C262.606 58.7654 257.511 59.4684 253.182 60.2294C252.068 60.4192 250.951 60.5933 249.832 60.7518C251.781 65.5009 257.021 69.4561 260.936 71.814C269.459 76.9477 279.068 80.0077 288.99 80.7477C297.867 81.4026 306.703 80.2531 315.454 78.7345C324.206 77.216 332.904 75.3253 341.746 74.3903C350.85 73.4244 360.667 73.0986 369.209 76.9187C376.224 80.057 382.237 86.4512 382.981 94.3658C383.126 95.9104 383.022 97.4703 382.697 98.9843C384.484 100.072 386.122 101.444 387.618 102.827C390.812 105.784 393.621 109.101 397.142 111.709C400.53 114.218 404.272 116.212 408.245 117.624C416.407 120.546 425.26 120.945 433.651 118.767C435.583 118.279 436.271 121.288 434.343 121.794C430.177 122.888 425.876 123.381 421.57 123.259C412.718 122.997 404.123 120.224 396.787 115.263C393.121 112.762 390.093 109.605 386.955 106.493C385.418 104.97 383.674 103.285 381.734 101.995C380.13 105.717 377.145 108.84 373.281 110.269C370.269 111.382 365.632 111.812 364.446 108.01C363.453 104.797 364.983 101.477 367.549 99.4872C368.924 98.4261 370.497 97.6514 372.177 97.2088C373.856 96.7663 375.607 96.6648 377.326 96.9105C378.169 97.0416 378.986 97.2622 379.778 97.5537C380.343 92.9528 378.368 88.049 374.903 84.4838C367.816 77.1981 356.801 76.4682 347.24 77.0131C337.922 77.5431 328.759 79.4619 319.596 81.1332C310.432 82.8046 301.121 84.3085 291.78 83.9853C281.605 83.6527 271.636 81.0217 262.622 76.2893C256.363 72.9956 249.201 68.1885 246.804 61.1417C243.916 61.4765 241.016 61.7072 238.111 61.8331C228.077 62.3343 217.797 62.1553 207.873 60.6043C198.212 59.1009 188.4 56.0279 180.76 49.7315C174.667 44.7004 169.951 37.7668 168.101 30.0308C167.683 28.2745 167.413 26.3735 167.33 24.428C165.6 24.8826 163.859 25.2978 162.11 25.6732Z"
		fill="white" />
	<path
		d="M155.66 11.8112C155.953 11.9029 156.266 11.9058 156.561 11.8193C156.856 11.7328 157.118 11.5609 157.315 11.3254C157.512 11.0898 157.634 10.8012 157.667 10.496C157.7 10.1907 157.641 9.88262 157.499 9.61058C157.357 9.33855 157.137 9.11478 156.868 8.96764C156.598 8.8205 156.291 8.75654 155.986 8.78389C155.68 8.81123 155.389 8.92866 155.15 9.12128C154.911 9.31389 154.734 9.57307 154.643 9.86603C154.524 10.2589 154.564 10.6826 154.754 11.0462C154.944 11.4098 155.27 11.6844 155.66 11.8112Z"
		fill="white" />
	<path
		d="M184.334 31.6188C184.627 31.7105 184.94 31.7134 185.235 31.6269C185.529 31.5404 185.792 31.3685 185.989 31.133C186.185 30.8974 186.308 30.6088 186.341 30.3036C186.374 29.9983 186.315 29.6902 186.173 29.4182C186.031 29.1462 185.811 28.9224 185.542 28.7752C185.272 28.6281 184.965 28.5642 184.659 28.5915C184.354 28.6189 184.063 28.7363 183.824 28.9289C183.585 29.1215 183.408 29.3807 183.316 29.6736C183.198 30.0665 183.238 30.4902 183.428 30.8538C183.618 31.2174 183.943 31.492 184.334 31.6188Z"
		fill="white" />
	<path
		d="M127.983 36.8083C128.276 36.9 128.59 36.9028 128.884 36.8164C129.179 36.7299 129.441 36.558 129.638 36.3225C129.835 36.0869 129.957 35.7983 129.99 35.493C130.023 35.1878 129.965 34.8797 129.822 34.6077C129.68 34.3356 129.46 34.1119 129.191 33.9647C128.922 33.8176 128.615 33.7536 128.309 33.781C128.003 33.8083 127.712 33.9257 127.473 34.1183C127.234 34.311 127.058 34.5701 126.966 34.8631C126.847 35.256 126.887 35.6796 127.078 36.0433C127.268 36.4069 127.593 36.6815 127.983 36.8083Z"
		fill="white" />
	<path
		d="M276.113 66.9821C276.406 67.0738 276.72 67.0767 277.014 66.9902C277.309 66.9037 277.571 66.7318 277.768 66.4963C277.965 66.2607 278.087 65.9721 278.12 65.6668C278.153 65.3616 278.095 65.0535 277.952 64.7815C277.81 64.5094 277.59 64.2857 277.321 64.1385C277.051 63.9914 276.744 63.9275 276.439 63.9548C276.133 63.9822 275.842 64.0995 275.603 64.2922C275.364 64.4848 275.187 64.744 275.096 65.0369C274.978 65.4298 275.019 65.853 275.209 66.2163C275.399 66.5797 275.723 66.8544 276.113 66.9821Z"
		fill="white" />
	<path
		d="M234.771 76.0846C235.064 76.1763 235.378 76.1792 235.672 76.0927C235.967 76.0062 236.229 75.8343 236.426 75.5988C236.623 75.3632 236.746 75.0746 236.778 74.7694C236.811 74.4641 236.753 74.156 236.611 73.884C236.468 73.6119 236.249 73.3882 235.979 73.2411C235.71 73.0939 235.403 73.03 235.097 73.0573C234.791 73.0847 234.5 73.2021 234.261 73.3947C234.022 73.5873 233.846 73.8465 233.754 74.1394C233.636 74.5323 233.677 74.9555 233.867 75.3188C234.057 75.6822 234.382 75.9569 234.771 76.0846Z"
		fill="white" />
	<path
		d="M348.564 91.6754C348.857 91.7672 349.171 91.77 349.465 91.6835C349.76 91.5971 350.022 91.4252 350.219 91.1896C350.416 90.9541 350.539 90.6654 350.571 90.3602C350.604 90.055 350.546 89.7469 350.403 89.4748C350.261 89.2028 350.041 88.979 349.772 88.8319C349.503 88.6847 349.196 88.6208 348.89 88.6482C348.584 88.6755 348.293 88.7929 348.054 88.9855C347.815 89.1781 347.639 89.4373 347.547 89.7303C347.429 90.1231 347.47 90.5463 347.66 90.9097C347.85 91.273 348.175 91.5478 348.564 91.6754Z"
		fill="white" />
	<path
		d="M252.055 42.1719C254.824 40.612 257.048 38.2389 258.425 35.3739C259.802 32.5088 260.265 29.2899 259.752 26.1528C259.269 23.0564 257.789 19.9558 255.393 17.9127C252.997 15.8696 249.685 14.9364 246.499 14.8191C240.537 14.5914 234.237 16.7303 230.479 21.5131C228.56 23.9214 227.516 26.9097 227.517 29.9889C227.617 32.8895 228.692 35.6715 230.57 37.8849C234.707 42.9282 241.435 44.3241 247.653 43.7079C248.459 43.6265 249.258 43.5124 250.052 43.3749C250.25 43.3294 250.438 43.2454 250.604 43.1273C250.771 43.0093 250.912 42.8597 251.021 42.6871C251.129 42.5144 251.202 42.3221 251.237 42.1211C251.271 41.9201 251.265 41.7143 251.219 41.5155C251.174 41.3167 251.09 41.1288 250.972 40.9626C250.854 40.7963 250.704 40.6549 250.532 40.5465C250.359 40.438 250.167 40.3647 249.966 40.3305C249.765 40.2964 249.559 40.3022 249.36 40.3476C246.633 40.8294 243.563 40.9653 240.921 40.4243C240.259 40.2879 239.606 40.1149 238.963 39.9063C238.607 39.795 238.256 39.6849 237.919 39.5274L237.406 39.3102C237.228 39.2546 237.22 39.2259 237.366 39.2979L237.159 39.1982C236.633 38.926 236.124 38.6219 235.635 38.2874C235.381 38.1166 235.129 37.9379 234.883 37.7525L234.639 37.5632L234.401 37.3673C234.514 37.4634 234.497 37.4493 234.357 37.3275C233.904 36.9144 233.473 36.4769 233.067 36.017C232.903 35.8224 232.755 35.6287 232.583 35.4315C232.41 35.2196 232.254 34.9939 232.117 34.7566C231.824 34.2855 231.565 33.7942 231.342 33.2862L231.169 32.8678C231.278 33.1447 231.107 32.6791 231.101 32.6687C230.991 32.3337 230.898 31.9932 230.822 31.6488C230.57 30.5017 230.55 29.3156 230.765 28.1609C230.714 28.4486 230.816 27.9165 230.815 27.9205C230.864 27.7625 230.89 27.5971 230.931 27.4366C231.03 27.1206 231.129 26.8046 231.228 26.4886C231.411 25.9342 231.651 25.4002 231.944 24.8954C232.243 24.3584 232.58 23.8435 232.952 23.3544C233.05 23.2204 233.156 23.0889 233.262 22.9574C233.595 22.5455 233.075 23.1414 233.438 22.7565C233.705 22.4714 233.972 22.1864 234.259 21.9206C235.104 21.1152 236.061 20.4375 237.102 19.909C238.171 19.3217 239.309 18.8695 240.49 18.5629C241.064 18.4045 241.647 18.2748 242.236 18.1685C242.557 18.1129 242.877 18.0612 243.199 18.0147C243.651 17.9567 243.759 17.943 244.097 17.9185C245.423 17.8122 246.756 17.8432 248.076 18.0109C248.687 18.0934 249.292 18.2234 249.884 18.3994C250.467 18.5695 251.037 18.7813 251.59 19.0334C252.773 19.6012 253.806 20.4388 254.606 21.4788C255.309 22.4454 255.862 23.5121 256.248 24.6432C257.166 27.3773 257.108 30.345 256.085 33.0417C256.035 33.2036 255.96 33.3582 255.894 33.5152C255.827 33.6722 255.826 33.7324 255.757 33.8279C255.795 33.7055 255.786 33.7331 255.728 33.9188C255.541 34.294 255.36 34.6233 255.153 34.9661C254.946 35.309 254.787 35.541 254.59 35.8221C254.49 35.9601 254.391 36.098 254.287 36.2347L254.078 36.503C253.953 36.6506 253.931 36.6785 254.007 36.5894C253.064 37.7088 251.931 38.6534 250.661 39.38C250.473 39.47 250.305 39.597 250.167 39.7533C250.029 39.9097 249.924 40.0922 249.858 40.29C249.793 40.4878 249.767 40.6968 249.784 40.9046C249.801 41.1124 249.859 41.3146 249.956 41.4994C250.052 41.6841 250.185 41.8474 250.346 41.9796C250.507 42.1119 250.693 42.2104 250.893 42.2692C251.093 42.328 251.303 42.3458 251.51 42.3218C251.717 42.2977 251.917 42.2322 252.099 42.1292L252.055 42.1719Z"
		fill="white" />
	<path
		d="M252.092 42.7731C252.425 42.7906 252.036 42.7557 252.028 42.7533C252.021 42.7508 252.232 42.8517 252.254 42.8238C252.245 42.8514 251.991 42.6636 252.131 42.7854C252.191 42.8302 252.264 42.8747 252.329 42.9167C252.512 43.022 252.163 42.726 252.293 42.9056C252.331 42.952 252.382 42.9942 252.421 43.0367L252.582 43.2302C252.829 43.5202 252.506 43.0718 252.613 43.2401C252.765 43.5174 252.928 43.7724 253.051 44.0712C253.124 44.2283 253.183 44.3857 253.251 44.5415C253.251 44.5415 253.169 44.3034 253.222 44.4674L253.326 44.7732C253.421 45.0778 253.501 45.3918 253.564 45.7153L253.642 46.1734L253.68 46.428C253.665 46.4754 253.709 46.8451 253.701 46.5821L253.707 46.7967C253.706 46.9407 253.7 47.0835 253.69 47.2251C253.669 47.2923 253.643 47.6789 253.672 47.4362C253.7 47.1935 253.672 47.4362 253.656 47.4876C253.64 47.5389 253.605 47.6495 253.58 47.7285C253.517 47.93 253.493 47.7013 253.639 47.6253C253.639 47.6253 253.546 47.7959 253.541 47.7986C253.536 47.8013 253.477 47.8783 253.461 47.9166C253.402 48.1022 253.667 47.6863 253.532 47.8263C253.532 47.8263 253.424 47.9225 253.427 47.9277L253.592 47.8147L253.508 47.862L253.42 47.9082L253.589 47.8527C253.589 47.8527 253.206 47.967 253.467 47.8968C253.727 47.8266 253.241 47.8695 253.231 47.8749C253.377 47.795 253.503 47.9603 253.31 47.8997C253.282 47.891 253.1 47.8341 253.096 47.8329C253.092 47.8316 253.43 48.0284 253.175 47.8576L253.034 47.7699C252.982 47.7538 252.782 47.5912 252.947 47.7427C253.112 47.8941 252.863 47.6513 252.847 47.6333C252.752 47.5342 252.673 47.427 252.583 47.3252C252.439 47.1628 252.717 47.5492 252.607 47.3587L252.483 47.1594C252.324 46.8913 252.186 46.6115 252.069 46.3226C252.052 46.2914 251.997 46.1917 252.003 46.1588C251.968 46.2694 252.079 46.3865 252.019 46.203C251.96 46.0195 251.926 45.9049 251.887 45.7538C251.806 45.4499 251.744 45.1409 251.704 44.829C251.685 44.7538 251.676 44.6765 251.676 44.5991C251.656 44.6623 251.691 44.8685 251.662 44.6425C251.633 44.4165 251.651 44.2919 251.65 44.1138C251.657 43.782 251.681 43.4508 251.722 43.1215C251.756 42.8328 251.715 43.1452 251.702 43.1847C251.714 43.0881 251.734 42.9928 251.761 42.8995C251.813 42.7336 251.843 42.5564 251.895 42.3905C251.997 42.0541 252.123 41.7255 252.272 41.4069C252.618 40.6479 251.992 39.6578 251.255 39.4618C250.354 39.2229 249.671 39.6857 249.31 40.4791C248.621 42.0478 248.388 43.7791 248.639 45.474C248.847 47.066 249.551 48.8782 250.776 49.9646C251.142 50.3136 251.573 50.5868 252.044 50.7687C252.516 50.9506 253.019 51.0376 253.524 51.0247C254.045 50.9994 254.552 50.8496 255.003 50.5878C255.454 50.3261 255.836 49.96 256.116 49.5203C257.047 48.0292 256.851 46.0808 256.397 44.4684C255.813 42.3988 254.604 39.8903 252.148 39.7676C251.944 39.7607 251.741 39.794 251.55 39.8657C251.359 39.9373 251.185 40.0459 251.036 40.1851C250.887 40.3243 250.767 40.4915 250.682 40.6771C250.598 40.8628 250.551 41.0632 250.544 41.267C250.537 41.4707 250.571 41.6739 250.642 41.8647C250.714 42.0556 250.823 42.2305 250.962 42.3795C251.101 42.5284 251.268 42.6484 251.454 42.7327C251.64 42.8171 251.84 42.864 252.044 42.8708L252.092 42.7731Z"
		fill="white" />
	<path
		d="M316.003 93.2813C316.468 96.7176 317.038 100.136 317.714 103.537C318.37 106.844 319.063 110.184 320.005 113.424C320.381 114.919 321.054 116.322 321.982 117.552C323.086 118.853 324.626 119.707 326.314 119.954C329.702 120.534 332.92 118.957 335.911 117.577C338.902 116.198 341.883 114.49 343.633 111.616C344.532 110.204 345.005 108.563 344.996 106.89C344.937 105.434 344.537 104.012 343.829 102.738C342.448 100.223 340.277 98.2767 338.197 96.3588C335.664 94.0302 333.032 91.744 330.054 89.9917C328.568 89.1039 326.991 88.3786 325.349 87.8285C323.837 87.2772 322.24 87 320.63 87.0099C319.049 87.0872 317.398 87.6371 316.485 89.0297C316.101 89.6233 315.879 90.3066 315.839 91.0122C315.8 91.7179 315.945 92.4216 316.261 93.0541C316.644 93.7255 317.249 94.242 317.972 94.514C318.365 94.6359 318.79 94.5973 319.155 94.4067C319.519 94.2161 319.794 93.8889 319.918 93.4967C320.031 93.1038 319.988 92.6825 319.799 92.3202C319.609 91.958 319.287 91.6827 318.9 91.5515C319.284 91.7108 318.979 91.5763 318.91 91.5199C319.24 91.7404 318.893 91.3801 319.088 91.7143C319.032 91.6214 318.982 91.5248 318.94 91.4251C319.102 91.7796 318.978 91.4676 318.956 91.3738C318.87 91.0389 318.917 91.6651 318.972 91.3224C318.985 91.2269 318.992 91.1305 318.993 91.034C318.976 90.8379 318.889 91.3658 318.993 91.034C319.03 90.9155 319.26 90.5278 319.045 90.8681C319.11 90.7714 319.167 90.6721 319.232 90.5754C319.028 90.8802 319.218 90.6188 319.29 90.5416C319.567 90.2812 319.12 90.5879 319.458 90.4338C319.571 90.378 319.676 90.3198 319.792 90.2693C320.026 90.1734 319.481 90.3195 319.909 90.241C320.057 90.2134 320.207 90.1779 320.371 90.1514C320.808 90.0583 320.123 90.1389 320.577 90.1293C320.784 90.1203 320.988 90.1192 321.194 90.1272C321.72 90.1415 322.243 90.2122 322.754 90.3383C323.519 90.5046 324.271 90.7214 325.006 90.9872C326.322 91.4616 327.584 92.0736 328.772 92.8128C331.301 94.4181 333.667 96.2689 335.833 98.3382C336.783 99.2124 337.74 100.089 338.643 101.014C339.087 101.442 339.501 101.894 339.884 102.37C340.045 102.563 340.196 102.758 340.361 102.953L340.629 103.314C340.473 103.092 340.794 103.565 340.819 103.608C341.452 104.493 341.845 105.526 341.962 106.608C341.926 106.349 341.962 106.608 341.952 106.639C341.957 106.788 341.963 106.937 341.962 107.076C341.962 107.215 341.954 107.421 341.935 107.592C341.935 107.592 341.856 108.123 341.905 107.856C341.838 108.191 341.745 108.52 341.627 108.841C341.585 108.975 341.543 109.109 341.475 109.227C341.408 109.345 341.442 109.333 341.475 109.227C341.442 109.333 341.373 109.429 341.319 109.533C340.001 111.953 337.658 113.327 335.125 114.533C333.875 115.131 332.608 115.714 331.317 116.221C330.13 116.708 328.858 116.956 327.574 116.953C327.012 116.95 326.456 116.837 325.938 116.619C325.42 116.4 324.95 116.082 324.555 115.682L324.236 115.313C324.213 115.306 324.072 115.075 324.193 115.256C324.022 114.993 323.867 114.719 323.731 114.435C323.477 113.932 323.276 113.404 323.131 112.859C322.17 109.639 321.493 106.304 320.827 103.029C320.133 99.5672 319.549 96.085 319.076 92.5825C318.964 91.7493 317.982 91.2423 317.217 91.4146C316.82 91.5138 316.476 91.7631 316.259 92.1101C316.042 92.4571 315.968 92.8747 316.053 93.2752L316.003 93.2813Z"
		fill="white" />
	<path
		d="M319.96 87.5448C319.011 87.3341 318.097 86.9865 317.247 86.5129C316.416 86.0537 315.66 85.4701 315.004 84.7825C314.363 84.1647 313.846 83.4287 313.484 82.6149C313.506 82.6563 313.305 82.1769 313.37 82.3577C313.434 82.5385 313.32 82.1989 313.311 82.1703C313.246 81.9444 313.193 81.715 313.153 81.4832C313.163 81.4516 313.123 81.1919 313.138 81.422C313.131 81.3157 313.129 81.2109 313.132 81.1079C313.13 81.0032 313.14 80.9022 313.143 80.7948C313.164 80.3676 313.057 80.9888 313.165 80.6281C313.208 80.4495 313.263 80.274 313.33 80.1028C313.196 80.4207 313.474 79.892 313.518 79.8192C313.563 79.7464 313.761 79.5307 313.542 79.7441L313.737 79.5495C313.8 79.4868 313.874 79.4317 313.941 79.3703C314.168 79.1724 313.763 79.4272 314.059 79.2988C314.139 79.2633 314.218 79.2186 314.295 79.1819C314.02 79.2432 314.234 79.2105 314.295 79.1819L314.552 79.1235C314.291 79.1806 314.457 79.12 314.552 79.1235C314.646 79.127 314.728 79.1268 314.816 79.137C314.545 79.104 314.903 79.1642 314.974 79.1865C315.235 79.2681 314.833 79.0987 315.077 79.2186C315.234 79.3045 315.383 79.4034 315.522 79.5143C315.673 79.6432 315.815 79.7819 315.947 79.9293C316.112 80.1109 316.266 80.2979 316.416 80.5099C316.567 80.7219 316.699 80.8674 316.833 81.0482L317.025 81.3079C317.025 81.3079 317.305 81.7034 317.17 81.5094C317.733 82.311 318.231 83.156 318.66 84.0364C319.11 84.9073 319.411 85.8475 319.55 86.8178C319.566 86.9183 319.582 87.0228 319.593 87.126C319.569 86.9104 319.579 87.1694 319.595 87.2569C319.609 87.5124 319.609 87.7686 319.593 88.024C319.584 88.1512 319.57 88.2771 319.561 88.4043C319.542 88.6848 319.574 88.3609 319.549 88.5263C319.493 88.8083 319.419 89.0865 319.327 89.359C319.204 89.7519 319.242 90.1775 319.433 90.5423C319.624 90.9071 319.951 91.1811 320.344 91.3042C320.737 91.4272 321.163 91.3891 321.528 91.1983C321.892 91.0075 322.166 90.6797 322.289 90.2868C323.076 87.8571 322.627 85.3308 321.618 83.0412C321.152 82.0044 320.591 81.0129 319.943 80.079C319.223 78.916 318.327 77.8716 317.287 76.9829C315.062 75.2496 311.96 76.1257 310.666 78.5529C309.373 80.9801 310.246 83.6741 311.765 85.7502C313.555 88.1402 316.129 89.8245 319.036 90.5085C319.429 90.6227 319.851 90.5805 320.213 90.3909C320.576 90.2013 320.851 89.8789 320.981 89.4912C321.182 88.7256 320.809 87.7413 319.964 87.546L319.96 87.5448Z"
		fill="white" />
	<path
		d="M317.764 92.7262C322.28 98.3333 326.06 104.495 329.012 111.061C329.429 111.986 329.83 112.922 330.212 113.862C330.404 114.329 330.594 114.805 330.775 115.278C330.97 115.689 331.117 116.121 331.214 116.565L331.246 115.756L331.285 115.629L332.246 114.958L332.17 114.978L332.98 115.01L332.917 114.991L333.599 115.43L333.748 115.62L333.937 116.399L333.936 116.334L333.689 117.124L333.704 117.076L332.345 117.787L332.404 117.805C332.608 117.812 332.811 117.779 333.002 117.707C333.193 117.636 333.367 117.527 333.516 117.388C333.665 117.249 333.785 117.081 333.87 116.896C333.954 116.71 334.001 116.51 334.008 116.306C334.015 116.102 333.981 115.899 333.91 115.708C333.838 115.517 333.729 115.343 333.59 115.194C333.451 115.045 333.284 114.925 333.098 114.84C332.913 114.756 332.712 114.709 332.508 114.702C332.071 114.691 331.646 114.854 331.328 115.156C331.011 115.457 330.825 115.872 330.812 116.309C330.809 116.548 330.856 116.784 330.948 117.004C331.041 117.224 331.178 117.422 331.351 117.586C331.524 117.75 331.729 117.877 331.954 117.958C332.178 118.039 332.417 118.073 332.655 118.057C333.088 118.007 333.488 117.801 333.781 117.478C334.075 117.156 334.241 116.738 334.25 116.302C334.305 115.599 333.874 114.844 333.608 114.196C332.831 112.163 331.973 110.16 331.036 108.186C329.171 104.239 327.004 100.441 324.557 96.8268C323.128 94.7111 321.613 92.6577 320.01 90.6665C319.876 90.5059 319.71 90.3741 319.524 90.279C319.337 90.1839 319.133 90.1276 318.925 90.1133C318.716 90.0991 318.506 90.1273 318.308 90.1962C318.111 90.265 317.929 90.3732 317.774 90.5142C317.619 90.6551 317.495 90.8259 317.408 91.0163C317.32 91.2067 317.273 91.4127 317.267 91.622C317.262 91.8313 317.299 92.0396 317.376 92.2342C317.453 92.4288 317.569 92.6058 317.717 92.7545L317.764 92.7262Z"
		fill="white" />
	<path
		d="M320.633 90.6743C323.488 93.5507 326.416 96.3892 329.123 99.4059C331.578 102.099 333.646 105.12 335.269 108.383C336.156 110.174 336.895 112.034 337.478 113.946C337.58 114.342 337.83 114.685 338.176 114.902C338.523 115.12 338.94 115.196 339.341 115.115C339.74 115.019 340.085 114.77 340.303 114.422C340.52 114.074 340.593 113.655 340.505 113.255C339.404 109.61 337.8 106.136 335.739 102.935C333.542 99.5491 330.841 96.5953 328.016 93.7326C326.323 92.0184 324.62 90.3096 322.925 88.6033C322.643 88.306 322.258 88.1289 321.849 88.109C321.439 88.0892 321.038 88.2281 320.729 88.4967C320.429 88.7764 320.25 89.1627 320.231 89.5727C320.212 89.9828 320.354 90.3839 320.628 90.6901L320.633 90.6743Z"
		fill="white" />
	<path
		d="M151.118 57.4977C155.268 55.6578 159.597 54.2517 164.035 53.3019C165.14 53.0696 166.251 52.8595 167.369 52.6716C167.909 52.5806 168.455 52.4999 168.999 52.4232C169.544 52.3465 170.198 52.2521 170.537 52.2367C171.05 52.2011 171.565 52.2171 172.074 52.2846C171.839 52.2457 172.177 52.3168 172.228 52.3329C172.363 52.3638 172.495 52.4051 172.623 52.4566C172.347 52.37 173.054 52.7564 172.885 52.6037C173.143 52.8167 173.307 53.1218 173.343 53.4541C173.443 53.9464 173.467 54.4511 173.413 54.9505C173.28 57.0777 172.27 59.251 171.296 61.1539C170.169 63.3534 168.909 65.482 167.522 67.5276C166.826 68.5457 166.104 69.5473 165.347 70.5246L165.131 70.7996C164.93 71.0533 165.045 70.894 165.09 70.8474C165.002 70.9421 164.909 71.0317 164.81 71.1157L164.752 71.1625C164.87 71.0779 164.847 71.0836 164.692 71.1741C164.665 71.1654 164.887 71.1221 164.851 71.1372C164.816 71.1522 164.616 71.1415 164.792 71.1618C164.656 71.1348 164.524 71.0933 164.397 71.0381C164.318 71.0134 164.239 70.9886 164.16 70.9639C164.262 70.996 164.262 70.996 164.16 70.9639C163.23 70.4504 162.339 69.8699 161.494 69.2269C161.088 68.9305 160.691 68.6197 160.3 68.3021C160.076 68.119 160.161 68.1934 159.903 67.9651C159.644 67.7367 159.481 67.5944 159.276 67.4044C158.412 66.6078 157.597 65.7601 156.835 64.866C156.436 64.3941 156.049 63.9128 155.682 63.4247C155.314 62.9365 155.177 62.7374 154.848 62.2355C154.187 61.2306 153.588 60.1857 153.057 59.1066C152.823 58.6513 152.615 58.1835 152.433 57.7054C152.349 57.4434 152.288 57.1747 152.25 56.9023C152.282 57.1204 152.243 56.7872 152.242 56.7349C152.241 56.6825 152.317 56.1902 152.264 56.4164C152.379 56.0235 152.338 55.6013 152.148 55.2385C151.958 54.8757 151.635 54.6006 151.247 54.4712C150.486 54.2678 149.502 54.6405 149.301 55.4886C148.709 58.0312 150.219 60.5775 151.487 62.6791C153.975 66.8424 157.401 70.3673 161.492 72.9736C162.636 73.6963 163.9 74.4392 165.313 74.2052C166.727 73.9713 167.612 72.6957 168.436 71.6007C170.079 69.424 171.57 67.1376 172.9 64.7575C174.227 62.3755 175.604 59.8486 176.205 57.1696C176.769 54.6484 176.869 51.2402 174.224 49.8261C173.007 49.2404 171.647 49.0223 170.308 49.1985C168.971 49.3132 167.641 49.5168 166.321 49.7412C160.584 50.7296 154.993 52.432 149.679 54.8087C149.318 55.0028 149.047 55.3305 148.924 55.7218C148.802 56.1131 148.837 56.5368 149.023 56.9022C149.22 57.2616 149.549 57.5307 149.94 57.6532C150.331 57.7757 150.754 57.7419 151.121 57.5591L151.118 57.4977Z"
		fill="white" />
	<path
		d="M150.426 55.1128C149.944 54.3464 149.264 53.725 148.458 53.315C147.651 52.905 146.748 52.7217 145.846 52.7848C144.889 52.8369 143.961 53.1272 143.146 53.6293C142.33 54.1314 141.653 54.8294 141.176 55.6598C139.035 59.3527 140.556 63.4553 142.374 66.9176C144.273 70.5486 146.403 74.1478 149.124 77.2165C150.546 78.8244 152.256 80.1534 154.344 80.7555C156.303 81.3225 158.363 81.4538 160.379 81.1403C161.425 80.9927 162.432 80.6383 163.34 80.0976C164.248 79.5569 165.039 78.8407 165.668 77.9909C166.296 77.1306 166.69 76.122 166.812 75.0638C166.933 74.0056 166.778 72.9338 166.361 71.9535C166.201 71.6511 165.946 71.4097 165.635 71.2661C165.324 71.1226 164.975 71.0849 164.641 71.1588L163.881 71.3547C163.675 71.3927 163.479 71.4721 163.305 71.5879C163.131 71.7037 162.981 71.8536 162.866 72.0286C162.751 72.2036 162.673 72.4 162.636 72.6061C162.599 72.8121 162.604 73.0236 162.651 73.2277C162.697 73.4317 162.785 73.6242 162.908 73.7936C163.031 73.9629 163.187 74.1056 163.367 74.2131C163.547 74.3206 163.746 74.3906 163.954 74.4189C164.161 74.4472 164.372 74.4333 164.574 74.3779L165.334 74.1821L163.613 73.3874C163.633 73.4368 163.71 73.6606 163.634 73.4198L163.692 73.6203C163.734 73.7735 163.768 73.9289 163.794 74.0858C163.76 73.8325 163.773 74.153 163.786 74.2483C163.782 74.4382 163.768 74.6277 163.743 74.816C163.782 74.5246 163.705 74.9384 163.675 75.0332C163.645 75.128 163.589 75.3057 163.551 75.4282C163.537 75.4716 163.42 75.7513 163.504 75.5783C163.589 75.4053 163.486 75.6375 163.479 75.6573C163.389 75.8294 163.288 75.9964 163.18 76.1577C163.098 76.2796 163.012 76.4003 162.922 76.5106C163.081 76.3048 162.798 76.6411 162.743 76.6932C162.622 76.8158 162.496 76.9281 162.366 77.0392L162.194 77.1719C161.986 77.3236 162.497 77.0066 162.07 77.2501C161.768 77.4253 161.457 77.5827 161.137 77.7214C160.973 77.7872 161.097 77.7391 161.137 77.7214C161.038 77.7598 160.933 77.7918 160.831 77.8251C160.654 77.8781 160.47 77.9246 160.288 77.9672C159.623 78.1326 158.937 78.1998 158.252 78.1667C157.518 78.1566 156.787 78.0814 156.067 77.9422C155.271 77.794 154.505 77.5161 153.8 77.1195C153.166 76.7459 152.588 76.2859 152.081 75.7527C149.678 73.317 147.899 70.396 146.238 67.4166C145.407 65.9922 144.658 64.521 143.996 63.0103C143.412 61.7081 143.175 60.277 143.307 58.8559C143.329 58.6722 143.314 58.8322 143.307 58.8559C143.339 58.7532 143.371 58.6505 143.375 58.5391C143.427 58.3328 143.491 58.1297 143.566 57.9308C143.598 57.8281 143.63 57.7254 143.661 57.6267C143.692 57.5279 143.762 57.4154 143.68 57.5674C143.773 57.3801 143.878 57.1985 143.993 57.0237L144.131 56.8326C144.145 56.7892 144.376 56.5493 144.221 56.7132C144.348 56.5806 144.481 56.4545 144.621 56.3354C144.656 56.3072 144.92 56.1126 144.756 56.2216C144.592 56.3307 144.851 56.1688 144.877 56.1553L145.058 56.0603C145.058 56.0603 145.422 55.9097 145.246 55.9718C145.071 56.0339 145.299 55.9577 145.317 55.9548L145.647 55.8715C145.743 55.854 146.137 55.8168 145.85 55.8312C146.03 55.8222 146.211 55.8237 146.391 55.8357L146.66 55.8635C146.486 55.8091 146.517 55.8491 146.66 55.8635C146.834 55.9179 146.999 55.9699 147.165 56.0219C147.138 56.0132 146.939 55.8859 147.082 55.9959C147.167 56.0572 147.271 56.0985 147.362 56.1571C147.452 56.2156 147.468 56.2468 147.521 56.272C147.419 56.1272 147.671 56.3452 147.521 56.272C147.574 56.3411 147.634 56.4049 147.7 56.4625C147.855 56.6324 147.523 56.1685 147.744 56.5154C147.942 56.8727 148.27 57.1402 148.659 57.2623C149.049 57.3843 149.471 57.3517 149.837 57.171C150.2 56.9785 150.472 56.6508 150.595 56.2589C150.718 55.867 150.681 55.4425 150.493 55.0775L150.426 55.1128Z"
		fill="white" />
	<path
		d="M175.347 56.1564C175.573 56.405 175.794 56.6562 176.001 56.9208C176.109 57.0628 176.22 57.2061 176.321 57.3548C176.217 57.2009 176.297 57.3474 176.321 57.3548L176.528 57.6757C176.896 58.2655 177.214 58.8845 177.48 59.5265C177.504 59.5863 177.66 60.0168 177.592 59.8046C177.652 59.975 177.711 60.1455 177.761 60.3173C177.87 60.6636 177.976 61.0177 178.041 61.3635C178.106 61.7092 178.173 62.0209 178.217 62.3513L178.26 62.6595L178.269 62.7667C178.259 62.6202 178.28 62.8699 178.279 62.8738L178.302 63.2583C178.328 63.953 178.299 64.6488 178.214 65.3388C178.185 65.4336 178.185 65.5423 178.17 65.646C178.17 65.646 178.129 65.902 178.14 65.7408C178.152 65.5795 178.113 65.8276 178.111 65.8355C178.08 65.9343 178.07 66.0353 178.047 66.1365C177.966 66.4949 177.866 66.8489 177.749 67.1971C177.702 67.3472 177.653 67.5052 177.574 67.6454C177.665 67.4396 177.457 67.8387 177.415 67.9036C177.373 67.9685 177.33 68.0374 177.284 68.1011C177.408 67.9273 177.277 68.1247 177.238 68.1516C177.199 68.1785 177.122 68.2585 177.063 68.3093C176.895 68.4564 177.298 68.2226 176.964 68.374C176.867 68.4216 176.592 68.5091 176.833 68.4457C176.762 68.4667 176.369 68.5432 176.505 68.525C176.641 68.5068 176.29 68.5185 176.226 68.5157C176.162 68.513 176.044 68.502 175.952 68.4906C175.712 68.4675 176.177 68.5611 175.952 68.4906C175.727 68.4201 175.588 68.3768 175.403 68.3187L175.197 68.2543C174.923 68.1468 175.276 68.2791 175.111 68.2271C174.793 68.0536 174.49 67.8556 174.203 67.6349C173.898 67.3784 173.614 67.0968 173.356 66.7929C173.088 66.4958 172.854 66.1694 172.659 65.8198C172.461 65.462 172.132 65.1942 171.742 65.0719C171.351 64.9496 170.929 64.9822 170.562 65.1629C170.2 65.3575 169.929 65.6859 169.806 66.0779C169.683 66.4698 169.719 66.8942 169.905 67.2603C170.914 69.0632 172.498 70.4757 174.404 71.2719C176.264 71.9803 178.369 71.6461 179.673 70.0723C180.87 68.63 181.257 66.5087 181.362 64.6765C181.471 62.893 181.244 61.1049 180.693 59.4051C180.063 57.4299 179.017 55.6127 177.625 54.0765C177.49 53.9207 177.324 53.7935 177.139 53.7025C176.953 53.6114 176.752 53.5582 176.545 53.5462C176.339 53.5341 176.132 53.5632 175.938 53.632C175.743 53.7008 175.564 53.8078 175.411 53.9467C175.258 54.0856 175.134 54.2537 175.047 54.441C174.96 54.6283 174.911 54.8311 174.903 55.0376C174.896 55.244 174.929 55.4499 175.002 55.6432C175.075 55.8365 175.186 56.0133 175.328 56.1633L175.347 56.1564Z"
		fill="white" />
	<path
		d="M173.241 69.8044C171.432 70.7904 171.193 73.1185 172.024 74.8406C172.378 75.5241 172.863 76.1306 173.453 76.6251C174.043 77.1195 174.725 77.492 175.459 77.7209C176.189 77.9612 176.959 78.0522 177.724 77.9885C178.489 77.9248 179.233 77.7078 179.913 77.3503C180.588 76.9639 181.178 76.4455 181.649 75.826C182.119 75.2066 182.46 74.4987 182.651 73.7447C182.877 72.8837 182.914 71.9843 182.762 71.1074C182.68 70.6767 182.546 70.2575 182.363 69.8592C182.222 69.5049 181.985 69.1966 181.679 68.9684C181.339 68.7857 180.97 68.6615 180.589 68.6007C180.196 68.4777 179.77 68.5158 179.405 68.7066C179.04 68.8974 178.766 69.2252 178.643 69.6181C178.52 70.0109 178.558 70.4366 178.749 70.8014C178.94 71.1662 179.268 71.4402 179.661 71.5632L180.376 71.7571L179.462 70.9935C179.523 71.1037 179.573 71.2192 179.628 71.3361C179.542 71.0143 179.775 71.6554 179.628 71.3361C179.659 71.4586 179.695 71.5783 179.717 71.7023C179.739 71.8263 179.79 72.1893 179.755 71.9137C179.72 71.6381 179.759 72.0537 179.756 72.131C179.754 72.2083 179.751 72.3549 179.743 72.4651C179.734 72.5752 179.707 72.6883 179.703 72.7996C179.726 72.2952 179.725 72.7285 179.677 72.8826C179.629 73.0366 179.609 73.0999 179.575 73.2065C179.542 73.3132 179.368 73.675 179.512 73.408C179.657 73.1409 179.46 73.5044 179.431 73.556C179.363 73.6777 179.286 73.7969 179.205 73.9189C179.188 73.9742 178.919 74.2631 179.107 74.066C179.294 73.8688 179.009 74.1699 178.955 74.218C178.878 74.2974 178.795 74.3715 178.708 74.4398C178.665 74.4786 178.621 74.5082 178.579 74.5469C178.341 74.7371 178.893 74.3592 178.626 74.5054C178.359 74.6517 178.215 74.6975 178.028 74.8083C178.311 74.6408 178.29 74.7211 178.162 74.7548L177.963 74.8095C177.842 74.8411 177.72 74.8665 177.597 74.8856C177.546 74.8956 177.266 74.9296 177.55 74.8969C177.597 74.9117 177.833 74.8642 177.55 74.8969C177.502 74.8821 177.327 74.901 177.216 74.8964C177.104 74.8919 176.964 74.8827 176.838 74.8693C176.787 74.8532 176.728 74.8347 176.673 74.8435L176.916 74.8849L176.758 74.8354C176.539 74.7841 176.323 74.7167 176.114 74.6337C176.067 74.6189 176.003 74.5991 175.956 74.5843C176.292 74.6894 176.226 74.7207 176.11 74.6325C175.994 74.5443 175.864 74.5035 175.741 74.4259C175.618 74.3483 175.553 74.3062 175.465 74.2398L175.298 74.1093C175.141 73.9995 175.548 74.3482 175.415 74.2066C175.281 74.0651 175.093 73.8499 174.913 73.6503C174.732 73.4507 175.081 73.9417 174.996 73.7718C174.958 73.6992 174.91 73.632 174.868 73.5581C174.826 73.4843 174.771 73.285 174.698 73.2143C174.834 73.348 174.789 73.5032 174.747 73.3338C174.726 73.2491 174.697 73.162 174.677 73.0733L174.646 72.8945C174.582 72.588 174.647 73.2506 174.635 72.93C174.638 72.7834 174.664 72.631 174.656 72.5029C174.647 72.5305 174.556 72.9053 174.634 72.6565C174.669 72.5795 174.694 72.4986 174.709 72.4155C174.699 72.4471 174.506 72.7596 174.66 72.5735C174.699 72.5165 174.856 72.3356 174.675 72.5261C174.494 72.7166 174.675 72.5261 174.717 72.5005C174.904 72.3072 174.413 72.6828 174.675 72.5392C175.04 72.348 175.314 72.0198 175.436 71.6267C175.559 71.2336 175.52 70.8078 175.329 70.4431C175.138 70.0784 174.81 69.8045 174.417 69.6818C174.024 69.5591 173.598 69.5976 173.233 69.7888L173.241 69.8044Z"
		fill="white" />
	<path
		d="M176.073 50.6398C176.225 49.7023 176.455 48.779 176.76 47.8794C177.055 46.9765 177.436 46.1038 177.897 45.2731C178.377 44.4007 178.927 43.5692 179.543 42.7871C179.617 42.6889 179.695 42.5919 179.776 42.5001L179.838 42.4283C179.982 42.2738 180.124 42.1233 180.28 41.9856C180.354 41.9122 180.433 41.8443 180.517 41.7823C180.455 41.8279 180.312 41.8828 180.569 41.7551C180.661 41.7102 180.748 41.655 180.841 41.6193C180.615 41.7045 180.99 41.631 180.861 41.6254C180.733 41.6199 181.118 41.6495 180.961 41.6262C180.803 41.6029 181.138 41.6819 181.17 41.6918C181.274 41.7394 181.374 41.7968 181.468 41.8631C181.584 41.9651 181.695 42.0737 181.8 42.1883C181.864 42.2604 181.929 42.3417 181.987 42.4205C181.829 42.1929 182.068 42.5931 182.074 42.5996C182.12 42.6877 182.161 42.7786 182.206 42.8707C182.251 42.9629 182.304 43.14 182.231 42.9175C182.293 43.1079 182.344 43.302 182.383 43.4986C182.398 43.5729 182.409 43.6499 182.421 43.723C182.467 43.9762 182.414 43.5215 182.435 43.7751C182.45 44.0035 182.451 44.2326 182.437 44.4611C182.42 44.5164 182.359 45.0961 182.412 44.8046C182.37 45.0359 182.311 45.264 182.237 45.4872C182.112 45.9178 181.926 46.3285 181.686 46.7069C181.213 47.5013 180.631 48.2257 179.958 48.8592C179.609 49.1837 179.244 49.5032 178.856 49.8154C178.771 49.8798 178.681 49.9429 178.595 50.0113L178.464 50.1092C178.543 50.0515 178.542 50.0554 178.464 50.1092C178.265 50.2464 178.056 50.3759 177.848 50.4975C177.042 51.0038 176.15 51.3565 175.215 51.5378C174.813 51.63 174.465 51.878 174.246 52.2272C174.027 52.5764 173.956 52.9982 174.049 53.3998C174.141 53.8014 174.389 54.1499 174.738 54.3686C175.087 54.5874 175.509 54.6585 175.91 54.5663C178.159 54.0372 180.223 52.9109 181.885 51.3062C183.734 49.5562 185.33 47.3146 185.545 44.7016C185.742 42.3127 184.575 39.6267 182.206 38.7456C179.418 37.7034 177.372 40.3289 176.035 42.3693C174.438 44.8333 173.399 47.6167 172.991 50.5246C172.87 51.3541 173.72 52.1019 174.487 52.1298C175.406 52.1614 175.972 51.4625 176.093 50.6329L176.073 50.6398Z"
		fill="white" />
	<path
		d="M384.105 126.828C384.398 126.92 384.712 126.922 385.006 126.836C385.301 126.749 385.563 126.578 385.76 126.342C385.957 126.106 386.08 125.818 386.112 125.513C386.145 125.207 386.087 124.899 385.945 124.627C385.802 124.355 385.583 124.131 385.313 123.984C385.044 123.837 384.737 123.773 384.431 123.801C384.125 123.828 383.834 123.945 383.595 124.138C383.356 124.33 383.18 124.59 383.088 124.883C382.969 125.275 383.009 125.699 383.2 126.063C383.39 126.426 383.715 126.701 384.105 126.828Z"
		fill="white" />
	<path
		d="M218.404 47.4762C218.697 47.568 219.011 47.5708 219.305 47.4843C219.6 47.3978 219.862 47.226 220.059 46.9904C220.256 46.7549 220.378 46.4662 220.411 46.161C220.444 45.8557 220.386 45.5476 220.243 45.2756C220.101 45.0035 219.881 44.7798 219.612 44.6327C219.342 44.4855 219.035 44.4216 218.73 44.4489C218.424 44.4763 218.133 44.5937 217.894 44.7863C217.655 44.9789 217.478 45.2381 217.387 45.5311C217.267 45.9239 217.307 46.3481 217.497 46.712C217.687 47.0759 218.013 47.3504 218.404 47.4762Z"
		fill="white" />
	<path
		d="M330.56 65.9857L331.203 65.6493C331.557 65.4463 331.828 65.1234 331.965 64.7386C332.074 64.3445 332.036 63.9242 331.858 63.5558L331.631 63.2288C331.447 63.0245 331.211 62.874 330.948 62.7935L330.537 62.7211C330.266 62.7151 329.998 62.7809 329.761 62.912C329.545 63.022 329.332 63.1332 329.118 63.2484C328.934 63.3327 328.776 63.4643 328.66 63.6298C328.514 63.7761 328.408 63.9588 328.356 64.1591C328.285 64.3551 328.267 64.5662 328.303 64.7714C328.305 64.9722 328.36 65.169 328.462 65.3419L328.686 65.6677C328.872 65.8721 329.109 66.0229 329.373 66.1042L329.784 66.1766C330.056 66.1832 330.325 66.1177 330.564 65.9869L330.56 65.9857Z"
		fill="white" />
	<path
		d="M300.764 100.727L301.254 100.88C301.45 100.951 301.661 100.97 301.866 100.933C302.068 100.921 302.264 100.867 302.443 100.773C302.622 100.68 302.779 100.549 302.904 100.391C303.05 100.243 303.156 100.059 303.209 99.8576L303.282 99.4465C303.287 99.1758 303.221 98.9085 303.091 98.671L302.864 98.344C302.679 98.1397 302.443 97.9893 302.18 97.9087L301.69 97.7553C301.296 97.6487 300.877 97.6866 300.508 97.862C300.324 97.9462 300.166 98.0779 300.05 98.2435C299.903 98.3897 299.798 98.5724 299.745 98.7727L299.673 99.1837C299.668 99.4545 299.734 99.7218 299.864 99.9592L300.091 100.286C300.275 100.491 300.511 100.641 300.774 100.722L300.764 100.727Z"
		fill="white" />
	<path
		d="M234.894 38.1313L238.069 31.3182C238.325 30.765 238.584 30.2131 238.84 29.6599C238.929 29.471 238.947 29.455 239.062 29.2264C239.268 28.805 239.106 29.24 239.051 29.1664C238.968 29.2098 238.992 29.2002 239.127 29.1297C239.101 29.1522 239.07 29.1691 239.037 29.1796C239.004 29.1901 238.969 29.1939 238.935 29.1908C238.753 29.1339 239.014 29.2155 239.07 29.2027C239.309 29.2298 238.739 29.0687 239.137 29.2237C239.236 29.2547 239.712 29.4384 239.433 29.3165C239.87 29.5141 240.283 29.7736 240.702 30.0003C242.346 30.8881 244.187 31.8507 246.11 31.7894C247.212 31.7637 248.275 31.3814 249.141 30.6999C249.965 29.9727 250.615 29.0684 251.041 28.0548C252.269 25.5162 253.48 22.9675 254.701 20.4265C255.05 19.6987 255.021 18.7397 254.236 18.2814C253.582 17.9032 252.467 17.9615 252.091 18.746C250.996 21.0229 249.902 23.3016 248.809 25.582C248.585 26.0495 248.367 26.5235 248.123 26.9848C247.993 27.2369 247.848 27.4813 247.69 27.7167C247.593 27.8955 247.463 28.0535 247.305 28.1819C247.224 28.2598 247.139 28.333 247.05 28.4013C247.236 28.2643 246.998 28.4284 246.946 28.4555L246.645 28.5998C246.71 28.5724 246.918 28.5333 246.645 28.5998C246.477 28.6382 246.313 28.6778 246.14 28.7019C246.462 28.6594 246.168 28.7106 246.089 28.6858C246.01 28.6611 245.826 28.6815 245.695 28.6708C245.564 28.6601 245.472 28.6487 245.364 28.6323C245.423 28.6509 245.664 28.7002 245.364 28.6323C245.163 28.5692 244.962 28.5323 244.756 28.468C244.316 28.3258 243.886 28.1562 243.467 27.96C243.74 28.0846 243.171 27.8109 243.092 27.7731L242.499 27.4618C242.072 27.2327 241.654 26.9889 241.225 26.7676C240.148 26.2178 238.965 25.8519 237.79 26.3381C236.493 26.8775 236.062 28.3084 235.506 29.4745C234.308 32.0518 233.107 34.631 231.903 37.2119C231.553 37.9697 232.184 38.961 232.92 39.1571C233.825 39.3971 234.496 38.9306 234.865 38.1397L234.894 38.1313Z"
		fill="white" />
	<path
		d="M414.414 127.426C411.889 126.885 409.254 127.305 407.023 128.603C404.707 129.985 402.859 132.029 401.715 134.471C400.53 136.871 399.661 139.644 400.443 142.314C401.107 144.477 402.484 146.352 404.351 147.632C408.225 150.372 413.362 150.064 417.187 147.406C419.132 146.067 420.655 144.201 421.578 142.027C422.453 139.866 422.627 137.484 422.076 135.217C421.489 132.718 420.145 130.459 418.228 128.751C417.202 127.811 416.005 127.077 414.702 126.588C414.277 126.434 413.812 126.425 413.381 126.564C412.95 126.702 412.577 126.979 412.32 127.352C412.144 127.594 412.039 127.879 412.015 128.177C411.991 128.475 412.05 128.773 412.185 129.04C412.319 129.306 412.525 129.531 412.78 129.688C413.034 129.844 413.327 129.928 413.625 129.929C414.037 129.943 414.437 129.793 414.738 129.512C415.039 129.231 415.215 128.842 415.229 128.43C415.243 128.018 415.093 127.618 414.812 127.318C414.53 127.017 414.141 126.84 413.73 126.826L413.655 126.829L414.445 127.076L414.402 127.063L415.073 128.023L415.082 127.992L415.05 128.801L414.727 129.32C413.632 129.336 413.293 129.416 413.71 129.561C413.821 129.613 413.934 129.658 414.049 129.698C414.101 129.714 414.33 129.825 414.049 129.698L414.308 129.827C414.736 130.051 415.148 130.306 415.54 130.59C415.699 130.705 415.848 130.825 416 130.946C415.782 130.77 416.032 130.956 416.078 131.018L416.343 131.266C416.657 131.569 416.951 131.892 417.224 132.232C417.303 132.326 417.377 132.423 417.451 132.52C417.525 132.617 417.675 132.829 417.519 132.606C417.629 132.767 417.735 132.93 417.838 133.097C418.091 133.512 418.316 133.944 418.514 134.388C418.591 134.566 418.665 134.745 418.736 134.926C418.641 134.675 418.751 134.974 418.771 135.037C418.79 135.099 418.847 135.265 418.879 135.383C419.004 135.801 419.101 136.227 419.169 136.658C419.188 136.777 419.208 136.896 419.222 137.017C419.236 137.139 419.257 137.401 419.237 137.122C419.251 137.312 419.259 137.506 419.264 137.698C419.267 138.183 419.24 138.667 419.183 139.148C419.167 139.199 419.135 139.454 419.177 139.168C419.149 139.258 419.143 139.361 419.122 139.454C419.049 139.687 419.008 139.93 418.937 140.168C418.867 140.406 418.821 140.54 418.763 140.725L418.629 141.069C418.596 141.176 418.497 141.366 418.601 141.16C418.409 141.557 418.194 141.941 417.954 142.311C417.822 142.512 417.68 142.715 417.533 142.908C417.473 142.989 417.41 143.064 417.351 143.141C417.066 143.512 417.549 142.939 417.233 143.282C416.936 143.609 416.623 143.921 416.295 144.216C416.145 144.347 415.993 144.473 415.842 144.595C415.691 144.716 415.647 144.746 415.547 144.819L415.367 144.949C415.473 144.874 415.479 144.867 415.374 144.925C415.026 145.15 414.665 145.362 414.308 145.559C414.092 145.669 413.869 145.772 413.643 145.871L413.374 145.982C412.937 146.157 413.641 145.905 413.193 146.046C412.774 146.179 412.348 146.29 411.917 146.38C411.728 146.416 411.534 146.442 411.342 146.473C410.884 146.551 411.508 146.469 411.232 146.491L410.791 146.513C410.382 146.527 409.971 146.513 409.564 146.471C409.457 146.438 409.337 146.435 409.221 146.429C408.962 146.413 409.576 146.514 409.162 146.411C408.941 146.341 408.712 146.309 408.493 146.249C408.096 146.129 407.705 145.988 407.324 145.826C407.061 145.683 407.261 145.806 407.324 145.826L407.077 145.701C406.853 145.583 406.634 145.454 406.42 145.318C406.09 145.11 405.774 144.882 405.472 144.635C405.707 144.825 405.472 144.635 405.416 144.578L405.168 144.344C405.009 144.186 404.837 144.015 404.702 143.851C404.567 143.688 404.445 143.537 404.322 143.377C404.272 143.313 404.111 143.067 404.275 143.318C404.229 143.243 404.178 143.171 404.133 143.092C403.912 142.733 403.719 142.356 403.558 141.966C403.458 141.731 403.656 142.305 403.534 141.902L403.458 141.648C403.4 141.457 403.358 141.262 403.319 141.067C403.303 140.993 403.232 140.402 403.256 140.74C403.241 140.513 403.23 140.298 403.239 140.062C403.311 138.95 403.581 137.859 404.035 136.841C404.45 135.798 404.996 134.812 405.661 133.907C405.989 133.445 406.364 133.019 406.779 132.635C406.987 132.431 407.207 132.239 407.43 132.053L407.706 131.836C407.706 131.836 408.095 131.563 407.893 131.695C408.356 131.388 408.843 131.119 409.35 130.894C409.782 130.698 410.233 130.549 410.696 130.448C410.953 130.389 411.212 130.349 411.468 130.308C411.724 130.267 411.608 130.291 411.536 130.299C411.693 130.283 411.851 130.276 412.004 130.272C412.266 130.267 412.528 130.275 412.786 130.296L413.177 130.336C413.284 130.369 413.276 130.366 413.153 130.328L413.458 130.393C413.851 130.509 414.274 130.467 414.636 130.277C414.999 130.087 415.274 129.764 415.404 129.376C415.605 128.623 415.239 127.616 414.386 127.431L414.414 127.426Z"
		fill="white" />
</svg>