<svg width="137" height="140" viewBox="0 0 137 140" fill="none" xmlns="http://www.w3.org/2000/svg">
<g opacity="0.55">
<path d="M106.454 1.96561C111.738 14.1344 117.29 26.3691 121.401 39.0068C121.911 40.5697 124.384 39.9034 123.868 38.3268C119.69 25.4917 114.036 13.0459 108.664 0.671412C108.009 -0.83941 105.802 0.465757 106.451 1.96561H106.454Z" fill="#BEC9FC"/>
<path d="M97.4246 30.0989L135.881 11.4124C137.367 10.6913 136.067 8.48402 134.589 9.20242C121.771 15.4175 108.952 21.6418 96.1304 27.8752C94.647 28.5991 95.9467 30.8064 97.4246 30.088V30.0989Z" fill="#BEC9FC"/>
<path d="M122.654 1.12228C116.761 13.7353 110.589 26.4416 105.654 39.455C105.067 41.0014 107.543 41.6622 108.121 40.135C112.98 27.3327 119.065 14.8184 124.867 2.41649C125.56 0.930349 123.353 -0.372093 122.654 1.12228Z" fill="#BEC9FC"/>
<path d="M95.5219 14.7023C108.283 19.7256 121.321 24.4445 134.458 28.4286C136.043 28.9084 136.714 26.4352 135.141 25.9608C122.015 21.9767 108.977 17.2578 96.2046 12.251C94.6664 11.645 94.0111 14.121 95.5246 14.7188L95.5219 14.7023Z" fill="#BEC9FC"/>
<path d="M104.241 36.832C106.275 35.9463 108.354 35.1868 110.317 34.1338L108.847 33.5334C109.538 35.6831 110.013 37.8931 110.646 40.0592C111.008 41.2959 112.944 40.7694 112.579 39.5273C111.946 37.3611 111.482 35.1401 110.78 33.0014C110.737 32.8549 110.662 32.7199 110.559 32.6066C110.457 32.4933 110.33 32.4045 110.189 32.3468C110.047 32.2891 109.895 32.264 109.742 32.2734C109.59 32.2828 109.441 32.3264 109.308 32.4009C107.35 33.4538 105.266 34.2161 103.232 35.1018C102.05 35.6173 103.073 37.3447 104.244 36.832H104.241Z" fill="#BEC9FC"/>
<path d="M119.102 38.712C119.774 36.9983 120.342 35.1941 121.351 33.6421C121.603 33.25 125.595 35.6355 126.418 35.811C127.679 36.0852 128.214 34.1466 126.952 33.8779C125.088 33.4803 122.154 30.3847 120.218 31.9586C118.551 33.3049 117.92 36.2771 117.169 38.191C116.697 39.3975 118.636 39.913 119.088 38.7257L119.102 38.712Z" fill="#BEC9FC"/>
<path d="M131.058 30.3317C131.011 28.596 130.652 26.8933 130.608 25.1576L129.87 26.1228C131.642 25.536 133.046 24.4584 134.364 23.1669C135.288 22.2621 133.871 20.8445 132.947 21.7493C131.883 22.7913 130.772 23.7153 129.338 24.1924C129.128 24.2527 128.943 24.3792 128.811 24.5531C128.678 24.727 128.606 24.939 128.604 25.1576C128.647 26.8933 129.007 28.596 129.053 30.3317C129.086 31.6231 131.09 31.6259 131.058 30.3317Z" fill="#BEC9FC"/>
<path d="M129.544 6.45056C129.144 8.32332 128.741 10.3579 127.844 12.0606C127.57 12.5871 127.776 13.4152 128.445 13.5331C130.449 13.8895 132.38 15.2468 134.055 16.3573C135.135 17.0729 136.139 15.3373 135.067 14.6271C133.254 13.4261 131.151 11.9893 128.977 11.6109L129.577 13.0834C130.559 11.2133 131.042 9.04995 131.478 6.99348C131.752 5.73491 129.813 5.19749 129.558 6.46153L129.544 6.45056Z" fill="#BEC9FC"/>
<path d="M118.519 1.36085C119.287 3.51329 120.438 5.47378 121.535 7.45074C121.823 7.96897 122.413 8.02381 122.906 7.80994C124.551 7.09154 126.166 6.31009 127.842 5.66024C129.034 5.19959 128.516 3.26102 127.31 3.74087C125.473 4.45378 123.699 5.30652 121.894 6.09346L123.265 6.45266C122.24 4.62103 121.149 2.82779 120.441 0.839865C120.011 -0.366599 118.075 0.154374 118.508 1.38826L118.519 1.36085Z" fill="#BEC9FC"/>
<path d="M104.003 5.88341C104.456 5.77373 105.777 6.31115 106.34 6.45647C107.398 6.76467 108.486 6.96224 109.586 7.046C109.805 7.04322 110.017 6.96995 110.191 6.83707C110.365 6.7042 110.491 6.51881 110.551 6.30841C111.039 5.00529 111.607 3.73336 112.251 2.49982C112.827 1.34545 111.1 0.330922 110.521 1.48529C109.801 2.87556 109.166 4.30864 108.621 5.77647L109.586 5.04163C108.423 4.99501 107.269 4.62485 106.148 4.33694C105.325 4.12855 104.324 3.74467 103.469 3.95306C102.216 4.25467 102.748 6.18776 104.003 5.87243V5.88341Z" fill="#BEC9FC"/>
<path d="M95.6864 19.5089C97.4878 18.3435 99.4154 17.3564 101.31 16.3583C101.502 16.2474 101.651 16.0759 101.734 15.8709C101.818 15.6659 101.83 15.439 101.771 15.2259C101.135 12.9885 100.493 10.7455 99.972 8.47793C99.6814 7.21662 97.7511 7.75131 98.0527 9.00987C98.5736 11.2775 99.2153 13.5231 99.8541 15.7606L100.315 14.6282C98.4174 15.6262 96.476 16.6133 94.6883 17.7787C93.6079 18.4751 94.6115 20.2135 95.7001 19.5089H95.6864Z" fill="#BEC9FC"/>
<path d="M95.5961 25.9087C97.9176 26.437 100.242 26.9625 102.569 27.4853L101.87 26.2515C101.223 28.5245 99.816 30.5015 99.1689 32.7773C98.8152 34.0222 100.751 34.5514 101.102 33.3093C101.749 31.0362 103.156 29.0592 103.803 26.7834C103.872 26.5271 103.837 26.2539 103.705 26.0233C103.574 25.7927 103.357 25.6234 103.101 25.5523C100.776 25.0331 98.4514 24.5085 96.128 23.9784C94.8695 23.6905 94.3348 25.6235 95.5961 25.8977V25.9087Z" fill="#BEC9FC"/>
</g>
<g opacity="0.55">
<path d="M21.7731 70.4997C31.1806 92.1657 41.0666 113.949 48.3846 136.45C49.2926 139.232 53.6961 138.046 52.7783 135.239C45.3382 112.387 35.2717 90.2276 25.708 68.1954C24.5412 65.5055 20.6113 67.8293 21.7683 70.4997H21.7731Z" fill="#BEC9FC"/>
<path d="M5.69867 120.591L74.1678 87.3202C76.8138 86.0363 74.4998 82.1063 71.8684 83.3854C49.047 94.4511 26.2223 105.533 3.3944 116.631C0.753275 117.92 3.06731 121.85 5.69867 120.571V120.591Z" fill="#BEC9FC"/>
<path d="M50.6164 68.9978C40.1251 91.4547 29.1359 114.078 20.3484 137.247C19.3037 140.001 23.7121 141.177 24.7421 138.458C33.3929 115.664 44.2259 93.3831 54.5561 71.3021C55.7912 68.6561 51.8613 66.3371 50.6164 68.9978Z" fill="#BEC9FC"/>
<path d="M2.30918 93.1777C25.0297 102.121 48.2433 110.523 71.6326 117.617C74.4544 118.471 75.6505 114.067 72.8482 113.223C49.4784 106.129 26.2648 97.7276 3.52479 88.8132C0.786025 87.7343 -0.380762 92.1427 2.31406 93.207L2.30918 93.1777Z" fill="#BEC9FC"/>
<path d="M17.8345 132.577C21.4569 131 25.1574 129.648 28.6529 127.773L26.0362 126.704C27.2664 130.531 28.111 134.466 29.2387 138.323C29.8831 140.524 33.3298 139.587 32.6805 137.376C31.5527 133.519 30.7277 129.565 29.4779 125.757C29.4011 125.496 29.2665 125.255 29.0841 125.054C28.9018 124.852 28.6763 124.694 28.4244 124.591C28.1726 124.488 27.9009 124.444 27.6294 124.46C27.3579 124.477 27.0937 124.555 26.8563 124.687C23.3706 126.562 19.6603 127.919 16.038 129.496C13.9338 130.414 15.7548 133.49 17.8394 132.577H17.8345Z" fill="#BEC9FC"/>
<path d="M44.2941 135.924C45.4902 132.873 46.5007 129.661 48.2973 126.897C48.7464 126.199 55.8545 130.447 57.3191 130.759C59.5648 131.247 60.5168 127.796 58.2711 127.317C54.9514 126.609 49.7277 121.098 46.281 123.9C43.3128 126.297 42.19 131.589 40.8523 134.997C40.0126 137.145 43.4642 138.062 44.2697 135.949L44.2941 135.924Z" fill="#BEC9FC"/>
<path d="M65.5793 121.004C65.4963 117.914 64.8568 114.882 64.7787 111.792L63.4654 113.511C66.6191 112.466 69.1187 110.547 71.4669 108.248C73.1121 106.637 70.5882 104.113 68.943 105.724C67.0488 107.579 65.0716 109.224 62.5183 110.074C62.1442 110.181 61.8148 110.406 61.579 110.716C61.3433 111.026 61.2138 111.403 61.21 111.792C61.2881 114.882 61.9276 117.914 62.0106 121.004C62.0692 123.304 65.6379 123.309 65.5793 121.004Z" fill="#BEC9FC"/>
<path d="M62.8842 78.4854C62.1714 81.8198 61.4538 85.4422 59.8574 88.4738C59.3692 89.4112 59.7353 90.8855 60.9265 91.0954C64.4952 91.7301 67.9321 94.1466 70.9149 96.1238C72.8384 97.398 74.6252 94.3077 72.7164 93.0433C69.4894 90.905 65.745 88.3469 61.8736 87.6732L62.9427 90.2948C64.6905 86.9653 65.5497 83.1135 66.3259 79.452C66.8141 77.2112 63.3626 76.2544 62.9086 78.5049L62.8842 78.4854Z" fill="#BEC9FC"/>
<path d="M43.2544 69.4221C44.6213 73.2544 46.6717 76.7449 48.6245 80.2648C49.1371 81.1875 50.1867 81.2851 51.0654 80.9044C53.9946 79.6253 56.8701 78.234 59.8529 77.0769C61.9766 76.2568 61.0539 72.8052 58.9058 73.6596C55.6349 74.9289 52.4763 76.4471 49.264 77.8483L51.705 78.4878C49.8791 75.2267 47.9361 72.0339 46.6766 68.4945C45.9101 66.3464 42.4635 67.274 43.2348 69.4709L43.2544 69.4221Z" fill="#BEC9FC"/>
<path d="M17.4102 77.4747C18.2157 77.2794 20.5688 78.2362 21.5696 78.495C23.4549 79.0437 25.392 79.3955 27.3498 79.5446C27.7394 79.5397 28.117 79.4092 28.4266 79.1726C28.7362 78.9361 28.9612 78.606 29.0683 78.2314C29.9375 75.9112 30.9483 73.6466 32.0951 71.4504C33.1203 69.3951 30.0447 67.5888 29.0146 69.644C27.732 72.1194 26.6021 74.6709 25.6314 77.2843L27.3498 75.9759C25.2799 75.8929 23.2246 75.2339 21.2279 74.7213C19.7633 74.3502 17.9814 73.6668 16.4582 74.0378C14.2272 74.5748 15.1743 78.0166 17.4102 77.4551V77.4747Z" fill="#BEC9FC"/>
<path d="M2.60257 101.735C5.81 99.6598 9.242 97.9023 12.6154 96.1253C12.9563 95.9277 13.2219 95.6224 13.3703 95.2575C13.5188 94.8925 13.5417 94.4885 13.4356 94.1091C12.303 90.1254 11.1606 86.132 10.233 82.0946C9.71555 79.8489 6.27867 80.8009 6.81568 83.0417C7.74325 87.0791 8.88562 91.0774 10.0231 95.061L10.8433 93.0448C7.46498 94.8218 4.00856 96.5793 0.82554 98.6541C-1.09794 99.8941 0.688847 102.989 2.62697 101.735H2.60257Z" fill="#BEC9FC"/>
<path d="M2.44229 113.129C6.57566 114.07 10.7139 115.006 14.857 115.937L13.6121 113.74C12.46 117.787 9.95558 121.307 8.80345 125.359C8.17368 127.575 11.6203 128.517 12.2452 126.306C13.3973 122.259 15.9018 118.739 17.0539 114.687C17.1768 114.23 17.1144 113.744 16.8803 113.333C16.6462 112.923 16.2594 112.621 15.8041 112.495C11.6643 111.57 7.52599 110.636 3.38937 109.693C1.14856 109.18 0.1966 112.622 2.44229 113.11V113.129Z" fill="#BEC9FC"/>
</g>
</svg>
