<svg width="158" height="170" viewBox="0 0 158 170" fill="none" xmlns="http://www.w3.org/2000/svg">
<path d="M80.21 44.4055C81.725 47.1975 83.1145 50.5577 84.7805 53.3162C89.2367 45.0529 92.6125 36.2512 94.8249 27.1274C92.9639 24.325 90.7483 21.7752 88.233 19.5413C88.1723 19.7059 88.1221 19.8743 88.0829 20.0453C86.4913 28.4636 83.8462 36.6481 80.21 44.4055Z" fill="#E31717"/>
<path d="M71.777 39.4304C73.5856 38.6274 75.0738 38.8028 76.3524 39.5966C74.1021 30.2479 70.5822 21.2513 65.8909 12.8576C63.189 13.3561 60.5954 14.3247 58.2283 15.7194C63.1339 24.3355 66.7312 33.6332 68.9022 43.3073C69.3681 41.4498 70.2843 40.095 71.777 39.4304Z" fill="#E31717"/>
<path d="M69.6786 55.2635C68.5729 50.4288 68.178 46.281 68.897 43.3912C62.2156 37.9721 54.4769 34.0067 46.1757 31.7486C45.3718 34.3246 44.829 36.9749 44.5553 39.6595C54.2517 42.3467 62.9719 47.7628 69.6786 55.2635Z" fill="#E31717"/>
<path d="M71.5241 61.9853C63.1958 59.5562 54.5865 58.2223 45.9136 58.0172C46.5513 60.7786 47.3394 63.503 48.2744 66.1784C57.4117 66.6092 66.4222 68.4913 74.9679 71.7541C73.6857 68.4334 72.5104 65.1335 71.5241 61.9853Z" fill="#E31717"/>
<path d="M79.6762 83.1475C71.4093 82.0644 63.0619 81.7246 54.7344 82.1324C55.8612 84.7623 57.0291 87.4162 58.2379 90.0942C66.7665 89.895 75.2943 90.5197 83.7029 91.9596C82.3732 89.1667 81.0114 86.1971 79.6762 83.1475Z" fill="#E31717"/>
<path d="M90.0555 105.028C81.859 104.189 73.6014 104.594 65.2784 105.353C66.5556 107.997 67.8439 110.597 69.1434 113.152C77.7417 112.424 86.3395 112.193 94.8081 113.841C93.1666 110.861 91.5382 107.91 90.0555 105.028Z" fill="#E31717"/>
<path d="M105.159 135.493C104.241 132.722 103.145 130.012 101.877 127.382C100.228 127.364 98.6155 127.354 97.098 127.31C90.3548 127.116 83.633 127.218 76.9326 127.615C78.5532 130.416 80.1659 133.05 81.7663 135.517C86.524 135.319 91.2895 135.252 96.0617 135.397C98.8199 135.443 101.981 135.377 105.159 135.493Z" fill="#E31717"/>
<path d="M70.8232 38.0197C64.0659 41.7099 67.1703 52.6684 68.6924 58.4065C72.1344 71.3568 77.8639 83.7642 83.6218 95.8178C89.6059 108.382 97.623 120.228 102.587 133.257C104.242 137.61 107.728 148.739 100.555 150.744C96.1814 151.973 91.3234 145.562 89.0956 142.816C80.058 131.664 73.454 118.308 67.2261 105.474C60.0405 90.6749 51.8665 74.9609 47.8807 58.9301C44.7208 46.2237 44.7036 30.2038 54.8527 20.4409C64.9224 10.7625 79.9178 13.2643 89.1414 22.7601C94.6058 28.378 98.8778 36.2933 99.5403 44.1789C100.011 49.838 95.6215 61.3686 88.3619 55.1931C82.7777 50.4742 81.7166 34.147 71.2644 37.8279C69.1873 38.5638 70.2768 41.8099 72.3538 41.074C80.7347 38.1189 81.6952 62.0088 93.4332 60.0158C105.171 58.0228 103.9 42.9844 100.753 34.7884C96.1273 22.7408 85.5868 11.6028 72.087 10.7965C61.1034 10.1363 51.3998 16.4746 46.5496 26.2078C39.4029 40.5566 42.951 57.7688 48.6419 71.9133C55.7746 89.643 63.7007 107.198 72.9377 123.938C78.0806 133.256 85.5804 149.617 96.5374 153.661C105.892 157.111 109.195 145.395 107.75 138.408C105.913 129.497 100.809 121.194 96.486 113.313C92.0147 105.166 87.8367 96.9213 83.9658 88.4878C80.0228 79.8736 76.246 71.1289 73.3733 62.0974C71.9008 57.4727 66.8239 44.0924 72.7563 40.8525C74.6678 39.8066 72.7391 36.9709 70.8232 38.0197Z" fill="#1B1B1B"/>
<path d="M59.7637 98.043C68.6818 96.6406 77.0553 92.8548 83.9991 87.0858C85.678 85.6944 83.7862 82.8401 82.086 84.2458C75.6428 89.6766 67.8515 93.2651 59.5363 94.6316C57.3819 94.9856 57.5937 98.4199 59.7552 98.0487L59.7637 98.043Z" fill="#1B1B1B"/>
<path d="M62.4189 102.185C69.7474 100.428 78.1956 96.9566 83.9946 92.0831C90.1246 86.937 86.4543 82.5469 79.8244 81.0059C77.673 80.5086 77.0246 83.8714 79.1689 84.3673C81.3132 84.8632 84.795 85.357 83.3161 88.0023C82.1526 90.0941 78.7319 91.6607 76.7436 92.7583C71.9002 95.4872 66.7186 97.5666 61.3324 98.943C59.1929 99.4481 60.2966 102.697 62.4189 102.185Z" fill="#1B1B1B"/>
<path d="M62.1009 97.336C58.9785 94.5125 55.6881 91.8805 52.2477 89.4546C49.7251 87.6885 46.9048 85.4162 43.8764 84.6293C39.7872 83.5652 33.498 86.1466 33.0159 90.8791C32.5052 95.8726 38.724 99.7115 42.6993 101.094C48.9629 103.26 55.7191 102.311 61.735 99.839C63.7617 99.0008 62.6964 95.7445 60.6456 96.5929C54.2269 99.2306 41.6199 101.102 37.362 93.4378C34.7281 88.6904 40.9986 87.2685 44.0755 88.3574C46.2139 89.1115 48.1999 90.7989 50.0299 92.0707C53.4708 94.496 56.7613 97.1279 59.8831 99.952C61.523 101.42 63.7551 98.8253 62.1124 97.353L62.1009 97.336Z" fill="#1B1B1B"/>
<path d="M58.893 97.1135C54.2583 101.231 50.8948 106.585 49.1975 112.547C48.2091 116.058 45.9989 124.999 50.652 127.066C54.985 128.988 59.0111 123.443 60.563 120.271C63.6811 113.912 63.03 106.614 62.3242 99.805C62.0912 97.6186 58.6797 97.8276 58.9113 100.021C59.3794 104.554 59.9467 109.243 59.0787 113.77C58.7038 115.976 57.9364 118.097 56.8129 120.033C55.3357 122.441 52.1735 125.266 51.4361 120.784C50.1756 113.097 56.1531 104.136 61.4948 99.347C63.132 97.8846 60.5203 95.664 58.8959 97.1178L58.893 97.1135Z" fill="#1B1B1B"/>
</svg>
