<svg width="106" height="140" viewBox="0 0 106 140" fill="none" xmlns="http://www.w3.org/2000/svg">
<path d="M27.953 45.2301L24.4869 57.2286C23.6148 60.2585 22.2751 63.2121 23.0574 66.3634C23.5069 68.2291 26.4065 67.4378 25.9435 65.5677C25.1748 62.4568 27.382 58.0018 28.2407 55.0258C29.0993 52.0497 29.9715 49.0243 30.8391 46.0348C31.3741 44.1826 28.4834 43.3914 27.953 45.2391V45.2301Z" fill="#0536FC"/>
<path d="M39.8124 44.0743C53.6115 56.2345 71.321 63.0312 89.7125 63.2251C91.6366 63.2521 91.6411 60.2581 89.7125 60.2356C72.1153 60.0588 55.1655 53.5746 41.9433 41.9614C40.5003 40.6981 38.3739 42.8065 39.8304 44.0743H39.8124Z" fill="#0536FC"/>
<path d="M23.8834 74.0242C28.7396 81.2741 38.6172 85.0239 46.4029 88.0953C56.3165 91.9476 66.7481 94.2738 77.3478 94.9956C79.1096 95.1246 79.1013 92.3529 77.3478 92.2238C68.4024 91.5919 59.5755 89.7972 51.086 86.8842C43.2466 84.1665 31.141 79.8924 26.2765 72.6259C25.2904 71.1567 22.9097 72.5426 23.904 74.0242H23.8834Z" fill="#0536FC"/>
<path d="M90.935 66.6747C89.578 70.9988 87.935 75.2279 86.017 79.334C84.5919 82.355 82.7397 87.8755 80.1054 90.0018C78.6084 91.2111 80.7347 93.3196 82.2227 92.1193C85.1088 89.7816 87.0464 84.1397 88.6019 80.8445C90.6341 76.5062 92.3776 72.0384 93.8211 67.4704C94.4056 65.6317 91.5194 64.845 90.935 66.6747Z" fill="#0536FC"/>
<path d="M11.8148 94.1815C18.5021 101.275 26.5627 106.934 35.5061 110.815C37.2549 111.579 38.7788 109.017 37.0166 108.234C28.3023 104.464 20.4476 98.9574 13.9322 92.0506C12.5835 90.648 10.4931 92.7654 11.8148 94.1635V94.1815Z" fill="#0536FC"/>
<path d="M17.0513 85.6264C25.4399 91.7492 35.6357 95.6918 45.3729 99.1129C54.5842 102.363 64.8384 105.901 74.7465 105.613C76.6706 105.559 76.6796 102.565 74.7465 102.619C65.1306 102.903 55.1192 99.3826 46.1686 96.2267C36.6741 92.8731 26.7706 89.0339 18.5753 83.0279C17.0198 81.8906 15.5228 84.489 17.0648 85.6129L17.0513 85.6264Z" fill="#0536FC"/>
<path d="M15.5953 91.4931C33.4843 102.554 53.7632 109.167 74.7336 110.779C76.6577 110.932 76.6442 107.938 74.7336 107.789C54.292 106.189 34.5313 99.7143 17.1058 88.9082C15.4649 87.8967 13.9589 90.4817 15.5953 91.4931Z" fill="#0536FC"/>
<path d="M88.0543 57.96C106.373 42.9315 103.64 14.5694 79.0993 8.32068C58.7931 3.15085 35.7132 19.7572 43.342 41.938L44.3895 40.0994C33.5688 42.0594 19.9564 44.4061 11.0823 51.3067C9.11801 52.799 7.72444 54.9195 7.13383 57.3146C6.54322 59.7098 6.79126 62.235 7.83658 64.4695C11.0913 71.5858 19.835 71.9994 26.5288 71.0464L24.8385 68.8481C18.8685 78.2437 -7.83024 116.379 15.9914 119.548C21.6121 120.249 27.2853 118.741 31.8156 115.341C33.7891 113.866 35.5693 112.144 37.5833 110.71C38.379 110.139 39.5164 109.146 40.411 108.854C42.906 108.04 41.7596 107.258 43.904 109.618C46.5473 112.526 45.5044 118.883 45.9854 122.7C46.5518 127.164 47.7836 132.527 52.4499 134.33C56.7431 135.984 62.5153 135.121 66.305 132.653C73.853 127.744 75.5523 117.453 77.4269 109.42C79.0184 102.578 80.5423 95.7042 81.7786 88.7856L79.2791 89.442C86.5843 95.6727 101.419 100.681 103.191 86.6098C104.589 75.5509 95.0313 63.5299 88.0543 55.8471C86.7551 54.4175 84.6422 56.5394 85.9369 57.96C91.3315 63.903 96.5822 71.0958 99.1267 78.7652C101.154 84.8611 100.318 94.8321 91.2641 92.7462C87.6677 91.9235 84.1747 89.6982 81.374 87.3516C80.6007 86.6907 79.0903 86.8076 78.8745 88.0124C77.7731 94.1982 76.4244 100.348 75.0218 106.475C72.9359 115.592 71.0658 130.697 59.346 132.023C41.2786 134.064 54.9314 101.93 41.7776 105.001C33.389 106.956 29.397 115.943 20.1228 116.689C16.5264 116.977 11.5813 116.41 9.67972 112.828C7.98492 109.64 9.51339 105.585 10.5788 102.488C14.4764 91.1862 21.0084 80.46 27.401 70.3945C28.1742 69.1673 26.8975 68.0254 25.7107 68.1963C18.8685 69.1718 4.8291 65.7012 10.8306 55.7122C13.1503 51.8551 19.8216 49.8681 23.7327 48.5194C30.73 46.123 37.9023 44.2714 45.1852 42.981C45.5663 42.8739 45.8897 42.6206 46.085 42.2763C46.2804 41.9319 46.3318 41.5244 46.2282 41.1423C39.3501 21.1508 60.1237 6.60789 78.3036 11.2068C88.1532 13.7018 96.0473 20.7462 97.2835 31.1623C98.4569 41.0524 93.3815 49.7377 85.9369 55.8471C84.4489 57.0654 86.5752 59.1648 88.0543 57.96Z" fill="#1B1B1B"/>
<path d="M59.6564 59.6992C58.1127 59.3893 56.5089 59.6896 55.1819 60.5371C53.855 61.3845 52.908 62.7132 52.5399 64.2441C51.8476 67.2786 54.0594 70.0029 56.9501 70.6817C59.7373 71.329 62.6683 69.9174 63.4775 67.0853C64.2418 64.388 63.0594 61.1602 60.4296 59.9914C58.6808 59.2182 57.1568 61.7896 58.9191 62.5763C61.4545 63.7002 61.3107 68.2002 58.02 67.845C56.7567 67.7102 55.3901 66.7976 55.3811 65.413C55.4061 64.9939 55.5177 64.5845 55.709 64.2108C55.9002 63.8371 56.167 63.5071 56.4923 63.2417C56.8177 62.9764 57.1946 62.7814 57.5991 62.6692C58.0037 62.557 58.4271 62.53 58.8426 62.5898C60.7218 62.9899 61.54 60.1083 59.6384 59.7037L59.6564 59.6992Z" fill="#1B1B1B"/>
<path d="M53.1202 75.4825C50.1442 74.3586 47.0738 76.3816 46.4714 79.4115C46.2188 80.8534 46.499 82.338 47.26 83.5885C48.0209 84.8391 49.2106 85.7704 50.6073 86.2087C51.9487 86.5786 53.3795 86.4394 54.6244 85.8178C55.8692 85.1962 56.8402 84.1361 57.3505 82.8416C58.4339 79.9645 56.5728 76.8131 53.7002 76.0219C51.839 75.5094 51.0478 78.3955 52.9045 78.908C56.0513 79.7802 54.3565 84.2622 51.3985 83.3271C48.4404 82.392 48.9979 77.1098 52.2976 78.382C54.0958 79.0609 54.8825 76.1702 53.0933 75.4959L53.1202 75.4825Z" fill="#1B1B1B"/>
<path d="M68.5717 24.7507C68.4353 25.5229 68.0729 26.2374 67.5304 26.8037C66.9879 27.37 66.2896 27.7627 65.5239 27.9321C64.7582 28.1016 63.9594 28.0402 63.2286 27.7556C62.4979 27.4711 61.8679 26.9763 61.4183 26.3337C60.9688 25.6911 60.7198 24.9296 60.7031 24.1456C60.6863 23.3616 60.9023 22.5901 61.324 21.9289C61.7456 21.2677 62.3539 20.7463 63.0719 20.4308C63.7898 20.1153 64.5852 20.0197 65.3574 20.1563C66.3923 20.3404 67.3119 20.9276 67.9145 21.7889C68.5171 22.6502 68.7535 23.7153 68.5717 24.7507Z" fill="#1B1B1B"/>
<path d="M87.4078 32.1112C87.2715 32.8834 86.9094 33.5978 86.3672 34.1641C85.8249 34.7305 85.1269 35.1233 84.3615 35.2931C83.596 35.4628 82.7974 35.4018 82.0666 35.1177C81.3358 34.8337 80.7056 34.3393 80.2557 33.6972C79.8058 33.055 79.5564 32.2939 79.5391 31.51C79.5217 30.7261 79.737 29.9547 80.158 29.2932C80.579 28.6318 81.1866 28.1099 81.9041 27.7937C82.6216 27.4776 83.4167 27.3812 84.189 27.5168C85.2247 27.6999 86.1454 28.2866 86.7489 29.1481C87.3524 30.0095 87.5894 31.0752 87.4078 32.1112Z" fill="#1B1B1B"/>
<path d="M62.3903 32.2417C59.3918 36.2877 60.8124 42.7028 65.4427 44.8606C70.0731 47.0185 75.8498 43.8986 77.0636 39.0479C77.5131 37.1778 74.645 36.3821 74.1775 38.2522C73.3952 41.3991 69.682 43.6109 66.6115 42.1004C63.5411 40.5899 63.0511 36.3371 64.9752 33.7522C66.126 32.2058 63.5276 30.7133 62.3903 32.2417Z" fill="#1B1B1B"/>
<path d="M21.9576 47.4445C19.2615 54.6942 17.6909 62.3139 17.3002 70.0389C17.2013 71.963 20.1953 71.9585 20.2942 70.0389C20.6867 62.5827 22.221 55.2309 24.8437 48.2402C25.518 46.442 22.6274 45.6553 21.9576 47.4445Z" fill="#1B1B1B"/>
<path d="M42.6502 42.9801C56.1989 51.1704 71.4026 56.2383 87.1557 57.8153C89.0708 58.0131 89.0573 55.0191 87.1557 54.8258C71.9368 53.2636 57.2563 48.3343 44.1787 40.3952C42.5244 39.4017 41.0319 41.9866 42.6682 42.9801H42.6502Z" fill="#1B1B1B"/>
<path d="M95.9574 69.7193C94.388 77.34 91.0358 84.4805 86.1751 90.556C84.9838 92.044 87.0742 94.1749 88.2925 92.6689C93.5103 86.2215 97.126 78.6295 98.8434 70.515C99.239 68.6359 96.353 67.8177 95.9574 69.7193Z" fill="#1B1B1B"/>
<path d="M9.46407 101.094C15.8297 107.131 23.5665 111.029 31.4381 114.729C33.1688 115.547 34.6883 112.966 32.9486 112.148C25.3062 108.552 17.7538 104.834 11.5814 98.9809C10.1833 97.6322 8.06147 99.7676 9.46407 101.094Z" fill="#1B1B1B"/>
<path d="M47.3886 120.969C54.8325 123.36 62.5841 124.66 70.4011 124.826C72.3296 124.871 72.3296 121.877 70.4011 121.832C62.8529 121.666 55.3689 120.403 48.1843 118.083C46.3456 117.494 45.5589 120.38 47.3886 120.969Z" fill="#1B1B1B"/>
<path d="M26.4164 51.0731C27.3782 51.0356 28.3415 51.0882 29.2935 51.2304C29.5263 51.2868 29.7719 51.252 29.9799 51.1334C30.188 51.0147 30.3428 50.8211 30.4129 50.5921C30.4462 50.4767 30.456 50.3558 30.4418 50.2365C30.4275 50.1172 30.3895 50.002 30.33 49.8977C30.2705 49.7933 30.1907 49.702 30.0953 49.629C29.9999 49.556 29.8909 49.5028 29.7746 49.4727C28.6649 49.2916 27.5403 49.2178 26.4164 49.2524C25.2476 49.2929 25.2431 51.1136 26.4164 51.0731Z" fill="#1B1B1B"/>
<path d="M25.1992 54.5609L28.6022 54.8081C29.7711 54.8935 29.7666 53.0729 28.6022 53.0099L25.1992 52.7627C24.0303 52.6773 24.0348 54.4979 25.1992 54.5609Z" fill="#1B1B1B"/>
<path d="M24.2999 59.8793L26.5836 59.9242C27.7569 59.9242 27.7569 58.126 26.5836 58.1036L24.2999 58.0586C23.1266 58.0586 23.1266 59.8568 24.2999 59.8793Z" fill="#1B1B1B"/>
<path d="M23.0988 65.0982L24.7712 65.3949C25.9175 65.5972 26.412 63.8395 25.2567 63.6372L23.5843 63.3404C22.438 63.1381 21.9434 64.8914 23.0988 65.0982Z" fill="#1B1B1B"/>
<path d="M16.545 94.8596C16.4162 95.5867 16.1071 96.2698 15.6459 96.8465C14.9087 97.7456 16.1899 99.0404 16.9316 98.1323C17.6099 97.3324 18.0739 96.3733 18.2803 95.3451C18.5006 94.1987 16.7473 93.7087 16.5225 94.8596H16.545Z" fill="#1B1B1B"/>
<path d="M20.6757 97.376C20.204 98.2443 19.597 99.0319 18.8775 99.7092C18.0233 100.514 19.3271 101.804 20.1632 100.995C20.993 100.212 21.6926 99.3012 22.2357 98.2976C22.7931 97.2682 21.2242 96.3466 20.6622 97.3985L20.6757 97.376Z" fill="#1B1B1B"/>
<path d="M25.0099 100.466L23.2522 102.475C22.488 103.374 23.7692 104.651 24.5424 103.765L26.3001 101.751C27.0689 100.852 25.7832 99.5802 25.0099 100.466Z" fill="#1B1B1B"/>
<path d="M29.2444 103.301L27.7609 105.041C27.0056 105.94 28.2913 107.221 29.0511 106.331L30.5301 104.591C31.2854 103.692 30.0041 102.406 29.2444 103.301Z" fill="#1B1B1B"/>
<path d="M51.2721 114.227L50.8765 116.474C50.6742 117.621 52.432 118.115 52.6343 116.96C52.7647 116.214 52.895 115.472 53.0299 114.712C53.2322 113.566 51.4744 113.071 51.2721 114.227Z" fill="#1B1B1B"/>
<path d="M55.3184 115.809C55.2016 116.461 55.0892 117.112 54.9723 117.764C54.77 118.911 56.5232 119.401 56.73 118.245C56.8424 117.598 56.9593 116.946 57.0717 116.294C57.274 115.148 55.5207 114.658 55.3184 115.809Z" fill="#1B1B1B"/>
<path d="M59.6211 116.191C59.7052 116.792 59.6685 117.403 59.5132 117.99C59.23 119.127 60.9877 119.612 61.2709 118.475C61.4916 117.57 61.5267 116.629 61.3743 115.71C61.3437 115.594 61.2903 115.486 61.2171 115.391C61.1439 115.296 61.0524 115.217 60.9481 115.158C60.8438 115.099 60.7288 115.061 60.6097 115.047C60.4907 115.033 60.3701 115.043 60.255 115.076C60.0249 115.145 59.8302 115.299 59.712 115.508C59.5937 115.717 59.5611 115.964 59.6211 116.196V116.191Z" fill="#1B1B1B"/>
<path d="M64.7594 116.033L64.3638 118.281C64.1615 119.427 65.9193 119.922 66.1216 118.767C66.252 118.025 66.3823 117.279 66.5172 116.519C66.7195 115.373 64.9617 114.878 64.7594 116.033Z" fill="#1B1B1B"/>
<path d="M69.3129 116.258L69.0162 117.935C68.8139 119.081 70.5672 119.571 70.774 118.416L71.0662 116.743C71.2685 115.597 69.5152 115.107 69.3129 116.258Z" fill="#1B1B1B"/>
<path d="M90.8684 72.2252L93.3275 72.9535C94.4514 73.2861 94.9323 71.5329 93.8085 71.1957L91.3494 70.4675C90.2256 70.1348 89.7445 71.8925 90.8684 72.2252Z" fill="#1B1B1B"/>
<path d="M89.291 75.2053L91.3365 76.491C92.33 77.1204 93.2471 75.5424 92.2581 74.9176L90.2081 73.6319C89.2146 73.0025 88.2975 74.5804 89.309 75.2053H89.291Z" fill="#1B1B1B"/>
<path d="M86.9258 79.8703C87.5632 80.0467 88.1612 80.3426 88.688 80.7424C88.8616 80.9069 89.0917 80.9985 89.3308 80.9985C89.57 80.9985 89.8 80.9069 89.9737 80.7424C90.0593 80.6587 90.1273 80.5587 90.1738 80.4483C90.2203 80.3379 90.2442 80.2193 90.2442 80.0996C90.2442 79.9798 90.2203 79.8613 90.1738 79.7509C90.1273 79.6405 90.0593 79.5405 89.9737 79.4567C89.2153 78.8449 88.3449 78.3868 87.4112 78.1081C86.2829 77.7754 85.8019 79.5332 86.9258 79.8658V79.8703Z" fill="#1B1B1B"/>
<path d="M83.3523 84.5201L84.8313 85.9272C85.681 86.7364 86.9712 85.4507 86.1215 84.6415L84.6425 83.2299C83.7928 82.4208 82.5026 83.7065 83.3523 84.5201Z" fill="#1B1B1B"/>
<path d="M49.25 28.1468C48.9862 28.962 48.7195 29.7742 48.4498 30.5834C48.0856 31.7028 49.8434 32.1793 50.2075 31.0689L51.0032 28.6324C51.3719 27.513 49.6141 27.0364 49.25 28.1468Z" fill="#1B1B1B"/>
<path d="M52.5624 28.7385C52.4156 29.5776 52.2657 30.4153 52.1129 31.2514C51.9106 32.3978 53.6639 32.8878 53.8662 31.7369L54.3157 29.224C54.518 28.0776 52.7647 27.5876 52.5579 28.7385H52.5624Z" fill="#1B1B1B"/>
<path d="M55.768 30.1681L55.4713 31.8404C55.269 32.9868 57.0223 33.4813 57.2291 32.326L57.5258 30.6537C57.7281 29.5073 55.9703 29.0128 55.768 30.1681Z" fill="#1B1B1B"/>
<path d="M82.602 39.8618L81.0915 43.0086C80.588 44.0606 82.1569 44.9867 82.6649 43.9077L84.1754 40.7609C84.6789 39.7089 83.11 38.7829 82.602 39.8393V39.8618Z" fill="#1B1B1B"/>
<path d="M86.0726 41.2868L85.3038 43.7323C84.9532 44.8562 86.7109 45.3327 87.0616 44.2178C87.3178 43.4042 87.5696 42.586 87.8258 41.7723C88.1765 40.6484 86.4187 40.1674 86.0726 41.2868Z" fill="#1B1B1B"/>
<path d="M90.1991 42.3025L89.4573 44.4603C89.0752 45.5752 90.833 46.0517 91.2151 44.9458L91.9523 42.788C92.3345 41.6776 90.5767 41.2011 90.1991 42.3025Z" fill="#1B1B1B"/>
<path d="M44.0795 48.6866L44.3583 48.736C44.74 48.8303 45.1433 48.7747 45.4853 48.5807C45.8272 48.3867 46.0819 48.0691 46.1969 47.6931C46.2995 47.3105 46.2477 46.9029 46.0526 46.5581C45.8575 46.2134 45.5348 45.959 45.154 45.8499L44.8752 45.8005C44.4924 45.7063 44.0879 45.7624 43.7451 45.9572C43.4023 46.152 43.1471 46.4708 43.0321 46.8479C42.8343 47.5672 43.2793 48.5472 44.0795 48.6866Z" fill="#1B1B1B"/>
<path d="M50.3009 51.4954C52.2295 51.4954 52.2295 48.5059 50.3009 48.5059C48.3723 48.5059 48.3723 51.4954 50.3009 51.4954Z" fill="#1B1B1B"/>
<path d="M56.9816 54.4041C58.9057 54.4041 58.9102 51.4102 56.9816 51.4102C55.053 51.4102 55.053 54.4041 56.9816 54.4041Z" fill="#1B1B1B"/>
<path d="M64.3097 56.8495C66.2338 56.8495 66.2383 53.8555 64.3097 53.8555C62.3811 53.8555 62.3811 56.8495 64.3097 56.8495Z" fill="#1B1B1B"/>
<path d="M71.3673 59.2454C73.2959 59.2454 73.2959 56.2559 71.3673 56.2559C69.4388 56.2559 69.4388 59.2454 71.3673 59.2454Z" fill="#1B1B1B"/>
<path d="M79.0947 60.2751L79.4229 60.0458C79.7578 59.8378 80.0004 59.5095 80.1007 59.1282C80.201 58.7469 80.1515 58.3417 79.9623 57.9959C79.7591 57.6556 79.4303 57.4088 79.0468 57.3087C78.6634 57.2086 78.2559 57.2633 77.9124 57.4609L77.5842 57.6901C77.2492 57.8981 77.0068 58.2268 76.9072 58.6083C76.8077 58.9898 76.8585 59.395 77.0492 59.7401C77.2524 60.0792 77.5803 60.3251 77.9627 60.4251C78.3452 60.5251 78.7515 60.4712 79.0947 60.2751Z" fill="#1B1B1B"/>
<path d="M83.7396 58.9314L83.6901 59.2101C83.596 59.593 83.652 59.9975 83.8469 60.3403C84.0417 60.6831 84.3604 60.9383 84.7376 61.0533C85.1202 61.1556 85.5277 61.103 85.8719 60.9069C86.216 60.7109 86.4691 60.3871 86.5763 60.0058L86.6257 59.7271C86.7222 59.3453 86.6676 58.941 86.4733 58.5984C86.279 58.2559 85.96 58.0015 85.5827 57.8884C85.2001 57.7847 84.792 57.836 84.4469 58.0312C84.1018 58.2265 83.8477 58.5499 83.7396 58.9314Z" fill="#1B1B1B"/>
<path d="M25.4552 83.0579C27.3793 83.0579 27.3838 80.0684 25.4552 80.0684C23.5266 80.0684 23.5266 83.0579 25.4552 83.0579Z" fill="#1B1B1B"/>
<path d="M29.8063 86.1923L30.0355 86.5205C30.2426 86.8552 30.5705 87.0974 30.9513 87.197C31.3321 87.2966 31.7366 87.246 32.081 87.0555C32.4209 86.8531 32.6677 86.5254 32.7686 86.143C32.8694 85.7605 32.8163 85.3537 32.6205 85.01L32.3912 84.6819C32.1833 84.3468 31.8546 84.1045 31.473 84.0049C31.0915 83.9053 30.6863 83.9562 30.3412 84.1469C30.0012 84.3492 29.7546 84.6772 29.6545 85.06C29.5544 85.4427 29.6089 85.8495 29.8063 86.1923Z" fill="#1B1B1B"/>
<path d="M37.1652 90.0169C39.0937 90.0169 39.0937 87.0273 37.1652 87.0273C35.2366 87.0273 35.2366 90.0169 37.1652 90.0169Z" fill="#1B1B1B"/>
<path d="M44.6016 92.7193L44.9298 92.49C45.2645 92.2829 45.5067 91.9551 45.6063 91.5743C45.7059 91.1935 45.6552 90.789 45.4647 90.4445C45.2623 90.1047 44.9347 89.8578 44.5522 89.757C44.1697 89.6561 43.763 89.7093 43.4193 89.9051L43.0911 90.1389C42.7557 90.3452 42.5125 90.6728 42.412 91.0536C42.3116 91.4344 42.3616 91.8393 42.5516 92.1843C42.7548 92.5246 43.0836 92.7714 43.4671 92.8715C43.8506 92.9715 44.258 92.9169 44.6016 92.7193Z" fill="#1B1B1B"/>
<path d="M51.983 94.89L52.3112 94.6562C52.6459 94.4491 52.8881 94.1213 52.9877 93.7405C53.0873 93.3597 53.0366 92.9552 52.8461 92.6108C52.6438 92.2708 52.3158 92.0241 51.933 91.924C51.5503 91.8239 51.1435 91.8784 50.8007 92.0758L50.4725 92.3051C50.1378 92.5122 49.8956 92.8401 49.796 93.2209C49.6964 93.6016 49.7471 94.0061 49.9376 94.3506C50.14 94.6904 50.4676 94.9372 50.85 95.0381C51.2325 95.139 51.6393 95.0858 51.983 94.89Z" fill="#1B1B1B"/>
<path d="M58.3932 97.8271L58.6719 97.8765C59.0537 97.9731 59.4581 97.9185 59.8006 97.7241C60.1432 97.5298 60.3975 97.2108 60.5106 96.8336C60.6144 96.451 60.5631 96.0428 60.3678 95.6977C60.1726 95.3527 59.8491 95.0985 59.4676 94.9904L59.1889 94.941C58.8066 94.8469 58.4028 94.9032 58.0607 95.0981C57.7186 95.293 57.4643 95.6116 57.3502 95.9885C57.2466 96.3705 57.298 96.7781 57.4933 97.1224C57.6886 97.4668 58.0121 97.72 58.3932 97.8271Z" fill="#1B1B1B"/>
<path d="M66.6027 99.2473C68.5268 99.2473 68.5312 96.2578 66.6027 96.2578C64.6741 96.2578 64.6741 99.2473 66.6027 99.2473Z" fill="#1B1B1B"/>
<path d="M72.5096 100.074L72.7434 100.402C72.9489 100.738 73.2765 100.982 73.6577 101.083C74.0388 101.183 74.4441 101.133 74.7888 100.941C75.1288 100.739 75.3755 100.411 75.4756 100.028C75.5757 99.6455 75.5211 99.2387 75.3238 98.8958L75.0945 98.5677C74.8881 98.2322 74.5606 97.989 74.1798 97.8886C73.7989 97.7881 73.394 97.8381 73.049 98.0282C72.7092 98.2306 72.4623 98.5583 72.3615 98.9407C72.2606 99.3232 72.3138 99.73 72.5096 100.074Z" fill="#1B1B1B"/>
<path d="M6.59668 60.9623C6.62365 65.2915 6.81245 69.9533 9.84242 73.3789C12.733 76.6381 17.4398 76.8854 21.5307 77.281C23.4458 77.4653 23.4323 74.4713 21.5307 74.287C18.2535 73.9723 14.0817 73.8374 11.8564 71.0772C9.63112 68.317 9.60864 64.3924 9.60864 60.9623C9.60864 59.0382 6.60569 59.0338 6.61918 60.9623H6.59668Z" fill="#1B1B1B"/>
<path d="M6.03884 110.414C8.15622 117.009 11.2267 123.752 18.6262 125.15C29.0333 127.11 36.2711 118.73 46.0488 117.589C47.9414 117.368 47.9639 114.374 46.0488 114.599C40.1237 115.287 35.5608 118.29 30.1437 120.547C25.2616 122.574 18.8195 123.824 14.3825 120.016C11.4874 117.535 10.0174 113.089 8.90247 109.618C8.31356 107.793 5.42294 108.575 6.01634 110.414H6.03884Z" fill="#1B1B1B"/>
<path d="M48.3598 130.459C51.3943 140.853 65.672 142.521 73.3458 136.393C83.9507 127.928 84.3148 111.03 86.8728 98.8602L84.3688 99.521C91.4402 106.988 101.834 105.941 105.098 95.547C107.889 86.6369 103.825 76.4861 98.188 69.5315C96.9742 68.0345 94.8703 70.1654 96.0751 71.6489C99.4056 75.7601 101.668 80.6309 102.661 85.8277C103.731 91.9416 101.73 103.311 93.0046 101.486C90.5411 100.973 88.1765 99.1928 86.4862 97.4081C85.7399 96.6214 84.2384 96.9586 83.9867 98.0645C81.8738 108.103 81.2399 118.856 76.2095 128.023C72.7209 134.375 66.6565 138.362 59.1265 136.649C55.6021 135.845 52.3069 133.228 51.2684 129.663C50.729 127.816 47.8428 128.602 48.3823 130.459H48.3598Z" fill="#1B1B1B"/>
<path d="M79.9227 89.8341C81.6716 92.7189 83.1869 95.7391 84.4542 98.8656C85.1645 100.628 88.0506 99.8591 87.3403 98.0698C85.9904 94.6981 84.3744 91.439 82.5076 88.3236C81.5141 86.6782 78.9112 88.1797 79.9227 89.8341Z" fill="#1B1B1B"/>
<path d="M91.9884 62.6625C106.576 51.3787 108.698 29.9937 94.933 17.2579C93.5214 15.9497 91.3995 18.0581 92.8156 19.3708C105.488 31.113 103.155 50.2773 89.871 60.563C88.3516 61.7409 90.4824 63.8448 91.9884 62.6804V62.6625Z" fill="#1B1B1B"/>
<path d="M8.89776 1.42452C9.91256 9.61746 10.4455 17.8629 10.4937 26.1183C10.4937 28.0424 13.4966 28.0469 13.4877 26.1183C13.4394 17.8629 12.9066 9.61746 11.8918 1.42452C11.658 -0.463586 8.664 -0.486064 8.89776 1.42452Z" fill="#1B1B1B"/>
<path d="M0.742502 9.20279L18.9583 18.3152C20.6756 19.1738 22.1905 16.5934 20.4688 15.7303L2.27098 6.61788C0.553702 5.75924 -0.965771 8.33965 0.760501 9.20279H0.742502Z" fill="#1B1B1B"/>
<path d="M21.0036 1.32206C13.7804 7.29016 7.26577 14.0672 1.58746 21.5203C0.418633 23.0488 3.01703 24.5413 4.17238 23.0263C9.718 15.7897 16.0741 9.21186 23.1164 3.42145C24.6044 2.19418 22.4781 0.0902746 21.0036 1.30406V1.32206Z" fill="#1B1B1B"/>
</svg>
