<svg width="68" height="83" viewBox="0 0 68 83" fill="none" xmlns="http://www.w3.org/2000/svg">
<path d="M52.0077 30.8543C16.7867 10.7798 -11.0421 68.1716 22.9715 80.7168C56.9851 93.262 87.2286 50.9288 52.0077 30.8543Z" fill="#FF8200"/>
<path d="M32.3614 24.638C18.0326 21.8941 0.564831 37.8637 0.0215349 51.8687C-0.642493 68.8261 14.1527 81.053 30.1662 81.8817C38.8645 82.3371 48.5779 80.0542 55.5694 74.709C62.0177 69.77 63.6036 62.7895 64.2896 55.0077C64.9591 47.418 64.2896 39.0601 58.7195 33.2923C52.7158 27.0527 42.7498 24.8082 34.5455 23.7325C32.2242 23.4307 32.2461 27.0856 34.5455 27.3875C41.7071 28.3259 50.8828 30.4167 56.1346 35.8771C60.4371 40.3497 61.0737 46.8528 60.8048 52.7687C60.4097 61.1925 58.5383 69.0785 50.7291 73.5676C44.8251 76.8292 38.1543 78.4476 31.412 78.2542C17.8625 77.9359 5.07035 69.0566 3.80266 54.8211C3.16058 47.5333 6.18992 41.321 11.6064 36.5576C16.304 32.4308 24.9967 26.9265 31.3626 28.1612C33.662 28.6003 34.6553 25.0826 32.3339 24.638H32.3614Z" fill="#1B1B1B"/>
<path d="M34.5295 25.1326C35.6271 23.3984 37.9869 17.9325 39.7155 17.1039C41.7406 16.1215 45.9607 17.9874 48.1064 18.5142C49.8351 18.9368 54.7851 19.3045 55.4821 20.7094C56.179 22.1143 53.2869 28.5241 52.8589 29.9674C52.1564 32.2119 55.6797 33.1777 56.3821 30.9332C57.3205 27.9314 60.6132 21.9716 59.0985 18.7777C57.765 15.9734 52.5132 15.8142 49.9833 15.1941C46.8881 14.4368 41.7515 11.874 38.618 13.2514C35.3856 14.6673 33.1301 20.5228 31.374 23.2722C30.0953 25.2533 33.2563 27.1137 34.5295 25.1161V25.1326Z" fill="#1B1B1B"/>
<path d="M49.1599 12.0105C49.1599 9.90866 49.0886 7.51594 50.2191 5.64459C51.2728 3.90495 53.3746 2.84581 54.9825 4.59643C57.8801 7.75193 54.5161 12.2794 52.6008 14.93C51.2288 16.8453 54.3953 18.6727 55.7508 16.7739C57.8472 13.8489 60.0423 10.5288 59.6746 6.74765C59.4222 4.18483 57.9459 1.60006 55.5423 0.507986C52.9959 -0.649947 50.1422 0.277494 48.2654 2.22019C45.741 4.82691 45.5215 8.59158 45.5215 12.0105C45.5215 14.3648 49.149 14.3648 49.1764 12.0105H49.1599Z" fill="#1B1B1B"/>
<path d="M19.8548 41.1617C17.4591 42.7483 15.7582 45.1884 15.0986 47.9851C14.4389 50.7818 14.87 53.7248 16.3042 56.2148C17.4895 58.2453 20.6505 56.4069 19.4597 54.3709C18.4924 52.7226 18.1855 50.7689 18.601 48.9034C19.0165 47.038 20.1233 45.3992 21.6987 44.3172C23.6469 43.0165 21.8194 39.8556 19.8548 41.1617Z" fill="#1B1B1B"/>
<path d="M25.8311 63.0628V62.289C25.8311 59.9403 22.1816 59.9348 22.1816 62.289V63.0628C22.1816 65.4171 25.8311 65.4171 25.8311 63.0628Z" fill="#1B1B1B"/>
</svg>
