<svg width="316" height="261" viewBox="0 0 316 261" fill="none" xmlns="http://www.w3.org/2000/svg">
<path d="M299.682 128.021C305.414 119.051 301.671 105.034 296.265 94.9365C289.899 83.0623 270.442 85.9408 263.719 87.338L266.333 72.3929C266.388 72.0776 266.341 71.7532 266.201 71.4658C266.06 71.1785 265.832 70.9428 265.55 70.7925C258.865 67.445 251.894 64.7042 244.72 62.603C250.596 59.7802 260.302 54.3665 260.332 49.4532C260.34 48.0864 259.673 46.1655 256.437 44.7496C247.051 40.6368 238.342 50.237 234.047 56.1984C233.799 49.728 232.762 39.7282 228.779 37.5301C227.791 36.9811 226.171 36.616 224.123 37.9516C216.973 42.6221 221.473 53.4868 224.106 58.5112C223.604 58.4628 223.103 58.4237 222.602 58.3845C222.5 58.3609 222.397 58.3467 222.293 58.3421C222.162 58.3539 222.048 58.336 221.94 58.3411C216.546 57.9525 211.124 58.2037 205.788 59.0894C206.275 54.6136 207.212 44.2755 205.9 41.5493C204.166 37.9505 182.234 32.3724 161.402 31.7839C165.196 29.2434 169.605 25.0557 167.482 20.1682C167.25 19.5722 166.864 19.0479 166.365 18.648C165.866 18.2482 165.27 17.9869 164.637 17.8905C159.916 17.1771 151.354 26.0081 147.652 30.1272C144.868 25.3088 138.238 14.8716 132.863 14.715C131.7 14.6794 130.078 15.075 128.773 17.1508C128.22 18.0096 127.865 18.9807 127.733 19.9938C127.602 21.0069 127.697 22.0366 128.013 23.0082C129.381 27.4946 134.943 31.3759 138.768 33.5884C120.483 37.1213 104.672 44.6555 102.717 46.1329C100.228 47.9966 101.518 53.6402 102.656 57.1287C97.0071 56.9639 89.1175 57.9738 78.5252 60.8667L78.2277 60.95C80.8927 57.0423 84.1358 51.2231 82.7822 47.6274C82.3728 46.5283 81.3537 45.123 78.8644 44.6957C77.977 44.5393 77.0661 44.5781 76.1953 44.8093C75.3244 45.0406 74.5143 45.4587 73.8214 46.0347C69.7043 49.3556 68.2604 57.8335 67.7713 62.5443C63.0987 58.5354 52.8215 50.541 46.2406 51.8503C45.2093 52.0492 44.2432 52.5 43.4284 53.1627C42.6135 53.8254 41.9753 54.6793 41.5704 55.6484C40.3117 58.3914 40.9857 60.443 41.7691 61.6819C44.5959 66.1489 53.8387 67.7442 60.0543 68.3131C50.4838 73.5219 44.8376 79.0375 43.9641 80.6424C43.5977 81.314 42.9081 82.6158 51.0484 99.3668C44.9989 101.515 25.2155 109.606 24.0652 123.921C23.4236 132.031 25.1382 138.058 29.1526 141.85C30.1642 142.798 31.3118 143.59 32.5576 144.199C28.4842 147.916 24.8407 152.079 21.6953 156.609C14.4352 167.167 12.1513 177.463 15.0948 186.384C17.6921 194.332 22.8225 199.872 28.2638 203.712C27.29 207.631 25.3776 220.321 38.3128 229.412C47.2375 235.689 58.2432 235.082 67.9507 234.551C74.5143 234.192 80.1804 233.876 83.4907 235.854C92.5884 241.293 118.892 246.466 141.033 242.532C159.977 239.174 169.379 235.577 171.803 234.56C175.769 236.205 197.876 244.758 223.161 242.469C229.995 241.876 236.729 240.439 243.209 238.19C278.381 225.838 290.775 203.529 291.281 202.586C291.317 202.514 291.348 202.439 291.373 202.362C299.625 198.869 309.902 191.718 309.883 177.758C309.848 158.334 294.68 140.403 289.94 135.278C294.257 133.807 297.536 131.388 299.682 128.021ZM213.708 123.357C212.645 123.486 211.599 123.599 210.561 123.707C210.435 122.31 210.259 120.059 210.042 117.496C212.678 117.323 218.597 117.407 224.416 117.697L223.446 121.809C220.453 122.413 217.214 122.931 213.708 123.357ZM237.283 63.7879C236.828 65.3032 236.215 67.8609 235.186 72.1558C234.587 74.6747 233.896 77.5682 233.139 80.6695C228.48 80.0771 223.772 79.6113 219.396 79.2422C221.244 70.9765 222.765 64.1864 223.382 61.5109C228.065 61.9325 232.71 62.6935 237.283 63.7879ZM236.18 81.0703C238.064 73.1441 239.581 66.7723 240.16 64.504C244.642 65.6851 248.737 67.0421 252.244 68.3397C251.816 70.2562 250.41 75.9843 248.591 83.2801C244.748 82.4121 240.517 81.6824 236.18 81.0703ZM247.846 86.1973C246.817 90.3889 245.645 94.9691 244.484 99.5763C240.69 99.1498 236.358 98.9035 231.999 98.7252C233.177 93.7408 234.377 88.6887 235.477 84.0353C239.831 84.6317 244.065 85.3471 247.851 86.1969L247.846 86.1973ZM232.455 83.6374L230.294 92.7529C229.829 94.7152 229.364 96.6821 228.909 98.6152C223.926 98.4841 219.071 98.4775 215.089 98.5141C216.303 93.0568 217.559 87.4316 218.722 82.2232C223.113 82.6051 227.812 83.0624 232.455 83.6374ZM128.218 93.0721L131.402 93.0844L122.437 99.5295C122.275 98.7491 122.115 97.9609 121.955 97.1647C122.001 97.1483 122.044 97.127 122.085 97.1013L127.948 93.3548C128.063 93.2839 128.156 93.1829 128.217 93.0628L128.218 93.0721ZM122.765 101.185L132.9 93.8642C133.018 93.7776 133.108 93.6593 133.16 93.5232C133.213 93.387 133.226 93.2387 133.197 93.0957L138.749 93.133L123.227 103.589C123.089 102.79 122.927 101.987 122.764 101.176L122.765 101.185ZM123.565 105.197L140.41 93.8511C140.524 93.7753 140.615 93.6699 140.673 93.5464C140.731 93.4228 140.755 93.2857 140.741 93.1498C154.42 93.2919 171.95 93.6489 184.529 94.5572L185.032 111.107C161.12 109.845 128.827 110.481 124.652 110.573C124.304 108.909 123.949 107.106 123.563 105.174L123.565 105.197ZM187.542 94.801C192.647 95.2403 196.659 95.7879 198.834 96.4783C201.438 97.1346 205.155 98.878 205.403 100.428C205.651 101.979 206.166 107.871 206.658 113.521C202.523 112.487 195.852 111.771 188.048 111.285L187.542 94.801ZM208.601 101.679L211.299 101.618L209.402 110.122C209.104 106.774 208.816 103.65 208.6 101.669L208.601 101.679ZM214.413 101.575C219.103 101.526 223.8 101.552 228.195 101.666L225.118 114.714C220.065 114.434 214.926 114.355 211.542 114.464C212.394 110.607 213.379 106.185 214.412 101.566L214.413 101.575ZM214.418 87.6268L211.977 98.5797C210.383 98.6066 209.02 98.6362 207.966 98.6611C206.31 95.4074 200.798 93.8499 199.66 93.5633C198.46 93.2091 197.237 92.9386 196 92.7538L197.758 81.0598C198.822 81.0902 206.204 81.3234 215.652 82.0222C215.245 83.8571 214.838 85.7343 214.417 87.6175L214.418 87.6268ZM125.622 93.0677L121.627 95.617C121.452 94.7737 121.282 93.9253 121.106 93.0727L125.622 93.0677ZM185.125 114.155L185.442 124.399C172.705 123.721 162.867 121.573 155.368 119.943C150.725 118.954 147.059 118.136 144.245 118.062C142.527 118.016 140.538 117.928 138.339 117.855C134.786 117.707 130.599 117.56 125.995 117.47C125.792 116.418 125.536 115.103 125.24 113.59C130.872 113.474 162.176 112.946 185.125 114.155ZM188.166 114.35C195.767 114.821 202.196 115.512 206.063 116.485L196.252 124.585C193.552 124.632 190.96 124.613 188.477 124.528L188.166 114.35ZM207.039 117.669C207.139 118.782 207.235 119.835 207.321 120.785L202.832 124.36C201.437 124.439 200.069 124.502 198.727 124.548L207.039 117.669ZM207.452 122.604C207.501 123.139 207.544 123.614 207.579 124.001C206.871 124.065 206.182 124.127 205.474 124.191L207.452 122.604ZM227.514 117.896C230.429 118.101 233.158 118.324 235.24 118.605C232.463 119.605 229.632 120.444 226.759 121.119C226.974 120.076 227.22 119.002 227.488 117.87L227.514 117.896ZM239.953 116.634C237.846 115.857 233.259 115.287 228.212 114.922C229.151 110.931 230.212 106.422 231.313 101.773C235.951 101.931 240.204 102.189 243.77 102.524C242.547 107.371 241.356 112.16 240.233 116.458L239.953 116.634ZM246.806 102.868C250.84 103.4 253.565 104.097 254.295 104.956C254.334 104.997 254.375 105.035 254.418 105.071C251.619 108.957 248.014 112.193 243.85 114.558C244.536 111.82 245.566 107.633 246.782 102.866L246.806 102.868ZM256.049 102.501C254.54 101.389 251.466 100.569 247.535 99.9856C248.098 97.7423 248.686 95.4215 249.26 93.102C249.78 91.0221 250.292 88.9477 250.804 86.9249C254.713 87.9466 257.958 89.1458 260.107 90.5427C259.425 94.7242 258.045 98.7612 256.024 102.485L256.049 102.501ZM263.191 90.5875C264.111 90.3775 265.609 90.0682 267.489 89.7807L262.682 93.1594C262.852 92.2802 263.018 91.4202 263.166 90.5711L263.191 90.5875ZM262.127 95.3785L270.712 89.3388C272.109 89.2124 273.645 89.0733 275.216 89.0485L261.504 97.4631C261.716 96.7647 261.916 96.0721 262.104 95.3853L262.127 95.3785ZM260.666 87.3233C258.325 86.0516 255.183 84.9464 251.543 83.9895C252.269 81.0694 252.947 78.3415 253.524 76.0029C254.31 72.8098 254.81 70.7645 255.083 69.4206C258.935 70.9499 261.774 72.2844 263.174 72.9699L260.666 87.3233ZM255.245 47.5099C256.194 47.9264 257.329 48.5935 257.324 49.4156C257.307 52.234 248.515 57.7526 240.202 61.3406C238.558 60.9213 236.841 60.5181 235.047 60.1499C238.032 55.5231 246.707 43.7945 255.223 47.5166L255.245 47.5099ZM225.784 40.4866C226.76 39.8538 227.156 40.0808 227.338 40.1677C229.942 41.6033 231.061 51.7364 231.108 59.4174C230.027 59.2335 228.917 59.0695 227.777 58.9254C226.196 56.186 219.857 44.347 225.761 40.4934L225.784 40.4866ZM220.386 61.2892C220.003 62.7651 219.508 64.9789 218.762 68.2999C218.069 71.3813 217.243 75.0662 216.364 78.9954C207.445 78.3286 200.293 78.1027 198.258 78.024L200.474 63.4529C206.88 61.507 213.685 60.9661 220.363 61.296L220.386 61.2892ZM164.181 20.8848C164.319 20.9052 164.505 20.9353 164.695 21.3781C166.889 26.4282 155.644 31.5492 155.531 31.597C155.431 31.6389 155.336 31.6932 155.25 31.7586C154.58 31.7723 153.915 31.7949 153.256 31.8217C152.175 31.8679 151.092 31.9331 150.016 32.0211C155.323 26.1325 161.842 20.5613 164.158 20.8916L164.181 20.8848ZM130.904 22.1221C130.72 21.5617 130.665 20.9671 130.742 20.3823C130.819 19.7975 131.027 19.2375 131.349 18.7439C131.984 17.7193 132.54 17.7348 132.77 17.7421C135.957 17.8339 141.928 26.1242 145.51 32.4994C144.9 32.5546 144.29 32.6614 143.683 32.7539C140.513 31.3413 132.277 26.7067 130.881 22.1289L130.904 22.1221ZM79.3203 63.79C99.4089 58.2911 109.205 59.9819 110.878 62.4453C112.38 64.9244 118.887 96.6678 122.895 117.408C114.481 117.274 106.065 117.566 97.6793 118.282C95.9122 118.435 94.1376 118.486 92.3646 118.434C90.3545 103.02 74.2138 67.4352 73.5269 65.9153C73.488 65.8325 73.4415 65.7534 73.3882 65.679C75.2464 64.9944 77.2222 64.3649 79.2975 63.7967L79.3203 63.79ZM75.697 48.3954C76.0558 48.084 76.4809 47.8583 76.9399 47.7354C77.3989 47.6125 77.8798 47.5957 78.3463 47.6861C79.6437 47.9114 79.8601 48.4881 79.9447 48.6964C80.9165 51.2891 76.7603 58.1721 73.3531 62.4382C72.442 62.746 71.5652 63.0695 70.7024 63.3917C71.147 58.7084 72.5326 50.9353 75.6741 48.4022L75.697 48.3954ZM44.2969 60.0447C43.9403 59.4761 43.5449 58.5307 44.2986 56.8992C44.4977 56.364 44.8316 55.8892 45.2678 55.5208C45.7041 55.1523 46.228 54.9027 46.7889 54.7959C51.7716 53.8285 61.3139 60.9645 66.2362 65.2419L65.4877 65.5819C58.4159 65.4614 46.7002 63.8787 44.2741 60.0515L44.2969 60.0447ZM70.6431 66.6786C70.658 66.8371 70.699 66.992 70.7644 67.1371C70.9238 67.4983 87.01 102.947 89.2809 118.234C75.4917 117.135 62.2821 111.185 59.7275 109.985C57.9637 106.525 56.1851 102.953 54.5305 99.5586C54.5275 99.526 54.5242 99.4888 54.484 99.4596C50.3943 91.0506 47.098 83.7295 46.7867 81.8469C48.0772 80.1809 56.3009 72.3335 70.6202 66.6854L70.6431 66.6786ZM37.177 145.649L34.0902 146.868C34.8867 146.124 35.3936 145.707 35.3911 145.679C35.5034 145.581 35.6021 145.468 35.6846 145.343C36.1569 145.479 36.6492 145.575 37.1542 145.656L37.177 145.649ZM31.3457 149.585L40.5456 145.936C41.4825 145.948 42.4194 145.912 43.3526 145.827L27.5236 153.884C28.8539 152.243 30.1693 150.8 31.3228 149.592L31.3457 149.585ZM34.0368 207.171L30.4748 209C30.5118 207.804 30.6522 206.613 30.8944 205.441C31.9478 206.083 33.0046 206.659 34.0368 207.171ZM31.4428 215.908L41.3606 210.179C42.6138 210.592 43.7452 210.903 44.7352 211.156L32.9805 219.36C32.354 218.266 31.8346 217.113 31.4296 215.919L31.4428 215.908ZM31.0154 214.402C30.7256 213.185 30.5488 211.944 30.4873 210.694L34.8029 208.477C34.9347 208.407 35.0431 208.3 35.1147 208.17C35.1864 208.039 35.218 207.89 35.2058 207.741C36.6773 208.439 38.1384 209.02 39.4601 209.516L31.0154 214.402ZM306.797 177.741C306.812 186.312 302.502 193.045 293.984 197.75C289.841 199.988 285.367 201.551 280.732 202.382C280.349 202.446 280.004 202.655 279.771 202.966C279.537 203.277 279.432 203.666 279.477 204.052C279.522 204.438 279.714 204.792 280.014 205.041C280.313 205.289 280.696 205.413 281.084 205.387L281.168 205.38C283.024 205.059 284.857 204.613 286.652 204.043C282.069 210.462 268.741 225.973 242.15 235.3C208.134 247.252 172.718 231.651 172.361 231.495C172.163 231.407 171.949 231.362 171.732 231.363C171.515 231.364 171.301 231.411 171.104 231.501C171.013 231.542 161.834 235.725 140.45 239.519C118.984 243.34 93.6847 238.414 84.9894 233.22C80.8856 230.775 74.7885 231.101 67.7306 231.496C58.5137 232.002 48.0684 232.576 40.0015 226.908C37.5469 225.228 35.4281 223.105 33.7543 220.647L46.6966 211.612C47.4958 211.779 48.0054 211.86 48.1294 211.881C48.2508 211.902 48.3743 211.906 48.4968 211.895C48.8668 211.863 49.2121 211.696 49.467 211.426C49.722 211.156 49.869 210.802 49.88 210.431C49.891 210.059 49.7653 209.697 49.5268 209.413C49.2882 209.128 48.9535 208.941 48.5861 208.887C48.3478 208.847 24.352 204.944 17.9127 185.41C14.4643 174.958 19.6989 164.325 25.3129 156.69L47.9457 145.172C49.3334 144.943 50.6365 144.713 51.9256 144.483C59.8678 143.07 65.6014 142.048 70.3808 145.785C75.2397 149.57 82.0028 149.704 86.0587 149.337C87.2312 149.24 88.3964 149.068 89.5474 148.824C89.7416 148.781 89.9253 148.699 90.0878 148.584C90.2504 148.47 90.3886 148.324 90.4947 148.155C90.6007 147.987 90.6725 147.799 90.7057 147.603C90.739 147.407 90.7331 147.206 90.6885 147.012C90.6467 146.817 90.5662 146.632 90.4519 146.469C90.3376 146.305 90.1917 146.166 90.0228 146.06C89.854 145.953 89.6655 145.882 89.4686 145.85C89.2717 145.817 89.0704 145.824 88.8764 145.871C88.7739 145.88 78.3432 148.172 72.2494 143.4C66.4041 138.83 59.7742 140.012 51.4205 141.496C49.1564 141.898 46.8001 142.318 44.2732 142.669C38.6675 143.444 34.1356 142.389 31.2002 139.627C27.8844 136.5 26.4882 131.293 27.0524 124.144C28.0466 111.528 47.2348 103.914 52.3613 102.098C53.7639 104.938 55.3843 108.162 57.261 111.832C57.4081 112.122 57.6451 112.355 57.9364 112.499C58.7968 112.928 79.245 122.969 97.9457 121.276C106.68 120.546 115.446 120.272 124.209 120.458C124.474 120.554 124.759 120.579 125.037 120.528C125.108 120.514 125.179 120.495 125.248 120.472C130.096 120.559 134.505 120.728 138.218 120.87C140.432 120.956 142.429 121.029 144.157 121.079C146.688 121.146 150.234 121.938 154.714 122.889C166.505 125.455 183.964 129.232 209.312 126.867L209.345 126.864C210.897 126.724 212.478 126.555 214.088 126.36C217.993 125.889 221.582 125.292 224.889 124.584C224.982 124.574 225.073 124.555 225.161 124.527C230.333 123.459 235.381 121.855 240.22 119.741C240.45 119.695 240.666 119.597 240.852 119.454C241.185 119.302 241.509 119.145 241.833 118.989C242.085 118.933 242.32 118.815 242.516 118.646C252.665 113.502 257.866 106.708 260.646 99.7567L278.058 89.0729C284.345 89.3348 290.749 91.0509 293.596 96.3658C298.37 105.276 302.171 118.486 297.13 126.388C293.595 131.938 286.121 134.426 274.831 133.81C238.877 131.815 233.872 132.541 226.959 133.551C226.76 133.578 226.569 133.643 226.395 133.744C226.222 133.845 226.07 133.979 225.949 134.139C225.828 134.299 225.74 134.482 225.69 134.676C225.64 134.87 225.63 135.072 225.658 135.271C225.687 135.469 225.755 135.66 225.858 135.832C225.962 136.004 226.098 136.154 226.259 136.273C226.421 136.392 226.604 136.478 226.799 136.525C226.994 136.572 227.197 136.581 227.395 136.549C234.137 135.568 239.011 134.855 274.663 136.834C277.268 136.994 279.881 136.963 282.481 136.742C283.849 136.621 285.208 136.424 286.554 136.152C288.507 138.173 306.766 157.533 306.798 177.751L306.797 177.741Z" fill="white"/>
<path d="M144.09 150.056C141.864 149.685 139.276 150.14 136.003 150.708C130.765 151.742 125.435 152.237 120.095 152.186C109.067 152.02 107.336 147.115 107.252 146.855C107.143 146.469 106.885 146.141 106.534 145.945C106.183 145.749 105.769 145.7 105.383 145.809C104.996 145.918 104.668 146.176 104.472 146.527C104.276 146.877 104.227 147.291 104.336 147.678C104.415 147.981 106.496 154.994 120.041 155.219C122.634 155.257 125.226 155.158 127.808 154.924C131.277 154.61 134.161 154.11 136.523 153.694C139.508 153.175 141.875 152.764 143.587 153.055C143.983 153.121 144.389 153.027 144.716 152.794C145.043 152.56 145.264 152.206 145.331 151.81C145.397 151.414 145.303 151.007 145.069 150.68C144.836 150.353 144.482 150.132 144.086 150.066L144.09 150.056Z" fill="white"/>
<path d="M197.717 147.315C194.664 145.381 185.435 140.207 179.299 144.091C175.138 146.721 174.681 151.522 176.382 154.908C177.801 157.733 180.428 159.26 183.152 159.014C183.768 158.957 184.373 158.815 184.95 158.593C186.859 157.857 189.871 155.908 193.736 153.431L195.511 152.294L189.939 174.455C189.843 174.846 189.905 175.258 190.112 175.603C190.319 175.948 190.654 176.196 191.045 176.294C191.21 176.334 191.381 176.347 191.55 176.333C191.864 176.304 192.161 176.179 192.4 175.975C192.64 175.771 192.81 175.498 192.888 175.193L198.447 153.094L211.065 173.726C211.275 174.069 211.612 174.314 212.003 174.408C212.393 174.502 212.805 174.437 213.148 174.228C213.491 174.018 213.736 173.681 213.83 173.29C213.924 172.9 213.859 172.488 213.649 172.145L201.531 152.364C204.342 153.492 207.22 154.448 210.147 155.228C214.25 156.218 220.73 152.861 222.789 148.685C224.177 145.864 223.428 142.993 220.74 140.828C216.003 136.989 206.586 141.823 197.717 147.315ZM192.097 150.885C188.548 153.169 185.477 155.141 183.862 155.762C181.593 156.629 179.874 155.113 179.089 153.546C178.036 151.449 178.154 148.396 180.915 146.648C181.777 146.122 182.751 145.809 183.757 145.734C187.394 145.405 191.89 147.406 194.86 149.1C193.92 149.711 192.997 150.301 192.097 150.885ZM220.075 147.334C218.552 150.42 213.365 152.871 210.865 152.271C207.831 151.536 203.645 149.948 200.995 148.878C208.062 144.647 215.881 140.784 218.839 143.174C220.951 144.874 220.555 146.361 220.075 147.334Z" fill="white"/>
<path d="M24.9485 186.643C24.372 185.46 24.2379 183.979 24.1429 182.41C24.1079 182.024 24.0729 181.637 24.0379 181.251C24.0017 180.851 23.808 180.481 23.4995 180.224C23.1909 179.967 22.7928 179.843 22.3926 179.879C21.9925 179.915 21.6231 180.109 21.3658 180.417C21.1085 180.726 20.9843 181.124 21.0205 181.524C21.0534 181.887 21.0871 182.26 21.1204 182.628C21.2496 184.419 21.3848 186.275 22.2396 187.991C22.7755 188.894 23.4138 189.733 24.1418 190.49C24.4249 190.817 24.8074 191.256 24.9572 191.459C25.0716 191.765 25.2818 192.027 25.5566 192.205C25.8315 192.383 26.1564 192.468 26.4832 192.447L26.5158 192.444C26.9107 192.407 27.2755 192.218 27.5324 191.915C27.7892 191.613 27.9178 191.223 27.8905 190.827C27.8265 190.119 27.3953 189.609 26.4166 188.496C25.8749 187.921 25.3837 187.301 24.9485 186.643Z" fill="white"/>
<path d="M34.7108 195.842C34.5114 195.799 34.315 195.743 34.1229 195.674C33.3277 195.3 32.5852 194.823 31.9146 194.255C31.7569 194.133 31.5769 194.044 31.3847 193.992C31.1925 193.941 30.9921 193.927 30.7947 193.953C30.5974 193.979 30.4071 194.043 30.2346 194.142C30.0621 194.242 29.9109 194.374 29.7895 194.531C29.6682 194.689 29.5791 194.869 29.5273 195.061C29.4755 195.254 29.4622 195.454 29.4879 195.651C29.5136 195.849 29.5779 196.039 29.6771 196.212C29.7764 196.384 29.9087 196.535 30.0664 196.657C30.9525 197.399 31.9372 198.014 32.9924 198.486C33.3074 198.606 33.63 198.706 33.9583 198.783C34.2843 198.837 34.5982 198.948 34.8848 199.112C35.041 199.248 35.2231 199.35 35.4201 199.413C35.6171 199.476 35.8247 199.498 36.0305 199.478C36.3245 199.452 36.6043 199.34 36.8356 199.156C37.0668 198.973 37.2395 198.726 37.3323 198.446C37.4251 198.166 37.4341 197.864 37.3581 197.579C37.2821 197.294 37.1244 197.037 36.9044 196.841C36.2679 196.33 35.5138 195.987 34.7108 195.842Z" fill="white"/>
<path d="M38.4653 189.911C37.246 189.495 36.1058 188.876 35.0931 188.08C34.9404 187.952 34.764 187.856 34.574 187.797C34.3841 187.737 34.1842 187.716 33.9859 187.733C33.7877 187.751 33.5948 187.808 33.4184 187.9C33.242 187.992 33.0855 188.118 32.9578 188.271C32.8302 188.424 32.7339 188.6 32.6744 188.79C32.6149 188.98 32.5934 189.18 32.6111 189.378C32.6288 189.576 32.6854 189.769 32.7777 189.946C32.8699 190.122 32.996 190.279 33.1488 190.406C34.4766 191.466 35.9809 192.283 37.5925 192.821C37.7796 192.878 37.976 192.898 38.1708 192.881C38.5192 192.846 38.8449 192.692 39.0928 192.445C39.3408 192.198 39.4957 191.873 39.5316 191.525C39.5674 191.176 39.4819 190.826 39.2894 190.534C39.097 190.241 38.8095 190.024 38.4755 189.919L38.4653 189.911Z" fill="white"/>
<path d="M282.265 140.789C281.389 142.676 283.314 144.45 284.858 145.892C285.161 146.175 285.437 146.422 285.624 146.626C285.781 146.797 285.976 146.93 286.193 147.013C286.41 147.097 286.643 147.13 286.874 147.109C287.212 147.083 287.531 146.941 287.777 146.708C287.923 146.573 288.041 146.411 288.125 146.231C288.208 146.05 288.255 145.855 288.263 145.656C288.271 145.457 288.239 145.259 288.17 145.072C288.101 144.886 287.996 144.715 287.86 144.569C287.631 144.318 287.303 144.009 286.934 143.667C286.264 143.096 285.66 142.452 285.135 141.745C285.216 141.38 285.159 140.998 284.974 140.673C284.79 140.347 284.492 140.102 284.137 139.983C283.783 139.864 283.397 139.88 283.054 140.029C282.711 140.178 282.435 140.448 282.279 140.788L282.265 140.789Z" fill="white"/>
<path d="M289.669 152.522C290.011 153.238 290.579 154.435 290.536 154.843C290.514 155.041 290.53 155.241 290.585 155.432C290.64 155.624 290.732 155.802 290.856 155.958C290.98 156.114 291.134 156.244 291.308 156.34C291.482 156.437 291.674 156.498 291.871 156.52C291.974 156.529 292.078 156.529 292.181 156.52C292.528 156.489 292.853 156.339 293.102 156.096C293.351 155.852 293.509 155.531 293.549 155.185C293.692 153.919 293.067 152.609 292.411 151.223C292.033 150.518 291.738 149.773 291.529 149.002C291.499 148.804 291.429 148.613 291.324 148.443C291.219 148.272 291.08 148.124 290.917 148.007C290.754 147.891 290.569 147.808 290.373 147.764C290.177 147.72 289.975 147.716 289.777 147.752C289.58 147.784 289.391 147.855 289.221 147.961C289.051 148.066 288.904 148.205 288.787 148.367C288.671 148.53 288.588 148.715 288.544 148.91C288.499 149.105 288.494 149.307 288.527 149.504C288.773 150.556 289.157 151.571 289.669 152.522Z" fill="white"/>
<path d="M285.793 151.554C285.735 151.363 285.639 151.187 285.513 151.033C285.386 150.88 285.23 150.753 285.054 150.66C284.878 150.567 284.686 150.51 284.488 150.491C284.29 150.472 284.09 150.493 283.9 150.551C283.71 150.61 283.533 150.705 283.38 150.832C283.226 150.959 283.1 151.115 283.007 151.29C282.914 151.466 282.856 151.659 282.837 151.857C282.819 152.055 282.839 152.255 282.898 152.445C282.997 152.764 283.897 155.608 285.16 156.695C285.311 156.829 285.488 156.931 285.679 156.994C285.87 157.057 286.073 157.081 286.273 157.064C286.569 157.037 286.851 156.923 287.083 156.738C287.315 156.552 287.488 156.303 287.579 156.02C287.671 155.738 287.678 155.434 287.599 155.148C287.521 154.861 287.36 154.604 287.136 154.408C286.863 154.133 286.179 152.81 285.793 151.554Z" fill="white"/>
<path d="M53.3205 87.382C53.1292 86.9639 52.9012 86.5635 52.6394 86.1855C52.0924 85.3289 52.0231 85.1333 52.1998 84.6995C52.3528 84.3264 52.3513 83.9078 52.1957 83.5359C52.0401 83.1639 51.7431 82.8689 51.37 82.7159C50.997 82.5629 50.5784 82.5644 50.2064 82.72C49.8344 82.8756 49.5395 83.1726 49.3865 83.5457C48.5912 85.4956 49.5024 86.9013 50.1019 87.8188C50.2686 88.0542 50.4152 88.3032 50.5402 88.5632C50.6672 88.8559 50.8832 89.1012 51.1575 89.2643C51.4318 89.4274 51.7505 89.5 52.0684 89.4718C52.2265 89.4553 52.3812 89.4144 52.5268 89.3505C52.8915 89.1927 53.1792 88.8976 53.3278 88.5292C53.4763 88.1607 53.4737 87.7486 53.3205 87.382Z" fill="white"/>
<path d="M54.8165 96.6543C55.0654 96.7821 55.3454 96.8365 55.6241 96.8113C55.9532 96.7828 56.2641 96.6475 56.5092 96.426C56.7544 96.2045 56.9204 95.9089 56.9819 95.5842C57.0435 95.2596 56.9972 94.9238 56.8502 94.6279C56.7031 94.332 56.4634 94.0923 56.1674 93.9453C55.9355 93.8279 55.7426 93.6458 55.6123 93.4209C55.4819 93.196 55.4196 92.9381 55.4331 92.6785C55.4506 92.4802 55.4289 92.2805 55.3692 92.0906C55.3095 91.9007 55.213 91.7245 55.0852 91.5719C54.9574 91.4194 54.8008 91.2935 54.6243 91.2014C54.4479 91.1094 54.255 91.053 54.0567 91.0355C53.8585 91.018 53.6587 91.0397 53.4689 91.0994C53.279 91.1591 53.1028 91.2556 52.9502 91.3834C52.7976 91.5112 52.6717 91.6678 52.5797 91.8443C52.4876 92.0207 52.4313 92.2136 52.4137 92.4119C52.3463 93.2779 52.539 94.1443 52.9671 94.9001C53.3951 95.656 54.0391 96.2668 54.8165 96.6543Z" fill="white"/>
<path d="M55.6617 88.9216C55.9153 89.0569 56.2028 89.1156 56.4892 89.0909C56.7368 89.0677 56.975 88.9841 57.1828 88.8474C57.3907 88.7108 57.5618 88.5252 57.6811 88.3069C57.8697 87.9543 57.9135 87.5421 57.8033 87.1577C57.6932 86.7733 57.4377 86.4469 57.091 86.2477C56.7026 85.9599 56.3923 85.5798 56.188 85.1417C56.3437 84.7849 56.3561 84.3819 56.2226 84.0163C56.0891 83.6506 55.8199 83.3504 55.471 83.1779C55.122 83.0053 54.7201 82.9738 54.3485 83.0897C53.9769 83.2056 53.6642 83.4601 53.4752 83.8004C53.2941 84.12 53.1813 84.4737 53.1441 84.8391C53.1068 85.2045 53.1459 85.5737 53.2589 85.9232C53.6787 87.1761 54.5304 88.2389 55.6617 88.9216Z" fill="white"/>
<path d="M115.413 107.621C115.477 107.998 115.681 108.338 115.984 108.572C116.287 108.805 116.667 108.916 117.049 108.881L117.142 108.873C117.535 108.808 117.888 108.591 118.122 108.268C118.357 107.946 118.454 107.544 118.394 107.149C118.332 106.769 118.249 106.393 118.147 106.022C118.014 105.597 117.937 105.158 117.916 104.714C118.107 104.367 118.155 103.959 118.049 103.577C117.943 103.195 117.691 102.87 117.348 102.671C117.006 102.473 116.599 102.416 116.215 102.514C115.831 102.612 115.5 102.857 115.295 103.195C114.597 104.352 114.938 105.692 115.21 106.771C115.294 107.05 115.362 107.334 115.413 107.621Z" fill="white"/>
<path d="M117.139 112.112C117.159 112.326 117.182 112.577 117.172 112.883C117.211 114.513 117.273 116.747 119.083 117.297C119.27 117.356 119.466 117.377 119.661 117.357C119.975 117.329 120.272 117.203 120.512 116.998C120.751 116.793 120.92 116.518 120.996 116.212C121.071 115.906 121.05 115.584 120.934 115.291C120.818 114.998 120.613 114.748 120.348 114.577C120.242 113.993 120.188 113.401 120.188 112.807C120.155 112.444 120.167 112.105 120.143 111.84C120.107 111.44 119.913 111.07 119.605 110.813C119.296 110.556 118.898 110.431 118.498 110.468C118.098 110.504 117.728 110.697 117.471 111.006C117.214 111.315 117.089 111.713 117.126 112.113L117.139 112.112Z" fill="white"/>
<path d="M112.828 114.169C112.884 114.552 113.085 114.898 113.388 115.138C113.692 115.378 114.076 115.492 114.461 115.458L114.549 115.45C114.942 115.386 115.294 115.171 115.528 114.85C115.763 114.529 115.861 114.129 115.803 113.735C115.76 113.27 115.634 112.812 115.536 112.351C115.438 111.89 115.367 111.564 115.306 111.156C115.277 110.959 115.21 110.77 115.108 110.599C115.006 110.428 114.871 110.279 114.711 110.161C114.552 110.042 114.37 109.956 114.178 109.907C113.985 109.858 113.784 109.848 113.587 109.877C113.39 109.906 113.201 109.974 113.03 110.076C112.86 110.178 112.711 110.312 112.592 110.472C112.473 110.632 112.387 110.813 112.338 111.006C112.29 111.199 112.28 111.399 112.309 111.596C112.379 112.059 112.477 112.52 112.575 112.981C112.699 113.364 112.79 113.754 112.828 114.169Z" fill="white"/>
<path d="M201.958 74.8723C202.156 74.8513 202.348 74.7916 202.522 74.6965C202.697 74.6014 202.852 74.4728 202.977 74.3181C203.102 74.1633 203.195 73.9855 203.251 73.7946C203.308 73.6038 203.326 73.4037 203.305 73.2059C203.236 72.4515 203.794 69.2181 204.153 68.2654C204.363 68.0569 204.507 67.7915 204.568 67.502C204.629 67.2125 204.603 66.9116 204.495 66.6363C204.387 66.3611 204.2 66.1236 203.959 65.9531C203.717 65.7826 203.431 65.6865 203.135 65.6768C202.66 65.6819 202.207 65.8749 201.874 66.2135C200.834 67.3311 200.182 72.4698 200.292 73.5256C200.335 73.9246 200.535 74.2903 200.847 74.5426C201.159 74.795 201.559 74.9135 201.958 74.8723Z" fill="white"/>
<path d="M205.67 68.635C205.734 69.0116 205.937 69.3505 206.239 69.5841C206.541 69.8178 206.92 69.929 207.301 69.8958L207.408 69.8861C207.804 69.8214 208.158 69.6021 208.393 69.2763C208.628 68.9505 208.723 68.5449 208.659 68.1486L208.639 67.9296C208.583 67.6511 208.548 67.3686 208.534 67.0847C208.832 66.8144 209.01 66.437 209.029 66.0355C209.048 65.6341 208.907 65.2415 208.636 64.9441C208.366 64.6467 207.989 64.4689 207.587 64.4497C207.186 64.4306 206.793 64.5717 206.496 64.842C205.233 65.9328 205.481 67.4315 205.646 68.4212L205.67 68.635Z" fill="white"/>
<path d="M204.521 72.1613C204.51 72.3455 204.476 72.5457 204.443 72.7506C204.355 73.2056 204.315 73.6687 204.324 74.1322C204.334 74.331 204.384 74.5258 204.47 74.7055C204.556 74.8852 204.676 75.0462 204.824 75.1793C204.972 75.3124 205.145 75.415 205.333 75.4812C205.521 75.5475 205.72 75.576 205.918 75.5653L205.974 75.5602C206.364 75.5229 206.724 75.337 206.981 75.0411C207.237 74.7452 207.37 74.3619 207.351 73.9708C207.353 73.8122 207.367 73.6539 207.393 73.4975C207.689 73.3512 207.929 73.1121 208.077 72.8166C208.225 72.5212 208.272 72.1856 208.211 71.861C208.15 71.5363 207.985 71.2404 207.74 71.0184C207.496 70.7963 207.186 70.6601 206.857 70.6307C206.402 70.5879 205.944 70.647 205.516 70.8037C205.234 70.9064 204.989 71.0901 204.812 71.3317C204.635 71.5734 204.534 71.8621 204.521 72.1613Z" fill="white"/>
<path d="M68.8337 87.4614C69.5917 87.3928 70.3123 87.101 70.9044 86.6228C71.4965 86.1447 71.9336 85.5017 72.1602 84.7752C72.3869 84.0486 72.393 83.2712 72.1779 82.5412C71.9627 81.8112 71.5359 81.1613 70.9515 80.6739C70.367 80.1864 69.6511 79.8832 68.8943 79.8026C68.1375 79.7221 67.3738 79.8677 66.6998 80.2212C66.0258 80.5746 65.4717 81.12 65.1077 81.7883C64.7436 82.4566 64.5859 83.2179 64.6545 83.9759C64.7465 84.9923 65.2385 85.9305 66.0222 86.5842C66.806 87.2378 67.8173 87.5534 68.8337 87.4614Z" fill="white"/>
<path d="M68.2907 107.656C69.0489 107.587 69.7697 107.295 70.3619 106.817C70.954 106.338 71.3911 105.695 71.6176 104.968C71.8441 104.242 71.85 103.464 71.6344 102.734C71.4189 102.004 70.9916 101.354 70.4066 100.867C69.8217 100.38 69.1055 100.077 68.3484 99.9967C67.5914 99.9166 66.8275 100.063 66.1537 100.417C65.4798 100.771 64.9261 101.317 64.5627 101.986C64.1992 102.655 64.0424 103.417 64.1119 104.175C64.1575 104.678 64.3017 105.167 64.5364 105.614C64.7711 106.062 65.0917 106.458 65.4798 106.782C65.8679 107.105 66.3159 107.348 66.7982 107.498C67.2805 107.648 67.7877 107.702 68.2907 107.656Z" fill="white"/>
<path d="M98.3284 107.458C97.5705 107.526 96.8499 107.818 96.2577 108.296C95.6656 108.775 95.2286 109.418 95.002 110.144C94.7753 110.871 94.7691 111.648 94.9843 112.378C95.1994 113.108 95.6262 113.758 96.2107 114.245C96.7952 114.733 97.5111 115.036 98.2679 115.117C99.0247 115.197 99.7883 115.051 100.462 114.698C101.136 114.345 101.69 113.799 102.055 113.131C102.419 112.463 102.576 111.701 102.508 110.943C102.416 109.927 101.924 108.989 101.14 108.335C100.356 107.681 99.3448 107.366 98.3284 107.458Z" fill="white"/>
<path d="M96.2165 92.5795C96.9745 92.5109 97.695 92.2191 98.2871 91.7409C98.8793 91.2628 99.3163 90.6198 99.543 89.8933C99.7697 89.1668 99.7758 88.3894 99.5606 87.6593C99.3455 86.9293 98.9187 86.2795 98.3342 85.792C97.7497 85.3046 97.0339 85.0014 96.2771 84.9208C95.5203 84.8402 94.7566 84.9859 94.0826 85.3393C93.4086 85.6928 92.8545 86.2381 92.4904 86.9065C92.1264 87.5748 91.9687 88.3361 92.0373 89.0941C92.0823 89.5976 92.2261 90.0872 92.4606 90.5351C92.6951 90.9829 93.0155 91.3801 93.4038 91.7038C93.792 92.0276 94.2402 92.2716 94.7229 92.4219C95.2055 92.5721 95.7131 92.6257 96.2165 92.5795Z" fill="white"/>
<path d="M102.225 73.6362C102.983 73.5676 103.704 73.2758 104.296 72.7976C104.888 72.3195 105.325 71.6765 105.552 70.95C105.778 70.2234 105.785 69.446 105.569 68.716C105.354 67.986 104.927 67.3362 104.343 66.8487C103.759 66.3613 103.043 66.058 102.286 65.9774C101.529 65.8969 100.765 66.0425 100.091 66.396C99.4174 66.7494 98.8633 67.2948 98.4992 67.9632C98.1352 68.6315 97.9775 69.3927 98.0461 70.1507C98.1381 71.1671 98.6301 72.1053 99.4138 72.759C100.198 73.4126 101.209 73.7282 102.225 73.6362Z" fill="white"/>
<path d="M108.925 56.4314C108.678 56.4552 108.429 56.4215 108.197 56.3329C107.816 56.175 107.472 55.9401 107.185 55.6428C106.899 55.3456 106.677 54.9925 106.534 54.6055C105.948 53.1066 105.904 51.4498 106.411 49.922C106.564 49.5502 106.858 49.2544 107.229 49.0997C107.413 49.0232 107.61 48.9835 107.809 48.9831C108.009 48.9827 108.206 49.0215 108.39 49.0973C108.574 49.1732 108.741 49.2845 108.883 49.425C109.024 49.5655 109.136 49.7324 109.212 49.9162C109.289 50.1 109.328 50.2971 109.329 50.4962C109.329 50.6953 109.29 50.8925 109.215 51.0766C108.979 51.6425 109.103 53.2181 109.406 53.5568C109.588 53.6267 109.754 53.7326 109.894 53.8682C110.033 54.0038 110.144 54.1662 110.22 54.3457C110.295 54.5253 110.334 54.7182 110.333 54.913C110.332 55.1077 110.291 55.3002 110.214 55.479C110.111 55.743 109.935 55.9725 109.707 56.141C109.479 56.3095 109.207 56.4102 108.925 56.4314Z" fill="#0536FC"/>
<path d="M112.728 52.3912C112.481 52.4138 112.232 52.3752 112.003 52.2788C111.774 52.1825 111.572 52.0313 111.416 51.8387C110.254 50.4134 110.047 48.911 110.858 47.7061C111.077 47.367 111.421 47.1285 111.815 47.0431C112.209 46.9576 112.621 47.0323 112.96 47.2506C113.3 47.4689 113.538 47.813 113.623 48.2072C113.709 48.6014 113.634 49.0134 113.416 49.3525C113.493 49.5693 113.612 49.7689 113.765 49.9406C114.018 50.2524 114.137 50.6516 114.097 51.0512C114.057 51.4507 113.86 51.8179 113.549 52.0727C113.314 52.2585 113.028 52.3695 112.728 52.3912Z" fill="#0536FC"/>
<path d="M115.748 62.9301C115.665 62.9446 115.581 62.9522 115.497 62.9529C115.096 62.9224 114.724 62.7342 114.463 62.4295C114.201 62.1248 114.071 61.7286 114.101 61.3281C114.156 60.6424 114.24 59.4939 136.858 36.6586C137.143 36.3726 137.531 36.2116 137.935 36.2111C138.339 36.2106 138.727 36.3707 139.013 36.6561C139.299 36.9415 139.46 37.3288 139.46 37.7329C139.461 38.137 139.301 38.5247 139.015 38.8107C131.096 46.8043 118.247 60.042 117.045 61.9582C116.943 62.2261 116.767 62.4596 116.537 62.6315C116.308 62.8035 116.034 62.907 115.748 62.9301Z" fill="#0536FC"/>
<path d="M118.928 84.3224C118.834 84.3308 118.739 84.3299 118.646 84.3197C118.448 84.301 118.255 84.2434 118.079 84.1503C117.904 84.0572 117.748 83.9304 117.621 83.777C117.494 83.6237 117.399 83.4469 117.34 83.2568C117.282 83.0666 117.262 82.8668 117.28 82.6687C117.353 81.9157 117.353 81.9157 166.685 35.1795C166.98 34.9246 167.362 34.7935 167.752 34.8134C168.142 34.8334 168.509 35.003 168.776 35.2868C169.044 35.5705 169.192 35.9467 169.189 36.3369C169.187 36.727 169.033 37.1011 168.762 37.3811C152.43 52.8496 121.374 82.3076 119.94 83.7894C119.684 84.0907 119.321 84.2816 118.928 84.3224Z" fill="#0536FC"/>
<path d="M141.279 91.1113C140.963 91.1426 140.645 91.0737 140.371 90.9145C140.096 90.7553 139.878 90.5137 139.748 90.2239C139.618 89.9342 139.582 89.6109 139.646 89.2998C139.71 88.9887 139.87 88.7054 140.103 88.4901C140.692 87.9439 192.287 42.1907 194.481 40.2409C194.782 39.974 195.176 39.8376 195.578 39.8615C195.979 39.8855 196.355 40.068 196.621 40.3688C196.888 40.6696 197.025 41.0641 197.001 41.4655C196.977 41.867 196.794 42.2425 196.494 42.5094C195.959 42.985 142.881 90.0837 142.174 90.7205C141.928 90.948 141.613 91.0857 141.279 91.1113Z" fill="#0536FC"/>
<path d="M170.736 92.1819C170.401 92.2133 170.064 92.1315 169.779 91.9496C169.495 91.7678 169.28 91.4962 169.167 91.178C169.055 90.8598 169.052 90.5132 169.159 90.1932C169.266 89.8731 169.477 89.598 169.758 89.4114C192.846 74.0028 192.884 74.0557 194.043 75.0916C194.25 75.2749 194.403 75.5115 194.484 75.7756C194.566 76.0396 194.573 76.3209 194.506 76.5889C194.439 76.8569 194.299 77.1013 194.103 77.2956C193.906 77.4898 193.66 77.6264 193.391 77.6904C191.644 78.5622 179.105 86.8189 171.441 91.9303C171.232 92.0726 170.989 92.1591 170.736 92.1819Z" fill="#0536FC"/>
</svg>
