<svg width="436" height="178" viewBox="0 0 436 178" fill="none" xmlns="http://www.w3.org/2000/svg">
<path d="M162.135 39.1732C143.644 43.1168 124.486 42.674 106.197 37.8804L106.205 37.8829L106.153 37.8686C81.0321 30.895 44.9418 0.0582698 37.8933 -6.82051C29.0561 -15.4448 5.31195 -39.7535 41.0995 -8.74358C76.8871 22.2663 97.4038 32.56 107.132 34.9204C116.861 37.2808 115.896 36.9656 120.351 37.5987C136.085 39.8152 152.084 38.8298 167.392 34.7254C167.725 29.7607 169.39 24.8601 173.018 21.6404C175.71 19.2479 179.406 18.4447 182.711 20.0654C185.916 21.6159 187.462 25.2402 185.912 28.5544C184.057 32.5235 179.379 34.1379 175.535 35.4583C173.844 36.0365 172.14 36.5761 170.426 37.0766C170.427 39.4999 170.777 41.9171 171.47 44.2527C173.63 51.7173 178.761 58.3684 185.167 62.7039C193.394 68.2735 203.298 70.664 213.065 71.6797C222.64 72.6466 232.282 72.7634 241.877 72.0286C243.301 71.926 244.723 71.7942 246.141 71.6334C245.282 63.896 252.191 58.5949 259.331 57.1827C263.016 56.4413 267.972 56.5014 269.803 60.4622C271.401 63.9468 269.296 67.855 266.364 69.795C262.632 72.2654 257.536 72.9684 253.208 73.7294C252.093 73.9192 250.977 74.0933 249.858 74.2518C251.807 79.0009 257.046 82.9561 260.961 85.314C269.484 90.4477 279.093 93.5077 289.015 94.2477C297.893 94.9026 306.728 93.7531 315.48 92.2345C324.231 90.716 332.93 88.8253 341.772 87.8903C350.875 86.9244 360.693 86.5986 369.234 90.4187C376.249 93.557 382.262 99.9512 383.006 107.866C383.152 109.41 383.048 110.97 382.723 112.484C384.509 113.572 386.147 114.944 387.643 116.327C390.838 119.284 393.646 122.601 397.167 125.209C400.556 127.718 404.297 129.712 408.27 131.124C416.433 134.046 425.285 134.445 433.677 132.267C435.608 131.779 436.297 134.788 434.368 135.294C430.202 136.388 425.901 136.881 421.596 136.759C412.744 136.497 404.148 133.724 396.813 128.763C393.146 126.262 390.118 123.105 386.981 119.993C385.443 118.47 383.7 116.785 381.759 115.495C380.156 119.217 377.171 122.34 373.306 123.769C370.295 124.882 365.658 125.312 364.472 121.51C363.478 118.297 365.008 114.977 367.575 112.987C368.949 111.926 370.523 111.151 372.202 110.709C373.881 110.266 375.632 110.165 377.351 110.41C378.194 110.542 379.011 110.762 379.803 111.054C380.369 106.453 378.393 101.549 374.928 97.9838C367.841 90.6981 356.827 89.9682 347.266 90.5131C337.948 91.0431 328.785 92.9619 319.621 94.6332C310.457 96.3046 301.147 97.8085 291.805 97.4853C281.63 97.1527 271.662 94.5217 262.648 89.7893C256.388 86.4956 249.226 81.6885 246.829 74.6417C243.942 74.9765 241.042 75.2072 238.136 75.3331C228.103 75.8343 217.823 75.6553 207.899 74.1043C198.237 72.6009 188.425 69.5279 180.785 63.2315C174.693 58.2004 169.976 51.2668 168.127 43.5308C167.709 41.7745 167.438 39.8735 167.355 37.928C165.625 38.3826 163.885 38.7978 162.135 39.1732Z" fill="white"/>
<path d="M155.685 25.3112C155.978 25.4029 156.292 25.4058 156.586 25.3193C156.881 25.2328 157.143 25.0609 157.34 24.8254C157.537 24.5898 157.66 24.3012 157.692 23.996C157.725 23.6907 157.667 23.3826 157.525 23.1106C157.382 22.8385 157.163 22.6148 156.893 22.4676C156.624 22.3205 156.317 22.2565 156.011 22.2839C155.705 22.3112 155.414 22.4287 155.175 22.6213C154.936 22.8139 154.76 23.0731 154.668 23.366C154.549 23.7589 154.59 24.1826 154.78 24.5462C154.97 24.9098 155.295 25.1844 155.685 25.3112Z" fill="white"/>
<path d="M184.359 45.1188C184.652 45.2105 184.966 45.2134 185.26 45.1269C185.555 45.0404 185.817 44.8685 186.014 44.633C186.211 44.3974 186.333 44.1088 186.366 43.8036C186.399 43.4983 186.341 43.1902 186.198 42.9182C186.056 42.6462 185.836 42.4224 185.567 42.2752C185.298 42.1281 184.991 42.0642 184.685 42.0915C184.379 42.1189 184.088 42.2363 183.849 42.4289C183.61 42.6215 183.434 42.8807 183.342 43.1736C183.223 43.5665 183.263 43.9902 183.454 44.3538C183.644 44.7174 183.969 44.992 184.359 45.1188Z" fill="white"/>
<path d="M128.009 50.3083C128.301 50.4 128.615 50.4028 128.91 50.3164C129.204 50.2299 129.466 50.058 129.663 49.8225C129.86 49.5869 129.983 49.2983 130.016 48.993C130.049 48.6878 129.99 48.3797 129.848 48.1077C129.706 47.8356 129.486 47.6119 129.216 47.4647C128.947 47.3176 128.64 47.2536 128.334 47.281C128.028 47.3083 127.738 47.4257 127.499 47.6183C127.259 47.811 127.083 48.0701 126.991 48.3631C126.873 48.756 126.913 49.1796 127.103 49.5433C127.293 49.9069 127.618 50.1815 128.009 50.3083Z" fill="white"/>
<path d="M276.138 80.4821C276.431 80.5738 276.745 80.5767 277.04 80.4902C277.334 80.4037 277.596 80.2318 277.793 79.9963C277.99 79.7607 278.113 79.4721 278.146 79.1668C278.178 78.8616 278.12 78.5535 277.978 78.2815C277.835 78.0094 277.616 77.7857 277.346 77.6385C277.077 77.4914 276.77 77.4275 276.464 77.4548C276.158 77.4822 275.867 77.5995 275.628 77.7922C275.389 77.9848 275.213 78.244 275.121 78.5369C275.004 78.9298 275.044 79.353 275.234 79.7163C275.424 80.0797 275.749 80.3544 276.138 80.4821Z" fill="white"/>
<path d="M234.797 89.5846C235.09 89.6763 235.403 89.6792 235.698 89.5927C235.992 89.5062 236.255 89.3343 236.451 89.0988C236.648 88.8632 236.771 88.5746 236.804 88.2694C236.837 87.9641 236.778 87.656 236.636 87.384C236.494 87.1119 236.274 86.8882 236.004 86.7411C235.735 86.5939 235.428 86.53 235.122 86.5573C234.816 86.5847 234.526 86.7021 234.287 86.8947C234.048 87.0873 233.871 87.3465 233.779 87.6394C233.662 88.0323 233.702 88.4555 233.893 88.8188C234.083 89.1822 234.407 89.4569 234.797 89.5846Z" fill="white"/>
<path d="M348.59 105.175C348.883 105.267 349.196 105.27 349.491 105.184C349.785 105.097 350.048 104.925 350.244 104.69C350.441 104.454 350.564 104.165 350.597 103.86C350.63 103.555 350.571 103.247 350.429 102.975C350.287 102.703 350.067 102.479 349.797 102.332C349.528 102.185 349.221 102.121 348.915 102.148C348.609 102.176 348.319 102.293 348.08 102.486C347.841 102.678 347.664 102.937 347.572 103.23C347.455 103.623 347.495 104.046 347.685 104.41C347.876 104.773 348.2 105.048 348.59 105.175Z" fill="white"/>
<path d="M426.422 125.548C426.715 125.64 427.028 125.643 427.323 125.557C427.617 125.47 427.88 125.298 428.076 125.063C428.273 124.827 428.396 124.539 428.429 124.233C428.462 123.928 428.403 123.62 428.261 123.348C428.119 123.076 427.899 122.852 427.629 122.705C427.36 122.558 427.053 122.494 426.747 122.521C426.441 122.549 426.151 122.666 425.912 122.859C425.673 123.051 425.496 123.31 425.404 123.603C425.286 123.996 425.326 124.42 425.516 124.783C425.706 125.147 426.031 125.422 426.422 125.548Z" fill="white"/>
<path d="M252.08 55.6719C254.85 54.112 257.073 51.7389 258.45 48.8739C259.827 46.0088 260.29 42.7899 259.778 39.6528C259.294 36.5564 257.815 33.4558 255.419 31.4127C253.022 29.3696 249.71 28.4364 246.524 28.3191C240.562 28.0914 234.262 30.2303 230.504 35.0131C228.586 37.4214 227.541 40.4097 227.542 43.4889C227.642 46.3895 228.718 49.1715 230.595 51.3849C234.732 56.4282 241.46 57.8241 247.678 57.2079C248.484 57.1265 249.284 57.0124 250.077 56.8749C250.276 56.8294 250.464 56.7454 250.63 56.6273C250.796 56.5093 250.938 56.3597 251.046 56.1871C251.154 56.0144 251.228 55.8221 251.262 55.6211C251.296 55.4201 251.29 55.2143 251.245 55.0155C251.199 54.8167 251.115 54.6288 250.997 54.4626C250.879 54.2963 250.73 54.1549 250.557 54.0465C250.384 53.938 250.192 53.8647 249.991 53.8305C249.79 53.7964 249.584 53.8022 249.385 53.8476C246.658 54.3294 243.588 54.4653 240.947 53.9243C240.285 53.7879 239.631 53.6149 238.988 53.4063C238.633 53.295 238.281 53.1849 237.944 53.0274L237.431 52.8102C237.253 52.7546 237.245 52.7259 237.392 52.7979L237.184 52.6982C236.658 52.426 236.15 52.1219 235.661 51.7874C235.406 51.6166 235.154 51.4379 234.909 51.2525L234.664 51.0632L234.427 50.8673C234.54 50.9634 234.522 50.9493 234.383 50.8275C233.929 50.4144 233.499 49.9769 233.093 49.517C232.928 49.3224 232.781 49.1287 232.608 48.9315C232.435 48.7196 232.279 48.4939 232.143 48.2566C231.85 47.7855 231.591 47.2942 231.367 46.7862L231.195 46.3678C231.303 46.6447 231.132 46.1791 231.127 46.1687C231.017 45.8337 230.924 45.4932 230.848 45.1488C230.595 44.0017 230.576 42.8156 230.791 41.6609C230.74 41.9486 230.841 41.4165 230.84 41.4205C230.889 41.2625 230.915 41.0971 230.957 40.9366C231.056 40.6206 231.155 40.3046 231.254 39.9886C231.436 39.4342 231.676 38.9002 231.97 38.3954C232.268 37.8584 232.605 37.3435 232.977 36.8544C233.075 36.7204 233.182 36.5889 233.288 36.4574C233.621 36.0455 233.1 36.6414 233.464 36.2565C233.731 35.9714 233.998 35.6864 234.285 35.4206C235.129 34.6152 236.087 33.9375 237.127 33.409C238.196 32.8217 239.334 32.3695 240.515 32.0629C241.09 31.9045 241.673 31.7748 242.261 31.6685C242.582 31.6129 242.902 31.5612 243.224 31.5147C243.676 31.4567 243.785 31.443 244.122 31.4185C245.448 31.3122 246.781 31.3432 248.101 31.5109C248.713 31.5934 249.318 31.7234 249.909 31.8994C250.492 32.0695 251.062 32.2813 251.615 32.5334C252.798 33.1012 253.831 33.9388 254.631 34.9788C255.334 35.9454 255.888 37.0121 256.273 38.1432C257.191 40.8773 257.134 43.845 256.111 46.5417C256.06 46.7036 255.986 46.8582 255.919 47.0152C255.853 47.1722 255.851 47.2324 255.782 47.3279C255.821 47.2055 255.812 47.2331 255.754 47.4188C255.567 47.794 255.386 48.1233 255.178 48.4661C254.971 48.809 254.812 49.041 254.615 49.3221C254.516 49.4601 254.416 49.598 254.313 49.7347L254.103 50.003C253.979 50.1506 253.957 50.1785 254.032 50.0894C253.089 51.2088 251.957 52.1534 250.686 52.88C250.498 52.97 250.33 53.097 250.192 53.2533C250.054 53.4097 249.95 53.5922 249.884 53.79C249.818 53.9878 249.793 54.1968 249.809 54.4046C249.826 54.6124 249.885 54.8146 249.981 54.9994C250.078 55.1841 250.211 55.3474 250.372 55.4796C250.533 55.6119 250.719 55.7104 250.919 55.7692C251.119 55.828 251.329 55.8458 251.536 55.8218C251.743 55.7977 251.943 55.7322 252.124 55.6292L252.08 55.6719Z" fill="white"/>
<path d="M252.117 56.2731C252.45 56.2906 252.062 56.2557 252.054 56.2533C252.046 56.2508 252.257 56.3517 252.279 56.3238C252.27 56.3514 252.017 56.1636 252.157 56.2854C252.216 56.3302 252.289 56.3747 252.354 56.4167C252.538 56.522 252.188 56.226 252.318 56.4056C252.356 56.452 252.408 56.4942 252.447 56.5367L252.607 56.7302C252.855 57.0202 252.531 56.5718 252.639 56.7401C252.79 57.0174 252.953 57.2724 253.077 57.5712C253.149 57.7283 253.208 57.8857 253.276 58.0415C253.276 58.0415 253.195 57.8034 253.248 57.9674L253.351 58.2732C253.447 58.5778 253.526 58.8918 253.59 59.2153L253.668 59.6734L253.705 59.928C253.69 59.9754 253.735 60.3451 253.726 60.0821L253.733 60.2967C253.731 60.4407 253.725 60.5835 253.716 60.7251C253.695 60.7923 253.669 61.1789 253.697 60.9362C253.725 60.6935 253.697 60.9362 253.681 60.9876C253.665 61.0389 253.63 61.1495 253.606 61.2285C253.543 61.43 253.519 61.2013 253.664 61.1253C253.664 61.1253 253.571 61.2959 253.566 61.2986C253.561 61.3013 253.502 61.3783 253.486 61.4166C253.428 61.6022 253.693 61.1863 253.558 61.3263C253.558 61.3263 253.449 61.4225 253.452 61.4277L253.618 61.3147L253.533 61.362L253.445 61.4082L253.614 61.3527C253.614 61.3527 253.232 61.467 253.492 61.3968C253.753 61.3266 253.267 61.3695 253.256 61.3749C253.403 61.295 253.529 61.4603 253.335 61.3997C253.307 61.391 253.126 61.3341 253.122 61.3329C253.118 61.3316 253.455 61.5284 253.201 61.3576L253.059 61.2699C253.008 61.2538 252.807 61.0912 252.972 61.2427C253.137 61.3941 252.888 61.1513 252.872 61.1333C252.777 61.0342 252.698 60.927 252.609 60.8252C252.464 60.6628 252.742 61.0492 252.633 60.8587L252.509 60.6594C252.35 60.3913 252.211 60.1115 252.094 59.8226C252.078 59.7914 252.022 59.6917 252.028 59.6588C251.994 59.7694 252.104 59.8865 252.045 59.703C251.985 59.5195 251.952 59.4049 251.912 59.2538C251.831 58.9499 251.77 58.6409 251.729 58.329C251.71 58.2538 251.701 58.1765 251.701 58.0991C251.682 58.1623 251.717 58.3685 251.688 58.1425C251.659 57.9165 251.676 57.7919 251.675 57.6138C251.682 57.282 251.707 56.9508 251.748 56.6215C251.782 56.3328 251.74 56.6452 251.728 56.6847C251.739 56.5881 251.759 56.4928 251.787 56.3995C251.839 56.2336 251.868 56.0564 251.92 55.8905C252.023 55.5541 252.149 55.2255 252.298 54.9069C252.644 54.1479 252.017 53.1578 251.28 52.9618C250.379 52.7229 249.696 53.1857 249.335 53.9791C248.646 55.5478 248.414 57.2791 248.664 58.974C248.873 60.566 249.576 62.3782 250.802 63.4646C251.167 63.8136 251.598 64.0868 252.07 64.2687C252.541 64.4506 253.044 64.5376 253.549 64.5247C254.07 64.4994 254.577 64.3496 255.028 64.0878C255.479 63.8261 255.861 63.46 256.141 63.0203C257.072 61.5292 256.876 59.5808 256.422 57.9684C255.839 55.8988 254.629 53.3903 252.173 53.2676C251.97 53.2607 251.767 53.294 251.576 53.3657C251.385 53.4373 251.21 53.5459 251.061 53.6851C250.912 53.8243 250.792 53.9915 250.708 54.1771C250.623 54.3628 250.577 54.5632 250.57 54.767C250.563 54.9707 250.596 55.1739 250.668 55.3647C250.739 55.5556 250.848 55.7305 250.987 55.8795C251.126 56.0284 251.294 56.1484 251.479 56.2327C251.665 56.3171 251.865 56.364 252.069 56.3708L252.117 56.2731Z" fill="white"/>
<path d="M316.029 106.781C316.494 110.218 317.064 113.636 317.739 117.037C318.395 120.344 319.089 123.684 320.03 126.924C320.407 128.419 321.079 129.822 322.008 131.052C323.111 132.353 324.651 133.207 326.339 133.454C329.727 134.034 332.945 132.457 335.936 131.077C338.927 129.698 341.908 127.99 343.659 125.116C344.557 123.704 345.03 122.063 345.022 120.39C344.962 118.934 344.562 117.512 343.854 116.238C342.473 113.723 340.302 111.777 338.222 109.859C335.69 107.53 333.057 105.244 330.08 103.492C328.594 102.604 327.016 101.879 325.375 101.328C323.863 100.777 322.265 100.5 320.656 100.51C319.075 100.587 317.423 101.137 316.51 102.53C316.126 103.123 315.904 103.807 315.865 104.512C315.826 105.218 315.971 105.922 316.286 106.554C316.669 107.226 317.274 107.742 317.998 108.014C318.391 108.136 318.816 108.097 319.18 107.907C319.545 107.716 319.819 107.389 319.943 106.997C320.056 106.604 320.013 106.182 319.824 105.82C319.634 105.458 319.313 105.183 318.926 105.051C319.309 105.211 319.005 105.076 318.935 105.02C319.265 105.24 318.918 104.88 319.113 105.214C319.057 105.121 319.008 105.025 318.965 104.925C319.127 105.28 319.004 104.968 318.981 104.874C318.895 104.539 318.942 105.165 318.997 104.822C319.011 104.727 319.018 104.63 319.018 104.534C319.002 104.338 318.914 104.866 319.018 104.534C319.055 104.415 319.285 104.028 319.07 104.368C319.135 104.271 319.192 104.172 319.257 104.075C319.053 104.38 319.244 104.119 319.316 104.042C319.592 103.781 319.145 104.088 319.484 103.934C319.597 103.878 319.702 103.82 319.817 103.769C320.051 103.673 319.507 103.819 319.935 103.741C320.082 103.713 320.232 103.678 320.396 103.651C320.833 103.558 320.149 103.639 320.603 103.629C320.809 103.62 321.014 103.619 321.219 103.627C321.746 103.641 322.269 103.712 322.78 103.838C323.544 104.005 324.296 104.221 325.032 104.487C326.347 104.962 327.61 105.574 328.797 106.313C331.327 107.918 333.692 109.769 335.859 111.838C336.808 112.712 337.765 113.589 338.669 114.514C339.113 114.942 339.526 115.394 339.909 115.87C340.07 116.063 340.222 116.258 340.386 116.453L340.655 116.814C340.499 116.592 340.819 117.065 340.845 117.108C341.477 117.993 341.871 119.026 341.987 120.108C341.951 119.849 341.987 120.108 341.977 120.139C341.983 120.288 341.988 120.437 341.988 120.576C341.988 120.715 341.98 120.921 341.961 121.092C341.961 121.092 341.881 121.623 341.93 121.356C341.864 121.691 341.771 122.02 341.652 122.341C341.61 122.475 341.568 122.609 341.501 122.727C341.434 122.845 341.467 122.833 341.501 122.727C341.467 122.833 341.398 122.929 341.344 123.033C340.027 125.453 337.684 126.827 335.15 128.033C333.9 128.631 332.633 129.214 331.342 129.721C330.155 130.208 328.883 130.456 327.6 130.453C327.038 130.45 326.481 130.337 325.963 130.119C325.445 129.9 324.975 129.582 324.58 129.182L324.262 128.813C324.238 128.806 324.098 128.575 324.219 128.756C324.047 128.493 323.892 128.219 323.756 127.935C323.503 127.432 323.302 126.904 323.157 126.359C322.196 123.139 321.518 119.804 320.853 116.529C320.158 113.067 319.575 109.585 319.101 106.083C318.989 105.249 318.007 104.742 317.242 104.915C316.845 105.014 316.502 105.263 316.285 105.61C316.068 105.957 315.994 106.375 316.078 106.775L316.029 106.781Z" fill="white"/>
<path d="M319.986 101.045C319.036 100.834 318.122 100.487 317.273 100.013C316.441 99.5537 315.685 98.9701 315.03 98.2825C314.388 97.6647 313.872 96.9287 313.51 96.1149C313.531 96.1563 313.33 95.6769 313.395 95.8577C313.46 96.0385 313.345 95.6989 313.337 95.6703C313.271 95.4444 313.219 95.215 313.179 94.9832C313.189 94.9516 313.149 94.6919 313.163 94.922C313.156 94.8157 313.154 94.7109 313.158 94.6079C313.156 94.5032 313.166 94.4022 313.169 94.2948C313.19 93.8676 313.082 94.4888 313.191 94.1281C313.234 93.9495 313.289 93.774 313.355 93.6028C313.221 93.9207 313.499 93.392 313.544 93.3192C313.588 93.2464 313.786 93.0307 313.567 93.2441L313.763 93.0495C313.826 92.9868 313.899 92.9317 313.966 92.8703C314.193 92.6724 313.788 92.9272 314.084 92.7988C314.165 92.7633 314.244 92.7186 314.32 92.6819C314.045 92.7432 314.259 92.7105 314.32 92.6819L314.577 92.6235C314.316 92.6806 314.483 92.62 314.577 92.6235C314.671 92.627 314.754 92.6268 314.842 92.637C314.57 92.604 314.929 92.6642 315 92.6865C315.26 92.7681 314.858 92.5987 315.102 92.7186C315.259 92.8045 315.408 92.9034 315.548 93.0143C315.698 93.1432 315.84 93.2819 315.973 93.4293C316.137 93.6109 316.291 93.7979 316.442 94.0099C316.592 94.2219 316.724 94.3674 316.859 94.5482L317.051 94.8079C317.051 94.8079 317.33 95.2034 317.196 95.0094C317.758 95.811 318.257 96.656 318.686 97.5364C319.136 98.4073 319.436 99.3475 319.576 100.318C319.592 100.418 319.607 100.523 319.618 100.626C319.594 100.41 319.604 100.669 319.62 100.757C319.635 101.012 319.634 101.269 319.619 101.524C319.609 101.651 319.596 101.777 319.586 101.904C319.568 102.185 319.6 101.861 319.574 102.026C319.518 102.308 319.444 102.586 319.352 102.859C319.229 103.252 319.267 103.677 319.458 104.042C319.649 104.407 319.977 104.681 320.37 104.804C320.763 104.927 321.188 104.889 321.553 104.698C321.918 104.508 322.192 104.18 322.315 103.787C323.102 101.357 322.653 98.8308 321.643 96.5412C321.177 95.5044 320.617 94.5129 319.969 93.579C319.248 92.416 318.352 91.3716 317.312 90.4829C315.088 88.7496 311.985 89.6257 310.692 92.0529C309.398 94.4801 310.272 97.1741 311.79 99.2502C313.581 101.64 316.155 103.325 319.062 104.008C319.455 104.123 319.876 104.081 320.239 103.891C320.601 103.701 320.877 103.379 321.007 102.991C321.208 102.226 320.835 101.241 319.99 101.046L319.986 101.045Z" fill="white"/>
<path d="M317.79 106.226C322.305 111.833 326.085 117.995 329.037 124.561C329.455 125.486 329.855 126.422 330.238 127.362C330.43 127.829 330.619 128.305 330.8 128.778C330.995 129.189 331.143 129.621 331.239 130.065L331.271 129.256L331.311 129.129L332.271 128.458L332.196 128.478L333.005 128.51L332.942 128.491L333.624 128.93L333.773 129.12L333.963 129.899L333.962 129.834L333.714 130.624L333.729 130.576L332.37 131.287L332.429 131.305C332.633 131.312 332.836 131.279 333.027 131.207C333.218 131.136 333.393 131.027 333.542 130.888C333.691 130.749 333.811 130.581 333.895 130.396C333.979 130.21 334.026 130.01 334.033 129.806C334.04 129.602 334.007 129.399 333.935 129.208C333.863 129.017 333.755 128.843 333.616 128.694C333.476 128.545 333.309 128.425 333.124 128.34C332.938 128.256 332.738 128.209 332.534 128.202C332.096 128.191 331.672 128.354 331.354 128.656C331.036 128.957 330.85 129.372 330.838 129.809C330.835 130.048 330.881 130.284 330.974 130.504C331.067 130.724 331.204 130.922 331.377 131.086C331.55 131.25 331.755 131.377 331.979 131.458C332.203 131.539 332.442 131.573 332.68 131.557C333.113 131.507 333.513 131.301 333.807 130.978C334.1 130.656 334.266 130.238 334.275 129.802C334.331 129.099 333.899 128.344 333.633 127.696C332.856 125.663 331.999 123.66 331.061 121.686C329.196 117.739 327.03 113.941 324.582 110.327C323.154 108.211 321.638 106.158 320.035 104.166C319.901 104.006 319.736 103.874 319.549 103.779C319.363 103.684 319.159 103.628 318.95 103.613C318.741 103.599 318.532 103.627 318.334 103.696C318.136 103.765 317.954 103.873 317.8 104.014C317.645 104.155 317.52 104.326 317.433 104.516C317.346 104.707 317.298 104.913 317.293 105.122C317.287 105.331 317.324 105.54 317.402 105.734C317.479 105.929 317.595 106.106 317.742 106.255L317.79 106.226Z" fill="white"/>
<path d="M320.658 104.174C323.513 107.051 326.441 109.889 329.149 112.906C331.603 115.599 333.671 118.62 335.294 121.883C336.181 123.674 336.92 125.534 337.503 127.446C337.605 127.842 337.855 128.185 338.202 128.402C338.548 128.62 338.965 128.696 339.366 128.615C339.765 128.519 340.11 128.27 340.328 127.922C340.546 127.574 340.618 127.155 340.53 126.755C339.43 123.11 337.825 119.636 335.764 116.435C333.567 113.049 330.866 110.095 328.041 107.233C326.349 105.518 324.646 103.81 322.951 102.103C322.669 101.806 322.283 101.629 321.874 101.609C321.465 101.589 321.064 101.728 320.755 101.997C320.454 102.276 320.275 102.663 320.256 103.073C320.237 103.483 320.38 103.884 320.653 104.19L320.658 104.174Z" fill="white"/>
<path d="M151.144 70.9977C155.293 69.1578 159.622 67.7517 164.061 66.8019C165.166 66.5696 166.277 66.3595 167.394 66.1716C167.934 66.0806 168.48 65.9999 169.025 65.9232C169.569 65.8465 170.223 65.7521 170.562 65.7367C171.075 65.7011 171.59 65.7171 172.1 65.7846C171.865 65.7457 172.203 65.8168 172.254 65.8329C172.389 65.8638 172.521 65.9051 172.649 65.9566C172.372 65.87 173.08 66.2564 172.911 66.1037C173.168 66.3167 173.333 66.6218 173.369 66.9541C173.469 67.4464 173.492 67.9511 173.438 68.4505C173.305 70.5777 172.295 72.751 171.322 74.6539C170.195 76.8534 168.934 78.982 167.547 81.0276C166.851 82.0457 166.13 83.0473 165.372 84.0246L165.156 84.2996C164.955 84.5533 165.07 84.394 165.115 84.3474C165.027 84.4421 164.934 84.5317 164.836 84.6157L164.778 84.6625C164.895 84.5779 164.872 84.5836 164.718 84.6741C164.69 84.6654 164.912 84.6221 164.877 84.6372C164.842 84.6522 164.641 84.6415 164.817 84.6618C164.681 84.6348 164.549 84.5933 164.422 84.5381C164.343 84.5134 164.264 84.4886 164.185 84.4639C164.288 84.496 164.288 84.496 164.185 84.4639C163.255 83.9504 162.365 83.3699 161.519 82.7269C161.113 82.4305 160.716 82.1197 160.326 81.8021C160.101 81.619 160.186 81.6934 159.928 81.4651C159.67 81.2367 159.506 81.0944 159.301 80.9044C158.438 80.1078 157.623 79.2601 156.86 78.366C156.462 77.8941 156.075 77.4128 155.707 76.9247C155.339 76.4365 155.202 76.2374 154.874 75.7355C154.212 74.7306 153.614 73.6857 153.082 72.6066C152.849 72.1513 152.64 71.6835 152.458 71.2054C152.374 70.9434 152.313 70.6747 152.276 70.4023C152.307 70.6204 152.269 70.2872 152.268 70.2349C152.267 70.1825 152.343 69.6902 152.289 69.9164C152.404 69.5235 152.363 69.1013 152.173 68.7385C151.983 68.3757 151.66 68.1006 151.272 67.9712C150.512 67.7678 149.527 68.1405 149.327 68.9886C148.734 71.5312 150.244 74.0775 151.512 76.1791C154.001 80.3424 157.426 83.8673 161.517 86.4736C162.661 87.1963 163.925 87.9392 165.339 87.7052C166.752 87.4713 167.637 86.1957 168.462 85.1007C170.104 82.924 171.595 80.6376 172.926 78.2575C174.253 75.8755 175.63 73.3486 176.23 70.6696C176.794 68.1484 176.894 64.7402 174.249 63.3261C173.033 62.7404 171.672 62.5223 170.334 62.6985C168.997 62.8132 167.666 63.0168 166.347 63.2412C160.61 64.2296 155.019 65.932 149.704 68.3087C149.343 68.5028 149.072 68.8305 148.95 69.2218C148.827 69.6131 148.863 70.0368 149.049 70.4022C149.246 70.7616 149.574 71.0307 149.965 71.1532C150.356 71.2757 150.78 71.2419 151.146 71.0591L151.144 70.9977Z" fill="white"/>
<path d="M150.451 68.6128C149.97 67.8464 149.29 67.225 148.483 66.815C147.676 66.405 146.774 66.2217 145.871 66.2848C144.915 66.3369 143.987 66.6272 143.171 67.1293C142.355 67.6314 141.678 68.3294 141.201 69.1598C139.06 72.8527 140.582 76.9553 142.399 80.4176C144.298 84.0486 146.428 87.6478 149.15 90.7165C150.572 92.3244 152.281 93.6534 154.37 94.2555C156.329 94.8225 158.389 94.9538 160.404 94.6403C161.45 94.4927 162.457 94.1383 163.365 93.5976C164.273 93.0569 165.065 92.3407 165.693 91.4909C166.321 90.6306 166.715 89.622 166.837 88.5638C166.958 87.5056 166.803 86.4338 166.387 85.4535C166.226 85.1511 165.971 84.9097 165.661 84.7661C165.35 84.6226 165.001 84.5849 164.666 84.6588L163.907 84.8547C163.701 84.8927 163.505 84.9721 163.33 85.0879C163.156 85.2037 163.007 85.3536 162.892 85.5286C162.777 85.7036 162.698 85.9 162.661 86.1061C162.624 86.3121 162.629 86.5236 162.676 86.7277C162.723 86.9317 162.81 87.1242 162.933 87.2936C163.057 87.4629 163.213 87.6056 163.392 87.7131C163.572 87.8206 163.772 87.8906 163.979 87.9189C164.186 87.9472 164.398 87.9333 164.599 87.8779L165.359 87.6821L163.639 86.8874C163.658 86.9368 163.735 87.1606 163.659 86.9198L163.718 87.1203C163.76 87.2735 163.794 87.4289 163.819 87.5858C163.786 87.3325 163.798 87.653 163.812 87.7483C163.808 87.9382 163.793 88.1277 163.768 88.316C163.807 88.0246 163.73 88.4384 163.7 88.5332C163.671 88.628 163.615 88.8057 163.576 88.9282C163.563 88.9716 163.445 89.2513 163.529 89.0783C163.614 88.9053 163.511 89.1375 163.505 89.1573C163.414 89.3294 163.314 89.4964 163.205 89.6577C163.123 89.7796 163.038 89.9003 162.947 90.0106C163.107 89.8048 162.824 90.1411 162.768 90.1932C162.647 90.3158 162.521 90.4281 162.391 90.5392L162.219 90.6719C162.011 90.8236 162.523 90.5066 162.095 90.7501C161.794 90.9253 161.482 91.0827 161.162 91.2214C160.999 91.2872 161.122 91.2391 161.162 91.2214C161.064 91.2598 160.958 91.2918 160.857 91.3251C160.68 91.3781 160.496 91.4246 160.313 91.4672C159.648 91.6326 158.962 91.6998 158.277 91.6667C157.544 91.6566 156.812 91.5814 156.092 91.4422C155.297 91.294 154.531 91.0161 153.825 90.6195C153.192 90.2459 152.613 89.7859 152.106 89.2527C149.703 86.817 147.924 83.896 146.264 80.9166C145.432 79.4922 144.684 78.021 144.022 76.5103C143.438 75.2081 143.2 73.777 143.332 72.3559C143.355 72.1722 143.339 72.3322 143.332 72.3559C143.364 72.2532 143.396 72.1505 143.401 72.0391C143.452 71.8328 143.516 71.6297 143.591 71.4308C143.624 71.3281 143.656 71.2254 143.687 71.1267C143.718 71.0279 143.787 70.9154 143.705 71.0674C143.799 70.8801 143.903 70.6985 144.019 70.5237L144.157 70.3326C144.17 70.2892 144.401 70.0493 144.246 70.2132C144.373 70.0806 144.507 69.9545 144.646 69.8354C144.681 69.8072 144.946 69.6126 144.782 69.7216C144.617 69.8307 144.876 69.6688 144.902 69.6553L145.084 69.5603C145.084 69.5603 145.447 69.4097 145.272 69.4718C145.096 69.5339 145.324 69.4577 145.342 69.4548L145.672 69.3715C145.769 69.354 146.162 69.3168 145.875 69.3312C146.056 69.3222 146.236 69.3237 146.416 69.3357L146.685 69.3635C146.511 69.3091 146.542 69.3491 146.685 69.3635C146.859 69.4179 147.025 69.4699 147.191 69.5219C147.163 69.5132 146.964 69.3859 147.108 69.4959C147.193 69.5572 147.297 69.5985 147.387 69.6571C147.477 69.7156 147.493 69.7468 147.546 69.772C147.444 69.6272 147.697 69.8452 147.546 69.772C147.599 69.8411 147.659 69.9049 147.725 69.9625C147.88 70.1324 147.548 69.6685 147.769 70.0154C147.967 70.3727 148.295 70.6402 148.685 70.7623C149.075 70.8843 149.496 70.8517 149.863 70.671C150.225 70.4785 150.498 70.1508 150.62 69.7589C150.743 69.367 150.707 68.9425 150.518 68.5775L150.451 68.6128Z" fill="white"/>
<path d="M175.373 69.6564C175.598 69.905 175.819 70.1562 176.027 70.4208C176.134 70.5628 176.245 70.7061 176.346 70.8548C176.243 70.7009 176.323 70.8474 176.346 70.8548L176.554 71.1757C176.921 71.7655 177.239 72.3845 177.505 73.0265C177.53 73.0863 177.686 73.5168 177.618 73.3046C177.677 73.475 177.736 73.6455 177.787 73.8173C177.895 74.1636 178.001 74.5177 178.066 74.8635C178.131 75.2092 178.199 75.5209 178.243 75.8513L178.285 76.1595L178.295 76.2667C178.284 76.1202 178.306 76.3699 178.305 76.3738L178.327 76.7583C178.354 77.453 178.324 78.1488 178.24 78.8388C178.21 78.9336 178.211 79.0423 178.195 79.146C178.195 79.146 178.154 79.402 178.166 79.2408C178.177 79.0795 178.139 79.3276 178.136 79.3355C178.105 79.4343 178.095 79.5353 178.072 79.6365C177.991 79.9949 177.892 80.3489 177.775 80.6971C177.728 80.8472 177.678 81.0052 177.6 81.1454C177.69 80.9396 177.483 81.3387 177.441 81.4036C177.399 81.4685 177.355 81.5374 177.309 81.6011C177.433 81.4273 177.302 81.6247 177.263 81.6516C177.224 81.6785 177.147 81.7585 177.088 81.8093C176.921 81.9564 177.323 81.7226 176.99 81.874C176.892 81.9216 176.618 82.0091 176.859 81.9457C176.787 81.9667 176.395 82.0432 176.53 82.025C176.666 82.0068 176.316 82.0185 176.251 82.0157C176.187 82.013 176.069 82.002 175.977 81.9906C175.737 81.9675 176.202 82.0611 175.977 81.9906C175.752 81.9201 175.614 81.8768 175.428 81.8187L175.223 81.7543C174.949 81.6468 175.302 81.7791 175.136 81.7271C174.818 81.5536 174.515 81.3556 174.228 81.1349C173.923 80.8784 173.64 80.5968 173.382 80.2929C173.113 79.9958 172.879 79.6694 172.685 79.3198C172.486 78.962 172.158 78.6942 171.767 78.5719C171.377 78.4496 170.954 78.4822 170.587 78.6629C170.225 78.8575 169.954 79.1859 169.831 79.5779C169.709 79.9698 169.744 80.3942 169.93 80.7603C170.939 82.5632 172.523 83.9757 174.43 84.7719C176.29 85.4803 178.394 85.1461 179.698 83.5723C180.896 82.13 181.282 80.0087 181.388 78.1765C181.496 76.393 181.269 74.6049 180.718 72.9051C180.089 70.9299 179.043 69.1127 177.651 67.5765C177.515 67.4207 177.35 67.2935 177.164 67.2025C176.979 67.1114 176.777 67.0582 176.571 67.0462C176.364 67.0341 176.158 67.0632 175.963 67.132C175.768 67.2008 175.589 67.3078 175.436 67.4467C175.283 67.5856 175.16 67.7537 175.073 67.941C174.985 68.1283 174.936 68.3311 174.929 68.5376C174.921 68.744 174.955 68.9499 175.027 69.1432C175.1 69.3365 175.211 69.5133 175.353 69.6633L175.373 69.6564Z" fill="white"/>
<path d="M173.267 83.3044C171.457 84.2904 171.218 86.6185 172.049 88.3406C172.403 89.0241 172.889 89.6306 173.478 90.1251C174.068 90.6195 174.75 90.992 175.485 91.2209C176.214 91.4612 176.984 91.5522 177.749 91.4885C178.514 91.4248 179.259 91.2078 179.938 90.8503C180.613 90.4639 181.204 89.9455 181.674 89.326C182.145 88.7066 182.486 87.9987 182.677 87.2447C182.902 86.3837 182.94 85.4843 182.787 84.6074C182.706 84.1767 182.572 83.7575 182.389 83.3592C182.247 83.0049 182.01 82.6966 181.705 82.4684C181.364 82.2857 180.995 82.1615 180.614 82.1007C180.221 81.9777 179.795 82.0158 179.431 82.2066C179.066 82.3974 178.792 82.7252 178.669 83.1181C178.546 83.5109 178.584 83.9366 178.775 84.3014C178.965 84.6662 179.293 84.9402 179.686 85.0632L180.402 85.2571L179.487 84.4935C179.548 84.6037 179.599 84.7192 179.653 84.8361C179.567 84.5143 179.8 85.1554 179.653 84.8361C179.684 84.9586 179.72 85.0783 179.742 85.2023C179.764 85.3263 179.815 85.6893 179.78 85.4137C179.745 85.1381 179.784 85.5537 179.782 85.631C179.779 85.7083 179.776 85.8549 179.768 85.9651C179.76 86.0752 179.733 86.1883 179.728 86.2996C179.752 85.7952 179.751 86.2285 179.702 86.3826C179.654 86.5366 179.634 86.5999 179.601 86.7065C179.567 86.8132 179.393 87.175 179.538 86.908C179.682 86.6409 179.486 87.0044 179.457 87.056C179.388 87.1777 179.312 87.2969 179.23 87.4189C179.213 87.4742 178.945 87.7631 179.132 87.566C179.32 87.3688 179.035 87.6699 178.98 87.718C178.903 87.7974 178.82 87.8715 178.733 87.9398C178.691 87.9786 178.647 88.0082 178.604 88.0469C178.367 88.2371 178.919 87.8592 178.652 88.0054C178.385 88.1517 178.24 88.1975 178.054 88.3083C178.336 88.1408 178.315 88.2211 178.188 88.2548L177.988 88.3095C177.868 88.3411 177.745 88.3665 177.622 88.3856C177.571 88.3956 177.292 88.4296 177.575 88.3969C177.622 88.4117 177.859 88.3642 177.575 88.3969C177.528 88.3821 177.353 88.401 177.241 88.3964C177.13 88.3919 176.99 88.3827 176.864 88.3693C176.812 88.3532 176.753 88.3347 176.698 88.3435L176.941 88.3849L176.783 88.3354C176.564 88.2841 176.349 88.2167 176.139 88.1337C176.092 88.1189 176.029 88.0991 175.981 88.0843C176.317 88.1894 176.251 88.2207 176.135 88.1325C176.02 88.0443 175.89 88.0035 175.766 87.9259C175.643 87.8483 175.578 87.8062 175.491 87.7398L175.323 87.6093C175.167 87.4995 175.574 87.8482 175.44 87.7066C175.307 87.5651 175.118 87.3499 174.938 87.1503C174.758 86.9507 175.107 87.4417 175.021 87.2718C174.983 87.1992 174.935 87.132 174.893 87.0581C174.851 86.9843 174.796 86.785 174.723 86.7143C174.859 86.848 174.815 87.0032 174.772 86.8338C174.751 86.7491 174.722 86.662 174.702 86.5733L174.671 86.3945C174.607 86.088 174.673 86.7506 174.66 86.43C174.663 86.2834 174.689 86.131 174.681 86.0029C174.673 86.0305 174.581 86.4053 174.659 86.1565C174.694 86.0795 174.72 85.9986 174.735 85.9155C174.725 85.9471 174.532 86.2596 174.685 86.0735C174.725 86.0165 174.881 85.8356 174.7 86.0261C174.519 86.2166 174.7 86.0261 174.743 86.0005C174.929 85.8072 174.439 86.1828 174.7 86.0392C175.065 85.848 175.339 85.5198 175.462 85.1267C175.584 84.7336 175.546 84.3078 175.355 83.9431C175.163 83.5784 174.835 83.3045 174.442 83.1818C174.049 83.0591 173.623 83.0976 173.259 83.2888L173.267 83.3044Z" fill="white"/>
<path d="M176.099 64.1398C176.251 63.2023 176.481 62.279 176.785 61.3794C177.081 60.4765 177.462 59.6038 177.923 58.7731C178.402 57.9007 178.953 57.0692 179.569 56.2871C179.643 56.1889 179.721 56.0919 179.802 56.0001L179.863 55.9283C180.007 55.7738 180.149 55.6233 180.305 55.4856C180.379 55.4122 180.459 55.3443 180.543 55.2823C180.481 55.3279 180.338 55.3828 180.594 55.2551C180.687 55.2102 180.773 55.155 180.867 55.1193C180.641 55.2045 181.015 55.131 180.887 55.1254C180.758 55.1199 181.144 55.1495 180.986 55.1262C180.829 55.1029 181.164 55.1819 181.195 55.1918C181.3 55.2394 181.4 55.2968 181.493 55.3631C181.61 55.4651 181.721 55.5737 181.825 55.6883C181.889 55.7604 181.955 55.8417 182.013 55.9205C181.854 55.6929 182.093 56.0931 182.1 56.0996C182.146 56.1877 182.187 56.2786 182.232 56.3707C182.276 56.4629 182.329 56.64 182.256 56.4175C182.318 56.6079 182.369 56.802 182.408 56.9986C182.424 57.0729 182.434 57.1499 182.446 57.223C182.493 57.4762 182.44 57.0215 182.46 57.2751C182.475 57.5035 182.476 57.7326 182.462 57.9611C182.445 58.0164 182.385 58.5961 182.437 58.3046C182.395 58.5359 182.337 58.764 182.262 58.9872C182.137 59.4178 181.952 59.8285 181.711 60.2069C181.238 61.0013 180.656 61.7257 179.983 62.3592C179.634 62.6837 179.27 63.0032 178.881 63.3154C178.796 63.3798 178.707 63.4429 178.62 63.5113L178.49 63.6092C178.569 63.5515 178.567 63.5554 178.49 63.6092C178.291 63.7464 178.081 63.8759 177.874 63.9975C177.068 64.5038 176.175 64.8565 175.24 65.0378C174.839 65.13 174.49 65.378 174.272 65.7272C174.053 66.0764 173.982 66.4982 174.074 66.8998C174.166 67.3014 174.414 67.6499 174.763 67.8686C175.112 68.0874 175.534 68.1585 175.936 68.0663C178.184 67.5372 180.249 66.4109 181.91 64.8062C183.76 63.0562 185.355 60.8146 185.571 58.2016C185.768 55.8127 184.601 53.1267 182.231 52.2456C179.443 51.2034 177.398 53.8289 176.06 55.8693C174.463 58.3333 173.424 61.1167 173.016 64.0246C172.895 64.8541 173.745 65.6019 174.513 65.6298C175.431 65.6614 175.997 64.9625 176.118 64.1329L176.099 64.1398Z" fill="white"/>
<path d="M384.131 140.328C384.424 140.42 384.737 140.422 385.032 140.336C385.326 140.249 385.589 140.078 385.785 139.842C385.982 139.606 386.105 139.318 386.138 139.013C386.171 138.707 386.112 138.399 385.97 138.127C385.828 137.855 385.608 137.631 385.339 137.484C385.069 137.337 384.762 137.273 384.456 137.301C384.15 137.328 383.86 137.445 383.621 137.638C383.382 137.83 383.205 138.09 383.113 138.383C382.995 138.775 383.035 139.199 383.225 139.563C383.415 139.926 383.74 140.201 384.131 140.328Z" fill="white"/>
<path d="M218.429 60.9762C218.722 61.068 219.036 61.0708 219.331 60.9843C219.625 60.8978 219.887 60.726 220.084 60.4904C220.281 60.2549 220.404 59.9662 220.437 59.661C220.469 59.3557 220.411 59.0476 220.269 58.7756C220.126 58.5035 219.907 58.2798 219.637 58.1327C219.368 57.9855 219.061 57.9216 218.755 57.9489C218.449 57.9763 218.159 58.0937 217.919 58.2863C217.68 58.4789 217.504 58.7381 217.412 59.0311C217.292 59.4239 217.332 59.8481 217.522 60.212C217.713 60.5759 218.038 60.8504 218.429 60.9762Z" fill="white"/>
<path d="M330.585 79.4857L331.228 79.1493C331.583 78.9463 331.853 78.6234 331.991 78.2386C332.099 77.8445 332.061 77.4242 331.884 77.0558L331.657 76.7288C331.472 76.5245 331.236 76.374 330.973 76.2935L330.562 76.2211C330.291 76.2151 330.024 76.2809 329.787 76.412C329.57 76.522 329.357 76.6332 329.143 76.7484C328.96 76.8327 328.802 76.9643 328.686 77.1298C328.539 77.2761 328.434 77.4588 328.381 77.6591C328.31 77.8551 328.292 78.0662 328.328 78.2714C328.331 78.4722 328.386 78.669 328.488 78.8419L328.711 79.1677C328.897 79.3721 329.134 79.5229 329.398 79.6042L329.81 79.6766C330.082 79.6832 330.35 79.6177 330.589 79.4869L330.585 79.4857Z" fill="white"/>
<path d="M300.789 114.227L301.279 114.38C301.475 114.451 301.686 114.47 301.892 114.433C302.093 114.421 302.29 114.367 302.468 114.273C302.647 114.18 302.804 114.049 302.929 113.891C303.076 113.743 303.181 113.559 303.235 113.358L303.307 112.947C303.312 112.676 303.246 112.408 303.116 112.171L302.889 111.844C302.705 111.64 302.469 111.489 302.206 111.409L301.716 111.255C301.321 111.149 300.902 111.187 300.533 111.362C300.349 111.446 300.191 111.578 300.075 111.743C299.929 111.89 299.823 112.072 299.771 112.273L299.698 112.684C299.693 112.954 299.759 113.222 299.889 113.459L300.116 113.786C300.301 113.991 300.537 114.141 300.8 114.222L300.789 114.227Z" fill="white"/>
<path d="M234.92 51.6313L238.094 44.8182C238.35 44.265 238.61 43.7131 238.865 43.1599C238.955 42.971 238.973 42.955 239.088 42.7264C239.293 42.305 239.131 42.74 239.076 42.6664C238.993 42.7098 239.018 42.7002 239.153 42.6297C239.126 42.6522 239.096 42.6691 239.063 42.6796C239.029 42.6901 238.995 42.6939 238.96 42.6908C238.778 42.6339 239.039 42.7155 239.095 42.7027C239.334 42.7298 238.764 42.5687 239.162 42.7237C239.261 42.7547 239.737 42.9384 239.459 42.8165C239.895 43.0141 240.309 43.2736 240.728 43.5003C242.371 44.3881 244.212 45.3507 246.136 45.2894C247.237 45.2637 248.301 44.8814 249.166 44.1999C249.991 43.4727 250.64 42.5684 251.066 41.5548C252.295 39.0162 253.505 36.4675 254.726 33.9265C255.075 33.1987 255.046 32.2397 254.261 31.7814C253.608 31.4032 252.492 31.4615 252.116 32.246C251.021 34.5229 249.928 36.8016 248.835 39.082C248.61 39.5495 248.392 40.0235 248.148 40.4848C248.018 40.7369 247.873 40.9813 247.715 41.2167C247.619 41.3955 247.488 41.5535 247.331 41.6819C247.25 41.7598 247.165 41.833 247.075 41.9013C247.261 41.7643 247.024 41.9284 246.972 41.9555L246.671 42.0998C246.736 42.0724 246.943 42.0333 246.671 42.0998C246.502 42.1382 246.338 42.1778 246.166 42.2019C246.487 42.1594 246.194 42.2106 246.115 42.1858C246.036 42.1611 245.851 42.1815 245.72 42.1708C245.589 42.1601 245.497 42.1487 245.39 42.1323C245.449 42.1509 245.689 42.2002 245.39 42.1323C245.188 42.0692 244.987 42.0323 244.782 41.968C244.342 41.8258 243.911 41.6562 243.492 41.46C243.765 41.5846 243.196 41.3109 243.117 41.2731L242.525 40.9618C242.098 40.7327 241.68 40.4889 241.25 40.2676C240.173 39.7178 238.991 39.3519 237.815 39.8381C236.518 40.3775 236.087 41.8084 235.531 42.9745C234.334 45.5518 233.133 48.131 231.928 50.7119C231.578 51.4697 232.209 52.461 232.946 52.6571C233.851 52.8971 234.522 52.4306 234.891 51.6397L234.92 51.6313Z" fill="white"/>
<path d="M414.439 140.926C411.915 140.385 409.279 140.805 407.048 142.103C404.733 143.485 402.884 145.529 401.741 147.971C400.555 150.371 399.687 153.144 400.468 155.814C401.132 157.977 402.51 159.852 404.376 161.132C408.25 163.872 413.387 163.564 417.212 160.906C419.158 159.567 420.681 157.701 421.603 155.527C422.479 153.366 422.653 150.984 422.101 148.717C421.514 146.218 420.17 143.959 418.253 142.251C417.227 141.311 416.03 140.577 414.727 140.088C414.302 139.934 413.837 139.925 413.406 140.064C412.975 140.202 412.602 140.479 412.346 140.852C412.17 141.094 412.064 141.379 412.04 141.677C412.016 141.975 412.075 142.273 412.21 142.54C412.345 142.806 412.551 143.031 412.805 143.188C413.059 143.344 413.352 143.428 413.651 143.429C414.062 143.443 414.462 143.293 414.763 143.012C415.064 142.731 415.241 142.342 415.255 141.93C415.268 141.518 415.118 141.118 414.837 140.818C414.556 140.517 414.167 140.34 413.755 140.326L413.681 140.329L414.471 140.576L414.427 140.563L415.098 141.523L415.108 141.492L415.075 142.301L414.752 142.82C413.657 142.836 413.319 142.916 413.736 143.061C413.846 143.113 413.959 143.158 414.075 143.198C414.126 143.214 414.356 143.325 414.075 143.198L414.334 143.327C414.762 143.551 415.173 143.806 415.565 144.09C415.724 144.205 415.873 144.325 416.026 144.446C415.808 144.27 416.057 144.456 416.103 144.518L416.368 144.766C416.682 145.069 416.977 145.392 417.25 145.732C417.329 145.826 417.402 145.923 417.476 146.02C417.55 146.117 417.7 146.329 417.545 146.106C417.655 146.267 417.76 146.43 417.864 146.597C418.116 147.012 418.342 147.444 418.539 147.888C418.617 148.066 418.691 148.245 418.761 148.426C418.666 148.175 418.776 148.474 418.796 148.537C418.815 148.599 418.872 148.765 418.904 148.883C419.029 149.301 419.126 149.727 419.195 150.158C419.214 150.277 419.233 150.396 419.247 150.517C419.261 150.639 419.283 150.901 419.262 150.622C419.276 150.812 419.285 151.006 419.29 151.198C419.292 151.683 419.265 152.167 419.209 152.648C419.193 152.699 419.161 152.954 419.202 152.668C419.174 152.758 419.168 152.861 419.148 152.954C419.075 153.187 419.033 153.43 418.963 153.668C418.893 153.906 418.847 154.04 418.788 154.225L418.655 154.569C418.621 154.676 418.523 154.866 418.626 154.66C418.435 155.057 418.219 155.441 417.98 155.811C417.847 156.012 417.705 156.215 417.558 156.408C417.498 156.489 417.436 156.564 417.377 156.641C417.092 157.012 417.575 156.439 417.259 156.782C416.962 157.109 416.649 157.421 416.32 157.716C416.171 157.847 416.019 157.973 415.868 158.095C415.717 158.216 415.673 158.246 415.572 158.319L415.392 158.449C415.498 158.374 415.505 158.367 415.4 158.425C415.052 158.65 414.69 158.862 414.334 159.059C414.117 159.169 413.894 159.272 413.668 159.371L413.399 159.482C412.962 159.657 413.666 159.405 413.218 159.546C412.799 159.679 412.373 159.79 411.943 159.88C411.753 159.916 411.559 159.942 411.367 159.973C410.909 160.051 411.533 159.969 411.257 159.991L410.817 160.013C410.407 160.027 409.997 160.013 409.589 159.971C409.482 159.938 409.362 159.935 409.247 159.929C408.987 159.913 409.602 160.014 409.187 159.911C408.966 159.841 408.738 159.809 408.518 159.749C408.121 159.629 407.731 159.488 407.349 159.326C407.086 159.183 407.286 159.306 407.349 159.326L407.102 159.201C406.879 159.083 406.659 158.954 406.446 158.818C406.116 158.61 405.799 158.382 405.497 158.135C405.732 158.325 405.497 158.135 405.441 158.078L405.194 157.844C405.035 157.686 404.863 157.515 404.728 157.351C404.592 157.188 404.471 157.037 404.347 156.877C404.298 156.813 404.136 156.567 404.3 156.818C404.254 156.743 404.203 156.671 404.159 156.592C403.937 156.233 403.745 155.856 403.583 155.466C403.483 155.231 403.681 155.805 403.56 155.402L403.483 155.148C403.426 154.957 403.383 154.762 403.344 154.567C403.328 154.493 403.257 153.902 403.282 154.24C403.266 154.013 403.255 153.798 403.264 153.562C403.337 152.45 403.606 151.359 404.06 150.341C404.475 149.298 405.022 148.312 405.686 147.407C406.015 146.945 406.39 146.519 406.805 146.135C407.012 145.931 407.232 145.739 407.455 145.553L407.732 145.336C407.732 145.336 408.121 145.063 407.919 145.195C408.381 144.888 408.868 144.619 409.376 144.394C409.807 144.198 410.258 144.049 410.721 143.948C410.978 143.889 411.238 143.849 411.494 143.808C411.75 143.767 411.633 143.791 411.562 143.799C411.718 143.783 411.877 143.776 412.03 143.772C412.291 143.767 412.553 143.775 412.812 143.796L413.203 143.836C413.309 143.869 413.301 143.866 413.179 143.828L413.484 143.893C413.877 144.009 414.299 143.967 414.662 143.777C415.024 143.587 415.3 143.264 415.429 142.876C415.63 142.123 415.265 141.116 414.412 140.931L414.439 140.926Z" fill="white"/>
<path d="M414.279 141.409C413.878 140.68 413.489 139.943 413.159 139.18C413.143 139.136 412.932 138.619 412.992 138.785C412.928 138.604 412.868 138.421 412.812 138.239C412.686 137.825 412.59 137.402 412.527 136.974C412.517 136.897 412.503 136.815 412.497 136.739C412.516 136.953 412.512 136.691 412.501 136.658C412.502 136.446 412.498 136.223 412.51 136.019C412.52 135.918 412.578 135.498 412.555 135.599C412.506 135.753 412.574 135.536 412.579 135.52C412.614 135.409 412.649 135.299 412.683 135.188C412.697 135.145 412.807 134.876 412.725 135.054C412.643 135.232 412.74 135.006 412.746 134.987C412.841 134.821 412.935 134.66 413.044 134.507C413.102 134.434 413.156 134.356 413.218 134.284C413.21 134.308 413.065 134.453 413.203 134.332C413.341 134.21 413.507 134.041 413.668 133.9C413.668 133.9 413.863 133.749 413.728 133.845C413.594 133.942 413.819 133.791 413.851 133.771L414.277 133.549C414.342 133.521 414.526 133.419 414.277 133.549C414.363 133.524 414.445 133.497 414.533 133.477C414.598 133.469 414.661 133.456 414.724 133.437C414.853 133.369 414.509 133.418 414.771 133.426C414.857 133.427 415.254 133.447 415.078 133.427C414.902 133.406 415.307 133.499 415.374 133.52C415.131 133.465 415.255 133.443 415.374 133.52C415.494 133.596 415.541 133.624 415.626 133.685C415.571 133.668 415.447 133.495 415.687 133.739C415.762 133.819 415.837 133.899 415.907 133.981C416.095 134.183 416.02 134.117 415.972 134.049C416.035 134.139 416.091 134.238 416.145 134.329C416.199 134.42 416.322 134.662 416.416 134.848C416.443 134.913 416.604 135.34 416.523 135.102C416.595 135.315 416.657 135.531 416.706 135.75C416.744 135.918 416.782 136.09 416.806 136.262C416.822 136.363 416.835 136.458 416.848 136.557C416.856 136.53 416.83 136.352 416.855 136.534C416.882 136.932 416.877 137.333 416.84 137.731C416.811 137.825 416.822 137.929 416.808 138.028C416.794 138.128 416.739 138.414 416.776 138.131C416.716 138.321 416.687 138.537 416.641 138.713C416.594 138.89 416.517 139.108 416.462 139.286C416.432 139.381 416.402 139.476 416.371 139.574C416.361 139.606 416.196 139.953 416.277 139.792C416.358 139.631 416.216 139.903 416.196 139.94C416.14 140.049 416.076 140.159 416.012 140.264C415.911 140.437 415.801 140.603 415.682 140.764C415.626 140.846 415.563 140.922 415.503 141.003C415.443 141.084 415.367 141.16 415.491 141.042C415.324 141.228 415.147 141.404 414.961 141.57C414.656 141.848 414.474 142.235 414.455 142.646C414.435 143.058 414.58 143.46 414.857 143.765C415.134 144.07 415.521 144.252 415.933 144.272C416.345 144.291 416.747 144.146 417.052 143.869C420.091 141.091 421.036 136.008 418.671 132.496C418.359 131.984 417.948 131.539 417.462 131.188C416.977 130.836 416.426 130.584 415.842 130.448C414.794 130.249 413.709 130.402 412.757 130.882C411.811 131.364 411.007 132.084 410.425 132.971C409.843 133.858 409.502 134.882 409.437 135.941C409.265 138.416 410.398 140.766 411.555 142.876C411.649 143.057 411.778 143.217 411.935 143.348C412.091 143.479 412.272 143.578 412.466 143.639C412.661 143.7 412.865 143.723 413.068 143.705C413.271 143.687 413.469 143.629 413.65 143.535C413.831 143.44 413.991 143.311 414.122 143.155C414.253 142.999 414.352 142.818 414.413 142.623C414.474 142.429 414.496 142.224 414.478 142.021C414.46 141.818 414.402 141.62 414.308 141.44L414.279 141.409Z" fill="white"/>
<path d="M419.214 142.812C419.536 142.228 419.862 141.645 420.238 141.094C420.331 140.963 420.424 140.832 420.52 140.706C420.566 140.642 420.616 140.58 420.666 140.517C420.544 140.657 420.656 140.549 420.666 140.517C420.898 140.273 421.146 140.044 421.406 139.829C421.216 139.991 421.459 139.798 421.539 139.75C421.62 139.701 421.788 139.62 421.912 139.558C422.163 139.433 421.794 139.574 422.06 139.501C422.216 139.459 422.379 139.436 422.528 139.391C422.676 139.347 422.504 139.384 422.469 139.373L422.67 139.367C422.729 139.385 423.098 139.384 422.934 139.367C422.77 139.35 423.12 139.425 423.187 139.446L423.381 139.507C423.266 139.471 423.19 139.395 423.329 139.491C423.469 139.586 423.557 139.679 423.377 139.506L423.606 139.742C423.801 139.938 423.503 139.532 423.636 139.773C423.697 139.883 423.746 140.016 423.815 140.115C423.883 140.215 423.756 139.859 423.798 140.058C423.811 140.114 423.833 140.169 423.847 140.221C423.861 140.273 423.903 140.442 423.924 140.557C423.944 140.672 423.925 140.87 423.935 140.617C423.932 140.751 423.945 140.889 423.941 141.027C423.937 141.164 423.91 141.264 423.913 141.382C423.915 141.5 423.942 141.287 423.948 141.268C423.931 141.323 423.914 141.378 423.896 141.434C423.818 141.682 423.744 141.919 423.666 142.168C423.747 141.912 423.703 142.05 423.653 142.212C423.602 142.374 423.505 142.447 423.422 142.573C423.34 142.699 423.156 142.924 423.318 142.727C423.208 142.857 423.087 142.98 422.967 143.099C422.718 143.335 422.456 143.557 422.182 143.764L421.931 143.928C421.789 144.022 421.639 144.114 421.483 144.222C420.857 144.589 420.209 144.911 419.554 145.231C419.189 145.422 418.915 145.75 418.793 146.143C418.67 146.536 418.708 146.962 418.9 147.327C419.091 147.692 419.419 147.965 419.812 148.088C420.205 148.211 420.631 148.172 420.996 147.981C423.807 146.606 426.847 144.713 427.032 141.24C427.09 140.466 426.961 139.689 426.656 138.975C426.352 138.26 425.88 137.63 425.282 137.135C423.886 136.052 422.004 136.135 420.475 136.832C418.645 137.663 417.542 139.452 416.608 141.146C416.393 141.494 416.321 141.913 416.408 142.313C416.495 142.713 416.733 143.063 417.073 143.291C417.758 143.693 418.799 143.585 419.218 142.827L419.214 142.812Z" fill="white"/>
<path d="M413.91 144.43C411.669 149.367 409.208 154.235 406.58 158.998C406.364 159.347 406.292 159.766 406.378 160.166C406.465 160.567 406.703 160.919 407.043 161.147C407.73 161.545 408.769 161.441 409.188 160.683C411.953 155.676 414.515 150.568 416.872 145.358C417.214 144.598 416.597 143.606 415.855 143.413C415.462 143.301 415.041 143.344 414.679 143.533C414.317 143.722 414.042 144.044 413.91 144.43Z" fill="white"/>
<path d="M405.203 148.769C409.724 150.952 414.175 153.361 418.696 155.545C419.424 155.894 420.387 155.866 420.841 155.08C421.223 154.428 421.161 153.311 420.376 152.935C415.855 150.751 411.405 148.343 406.884 146.159C406.157 145.806 405.194 145.834 404.74 146.62C404.358 147.272 404.42 148.389 405.203 148.769Z" fill="white"/>
</svg>
