<svg width="86" height="176" viewBox="0 0 86 176" fill="none" xmlns="http://www.w3.org/2000/svg">
<g opacity="0.5">
<path d="M15.3816 -20.4771L17.1601 55.4913C17.1986 57.2119 14.6958 57.2119 14.6574 55.4913C14.0635 30.1685 13.4695 4.84569 12.8756 -20.4771C12.8372 -22.1977 15.34 -22.1977 15.3816 -20.4771Z" fill="white"/>
<path d="M19.7623 65.1064L19.522 60.9769C19.4643 59.9755 19.7559 57.6561 19.2015 56.8474L20.2815 57.515C19.1182 57.3877 17.8524 57.6905 16.6923 57.8213C15.3849 57.9658 14.0261 58.0209 12.7283 58.2583C12.3085 58.3375 12.5584 57.5701 12.4078 58.6644C12.3543 59.3154 12.3361 59.9692 12.3533 60.6224L12.2283 64.9309L9.89543 64.2426L10.046 63.871C10.687 62.288 12.8404 63.6542 12.2059 65.2268L12.0585 65.5985C11.5522 66.8511 9.69033 66.18 9.72558 64.9102L9.86014 60.2095C9.88898 59.1771 9.69674 57.8006 10.1294 56.8337C10.9722 54.9341 14.2953 55.3746 15.8976 55.1991C17.5672 55.0132 20.8519 53.7882 21.6659 56.0732C22.0312 57.0849 21.871 58.6265 21.9351 59.7002C22.0376 61.4965 22.1444 63.2917 22.2555 65.0857C22.3581 66.8063 19.8553 66.8063 19.7527 65.0857L19.7623 65.1064Z" fill="white"/>
<path d="M15.7468 64.0911C25.9438 64.7312 33.7693 75.7913 32.0549 86.5451C31.18 92.0511 28.3023 95.014 24.6363 98.5894C20.6017 102.54 18.868 108.008 18.0412 113.7C17.8586 114.983 15.798 114.983 15.6282 113.7C14.7821 107.784 12.7248 103.452 8.34413 99.7869C4.65885 96.6898 1.90932 93.2486 0.813347 88.2313C-1.63816 77.0611 4.42815 64.7174 15.7468 64.0774C17.3491 63.9879 17.3491 66.6755 15.7468 66.7684C1.49275 67.5702 -0.817776 87.9939 8.67742 96.6657C11.161 98.9335 13.7246 100.516 15.3269 103.686C16.769 106.528 17.5926 109.811 18.0476 112.998H15.6346C16.6889 105.603 19.3391 100.176 24.4568 95.2411C33.9071 86.1356 29.2316 67.6287 15.7531 66.7822C14.1476 66.6789 14.1349 63.9913 15.7468 64.0911Z" fill="white"/>
<path d="M15.2024 91.7338C17.3815 91.7338 24.4541 78.2924 21.1886 77.1224C17.9231 75.9524 15.7408 81.799 15.7408 81.799C15.7408 81.799 14.6544 75.9489 11.3889 77.1224C8.12347 78.2958 13.0265 91.7338 15.2024 91.7338Z" fill="white"/>
<path d="M18.5059 57.0606V64.6588C18.5059 65.7084 16.9805 65.7118 16.9805 64.6588V57.0606C16.9805 56.0076 18.5059 56.0041 18.5059 57.0606Z" fill="white"/>
<path d="M15.6476 57.4496L15.4778 64.659C15.4521 65.7085 13.93 65.7154 13.9556 64.659C14.0111 62.257 14.0678 59.8539 14.1255 57.4496C14.1479 56.4 15.6733 56.3966 15.6476 57.4496Z" fill="white"/>
<path d="M27.3441 81.9989C27.4292 83.146 27.2829 84.2993 26.9152 85.3802C26.5474 86.461 25.9668 87.4439 25.2131 88.2619C24.5273 89.019 23.4506 87.8593 24.1363 87.1057C24.7487 86.4392 25.2171 85.6362 25.5084 84.7537C25.7997 83.8712 25.9067 82.9307 25.822 81.9989C25.7418 80.9665 27.2672 80.9665 27.3441 81.9989Z" fill="white"/>
<path d="M22.64 91.9681C21.6594 91.9681 21.6594 90.3301 22.64 90.3301C23.6206 90.3301 23.6238 91.9681 22.64 91.9681Z" fill="white"/>
<path d="M59.025 124.87C69.2444 124.429 79.3997 130.665 83.5881 140.847C87.7541 150.944 84.3733 163.356 76.192 169.898C60.278 182.63 34.5836 170.194 35.7693 147.964C36.4711 134.753 47.5109 126.122 59.025 124.87C60.6272 124.694 60.6272 127.385 59.025 127.557C46.4085 128.934 35.4488 140.431 38.9097 154.743C41.608 165.882 51.4589 172.692 61.9251 172.348C72.9521 172.004 82.3479 163.198 82.8895 151.033C83.5048 137.224 71.1191 127.044 59.025 127.564C57.4163 127.626 57.4163 124.938 59.025 124.87Z" fill="white"/>
<path d="M69.4841 128.252C69.4841 126.253 70.2276 122.216 68.3529 121.084C66.7282 120.103 62.6071 120.585 60.6939 120.482C58.5885 120.365 55.8166 119.694 53.7817 120.2C51.1283 120.86 52.2851 124.88 52.4037 127.378C52.487 129.099 49.9842 129.099 49.9009 127.378C49.7695 124.649 49.1286 121.27 49.7022 118.575C49.759 118.35 49.8696 118.145 50.0231 117.981C50.1766 117.816 50.3676 117.697 50.5771 117.636C53.1407 116.948 56.5056 117.588 59.159 117.715C62.4533 117.873 65.863 117.898 69.1156 118.486C73.5187 119.284 71.9997 124.312 71.9997 128.252C71.9997 129.973 69.5002 129.973 69.497 128.252H69.4841Z" fill="white"/>
<path d="M60.4509 117.369C61.1495 116.171 61.9218 114.925 62.1622 113.514C62.3512 112.396 61.8801 109.874 60.265 110.235C59.0729 110.5 58.9832 112.351 59.1659 113.332C59.3352 114.047 59.5781 114.74 59.8901 115.397C60.0664 115.786 60.2458 116.171 60.4221 116.56C60.7682 117.191 60.7927 117.316 60.4958 116.935L58.7845 117.417L58.8839 117.279C58.948 117.819 59.0121 118.363 59.0794 118.907L58.9896 118.814C57.836 117.603 59.6049 115.717 60.7586 116.911L60.8483 117.007C61.2072 117.382 61.3706 118.17 61.0438 118.635L60.9476 118.776C60.7719 119.075 60.4972 119.291 60.1789 119.38C59.8606 119.47 59.5226 119.426 59.2332 119.258C58.2718 118.738 57.8808 117.142 57.4739 116.161C57.0028 115.032 56.583 113.834 56.5638 112.582C56.5317 110.393 57.6885 108.019 59.8228 107.589C61.9571 107.159 63.7933 108.855 64.4662 110.906C65.3731 113.659 63.9471 116.412 62.614 118.707C61.7616 120.173 59.5953 118.824 60.4509 117.351V117.369Z" fill="white"/>
<path d="M59.5503 109.212C59.076 88.9608 58.9959 68.6955 58.7748 48.4404C58.5825 31.1689 59.0119 13.7254 58.0249 -3.52204C57.9256 -5.24265 60.4316 -5.24265 60.5277 -3.52204C61.5147 13.7254 61.0885 31.1689 61.2776 48.4404C61.4987 68.6955 61.5788 88.9608 62.0531 109.212C62.0915 110.933 59.5887 110.933 59.5503 109.212Z" fill="white"/>
<path d="M67.9209 119.783C67.9232 122.222 67.6978 124.656 67.2479 127.047C67.0556 128.08 65.5848 127.643 65.777 126.614C66.1958 124.365 66.403 122.076 66.3955 119.783C66.3955 118.73 67.9177 118.73 67.9209 119.783Z" fill="white"/>
<path d="M64.617 120.069C64.3862 122.12 64.1544 124.171 63.9216 126.222C63.8062 127.254 62.2808 127.254 62.3994 126.222L63.0948 120.069C63.2102 119.037 64.7355 119.037 64.617 120.069Z" fill="white"/>
<path d="M60.0182 119.494C60.1454 121.738 60.0993 123.989 59.8804 126.225C59.7811 127.257 58.2557 127.275 58.3582 126.225C58.5761 123.989 58.621 121.738 58.4928 119.494C58.4351 118.441 59.9573 118.462 60.0182 119.494Z" fill="white"/>
<path d="M55.9806 119.494C55.8623 121.931 55.9546 124.375 56.2561 126.793C56.3875 127.825 54.8621 127.825 54.734 126.793C54.4324 124.375 54.3402 121.931 54.4584 119.494C54.5064 118.462 56.0318 118.438 55.9806 119.494Z" fill="white"/>
<path d="M78.605 138.129C66.5425 138.917 54.4383 138.528 42.4413 136.966C40.8614 136.759 40.839 134.068 42.4413 134.278C54.4383 135.84 66.5425 136.23 78.605 135.441C80.2073 135.338 80.2073 138.026 78.605 138.129Z" fill="white"/>
<path d="M83.6107 157.358C68.3174 159.717 52.7438 158.879 37.7466 154.891C36.186 154.475 36.8461 151.883 38.4132 152.296C52.9747 156.19 68.0993 157.029 82.957 154.767C84.5336 154.526 85.2002 157.118 83.6235 157.358H83.6107Z" fill="white"/>
<path d="M78.9028 166.649C66.4335 168.202 53.809 167.458 41.5726 164.45C40.0023 164.065 40.6689 161.474 42.2391 161.856C54.2597 164.793 66.659 165.505 78.9028 163.962C80.5051 163.762 80.4859 166.453 78.9028 166.649Z" fill="white"/>
<path d="M59.9958 142.292C60.1112 144.816 60.2276 147.348 60.3451 149.887C60.3931 150.92 58.871 150.92 58.8229 149.887C58.7033 147.364 58.5858 144.832 58.4704 142.292C58.4223 141.239 59.9477 141.243 59.9958 142.292Z" fill="white"/>
<path d="M63.4246 144.649L56.6629 149.106C55.8265 149.656 55.0606 148.242 55.8938 147.691L62.6555 143.218C63.4951 142.667 64.2578 144.081 63.4246 144.632V144.649Z" fill="white"/>
<path d="M56.2306 142.293C58.8221 144.071 61.3345 145.97 63.7678 147.988C64.5337 148.622 63.7678 150.053 62.9987 149.399C60.5632 147.383 58.0508 145.484 55.4615 143.704C54.6379 143.14 55.4006 141.722 56.2306 142.293Z" fill="white"/>
<path d="M76.9415 144.594C75.5009 146.301 73.7967 147.729 71.9039 148.813C71.0387 149.312 70.2696 147.901 71.1348 147.402C72.9125 146.383 74.5127 145.042 75.8648 143.438C76.525 142.653 77.6017 143.813 76.9415 144.594Z" fill="white"/>
<path d="M71.6059 142.471C73.7449 144.356 75.7089 146.46 77.4703 148.751C78.092 149.557 77.0184 150.72 76.3935 149.908C74.6313 147.617 72.6674 145.513 70.5291 143.627C69.7728 142.939 70.8496 141.807 71.6059 142.471Z" fill="white"/>
<path d="M74.971 142.579C75.0927 144.914 75.2134 147.249 75.3331 149.585C75.3876 150.638 73.8654 150.617 73.8109 149.585C73.6891 147.247 73.5684 144.912 73.4488 142.579C73.3943 141.525 74.9197 141.529 74.971 142.579Z" fill="white"/>
<path d="M47.6932 144.189C45.7192 145.106 43.7772 146.101 41.8672 147.172C40.9988 147.657 40.2265 146.246 41.0982 145.758C43.0081 144.691 44.9501 143.696 46.9241 142.774C47.8118 142.361 48.5905 143.769 47.6932 144.189Z" fill="white"/>
<path d="M42.1436 141.404C44.2126 143.3 46.0314 145.491 47.5497 147.915C48.1009 148.792 46.7806 149.611 46.2358 148.74C44.7826 146.433 43.0436 144.35 41.0668 142.546C40.317 141.858 41.3873 140.709 42.1436 141.39V141.404Z" fill="white"/>
<path d="M45.3891 140.826L44.8795 148.717C44.8122 149.749 43.2772 149.77 43.3573 148.717L43.8669 140.826C43.9342 139.794 45.4692 139.773 45.3891 140.826Z" fill="white"/>
<path d="M74.5224 162.619C72.9201 162.619 72.9201 159.932 74.5224 159.932C76.1247 159.932 76.1247 162.619 74.5224 162.619Z" fill="white"/>
<path d="M67.9912 162.619H67.7188C66.1165 162.619 66.1165 159.932 67.7188 159.932H67.9912C69.5934 159.932 69.5934 162.619 67.9912 162.619Z" fill="white"/>
<path d="M58.3038 160.985V160.693C58.3038 158.972 60.8066 158.972 60.8066 160.693V160.985C60.8066 162.706 58.3038 162.706 58.3038 160.985Z" fill="white"/>
<path d="M51.0519 161.057L50.7796 160.765C49.6387 159.54 51.4205 157.64 52.5517 158.865L52.8209 159.158C53.9617 160.383 52.18 162.283 51.0519 161.057Z" fill="white"/>
<path d="M43.3385 159.522V159.23C43.3385 157.509 45.8413 157.509 45.8413 159.23V159.522C45.8413 161.243 43.3385 161.243 43.3385 159.522Z" fill="white"/>
</g>
</svg>
