<svg width="248" height="306" viewBox="0 0 248 306" fill="none" xmlns="http://www.w3.org/2000/svg">
<path d="M194.365 29.4451C192.265 29.1576 190.248 30.1153 190.077 32.4175C190.011 33.3774 190.292 34.3293 190.87 35.101C191.448 35.8727 192.284 36.4132 193.228 36.6248C193.689 36.7211 194.164 36.7262 194.627 36.6396C195.09 36.5531 195.531 36.3767 195.926 36.1204C196.32 35.8641 196.66 35.5331 196.925 35.1462C197.191 34.7593 197.377 34.3241 197.474 33.8654C197.983 31.6729 196.49 29.8609 194.365 29.4451C193.344 29.2383 192.909 30.8021 193.933 31.0048C195.153 31.2426 196.141 32.0183 195.923 33.3628C195.742 34.4674 194.791 35.2554 193.658 35.0651C191.129 34.6515 190.98 30.5973 193.933 31.0048C194.956 31.1433 195.399 29.5879 194.365 29.4451Z" fill="#E5E5E5"/>
<path d="M199.017 14.5548C197.286 19.5026 195.588 24.4621 193.923 29.4333C193.594 30.424 195.17 30.8481 195.488 29.8635C197.142 24.8882 198.841 19.9287 200.583 14.9851C200.928 14.0005 199.358 13.5765 199.017 14.5548Z" fill="#E5E5E5"/>
<path d="M191.816 35.5748C189.775 40.677 187.968 45.8565 186.395 51.1131C186.095 52.1122 187.663 52.5383 187.962 51.5433C189.537 46.2812 191.344 41.1018 193.381 36.0051C193.768 35.0391 192.196 34.6192 191.816 35.5748Z" fill="#E5E5E5"/>
<path d="M195.661 35.6719C198.219 39.9246 201.033 44.02 204.087 47.9358C204.725 48.7632 205.869 47.6048 205.234 46.794C202.272 42.9808 199.543 38.9939 197.062 34.8548C196.528 33.9633 195.122 34.7762 195.661 35.6719Z" fill="#E5E5E5"/>
<path d="M197.532 32.8006C201.733 30.6163 205.917 28.4023 210.086 26.1587C211.005 25.6644 210.186 24.2682 209.254 24.7625C205.087 27.0075 200.903 29.2214 196.703 31.4043C195.775 31.8863 196.595 33.2804 197.522 32.8006H197.532Z" fill="#E5E5E5"/>
<path d="M181.579 19.2974C184.173 23.3524 187.082 27.1991 190.279 30.8022C190.972 31.5841 192.118 30.4361 191.427 29.6583C188.322 26.1568 185.499 22.4179 182.983 18.4763C182.423 17.6013 181.018 18.4121 181.579 19.3036V19.2974Z" fill="#E5E5E5"/>
<path d="M176.927 38.613C181.344 37.2836 185.789 36.057 190.262 34.9332C191.275 34.6788 190.847 33.1212 189.832 33.3756C185.357 34.4981 180.912 35.7247 176.497 37.0554C175.499 37.3553 175.923 38.917 176.927 38.613Z" fill="#E5E5E5"/>
<path d="M194.534 15.6508C195.144 17.4938 195.886 19.2911 196.755 21.0287C196.867 21.2097 197.045 21.3407 197.252 21.3946C197.458 21.4485 197.678 21.4212 197.865 21.3183C199.907 20.1724 201.934 19.0003 203.945 17.802C204.844 17.2704 204.027 15.8721 203.126 16.4057C201.113 17.5986 199.087 18.7707 197.046 19.9221L198.156 20.2117C197.352 18.6025 196.665 16.938 196.1 15.2309C195.775 14.2483 194.205 14.6682 194.534 15.6611V15.6508Z" fill="#E5E5E5"/>
<path d="M192.847 20.9175C193.286 22.846 193.978 24.709 194.904 26.4589C195.013 26.6427 195.191 26.7761 195.399 26.8303C195.607 26.8845 195.828 26.8551 196.014 26.7485L199.869 24.2539C200.743 23.6892 199.93 22.2909 199.05 22.8598L195.195 25.3543L196.307 25.6439C195.456 24.014 194.822 22.2805 194.421 20.4872C194.193 19.4737 192.625 19.9019 192.855 20.9154L192.847 20.9175Z" fill="#E5E5E5"/>
<path d="M179.742 22.8307C181.568 22.8075 183.393 22.8766 185.211 23.0375C185.658 23.0768 186.01 22.6238 186.024 22.2288C186.071 20.7498 186.263 19.279 186.598 17.8374C186.833 16.826 185.268 16.3895 185.033 17.4093C184.667 18.9917 184.458 20.6059 184.409 22.2288L185.222 21.4221C183.404 21.2601 181.578 21.191 179.753 21.2152C178.713 21.2276 178.713 22.8431 179.753 22.8307H179.742Z" fill="#E5E5E5"/>
<path d="M183.128 27.6994L188.547 27.8359C188.963 27.8359 189.402 27.4553 189.36 27.0272C189.175 25.2099 189.302 23.3746 189.734 21.5995C189.982 20.5901 188.416 20.1516 188.169 21.1714C187.693 23.0849 187.547 25.0649 187.736 27.0272L188.547 26.2184L183.128 26.084C182.088 26.0591 182.088 27.6746 183.128 27.6994Z" fill="#E5E5E5"/>
<path d="M206.022 23.1701C205.145 24.4653 204.362 25.8216 203.681 27.2284C203.622 27.336 203.587 27.4554 203.58 27.5778C203.573 27.7003 203.594 27.8227 203.64 27.9364C203.686 28.05 203.758 28.1519 203.848 28.2349C203.939 28.3178 204.047 28.3795 204.165 28.4157L210.127 30.4366C211.119 30.7738 211.545 29.2142 210.56 28.8791L204.598 26.8582L205.084 28.0455C205.764 26.6345 206.547 25.2747 207.426 23.9768C208.012 23.1122 206.594 22.3034 206.022 23.1618V23.1701Z" fill="#E5E5E5"/>
<path d="M201.165 25.2184C200.01 26.9741 199.066 28.8581 198.351 30.8322C198.304 31.004 198.315 31.1864 198.383 31.3513C198.451 31.5162 198.571 31.6543 198.726 31.7444C200.224 32.5633 201.82 33.1929 203.475 33.6184C204.488 33.8769 204.931 32.3194 203.905 32.0588C202.383 31.6731 200.916 31.0984 199.539 30.3482L199.913 31.2624C200.586 29.4229 201.475 27.6685 202.56 26.0354C203.136 25.1625 201.728 24.3517 201.158 25.2184H201.165Z" fill="#E5E5E5"/>
<path d="M197.49 42.5926C197.95 40.8556 198.222 39.075 198.303 37.2808L197.276 38.0606C199.082 38.548 200.931 38.8597 202.797 38.9914C203.837 39.0658 203.837 37.4504 202.797 37.3738C201.076 37.2491 199.372 36.9568 197.709 36.501C197.587 36.4698 197.461 36.4662 197.338 36.4905C197.215 36.5148 197.099 36.5664 197 36.6414C196.9 36.7163 196.818 36.8127 196.761 36.9235C196.703 37.0342 196.672 37.1563 196.669 37.2808C196.592 38.9301 196.338 40.5666 195.912 42.1623C195.646 43.1697 197.214 43.6102 197.48 42.5926H197.49Z" fill="#E5E5E5"/>
<path d="M201.327 48.4855C201.922 46.6165 202.229 44.6687 202.238 42.7083L201.21 43.4881C203.131 43.9055 205.075 44.2019 207.033 44.3754C208.073 44.4706 208.073 42.8531 207.033 42.76C205.218 42.5973 203.416 42.321 201.637 41.9326C201.516 41.9014 201.389 41.8979 201.266 41.9222C201.143 41.9465 201.028 41.998 200.928 42.073C200.828 42.148 200.746 42.2444 200.689 42.3551C200.632 42.4658 200.6 42.5879 200.597 42.7124C200.588 44.5275 200.3 46.3306 199.744 48.0594C199.428 49.0543 200.992 49.4783 201.31 48.4896L201.327 48.4855Z" fill="#E5E5E5"/>
<path d="M188 40.989C189.452 40.5372 190.853 39.9376 192.182 39.1998L191.071 38.9102L192.93 42.7452C193.384 43.6822 194.785 42.8631 194.332 41.9302C193.712 40.6519 193.093 39.3729 192.475 38.0932C192.282 37.6961 191.722 37.605 191.363 37.8036C190.158 38.4747 188.886 39.0195 187.568 39.4294C186.574 39.7397 186.998 41.291 188 40.989Z" fill="#E5E5E5"/>
<path d="M185.808 47.4039C187.012 46.8578 188.405 45.927 189.707 45.6747L188.917 45.4678C189.333 45.9498 189.591 46.8578 189.867 47.4432L190.803 49.4227C191.248 50.3639 192.647 49.5448 192.205 48.6077L190.895 45.836C190.639 45.2941 190.416 44.4067 189.805 44.1585C189.225 43.9248 188.532 44.4026 188.035 44.628L184.987 46.0098C184.037 46.44 184.862 47.8341 185.819 47.406L185.808 47.4039Z" fill="#E5E5E5"/>
<path d="M182.86 32.6644C183.981 33.7893 185.219 34.7926 186.553 35.6575C186.457 35.2893 186.36 34.9211 186.262 34.5529C185.549 35.6751 184.911 36.8421 184.351 38.0466C183.914 38.9836 185.313 39.8068 185.752 38.874C186.313 37.6688 186.952 36.5011 187.665 35.3783C187.769 35.1922 187.796 34.9737 187.742 34.768C187.688 34.5624 187.556 34.3853 187.374 34.2737C186.158 33.4803 185.03 32.5617 184.007 31.533C183.271 30.7925 182.124 31.9343 182.86 32.6748V32.6644Z" fill="#E5E5E5"/>
<path d="M177.47 35.4054C178.615 36.048 179.838 36.5436 181.109 36.8803C180.922 36.5493 180.733 36.2184 180.543 35.8874C180.126 37.2855 179.789 38.706 179.535 40.1422C179.356 41.1599 180.92 41.5901 181.103 40.5724C181.356 39.1355 181.692 37.7142 182.109 36.3156C182.161 36.1092 182.131 35.8909 182.025 35.7061C181.919 35.5212 181.746 35.3839 181.541 35.3227C180.406 35.024 179.313 34.5834 178.289 34.0113C177.376 33.5025 176.557 34.8966 177.47 35.4054Z" fill="#E5E5E5"/>
<path d="M39.5744 257.086C36.8178 257.028 34.0956 259.114 34.0665 261.998C34.0428 264.777 36.3769 266.925 39.1044 266.964C41.7237 267.001 44.1027 265.207 44.475 262.568C44.9028 259.531 42.3838 257.415 39.5744 257.086C38.2542 256.934 38.2701 258.988 39.5744 259.137C41.2986 259.34 42.8195 260.75 42.3812 262.576C42.0247 264.067 40.5936 264.955 39.1044 264.913C37.6152 264.871 36.2845 263.839 36.1551 262.287C35.9966 260.385 37.8159 259.109 39.5876 259.135C40.9025 259.166 40.9026 257.115 39.5744 257.086Z" fill="#E5E5E5"/>
<path d="M38.2126 266.494C38.4696 269.001 38.3808 271.532 37.9485 274.016C37.7215 275.308 39.7071 275.855 39.9368 274.562C40.4173 271.9 40.5283 269.186 40.2668 266.494C40.1375 265.18 38.0726 265.18 38.2046 266.494H38.2126Z" fill="#E5E5E5"/>
<path d="M38.6589 247.985V257.351C38.6589 258.664 40.7211 258.664 40.7211 257.351V247.985C40.7211 246.672 38.6589 246.672 38.6589 247.985Z" fill="#E5E5E5"/>
<path d="M44.5338 261.438C47.0024 259.651 49.5665 257.998 52.2148 256.487C53.3634 255.83 52.3257 254.058 51.1586 254.717C48.5158 256.232 45.9571 257.889 43.4935 259.678C42.4373 260.445 43.4591 262.229 44.5338 261.448V261.438Z" fill="#E5E5E5"/>
<path d="M42.7385 265.254L49.7303 270.77C50.7575 271.584 52.2282 270.14 51.1879 269.32L44.1987 263.805C43.1689 262.99 41.7008 264.432 42.7385 265.254Z" fill="#E5E5E5"/>
<path d="M34.6395 264.086L27.8193 267.815C26.6548 268.451 27.6952 270.224 28.8596 269.588L35.6798 265.859C36.8442 265.223 35.8039 263.45 34.6395 264.086Z" fill="#E5E5E5"/>
<path d="M28.3823 254.325C30.4436 256.437 32.5559 258.499 34.7193 260.511C35.6883 261.412 37.1511 259.962 36.1795 259.058C34.0143 257.048 31.902 254.987 29.8425 252.875C28.9157 251.925 27.4661 253.377 28.3849 254.325H28.3823Z" fill="#E5E5E5"/>
<path d="M36.306 254.533C36.8737 255.639 37.9906 257.251 39.2949 257.564C40.0026 257.735 40.4884 257.388 41.0086 256.96C41.8007 256.311 42.5664 255.647 43.3427 254.972C44.354 254.113 42.8886 252.668 41.8852 253.522L40.6389 254.572C40.5518 254.646 39.5828 255.552 39.7649 255.528C39.5537 255.557 38.9226 254.769 38.7959 254.614C38.5192 254.265 38.2811 253.887 38.0856 253.488C37.481 252.311 35.7093 253.348 36.306 254.522V254.533Z" fill="#E5E5E5"/>
<path d="M31.7702 264.966L34.4449 265.636L33.7241 264.372C33.4995 265.566 33.368 266.775 33.3307 267.989C33.2937 269.302 35.3585 269.302 35.3928 267.989C35.4185 266.959 35.5254 265.932 35.7123 264.919C35.7782 264.657 35.7404 264.38 35.6067 264.145C35.473 263.911 35.2537 263.736 34.9941 263.658L32.3167 262.988C31.0309 262.668 30.4684 264.645 31.7702 264.966Z" fill="#E5E5E5"/>
<path d="M37.9805 269.255L39.7417 267.293L38.4928 267.453L40.7556 269.145C41.8118 269.933 42.8468 268.157 41.7959 267.374L39.5331 265.683C39.3365 265.568 39.1071 265.521 38.881 265.55C38.6549 265.579 38.4449 265.682 38.2842 265.843C37.6945 266.495 37.1074 267.148 36.523 267.803C35.6411 268.785 37.096 270.24 37.9805 269.255Z" fill="#E5E5E5"/>
<path d="M46.3426 262.817C45.2845 262.97 44.2432 263.222 43.2321 263.568C42.7489 263.733 42.2948 264.287 42.5113 264.831C42.9373 265.903 43.3633 266.973 43.7893 268.043C44.2725 269.257 46.2686 268.729 45.7775 267.497C45.3515 266.429 44.9255 265.358 44.4995 264.285L43.7787 265.548C44.7903 265.2 45.8326 264.948 46.8918 264.794C47.4462 264.713 47.7393 264.006 47.6099 263.534C47.4542 262.943 46.8918 262.746 46.3426 262.817Z" fill="#E5E5E5"/>
<path d="M43.4218 257.18C43.3479 257.829 43.2713 258.478 43.1974 259.126C43.1314 259.707 42.9334 260.379 43.1974 260.934C43.7255 262.026 45.6424 261.785 46.63 261.853C47.9502 261.947 47.9502 259.893 46.63 259.802L45.5606 259.728C45.3493 259.712 44.8265 259.773 44.6496 259.652L45.1249 260.264C45.014 259.907 45.2411 259.234 45.286 258.848C45.352 258.291 45.4154 257.737 45.4814 257.18C45.5474 256.623 44.9533 256.159 44.449 256.153C43.839 256.153 43.4799 256.631 43.4166 257.18H43.4218Z" fill="#E5E5E5"/>
<path d="M47.657 253.519C47.393 254.798 46.548 256.75 47.2055 258.015C47.5593 258.696 48.2089 258.903 48.9218 259.003C49.8829 259.137 50.8466 259.245 51.8051 259.365C53.1253 259.531 53.1068 257.477 51.8051 257.314L50.1839 257.109C49.8829 257.073 49.5819 257.038 49.2835 256.996L48.9033 256.939C49.0221 257.12 49.0723 257.125 49.0485 256.957C49.1224 255.998 49.4419 255.006 49.6452 254.068C49.9093 252.778 47.9342 252.229 47.657 253.522V253.519Z" fill="#E5E5E5"/>
<path d="M36.1003 249.787C37.021 250.784 38.0694 251.658 39.2186 252.384C39.4168 252.495 39.6456 252.539 39.8711 252.51C40.0966 252.482 40.3067 252.381 40.4702 252.224C41.3503 251.348 42.2305 250.473 43.1106 249.597C44.0532 248.665 42.5825 247.213 41.6504 248.145C40.7703 249.021 39.8902 249.896 39.01 250.772L40.2589 250.611C39.2613 249.974 38.353 249.209 37.5578 248.334C36.66 247.36 35.2052 248.812 36.1003 249.787Z" fill="#E5E5E5"/>
<path d="M30.1275 252.225C30.2724 253.536 30.5583 254.827 30.9804 256.078C31.313 255.644 31.6431 255.211 31.9758 254.78L28.472 255.158C27.1676 255.303 27.1517 257.354 28.472 257.212L31.9758 256.831C32.5937 256.763 33.2089 256.225 32.9686 255.518C32.5905 254.447 32.3302 253.338 32.1923 252.211C32.0418 250.914 29.977 250.898 30.1275 252.211V252.225Z" fill="#E5E5E5"/>
<path d="M26.8586 267.741C27.8742 268.048 28.9266 268.217 29.9875 268.246L28.9947 266.948C28.7222 268.236 28.8417 269.576 29.3379 270.796C29.5545 271.321 30.0192 271.668 30.608 271.513C31.0938 271.384 31.5401 270.762 31.3262 270.252C30.9374 269.388 30.8178 268.427 30.9829 267.494C31.0204 267.342 31.0232 267.184 30.9911 267.03C30.959 266.877 30.8927 266.733 30.7973 266.608C30.7019 266.483 30.5796 266.381 30.4395 266.31C30.2994 266.238 30.1449 266.199 29.9875 266.194C29.112 266.167 28.2443 266.022 27.4078 265.764C26.1351 265.377 25.5912 267.358 26.8586 267.741Z" fill="#E5E5E5"/>
<path d="M36.4149 274.098L39.5122 272.086L38.2606 271.924L40.6634 274.23C41.6192 275.146 43.0794 273.704 42.1236 272.777L39.7208 270.474C39.5573 270.317 39.3472 270.216 39.1217 270.187C38.8962 270.158 38.6674 270.203 38.4692 270.314L35.3746 272.328C34.2683 273.048 35.3007 274.823 36.4149 274.098Z" fill="#E5E5E5"/>
<path d="M48.7558 271.177C48.7721 270.621 48.8241 270.066 48.9116 269.517C48.967 269.186 49.0541 268.529 49.2205 268.422C49.5611 268.201 50.2397 268.214 50.641 268.133L52.5236 267.757C53.8227 267.494 53.2735 265.519 51.9744 265.779L49.2363 266.326C48.6554 266.444 48.0587 266.562 47.6336 267.011C46.72 267.972 46.7411 269.955 46.691 271.177C46.6408 272.49 48.703 272.49 48.7558 271.177Z" fill="#E5E5E5"/>
<path d="M31.9336 261.343C32.7346 261.121 33.571 261.055 34.3971 261.149C34.9886 261.201 35.6064 261.149 36.0289 260.676C36.5068 260.151 36.4831 259.326 36.5728 258.654C36.6785 257.85 36.7867 257.044 36.8923 256.24C36.9663 255.686 36.3642 255.218 35.8599 255.213C35.2447 255.213 34.9014 255.694 34.8301 256.24C34.7509 256.844 34.6691 257.448 34.5899 258.049C34.5556 258.312 34.5239 258.554 34.4895 258.806L34.4288 259.258C34.8381 259.168 34.9279 259.124 34.6929 259.126C34.4051 258.924 33.5047 259.029 33.1641 259.05C32.559 259.088 31.9602 259.193 31.3791 259.365C30.1064 259.733 30.6477 261.729 31.9283 261.343H31.9336Z" fill="#E5E5E5"/>
<path d="M53.9288 32.0483C55.739 32.5189 57.165 36.1784 57.9015 37.7651C58.1954 38.3982 58.8803 39.4231 58.9244 40.1215C59.0397 41.9555 57.6587 44.0162 56.3441 45.0333C53.6121 47.1469 50.0399 48.8298 46.976 50.4545C45.4225 51.277 43.3697 52.505 41.5988 52.5751C38.9178 52.6794 37.8702 50.4585 36.7692 48.4499C35.4674 46.0794 33.337 43.1048 35.8128 41.0323C38.6728 38.636 42.3755 36.9934 45.7345 35.4264C48.3521 34.2064 51.4336 32.4305 54.3549 32.0892C55.3962 31.9684 55.1099 30.3676 54.0687 30.4884C49.2257 31.0555 43.8472 34.3584 39.6772 36.6567C37.686 37.7533 35.2026 38.975 33.7122 40.7569C32.0236 42.7853 33.3649 45.4005 34.3929 47.5002C35.7151 50.1991 36.9279 54.3425 40.4501 54.3896C45.4408 54.4582 50.7374 50.1866 54.8047 47.8134C57.7704 46.0792 62.1012 44.8944 60.9329 40.8213C60.2258 38.3646 58.8789 35.8604 57.6304 33.6454C56.8296 32.2223 56.1728 30.962 54.494 30.5252C53.4837 30.2599 52.9102 31.7845 53.9288 32.0483Z" fill="#E5E5E5"/>
<path d="M57.8025 34.1461C59.0363 32.4669 60.5119 30.9775 62.1819 29.7259C62.7002 29.3381 63.239 28.9781 63.796 28.6474C64.5586 28.3715 64.6414 28.2399 64.0442 28.2525C64.1352 29.023 63.0338 30.7572 62.7378 31.5032C62.4701 32.1701 63.2252 32.8146 63.8568 32.5189C64.3832 32.2441 64.9606 32.0795 65.5534 32.0353C66.1462 31.9912 66.7419 32.0684 67.3035 32.2622C67.1766 31.8618 67.0444 31.4432 66.9157 31.0325C66.2532 32.2302 65.3845 33.3029 64.349 34.2017C64.2346 34.309 64.153 34.4463 64.1134 34.5977C64.0738 34.7491 64.0779 34.9085 64.1252 35.0578C64.1726 35.207 64.2612 35.3399 64.3809 35.4413C64.5007 35.5427 64.6467 35.6085 64.8023 35.6312C65.4043 35.6812 68.3191 36.2777 67.785 37.1546C67.5284 37.5742 65.7201 37.78 65.2693 37.8745C63.6073 38.2106 61.9258 38.4431 60.2347 38.5707C59.1872 38.6567 59.4734 40.2575 60.5209 40.1715C62.3043 40.0395 64.0767 39.7881 65.8261 39.419C66.884 39.1895 68.5254 38.9415 69.3198 38.1179C71.5041 35.8538 66.4827 34.1392 64.9546 34.0099L65.4079 35.4395C66.5546 34.459 67.5197 33.2864 68.2597 31.9747C68.4996 31.5452 68.4163 30.9129 67.8698 30.7453C67.1016 30.4861 66.2895 30.3806 65.4802 30.4349C64.6709 30.4892 63.8804 30.7022 63.1541 31.0616L64.2749 32.0749C64.6487 31.146 67.2927 26.0433 64.0941 26.6768C62.8226 26.925 61.2381 28.3705 60.2867 29.1605C58.8573 30.3566 57.5772 31.7189 56.4739 33.2182C55.8441 34.0591 57.1869 34.9951 57.8136 34.1484L57.8025 34.1461Z" fill="#E5E5E5"/>
<path d="M33.2611 44.0031C31.3878 43.8563 29.5029 43.9937 27.6711 44.4106C26.8437 44.6098 25.1656 44.8665 24.6372 45.5965C23.1728 47.6191 27.4729 48.9728 28.6688 49.3131C28.7175 48.7928 28.766 48.2711 28.8141 47.748C27.3244 48.0116 25.148 49.4285 25.6504 51.2512C26.1621 53.1144 29.2807 51.9029 30.5395 51.7268L29.63 50.6465C29.0284 51.9539 27.3893 57.2553 30.0227 57.4555C31.197 57.5437 32.4379 56.138 33.2052 55.4123C34.5977 54.0953 35.8093 52.6011 36.8087 50.9686C37.3599 50.0803 36.0236 49.1453 35.467 50.0388C34.419 51.7642 33.1142 53.3218 31.5973 54.6585C30.7104 55.4286 30.2052 55.9917 30.319 54.2503C30.4068 53.1909 30.6927 52.1571 31.1621 51.2022C31.433 50.6129 30.8225 50.0401 30.2522 50.1198C29.4348 50.2327 28.5154 50.4525 27.6885 50.4761L26.8341 50.5956C27.5871 50.1706 28.3425 49.755 29.1004 49.3488C29.8628 49.2139 30.0434 48.0127 29.2457 47.7838C28.5602 47.5879 27.9212 47.3668 27.2561 47.1187C24.99 46.2741 26.7254 46.3139 27.9673 46.0075C29.6529 45.6207 31.3885 45.4948 33.1128 45.6342C34.1619 45.7003 34.3228 44.0796 33.263 44.0133L33.2611 44.0031Z" fill="#E5E5E5"/>
<path d="M37.9267 38.3643C37.3468 42.5173 37.0373 46.7032 37 50.896C36.9904 51.9359 38.6186 52.0898 38.6295 51.0454C38.6671 46.8529 38.9759 42.6671 39.5541 38.5141C39.7 37.4754 38.0671 37.3308 37.9267 38.3643Z" fill="#E5E5E5"/>
<path d="M43.0791 36.0096C42.8755 41.5998 42.7533 47.1896 42.7125 52.7791C42.7053 53.8207 44.3331 53.9725 44.3424 52.9305C44.3811 47.3372 44.5033 41.7474 44.709 36.1611C44.7458 35.1185 43.1193 34.9622 43.0791 36.0096Z" fill="#E5E5E5"/>
<path d="M49.7096 32.7165C49.5973 38.3257 49.608 43.9336 49.7417 49.5401C49.7675 50.5759 51.3953 50.7277 51.3695 49.6919C51.2288 44.0782 51.2181 38.4703 51.3374 32.8683C51.3635 31.8255 49.7312 31.6723 49.7096 32.7165Z" fill="#E5E5E5"/>
<path d="M55.9244 34.4727C55.9964 38.3154 55.9265 42.1529 55.7147 45.9852C55.6549 47.0297 57.2838 47.1877 57.3425 46.137C57.5552 42.3017 57.6251 38.4642 57.5522 34.6245C57.5326 33.5876 55.9048 33.4358 55.9244 34.4727Z" fill="#E5E5E5"/>
<path d="M220.512 259.899C221.235 261.616 219.177 264.964 218.356 266.51C218.029 267.126 217.626 268.29 217.095 268.749C215.7 269.953 213.215 270.113 211.605 269.691C208.258 268.814 204.745 267.012 201.587 265.577C199.987 264.848 197.76 263.971 196.628 262.614C194.918 260.558 196.056 258.381 196.992 256.292C198.096 253.824 199.179 250.334 202.337 251.033C205.988 251.839 209.548 253.768 212.839 255.472C215.402 256.801 218.692 258.159 220.738 260.261C221.466 261.01 222.571 259.812 221.843 259.063C218.45 255.579 212.546 253.332 208.179 251.431C206.094 250.523 203.61 249.302 201.282 249.205C198.636 249.102 197.362 251.75 196.308 253.837C194.955 256.52 192.381 259.994 194.482 262.807C197.456 266.794 204.084 268.387 208.449 270.162C211.635 271.453 215.211 274.157 217.755 270.761C219.289 268.711 220.471 266.126 221.483 263.794C222.134 262.298 222.742 261.013 222.072 259.421C221.67 258.461 220.104 258.934 220.512 259.899Z" fill="#E5E5E5"/>
<path d="M221.187 264.235C223.278 264.191 225.364 264.453 227.377 265.013C228.002 265.188 228.616 265.395 229.219 265.635C229.902 266.07 230.057 266.055 229.685 265.591C229.124 266.131 227.07 266.313 226.295 266.532C225.6 266.725 225.543 267.713 226.163 268.033C226.702 268.282 227.184 268.639 227.579 269.08C227.974 269.522 228.274 270.04 228.46 270.602C228.703 270.258 228.957 269.9 229.207 269.548C227.848 269.752 226.464 269.716 225.117 269.443C224.962 269.418 224.803 269.437 224.658 269.498C224.513 269.558 224.388 269.658 224.298 269.786C224.207 269.914 224.155 270.065 224.146 270.221C224.138 270.377 224.174 270.533 224.25 270.67C224.576 271.176 225.869 273.842 224.844 273.952C224.353 274.004 223.091 272.7 222.742 272.401C221.464 271.291 220.258 270.103 219.129 268.844C218.425 268.068 217.32 269.266 218.024 270.042C219.212 271.371 220.489 272.62 221.846 273.778C222.672 274.475 223.866 275.622 225.006 275.75C228.141 276.102 226.462 271.092 225.638 269.806L224.771 271.032C226.251 271.343 227.773 271.394 229.27 271.183C229.759 271.112 230.214 270.662 230.016 270.128C229.756 269.364 229.348 268.658 228.813 268.051C228.278 267.444 227.628 266.949 226.9 266.593L226.771 268.094C227.74 267.825 233.422 266.818 230.974 264.674C230.004 263.82 227.887 263.444 226.678 263.172C224.855 262.768 222.99 262.583 221.122 262.621C220.068 262.634 220.136 264.264 221.192 264.245L221.187 264.235Z" fill="#E5E5E5"/>
<path d="M198.415 250.82C197.395 249.25 196.141 247.843 194.696 246.648C194.034 246.115 192.811 244.945 191.907 244.97C189.402 245.04 190.931 249.261 191.385 250.413C191.83 250.136 192.276 249.857 192.724 249.578C191.609 248.56 189.156 247.7 188.004 249.204C186.827 250.739 189.688 252.469 190.592 253.357L190.903 251.982C189.494 252.301 184.264 254.223 185.702 256.426C186.345 257.408 188.221 257.536 189.266 257.702C191.164 258.003 193.093 258.054 195.004 257.853C196.048 257.749 195.984 256.125 194.932 256.227C192.918 256.447 190.881 256.361 188.893 255.973C187.739 255.74 186.982 255.682 188.443 254.715C189.342 254.141 190.342 253.74 191.39 253.531C192.025 253.387 192.112 252.557 191.702 252.155C191.115 251.577 190.382 250.984 189.861 250.344L189.247 249.741C190.043 250.079 190.834 250.424 191.618 250.776C192.189 251.297 193.258 250.71 192.957 249.941C192.697 249.28 192.486 248.641 192.281 247.964C191.58 245.66 192.601 247.056 193.6 247.852C194.932 248.95 196.086 250.245 197.022 251.693C197.606 252.562 198.998 251.705 198.408 250.827L198.415 250.82Z" fill="#E5E5E5"/>
<path d="M205.752 251.085C202.082 253.147 198.55 255.444 195.178 257.96C194.342 258.583 195.207 259.964 196.048 259.338C199.42 256.823 202.951 254.526 206.62 252.462C207.538 251.947 206.663 250.568 205.752 251.085Z" fill="#E5E5E5"/>
<path d="M210.761 253.728C206.171 256.96 201.632 260.257 197.142 263.618C196.305 264.244 197.172 265.623 198.01 264.998C202.502 261.633 207.041 258.336 211.629 255.108C212.484 254.504 211.622 253.123 210.761 253.728Z" fill="#E5E5E5"/>
<path d="M217.417 256.97C212.867 260.286 208.394 263.699 203.996 267.208C203.184 267.858 204.051 269.236 204.863 268.587C209.262 265.068 213.736 261.655 218.284 258.349C219.132 257.736 218.264 256.353 217.417 256.97Z" fill="#E5E5E5"/>
<path d="M219.786 262.949C216.76 265.339 213.652 267.613 210.462 269.772C209.591 270.359 210.454 271.742 211.329 271.151C214.522 268.991 217.63 266.716 220.653 264.328C221.47 263.683 220.603 262.304 219.786 262.949Z" fill="#E5E5E5"/>
<path d="M73.6785 164.203C72.7596 175.247 70.422 188.073 75.0085 198.616C78.5391 206.741 85.7756 215.109 93.2607 219.855C97.2051 222.357 102.144 224.988 106.756 226.097C110.675 227.038 114.754 225.129 118.376 223.779C127.194 220.496 135.908 215.699 142.654 209.084C151.619 200.275 153.195 184.793 154.35 172.964C154.749 168.904 153.495 160.666 159.604 160.509C161.483 160.459 163.412 161.812 165.242 162.264C166.654 162.595 168.114 162.685 169.557 162.529C173.229 162.173 176.625 160.406 179.491 158.171C183.227 155.258 185.811 151.354 188.862 147.82C190.352 146.08 193.147 143.906 193.586 141.533C194.482 136.695 183.453 134.307 180.572 133.582C176.973 132.676 173.212 132.332 169.554 133.097C164.498 134.158 160.853 137.367 156.695 140.167C153.784 142.126 150.218 144.507 146.629 144.964C144.598 145.216 143.037 144.151 141.24 143.313C127.044 136.695 109.005 134.494 94.5019 141.455C92.0348 142.639 89.7885 144.141 87.5091 145.638C85.8619 146.724 84.1917 148.087 82.1205 147.681C76.9071 146.653 71.7977 140.126 68.9422 136.13C66.9319 133.314 65.7161 131.138 62.2185 130.176C58.7767 129.229 55.0151 129.606 51.558 130.176C49.0198 130.593 45.342 130.918 43.116 132.259C39.8468 134.226 41.6514 140.576 42.3063 143.603C43.5475 149.345 46.0298 157.275 51.7865 160.103C55.1851 161.772 59.4849 161.416 63.1246 161.098C66.6096 160.795 74.1455 158.729 73.6861 164.218C73.582 165.481 75.5567 165.481 75.6608 164.218C76.1177 158.772 71.5515 158.381 67.1578 158.739C59.9392 159.33 52.5784 160.845 48.2152 153.781C45.2379 148.961 43.3926 142.449 43.3926 136.773C43.3926 134.549 43.5805 134.127 45.7024 133.522C48.7744 132.591 51.9325 131.97 55.1293 131.668C58.5381 131.416 62.6576 131.393 65.1425 134.09C68.3457 137.569 70.493 141.664 74.1227 144.888C77.3233 147.721 81.4657 151.026 85.7984 148.966C90.324 146.817 93.9511 143.5 98.7762 141.768C107.881 138.485 118.445 138.584 127.813 140.672C133.283 141.889 138.019 144.275 143.144 146.36C146.698 147.804 150.276 146.108 153.495 144.403C157.467 142.3 160.731 139.132 164.663 137.013C169.516 134.4 174.762 134.143 180.049 135.473C182.685 136.156 185.254 137.069 187.728 138.203C188.697 138.639 191.121 139.384 191.484 140.52C192.149 142.611 187.169 146.729 185.9 148.292C180.605 154.783 173.364 163.405 163.917 159.722C159.513 158.005 154.018 158.368 152.987 164.014C152.416 167.137 152.624 170.578 152.299 173.739C151.655 180.011 150.675 186.29 149 192.375C146.563 201.212 142.781 207.135 135.293 212.604C131.029 215.711 126.425 218.329 121.569 220.408C117.204 222.287 111.305 225.094 106.571 223.978C95.0882 221.272 85.1664 211.735 79.095 202.088C72.0261 190.858 74.61 176.711 75.6507 164.216C75.7573 162.943 73.7825 162.951 73.6785 164.203Z" fill="#1B1B1B"/>
<path d="M79.2294 206.366C77.2928 211.302 76.5415 216.448 76.1049 221.699C75.8079 225.267 75.1556 228.64 78.3664 230.943C86.5953 236.846 99.4919 237.901 109.292 238.224C114.644 238.398 120.002 238.123 125.308 237.401C130.62 236.682 136.956 235.919 141.842 233.614C144.669 232.288 144.253 229.17 144.403 226.383C144.682 220.487 144.304 214.578 143.276 208.765C143.065 207.522 141.162 208.05 141.372 209.287C142.215 214.11 142.6 219.001 142.522 223.896C142.479 226.14 142.827 230.208 140.933 231.867C139.755 232.877 136.364 233.215 134.859 233.589C126.501 235.646 117.897 236.541 109.292 236.25C100.522 235.959 91.1539 234.75 83.0672 231.165C80.5087 230.031 78.2446 229.233 77.7903 226.09C77.5364 224.259 78.0441 221.977 78.2141 220.141C78.6583 215.559 79.4477 211.173 81.1331 206.879C81.595 205.699 79.6863 205.189 79.2294 206.356V206.366Z" fill="#1B1B1B"/>
<path d="M133.791 141.351C139.669 134.579 138.938 127.803 138.106 119.478C137.979 118.216 137.705 116.954 137.763 115.691C137.817 114.568 140.276 108.783 142.441 110.336C143.525 111.114 142.766 115.679 142.994 116.901C143.67 120.509 147.205 120.183 149.891 118.479C154.609 115.499 155.221 108.632 155.901 103.663C156.797 97.0985 157.17 90.3194 158.998 83.929C159.287 82.9191 159.544 81.5178 160.249 80.6922C164.478 75.7537 165.975 82.4091 166.029 84.9238C166.123 89.3902 164.782 93.95 163.49 98.1867C162.858 100.257 159.307 111.083 165.069 110.091C167.983 109.586 169.09 105.496 170.63 103.527C171.882 101.936 173.052 100.563 173.79 103.178C174.25 104.802 173.999 106.814 173.625 108.417C171.306 118.378 159.412 120.44 152.558 126.616C149.627 129.25 148.556 131.946 146.84 135.36C145.302 138.422 143.19 141.29 140.939 143.871C140.111 144.823 141.502 146.216 142.335 145.259C144.07 143.281 145.648 141.171 147.053 138.947C149.447 135.145 150.505 131.12 153.954 128.005C160.465 122.142 170.874 120.332 174.58 111.795C175.849 108.879 177.626 101.464 173.661 99.4996C172.052 98.7018 171.042 99.4819 170.024 100.762C169.077 101.946 168.168 105.256 166.881 105.948C161.44 108.872 164.851 100.489 165.404 98.7068C166.96 93.6117 171.039 81.6264 165.404 77.4529C161.325 74.4231 158.016 80.21 157.109 83.4064C155.122 90.4077 154.825 97.8761 153.744 105.042C153.157 108.973 152.548 114.454 148.921 116.784C147.37 117.774 145.621 118.272 144.926 116.338C144.543 115.267 144.901 113.575 144.827 112.459C144.489 107.241 140.111 107.205 137.129 111.369C135.233 114.02 135.887 117.231 136.215 120.243C137.02 127.613 137.702 133.878 132.408 139.967C131.58 140.919 132.971 142.315 133.804 141.356L133.791 141.351Z" fill="#1B1B1B"/>
<path d="M93.9838 142.21C91.7047 140.767 89.8064 138.802 88.4479 136.479C85.3361 130.993 88.1941 124.612 89.6638 119.015C90.0775 117.432 93.9026 104.25 87.9327 106.749C85.7676 107.658 84.463 111.067 83.1659 112.809C81.9197 114.478 80.8308 115.935 79.3586 113.819C78.2824 112.304 77.9043 109.837 77.488 108.062C75.2036 98.3493 75.7341 89.255 76.5006 79.4637C76.7544 76.0906 76.7773 65.9736 70.6628 69.7735C65.3909 73.0557 65.3655 81.5139 65.3046 86.8942C65.2757 90.7272 65.468 94.5586 65.8808 98.3695C65.9798 99.3163 66.7057 101.773 66.3529 102.662C64.632 106.977 60.9694 101.074 60.1241 99.6925C58.1951 96.539 53.9411 94.0243 53.1314 99.4022C51.5399 109.956 59.8653 116.52 66.5661 122.853C71.2567 127.291 74.6224 131.621 76.6123 137.769C77.9271 141.824 79.681 145.735 82.0847 149.277C82.7903 150.32 84.501 149.338 83.7878 148.288C79.5566 142.044 78.752 134.25 74.2467 128.268C68.6068 120.78 58.6926 116.043 55.9412 106.669C55.563 105.381 53.8395 99.2684 55.4335 98.3089C56.5681 97.6247 57.5682 99.2886 58.1139 100.119C59.6241 102.417 60.5429 104.803 63.4111 105.785C69.6729 107.928 68.0103 100.218 67.6981 96.7284C67.0864 89.8483 65.8808 80.0924 69.518 73.8485C70.6501 71.9044 72.8177 69.8214 74.2569 72.5659C74.9802 73.9394 74.6757 76.694 74.6046 78.1937C74.3812 82.8217 73.4776 87.2831 73.5639 91.9313C73.6984 99.0588 74.2645 107.444 77.2799 114.023C79.0871 117.962 81.8258 117.745 84.4021 114.44C85.4173 113.132 86.227 110.905 87.5317 109.895C88.2931 109.297 88.0774 108.161 89.3922 109.539C89.981 110.158 89.047 113.097 88.9074 113.794C87.8439 119.146 85.5468 124.416 85.0341 129.859C84.4934 135.616 88.2449 140.923 92.9913 143.912C94.0675 144.591 95.06 142.902 93.9888 142.216L93.9838 142.21Z" fill="#1B1B1B"/>
<path d="M99.0301 196.433C93.8776 203.265 105.038 208.391 111.906 208.391C118.775 208.391 129.077 202.412 123.927 195.58C118.777 188.748 104.18 189.604 99.0301 196.433Z" fill="#1B1B1B"/>
<path d="M89.5044 214.43C91.4537 209.61 95.1037 202.78 100.376 200.99C101.571 200.584 101.058 198.687 99.8501 199.096C93.827 201.142 89.8293 208.398 87.5982 213.907C87.1236 215.079 89.0348 215.589 89.5044 214.43Z" fill="#1B1B1B"/>
<path d="M123.486 201.788C126.082 204.356 127.933 207.646 129.676 210.817C130.488 212.291 131.237 214.958 132.539 216.084C133.494 216.912 134.895 215.528 133.935 214.695C132.867 213.769 131.6 210.188 130.712 208.636C129.059 205.73 127.28 202.778 124.874 200.407C123.97 199.516 122.574 200.912 123.475 201.796L123.486 201.788Z" fill="#1B1B1B"/>
<path d="M105.607 211.385C105.246 214.468 106.574 218.27 110.158 218.614C114.122 218.995 115.473 214.748 115.892 211.653C116.059 210.415 114.155 209.885 113.988 211.13C113.719 213.13 113.226 216.826 110.434 216.654C107.815 216.495 107.353 213.412 107.592 211.385C107.739 210.123 105.762 210.143 105.617 211.385H105.607Z" fill="#1B1B1B"/>
<path d="M92.7129 184.556C93.417 182.561 92.3619 180.376 90.3564 179.676C88.3508 178.975 86.1542 180.025 85.4502 182.02C84.7461 184.015 85.8011 186.2 87.8067 186.9C89.8122 187.6 92.0088 186.551 92.7129 184.556Z" fill="#1B1B1B"/>
<path d="M136.138 186.748C138.109 185.936 139.045 183.688 138.229 181.727C137.412 179.767 135.152 178.835 133.181 179.648C131.21 180.46 130.274 182.708 131.091 184.668C131.907 186.629 134.167 187.56 136.138 186.748Z" fill="#1B1B1B"/>
<path d="M105.881 144.775C106.05 146.122 106.219 147.468 106.388 148.815C106.482 149.572 107.685 149.572 107.591 148.815L107.084 144.775C106.99 144.018 105.787 144.018 105.883 144.775H105.881Z" fill="#1B1B1B"/>
<path d="M113.513 141.995C113.425 143.205 113.34 144.414 113.259 145.62C113.203 146.378 114.407 146.378 114.46 145.62C114.55 144.414 114.634 143.205 114.714 141.995C114.769 141.237 113.566 141.237 113.513 141.995Z" fill="#1B1B1B"/>
<path d="M118.975 142.841C118.843 144.187 118.711 145.54 118.577 146.898C118.501 147.655 119.704 147.655 119.778 146.898C119.913 145.551 120.047 144.199 120.179 142.841C120.252 142.083 119.049 142.083 118.975 142.841Z" fill="#1B1B1B"/>
<path d="M124.826 144.39C124.327 145.988 123.657 147.53 122.828 148.987C122.45 149.659 123.488 150.25 123.867 149.591C124.745 148.042 125.456 146.404 125.986 144.705C126.217 143.97 125.057 143.655 124.826 144.39Z" fill="#1B1B1B"/>
<path d="M113.239 150.532V153.948C113.239 154.705 114.439 154.705 114.439 153.948V150.532C114.439 149.762 113.239 149.762 113.239 150.532Z" fill="#1B1B1B"/>
<path d="M118.026 151.819C117.884 153.166 117.743 154.518 117.602 155.876C117.521 156.634 118.724 156.634 118.803 155.876C118.945 154.53 119.086 153.177 119.227 151.819C119.305 151.062 118.105 151.062 118.026 151.819Z" fill="#1B1B1B"/>
<path d="M108.908 154.165C109.061 155.444 109.214 156.724 109.368 158.005C109.457 158.762 110.66 158.762 110.568 158.005C110.416 156.726 110.263 155.446 110.109 154.165C110.02 153.407 108.817 153.407 108.908 154.165Z" fill="#1B1B1B"/>
<path d="M114.924 158.647L115.158 160.995C115.234 161.752 116.427 161.752 116.361 160.995C116.295 160.238 116.206 159.43 116.127 158.647C116.049 157.864 114.858 157.889 114.924 158.647Z" fill="#1B1B1B"/>
<path d="M123.574 155.289C123.15 156.713 122.727 158.138 122.305 159.566C122.087 160.306 123.247 160.621 123.465 159.884L124.734 155.607C124.953 154.867 123.795 154.551 123.577 155.289H123.574Z" fill="#1B1B1B"/>
<path d="M110.48 164.352L110.914 167.13C111.033 167.887 112.183 167.566 112.074 166.812L111.64 164.034C111.521 163.277 110.371 163.597 110.48 164.352Z" fill="#1B1B1B"/>
<path d="M115.599 167.824V170.386C115.599 171.144 116.8 171.144 116.8 170.386V167.824C116.8 167.066 115.599 167.054 115.599 167.824Z" fill="#1B1B1B"/>
<path d="M121.457 163.83C121.22 165.214 120.867 166.575 120.401 167.9C120.148 168.627 121.305 168.94 121.559 168.218C122.026 166.893 122.379 165.532 122.615 164.148C122.744 163.391 121.599 163.072 121.457 163.83Z" fill="#1B1B1B"/>
<path d="M78.9321 210.036C83.1481 220.658 97.3671 226.433 108.063 226.892C121.82 227.48 133.473 222.347 143.156 212.781C143.705 212.238 142.854 211.392 142.306 211.935C137.613 216.576 132.344 220.663 126.117 223.044C120.906 225.036 115.315 225.713 109.759 225.723C99.1768 225.746 84.3029 220.33 80.0921 209.718C79.8103 209.011 78.6478 209.319 78.9321 210.036Z" fill="#1B1B1B"/>
<path d="M81.7322 215.016C81.0977 220.052 80.6137 225.102 80.2804 230.165C80.2296 230.923 81.4302 230.923 81.4809 230.165C81.8194 225.097 82.3042 220.047 82.9353 215.016C83.0293 214.259 81.8261 214.259 81.7322 215.016Z" fill="#1B1B1B"/>
<path d="M87.0906 219.766C85.923 223.99 85.3188 228.349 85.2935 232.731C85.2935 233.488 86.4915 233.488 86.4966 232.731C86.5219 228.457 87.1107 224.205 88.248 220.084C88.4536 219.326 87.2936 219.023 87.0906 219.766Z" fill="#1B1B1B"/>
<path d="M91.9762 223.335C91.8374 227.038 91.6995 230.741 91.5624 234.444C91.5345 235.201 92.7351 235.201 92.763 234.444C92.9018 230.741 93.0397 227.038 93.1767 223.335C93.2046 222.577 92.0041 222.577 91.9762 223.335Z" fill="#1B1B1B"/>
<path d="M98.0757 225.045C98.0165 228.463 98.0884 231.878 98.2915 235.288C98.3372 236.045 99.5377 236.045 99.492 235.288C99.289 231.874 99.2179 228.46 99.2788 225.045C99.2915 224.287 98.091 224.287 98.0757 225.045Z" fill="#1B1B1B"/>
<path d="M105.394 226.534C105.26 229.808 105.235 233.082 105.318 236.358C105.338 237.115 106.541 237.115 106.521 236.358C106.434 233.081 106.459 229.806 106.594 226.534C106.627 225.776 105.424 225.776 105.394 226.534Z" fill="#1B1B1B"/>
<path d="M111.823 226.323C111.718 229.809 111.615 233.296 111.513 236.785C111.49 237.556 112.691 237.556 112.714 236.785L113.026 226.323C113.049 225.553 111.846 225.553 111.823 226.323Z" fill="#1B1B1B"/>
<path d="M117.869 225.895C117.819 229.316 117.596 232.732 117.201 236.131C117.115 236.888 118.315 236.888 118.404 236.131C118.797 232.729 119.019 229.317 119.072 225.895C119.072 225.138 117.881 225.138 117.869 225.895Z" fill="#1B1B1B"/>
<path d="M123.958 224.597C124.288 228.507 124.322 232.436 124.059 236.35C124.008 237.108 125.209 237.108 125.262 236.35C125.524 232.436 125.49 228.507 125.161 224.597C125.095 223.84 123.892 223.84 123.958 224.597Z" fill="#1B1B1B"/>
<path d="M130.077 222.02C130.671 226.135 131.019 230.281 131.121 234.437C131.138 235.194 132.341 235.194 132.321 234.437C132.213 230.174 131.851 225.922 131.237 221.701C131.128 220.944 129.968 221.267 130.077 222.02Z" fill="#1B1B1B"/>
<path d="M135.781 218.755C136.683 223.283 137.024 227.903 136.796 232.513C136.758 233.27 137.961 233.27 137.997 232.513C138.229 227.797 137.876 223.07 136.948 218.44C136.799 217.682 135.641 218.003 135.791 218.755H135.781Z" fill="#1B1B1B"/>
<path d="M140.979 136.59C141.379 136.784 141.83 136.852 142.27 136.784C142.71 136.716 143.119 136.516 143.441 136.211C144.007 135.683 143.154 134.837 142.591 135.365C142.459 135.493 142.293 135.58 142.112 135.614C141.932 135.648 141.745 135.628 141.576 135.557C140.875 135.241 140.263 136.272 140.969 136.59H140.979Z" fill="#1B1B1B"/>
<path d="M143.976 134.193L144.834 133.552C144.968 133.468 145.065 133.337 145.105 133.185C145.145 133.033 145.125 132.872 145.05 132.734C144.969 132.598 144.837 132.499 144.683 132.459C144.529 132.419 144.366 132.441 144.228 132.519L143.37 133.16C143.236 133.244 143.139 133.375 143.099 133.527C143.058 133.679 143.078 133.841 143.154 133.979C143.235 134.115 143.366 134.215 143.521 134.255C143.675 134.295 143.839 134.273 143.976 134.193Z" fill="#1B1B1B"/>
<path d="M146.972 130.104L147.401 129.889C148.091 129.546 147.482 128.513 146.794 128.859L146.365 129.071C145.672 129.417 146.281 130.45 146.972 130.104Z" fill="#1B1B1B"/>
<path d="M58.7007 106.38L58.0915 108.738C57.8961 109.496 59.056 109.801 59.2489 109.056C59.452 108.269 59.6576 107.483 59.8606 106.698C60.0535 105.941 58.8961 105.635 58.7007 106.38Z" fill="#1B1B1B"/>
<path d="M61.1346 108.589C60.8492 109.202 60.7605 109.887 60.8807 110.551C61.0127 111.309 62.1701 110.985 62.0407 110.233C61.9797 109.882 62.0229 109.52 62.1651 109.193C62.4747 108.493 61.4391 107.885 61.1269 108.589H61.1346Z" fill="#1B1B1B"/>
<path d="M64.0865 112.733V113.16C64.0865 113.917 65.2896 113.917 65.2896 113.16V112.733C65.2896 111.976 64.0865 111.96 64.0865 112.733Z" fill="#1B1B1B"/>
<path d="M67.0027 78.6479C64.599 78.2187 62.9924 81.2333 65.3732 82.5361C66.5865 83.2002 68.3987 82.8745 69.6881 82.6422C71.7826 82.2445 73.765 81.3985 75.4981 80.1628C76.1276 79.7235 75.526 78.6883 74.8915 79.1302C73.6039 80.0579 72.1659 80.759 70.64 81.203C69.8506 81.4269 69.0414 81.5749 68.2236 81.6449C67.8972 81.6782 67.5694 81.695 67.2413 81.6954C65.9604 81.8957 65.7742 81.2662 66.6829 79.8068C67.4444 79.9431 67.7642 78.7969 67.0027 78.6555V78.6479Z" fill="#1B1B1B"/>
<path d="M64.2288 80.263C61.7998 83.823 66.1579 85.7721 69.1631 85.2722C72.1683 84.7723 78.4631 82.0379 76.4909 78.026C76.1533 77.3367 75.1152 77.9401 75.4528 78.6294C76.7472 81.2628 72.016 83.2473 70.3205 83.7624C68.4956 84.3153 62.876 84.3683 65.2644 80.8664C65.701 80.2301 64.6603 79.6292 64.2288 80.263Z" fill="#1B1B1B"/>
<path d="M75.5234 80.7308C101.861 89.8842 129.825 93.4852 157.637 91.3047C158.398 91.2442 158.398 90.0423 157.637 90.1105C129.937 92.2824 102.086 88.6951 75.8559 79.577C75.1224 79.3245 74.8077 80.4758 75.5361 80.7308H75.5234Z" fill="#1B1B1B"/>
<path d="M156.261 89.4659C159.109 91.2333 163.264 93.132 166.731 92.5387C168.762 92.1902 170.031 89.8952 168.16 88.499C167.541 88.0369 166.942 89.0746 167.554 89.5316C167.515 91.0162 166.89 91.6465 165.681 91.4227L165.087 91.3772C164.002 91.2761 162.931 91.0637 161.891 90.7435C160.117 90.2163 158.426 89.4437 156.868 88.4485C156.21 88.0369 155.599 89.0721 156.261 89.4786V89.4659Z" fill="#1B1B1B"/>
<path d="M156.487 89.3156C155.566 96.89 171.971 96.2058 168.727 89.3156C168.399 88.6187 167.361 89.2247 167.689 89.919C169.316 93.3729 164.232 93.7062 162.193 93.3578C160.031 92.9816 157.353 92.0777 157.688 89.3181C157.782 88.5606 156.579 88.5606 156.487 89.3181V89.3156Z" fill="#1B1B1B"/>
<path d="M82.4553 113.652C84.2432 115.29 86.5227 116.297 88.9429 116.52C89.7044 116.596 89.7044 115.402 88.9429 115.323C86.8359 115.115 84.8547 114.229 83.3005 112.798C82.7294 112.294 81.8766 113.124 82.4502 113.644L82.4553 113.652Z" fill="#1B1B1B"/>
<path d="M83.9531 111.976C81.4149 112.203 81.2321 115.122 82.9936 116.52C84.8998 118.035 88.8315 118.288 90.5626 116.434C91.088 115.869 90.2402 115.023 89.7148 115.589C88.7655 116.599 87.4025 116.568 86.1207 116.389C85.5063 116.329 84.906 116.169 84.344 115.914C83.8942 115.761 83.5084 115.464 83.2475 115.069C82.7195 114.059 82.9564 113.424 83.9581 113.165C84.7196 113.097 84.7196 111.902 83.9581 111.971L83.9531 111.976Z" fill="#1B1B1B"/>
<path d="M89.362 116.431C95.0197 116.843 100.578 115.969 106.152 115.106L123.412 112.43C134.58 110.695 145.768 108.799 156.201 104.269C156.909 103.961 156.297 102.931 155.594 103.237C145.271 107.721 134.151 109.549 123.105 111.276C117.72 112.117 112.335 112.952 106.949 113.78C101.111 114.684 95.2912 115.666 89.3645 115.237C88.6031 115.182 88.6031 116.376 89.3645 116.431H89.362Z" fill="#1B1B1B"/>
<path d="M153.959 101.715C154.616 103.086 156.457 102.977 157.766 102.889C159.805 102.746 161.788 102.168 163.581 101.192C164.264 100.831 163.657 99.7984 162.975 100.159C161.832 100.778 160.604 101.227 159.33 101.49C158.464 101.659 155.54 102.217 155.015 101.111C154.682 100.417 153.647 101.023 153.977 101.715H153.959Z" fill="#1B1B1B"/>
<path d="M154.071 101.285C152.548 103.966 156.302 105.486 158.416 105.36C160.873 105.214 165.176 103.87 164.762 100.75C164.665 99.9923 163.462 99.9923 163.561 100.75C163.815 102.802 161.208 103.585 159.65 103.954C158.913 104.15 158.147 104.211 157.388 104.133C156.462 104.017 154.284 103.312 155.104 101.888C155.487 101.219 154.449 100.626 154.066 101.285H154.071Z" fill="#1B1B1B"/>
<path d="M84.4986 86.4951C81.3309 88.8457 82.2396 93.6858 83.7371 96.7433C83.8181 96.8797 83.9499 96.9787 84.1039 97.0189C84.2579 97.0591 84.4216 97.0372 84.5595 96.958C86.0707 95.8785 87.2732 94.426 88.0485 92.7437C88.8238 91.0613 89.1452 89.2071 88.981 87.3637C88.9151 86.6062 87.6109 87.1075 87.6794 87.865C87.8489 89.5036 87.6859 90.6564 87.0145 92.1622C86.4356 93.4606 85.5712 94.6097 84.4884 95.5266C84.3154 95.6731 84.1368 95.8137 83.9529 95.948L84.7752 96.1626C84.6783 95.9638 84.582 95.751 84.4884 95.5266C83.4692 93.0841 82.7717 89.2848 85.1103 87.5505C85.7245 87.096 84.359 86.3377 83.7371 86.7972L84.4986 86.4951Z" fill="#0536FC"/>
<path d="M87.0145 92.1622C87.6859 90.6564 87.8489 89.5036 87.6794 87.865L85.1103 87.5505C82.7717 89.2848 83.4692 93.0841 84.4884 95.5266C85.5712 94.6097 86.4356 93.4606 87.0145 92.1622Z" fill="#0536FC"/>
<path d="M100 90.3684C96.9241 92.8364 98.016 97.6389 99.6286 100.638C99.7148 100.771 99.8503 100.865 100.006 100.9C100.161 100.934 100.324 100.906 100.459 100.822C101.928 99.686 103.074 98.1893 103.785 96.4791C104.496 94.7688 104.747 92.9038 104.513 91.0678C104.418 90.3134 103.216 90.3586 103.313 91.113C103.544 92.744 103.343 94.407 102.73 95.9369C102.2 97.2561 101.38 98.4369 100.333 99.3938C100.166 99.5468 99.9927 99.694 99.814 99.8351L100.644 100.019C100.54 99.8236 100.435 99.6145 100.333 99.3938C99.2219 96.9914 98.3805 93.221 100.652 91.4C101.248 90.9228 100.61 89.9084 100.006 90.3909L100 90.3684Z" fill="#FF8200"/>
<path d="M102.73 95.9369C103.343 94.407 103.544 92.744 103.313 91.113L100.652 91.4C98.3805 93.221 99.2219 96.9914 100.333 99.3938C101.38 98.4369 102.2 97.2561 102.73 95.9369Z" fill="#FF8200"/>
<path d="M114.987 92.7306C111.819 95.0812 113.215 99.3619 114.713 102.419C114.794 102.556 114.925 102.655 115.079 102.695C115.233 102.735 115.397 102.713 115.535 102.634C117.046 101.555 118.249 100.102 119.024 98.4198C119.799 96.7374 120.121 94.8832 119.956 93.0398C119.89 92.2823 118.687 92.2823 118.756 93.0398C118.925 94.6784 118.661 96.3326 117.99 97.8383C117.411 99.1367 116.547 100.286 115.464 101.203C115.291 101.349 115.112 101.49 114.928 101.624L115.751 101.839C115.654 101.64 115.557 101.427 115.464 101.203C114.445 98.7602 113.747 94.9609 116.086 93.2266C116.7 92.7721 116.096 92.5805 115.474 93.04L114.987 92.7306Z" fill="#0536FC"/>
<path d="M117.99 97.8383C118.661 96.3326 118.925 94.6784 118.756 93.0398L116.086 93.2266C113.747 94.9609 114.445 98.7602 115.464 101.203C116.547 100.286 117.411 99.1367 117.99 97.8383Z" fill="#0536FC"/>
<path d="M129.921 94.1399C127.295 97.0782 129.168 101.636 131.255 104.33C131.362 104.447 131.511 104.518 131.67 104.526C131.829 104.535 131.985 104.48 132.104 104.375C133.365 103.014 134.248 101.35 134.666 99.5468C135.083 97.7434 135.022 95.8628 134.487 94.0903C134.269 93.3617 133.09 93.6033 133.311 94.3314C133.81 95.9022 133.887 97.5754 133.535 99.185C133.231 100.573 132.618 101.872 131.744 102.987C131.604 103.166 131.458 103.339 131.305 103.508L132.154 103.553C132.018 103.378 131.881 103.188 131.744 102.987C130.25 100.8 128.795 97.2189 130.734 95.0507C131.243 94.4822 130.446 93.5862 129.93 94.1611L129.921 94.1399Z" fill="#FF8200"/>
<path d="M133.535 99.185C133.887 97.5754 133.81 95.9022 133.311 94.3314L130.734 95.0507C128.795 97.2189 130.25 100.8 131.744 102.987C132.618 101.872 133.231 100.573 133.535 99.185Z" fill="#FF8200"/>
<path d="M144.331 94.3517C141.164 96.7023 142.56 100.983 144.057 104.041C144.138 104.177 144.27 104.276 144.424 104.316C144.578 104.356 144.742 104.334 144.88 104.255C146.391 103.176 147.593 101.723 148.369 100.041C149.144 98.3585 149.465 96.5043 149.301 94.6609C149.235 93.9034 148.032 93.9034 148.101 94.6609C148.27 96.2995 148.006 97.9536 147.335 99.4594C146.756 100.758 145.891 101.907 144.808 102.824C144.635 102.97 144.457 103.111 144.273 103.245L145.095 103.46C144.998 103.261 144.902 103.048 144.808 102.824C143.789 100.381 143.092 96.582 145.43 94.8477C146.045 94.3932 145.361 94.298 144.739 94.7576L144.331 94.3517Z" fill="#0536FC"/>
<path d="M147.335 99.4594C148.006 97.9536 148.27 96.2995 148.101 94.6609L145.43 94.8477C143.092 96.582 143.789 100.381 144.808 102.824C145.891 101.907 146.756 100.758 147.335 99.4594Z" fill="#0536FC"/>
<path d="M98.168 118.088C101.396 120.357 100.613 125.218 99.196 128.314C99.1186 128.452 98.9894 128.554 98.8365 128.598C98.6836 128.643 98.5193 128.625 98.3795 128.549C96.8407 127.509 95.6008 126.088 94.782 124.426C93.9631 122.764 93.5935 120.919 93.7096 119.072C93.7559 118.313 94.9586 118.282 94.9098 119.041C94.7831 120.684 95.0901 122.33 95.8005 123.818C96.413 125.101 97.307 126.228 98.4133 127.117C98.5901 127.259 98.7723 127.395 98.9596 127.524L98.1431 127.76C98.2348 127.559 98.3256 127.343 98.4133 127.117C99.3686 124.649 99.967 120.833 97.584 119.159C96.9581 118.721 97.5299 117.668 98.1635 118.111L98.168 118.088Z" fill="#0536FC"/>
<path d="M95.8005 123.818C95.0901 122.33 94.7831 120.684 94.9098 119.041L97.584 119.159C99.967 120.833 99.3686 124.649 98.4133 127.117C97.307 126.228 96.413 125.101 95.8005 123.818Z" fill="#0536FC"/>
<path d="M106.126 117.236C103.642 120.294 105.728 124.759 107.94 127.353C108.052 127.465 108.205 127.528 108.364 127.529C108.523 127.53 108.676 127.469 108.79 127.358C109.985 125.94 110.789 124.237 111.121 122.416C111.453 120.595 111.303 118.719 110.685 116.973C110.433 116.256 109.267 116.552 109.522 117.269C110.094 118.815 110.25 120.483 109.974 122.107C109.737 123.508 109.186 124.834 108.365 125.989C108.234 126.173 108.096 126.354 107.951 126.529L108.801 126.534C108.658 126.366 108.511 126.183 108.365 125.989C106.769 123.874 105.147 120.364 106.981 118.108C107.463 117.516 106.625 116.659 106.137 117.257L106.126 117.236Z" fill="#FF8200"/>
<path d="M109.974 122.107C110.25 120.483 110.094 118.815 109.522 117.269L106.981 118.108C105.147 120.364 106.769 123.874 108.365 125.989C109.186 124.834 109.737 123.508 109.974 122.107Z" fill="#FF8200"/>
<path d="M121.058 114.318C124.286 116.586 123.504 121.448 122.086 124.543C122.009 124.681 121.88 124.784 121.727 124.828C121.574 124.872 121.41 124.854 121.27 124.779C119.731 123.739 118.491 122.318 117.672 120.656C116.853 118.994 116.484 117.149 116.6 115.302C116.646 114.543 117.849 114.512 117.8 115.271C117.673 116.913 117.98 118.56 118.691 120.048C119.303 121.331 120.197 122.457 121.304 123.346C121.48 123.488 121.663 123.624 121.85 123.754L121.033 123.989C121.125 123.788 121.216 123.573 121.304 123.346C122.259 120.878 122.857 117.062 120.474 115.389C119.848 114.95 120.42 113.897 121.054 114.341L121.058 114.318Z" fill="#0536FC"/>
<path d="M118.691 120.048C117.98 118.56 117.673 116.913 117.8 115.271L120.474 115.389C122.857 117.062 122.259 120.878 121.304 123.346C120.197 122.457 119.303 121.331 118.691 120.048Z" fill="#0536FC"/>
<path d="M127.467 113.036C125.061 116.154 127.256 120.566 129.532 123.104C129.648 123.214 129.802 123.273 129.961 123.27C130.12 123.268 130.272 123.202 130.383 123.089C131.542 121.642 132.303 119.919 132.59 118.09C132.877 116.262 132.68 114.39 132.019 112.661C131.748 111.949 130.59 112.274 130.863 112.985C131.474 114.516 131.671 116.179 131.436 117.81C131.233 119.216 130.715 120.555 129.923 121.73C129.797 121.918 129.663 122.102 129.523 122.281L130.373 122.265C130.225 122.1 130.075 121.921 129.923 121.73C128.276 119.655 126.567 116.187 128.344 113.886C128.811 113.283 127.952 112.446 127.478 113.056L127.467 113.036Z" fill="#FF8200"/>
<path d="M131.436 117.81C131.671 116.179 131.474 114.516 130.863 112.985L128.344 113.886C126.567 116.187 128.276 119.655 129.923 121.73C130.715 120.555 131.233 119.216 131.436 117.81Z" fill="#FF8200"/>
<path d="M92.8746 70.0435C93.0102 71.6887 93.4238 73.2994 94.098 74.8078C94.6056 75.9617 96.3113 74.9644 95.8037 73.8156C95.277 72.6197 94.9545 71.3449 94.8493 70.0435C94.7478 68.7811 92.7705 68.7811 92.8746 70.0435Z" fill="#1B1B1B"/>
<path d="M104.538 69.2305C104.739 70.301 104.94 71.3707 105.142 72.4396C105.375 73.6818 107.279 73.1566 107.045 71.9169C106.846 70.8498 106.644 69.7801 106.441 68.7079C106.208 67.4682 104.304 67.9934 104.538 69.2305Z" fill="#1B1B1B"/>
<path d="M115.563 69.606C115.608 70.4559 115.477 71.3059 115.177 72.103C114.992 72.608 115.383 73.1786 115.865 73.3099C116.118 73.3722 116.385 73.3356 116.611 73.2079C116.837 73.0801 117.006 72.8708 117.081 72.6231C117.435 71.658 117.59 70.632 117.538 69.606C117.475 68.3436 115.507 68.3436 115.563 69.606Z" fill="#1B1B1B"/>
<path d="M126.874 71.7117C126.285 73.1437 125.525 74.5 124.61 75.7514C123.866 76.779 125.579 77.7712 126.313 76.7436C127.315 75.3453 128.143 73.8311 128.778 72.2343C129.252 71.0603 127.343 70.5503 126.874 71.7117Z" fill="#1B1B1B"/>
<path d="M84.2171 83.5281C84.0039 84.2729 83.778 85.0152 83.5724 85.7625C83.4684 86.1488 83.278 86.5882 83.4201 86.9972C83.7019 87.8102 84.7882 87.7698 85.4812 87.8531C86.5421 87.9793 87.9432 88.4111 88.9839 88.0248C90.1641 87.5855 89.8976 86.4039 90.6667 85.6388C91.2124 85.0935 90.3621 84.2477 89.8164 84.793C89.4128 85.1945 89.3341 85.6212 89.0803 86.1009C88.4965 87.1966 87.5574 86.9038 86.5421 86.7851C86.1436 86.7371 84.6994 86.6715 84.5979 86.5326C84.4202 86.2801 85.2654 84.2199 85.3593 83.8538C85.5725 83.1115 84.4126 82.7959 84.1994 83.5357L84.2171 83.5281Z" fill="#1B1B1B"/>
<path d="M99.5683 87.321C99.482 88.3769 99.4744 89.4377 99.5455 90.4947C99.5499 90.6247 99.5948 90.7501 99.6739 90.8536C99.753 90.9572 99.8624 91.0338 99.9871 91.0729C101.236 91.5577 103.147 92.1358 104.5 91.7546C105.701 91.4163 105.929 89.3232 106.257 88.3486C106.51 87.6189 105.343 87.3033 105.099 88.0305L104.564 89.6236C104.338 90.2902 104.391 90.5099 103.695 90.6109C102.609 90.7674 101.304 90.3079 100.304 89.9191L100.746 90.4947C100.678 89.4376 100.685 88.377 100.769 87.321C100.83 86.5636 99.6292 86.5636 99.5683 87.321Z" fill="#1B1B1B"/>
<path d="M113.929 89.5304C113.648 90.4368 113.117 92.0022 113.571 92.9288C113.998 93.7998 115.138 93.6559 115.947 93.6862C116.962 93.7165 118.798 94.1028 119.683 93.4767C120.506 92.8959 120.404 91.3533 120.526 90.4797C120.633 89.7222 119.475 89.4016 119.369 90.1616C119.287 90.7271 119.343 91.7219 119.072 92.2168C118.775 92.7596 117.577 92.5248 117.006 92.5147C116.584 92.5147 115.229 92.6914 114.891 92.449C114.267 91.982 114.891 90.462 115.089 89.851C115.318 89.1138 114.16 88.8007 113.929 89.5329V89.5304Z" fill="#1B1B1B"/>
<path d="M129.112 91.8207C129.112 92.7322 129.135 93.6436 129.145 94.5551C129.15 94.7124 129.215 94.862 129.327 94.9733C129.439 95.0845 129.589 95.149 129.747 95.1535C130.6 95.2343 131.455 95.3226 132.311 95.4059C132.92 95.4615 133.58 95.5499 134.087 95.1333C134.486 94.8076 134.595 94.3304 134.653 93.8481C134.773 93.0301 134.851 92.207 134.948 91.3864C135.039 90.629 133.836 90.629 133.747 91.3864C133.691 91.8409 133.638 92.2929 133.585 92.7473C133.511 93.3609 133.603 94.1334 132.823 94.2622C132.399 94.3279 131.831 94.1688 131.402 94.1259L129.755 93.9668L130.356 94.5652C130.356 93.6537 130.333 92.7423 130.321 91.8308C130.321 91.0734 129.11 91.0582 129.12 91.8308L129.112 91.8207Z" fill="#1B1B1B"/>
<path d="M142.865 92.0297C142.784 92.9298 142.87 93.837 143.119 94.706C143.156 94.8309 143.232 94.9407 143.336 95.0197C143.44 95.0986 143.567 95.1427 143.697 95.1454C145.05 95.2438 146.918 95.4508 148.182 94.8373C149.403 94.244 149.198 92.9412 149.781 91.9186C150.165 91.2496 149.127 90.6562 148.743 91.3152C148.236 92.209 148.378 93.5118 147.238 93.8728C146.19 94.2036 144.774 94.0294 143.685 93.9511L144.266 94.3879C144.049 93.6217 143.976 92.8223 144.05 92.0297C144.116 91.2723 142.913 91.2723 142.85 92.0297H142.865Z" fill="#1B1B1B"/>
<path d="M93.7478 116.235C93.5319 116.551 93.4164 116.925 93.4164 117.308C93.4164 117.69 93.5319 118.064 93.7478 118.381C94.2555 119.222 95.1845 119.563 96.1388 119.573C96.9333 119.573 98.3318 119.515 98.9055 118.878C99.1897 118.565 99.2075 118.207 99.2177 117.8C99.2329 117.113 99.2177 116.427 99.2329 115.74C99.2329 114.983 98.0374 114.983 98.0298 115.74C98.0298 116.321 98.0256 116.901 98.0171 117.482C98.0171 118.217 97.743 118.176 97.0729 118.29C96.4891 118.389 95.7302 118.495 95.1921 118.174C94.7174 117.889 94.4458 117.313 94.7885 116.838C95.2403 116.212 94.1971 115.614 93.7504 116.235H93.7478Z" fill="#1B1B1B"/>
<path d="M105.383 115.44C105.525 116.23 105.49 117.548 106.165 118.101C106.779 118.606 107.891 118.389 108.602 118.225C108.984 118.153 109.346 117.998 109.662 117.77C109.977 117.543 110.238 117.249 110.426 116.909C110.866 116.018 110.249 115.316 110.355 114.44C110.447 113.683 109.244 113.683 109.152 114.44C109.094 114.945 109.277 115.294 109.368 115.763C109.505 116.465 109.046 116.856 108.406 117.043C107.957 117.177 107.165 117.361 106.883 116.955C106.766 116.793 106.779 116.382 106.746 116.197C106.68 115.841 106.617 115.485 106.553 115.129C106.416 114.372 105.259 114.693 105.393 115.448L105.383 115.44Z" fill="#1B1B1B"/>
<path d="M116.008 113.333L116.32 115.376C116.346 115.476 116.398 115.568 116.472 115.642C116.546 115.715 116.638 115.767 116.739 115.793C118.044 115.984 119.633 116.159 120.602 115.063C121.305 114.262 121.45 112.977 120.602 112.225C120.031 111.72 119.178 112.553 119.752 113.071C120.201 113.472 119.922 114.146 119.498 114.457C118.836 114.929 117.802 114.75 117.059 114.639L117.48 115.058C117.376 114.376 117.269 113.694 117.165 113.015C117.049 112.258 115.896 112.578 116.008 113.333Z" fill="#1B1B1B"/>
<path d="M126.656 112.033C126.786 112.791 126.725 114.346 127.57 114.722C127.716 114.784 127.875 114.812 128.033 114.804C128.192 114.796 128.347 114.753 128.486 114.677C129.014 114.424 129.192 114.131 129.847 114.199C130.578 114.275 131.286 114.068 131.535 113.313C131.723 112.745 131.296 111.7 131.657 111.245C132.131 110.65 131.286 109.799 130.806 110.402C130.517 110.754 130.361 111.195 130.365 111.649C130.365 112.081 130.664 112.972 130.083 113.028C129.783 113.056 129.486 112.937 129.179 112.977C128.891 113.025 128.618 113.138 128.382 113.308C128.339 113.336 128.088 113.561 128.045 113.561C128.207 113.621 128.08 113.308 128.075 113.243C128.029 112.738 127.9 112.233 127.821 111.728C127.692 110.97 126.532 111.291 126.661 112.046L126.656 112.033Z" fill="#1B1B1B"/>
</svg>
