<svg width="330" height="218" viewBox="0 0 330 218" fill="none" xmlns="http://www.w3.org/2000/svg">
<g clip-path="url(#clip0_80_12525)">
<path d="M116.845 71.1125L139.44 77.9594C141.032 78.445 141.95 76.0322 140.357 75.5497L117.758 68.7151C116.165 68.2326 115.248 70.6424 116.841 71.1249L116.845 71.1125Z" fill="#FF8200"/>
<path d="M144.515 80.4473L157.658 84.8743C159.231 85.4063 160.153 82.9842 158.573 82.4676L145.432 78.0376C143.857 77.5086 142.936 79.9276 144.515 80.4473Z" fill="#FF8200"/>
<path d="M112.192 86.4243C124.759 92.0808 137.895 96.3844 151.377 99.2622C152.996 99.6095 153.23 97.0438 151.618 96.6958C138.365 93.8457 125.455 89.5942 113.106 84.0134C111.59 83.3296 110.673 85.7393 112.189 86.4232L112.192 86.4243Z" fill="#FF8200"/>
<path d="M102.712 95.6187C119.025 101.313 135.618 106.176 152.427 110.19C154.023 110.571 154.971 108.173 153.344 107.78C136.535 103.766 119.942 98.903 103.628 93.209C102.061 92.6614 101.144 95.0712 102.712 95.6187Z" fill="#FF8200"/>
<path d="M96.3975 105.854C113.526 113.573 131.411 119.497 149.765 123.534C151.385 123.889 151.616 121.322 150.011 120.966C131.884 116.961 114.224 111.089 97.3144 103.445C95.7984 102.761 94.8804 105.174 96.3975 105.854Z" fill="#FF8200"/>
<path d="M91.9423 113.353C109.624 121.463 128.331 127.132 147.547 130.203C149.186 130.469 149.429 127.9 147.789 127.634C128.804 124.586 110.324 118.971 92.8592 110.943C91.3468 110.25 90.4299 112.659 91.9423 113.353Z" fill="#FF8200"/>
<path d="M85.4841 130.27L98.416 124.291L96.7083 123.644C98.7865 128.956 100.885 134.262 103.143 139.504C103.286 139.813 103.545 140.054 103.864 140.174C104.183 140.295 104.537 140.287 104.85 140.15L120.908 132.275L119.204 131.63L123.898 144.343C124.472 145.903 126.825 144.838 126.254 143.286L121.56 130.573C121.418 130.263 121.159 130.021 120.839 129.9C120.519 129.779 120.165 129.788 119.852 129.927L103.781 137.796L105.489 138.443C103.222 133.198 101.133 127.896 99.0549 122.584C98.9123 122.274 98.6533 122.033 98.3338 121.912C98.0143 121.791 97.6599 121.8 97.3471 121.937L84.4164 127.913C82.9066 128.614 83.9662 130.964 85.4779 130.267L85.4841 130.27Z" fill="#FF8200"/>
<path d="M86.6172 121.68L92.5479 136.519C92.8897 137.358 93.8714 137.41 94.5382 136.993L109.936 127.391L107.946 126.917C110.858 131.977 113.028 137.427 114.387 143.102C114.434 143.318 114.534 143.52 114.679 143.688C114.823 143.856 115.008 143.985 115.215 144.063C115.423 144.142 115.647 144.167 115.866 144.137C116.086 144.107 116.295 144.023 116.474 143.892C120.275 141.334 124.156 138.914 128.116 136.634C129.548 135.812 128.501 133.456 127.058 134.281C122.89 136.672 118.816 139.204 114.838 141.88L116.925 142.67C115.531 136.777 113.296 131.115 110.289 125.855C109.842 125.07 109.053 124.913 108.3 125.379L92.9012 134.984L94.8914 135.458L88.9607 120.618C88.3442 119.074 85.9901 120.135 86.6048 121.675L86.6172 121.68Z" fill="#FF8200"/>
<path d="M82.0682 141.471C94.3827 147.118 107.394 151.11 120.761 153.343C122.401 153.609 122.638 151.052 121.003 150.777C107.866 148.568 95.0816 144.628 82.9851 139.061C81.4726 138.368 80.5558 140.778 82.0682 141.471Z" fill="#FF8200"/>
<path d="M81.2541 147.736C91.9332 153.24 103.159 157.616 114.75 160.794C116.358 161.236 117.276 158.823 115.667 158.384C104.076 155.206 92.8501 150.83 82.171 145.326C80.6857 144.562 79.7905 146.98 81.2541 147.736Z" fill="#FF8200"/>
<path d="M82.8684 161.335C91.1648 165.443 99.9843 168.403 109.083 170.133C110.712 170.445 110.95 167.878 109.324 167.567C100.457 165.858 91.8647 162.951 83.7853 158.925C82.2905 158.185 81.3736 160.595 82.8684 161.335Z" fill="#FF8200"/>
<path d="M107.128 104.222L107.611 104.008C108.686 103.526 109.283 102.125 108.739 101.044C108.486 100.509 108.035 100.093 107.481 99.883C106.926 99.6731 106.312 99.686 105.767 99.919L105.286 100.137C104.212 100.617 103.612 102.016 104.159 103.098C104.411 103.634 104.862 104.05 105.416 104.26C105.97 104.47 106.584 104.456 107.128 104.222Z" fill="#FF8200"/>
<path d="M114.994 107.506L115.345 107.639C116.445 108.055 117.864 107.49 118.242 106.336C118.443 105.78 118.419 105.168 118.176 104.63C117.933 104.091 117.49 103.667 116.94 103.448L116.589 103.315C115.49 102.899 114.071 103.464 113.693 104.614C113.492 105.17 113.515 105.783 113.758 106.322C114 106.862 114.444 107.286 114.994 107.506Z" fill="#FF8200"/>
<path d="M123.933 110.799C124.991 111.473 126.531 111.616 127.481 110.64C127.936 110.247 128.229 109.701 128.307 109.107C128.352 108.528 128.175 107.955 127.812 107.502C127.09 106.683 125.524 106.281 124.654 107.167C124.081 107.713 124.725 107.721 126.585 107.19C125.6 106.558 124.144 106.62 123.444 107.677C122.802 108.635 122.866 110.129 123.929 110.808L123.933 110.799Z" fill="#FF8200"/>
<path d="M135.568 114.495L135.915 114.627C137.014 115.043 138.434 114.478 138.814 113.329C139.015 112.772 138.991 112.159 138.748 111.62C138.505 111.08 138.061 110.656 137.51 110.436L137.162 110.304C136.063 109.888 134.644 110.453 134.262 111.605C134.062 112.162 134.087 112.774 134.33 113.313C134.574 113.852 135.017 114.276 135.568 114.495Z" fill="#FF8200"/>
<path d="M146.6 117.074C149.304 118.098 150.902 113.908 148.194 112.883C145.487 111.858 143.892 116.049 146.6 117.074Z" fill="#FF8200"/>
<path d="M119.643 71.7149C118.053 76.5723 116.464 81.4316 114.878 86.2926C114.571 87.2395 116.043 87.7967 116.349 86.8499C117.936 81.9888 119.524 77.1292 121.112 72.271C121.422 71.3253 119.95 70.7681 119.643 71.7149Z" fill="#FF8200"/>
<path d="M125.258 72.2429C122.912 77.3574 121.05 82.679 119.696 88.1386C119.454 89.1101 120.926 89.6673 121.168 88.6958C122.52 83.2357 124.382 77.914 126.729 72.8002C127.145 71.8945 125.673 71.3372 125.258 72.2429Z" fill="#FF8200"/>
<path d="M131.121 73.6655C128.681 78.8337 126.942 84.3026 125.949 89.9283C125.769 90.9234 127.339 91.0642 127.513 90.0741C128.496 84.5895 130.203 79.259 132.589 74.2216C133.017 73.3206 131.546 72.7633 131.121 73.6655Z" fill="#FF8200"/>
<path d="M136.42 76.0295C135.125 81.3932 133.603 86.6911 131.854 91.9229C131.541 92.8674 133.009 93.4235 133.326 92.4802C135.083 87.2395 136.605 81.9417 137.892 76.5868C138.127 75.6129 136.656 75.0556 136.42 76.0295Z" fill="#FF8200"/>
<path d="M144.117 78.5788L138.923 92.5937C138.57 93.5229 140.041 94.1011 140.392 93.1498L145.589 79.1361C145.948 78.1914 144.472 77.6287 144.117 78.5788Z" fill="#FF8200"/>
<path d="M150.183 80.4714C148.403 85.5287 146.625 90.5857 144.851 95.6424C144.519 96.5799 145.983 97.1557 146.319 96.1985L151.654 81.0287C151.983 80.09 150.514 79.534 150.183 80.4714Z" fill="#FF8200"/>
<path d="M155.171 82.7642C153.573 87.3563 151.806 91.8846 149.871 96.349C149.474 97.2618 150.946 97.819 151.343 96.9063C153.278 92.4418 155.045 87.9136 156.643 83.3214C156.969 82.3816 155.506 81.8101 155.171 82.7642Z" fill="#FF8200"/>
<path d="M86.3796 143.021C86.4377 144.299 86.1725 145.57 85.6084 146.719C85.1834 147.621 86.6521 148.177 87.0801 147.276C87.7374 145.866 88.03 144.314 87.9312 142.761C87.8781 141.753 86.3272 142.02 86.3796 143.021Z" fill="#FF8200"/>
<path d="M91.4001 144.298C90.3777 146.075 90.0238 148.157 90.4017 150.171C90.5859 151.162 92.1394 150.907 91.9533 149.911C91.6325 148.313 91.8869 146.652 92.6717 145.222C93.1588 144.344 91.8926 143.414 91.4044 144.296L91.4001 144.298Z" fill="#FF8200"/>
<path d="M96.8205 145.775C95.8032 147.869 95.3312 150.185 95.4482 152.509C95.4909 153.517 97.0417 153.25 96.9999 152.249C96.925 150.2 97.3695 148.165 98.2923 146.332C98.7328 145.436 97.261 144.878 96.8205 145.775Z" fill="#FF8200"/>
<path d="M101.449 147.941L99.9269 154.154C99.6882 155.126 101.16 155.684 101.396 154.71C101.907 152.638 102.415 150.567 102.921 148.498C103.159 147.525 101.688 146.968 101.449 147.941Z" fill="#FF8200"/>
<path d="M107.724 148.899C106.41 151.234 105.611 153.822 105.379 156.49C105.291 157.496 106.857 157.646 106.943 156.636C107.136 154.247 107.834 151.926 108.991 149.825C109.478 148.946 108.212 148.017 107.724 148.899Z" fill="#FF8200"/>
<path d="M112.609 150.551C111.946 152.833 111.285 155.117 110.623 157.403C110.347 158.362 111.822 158.92 112.095 157.961C112.755 155.676 113.416 153.391 114.077 151.107C114.353 150.148 112.878 149.59 112.609 150.551Z" fill="#FF8200"/>
<path d="M117.897 151.355L115.373 157.99C115.019 158.919 116.488 159.475 116.842 158.546L119.366 151.911C119.719 150.982 118.251 150.426 117.897 151.355Z" fill="#FF8200"/>
<path d="M82.4843 156.639C91.6013 160.686 100.879 164.312 110.566 166.803C111.537 167.054 112.095 165.586 111.125 165.335C101.445 162.833 92.163 159.219 83.0417 155.174C82.1303 154.768 81.5717 156.237 82.4843 156.639Z" fill="#FF8200"/>
<path d="M221.612 102.523C222.938 105.463 225.234 107.363 227.641 109.412C230.987 112.262 234.335 115.106 237.683 117.945C238.95 119.024 240.465 116.936 239.207 115.864L231.398 109.229C228.684 106.923 225.469 104.795 223.972 101.457C223.29 99.9442 220.926 101.012 221.616 102.514L221.612 102.523Z" fill="#FF8200"/>
<path d="M241.429 121.433L249.331 127.189C251.701 128.915 254.378 130.488 256.146 132.862C257.141 134.196 259.145 132.58 258.158 131.243C256.515 129.026 254.204 127.545 251.985 125.929L242.953 119.352C241.61 118.372 240.086 120.453 241.429 121.433Z" fill="#FF8200"/>
<path d="M211.015 115.01C221.492 125.775 232.667 135.842 244.467 145.146C245.777 146.177 247.298 144.091 245.994 143.066C234.363 133.908 223.348 123.998 213.02 113.399C211.871 112.219 209.851 113.829 211.011 115.019L211.015 115.01Z" fill="#FF8200"/>
<path d="M200.897 118.848C212.052 131.435 224.277 143.037 237.435 153.525C238.735 154.563 240.26 152.468 238.959 151.444C225.97 141.1 213.903 129.654 202.892 117.236C201.79 115.996 199.779 117.613 200.88 118.855L200.897 118.848Z" fill="#FF8200"/>
<path d="M189.166 123.686C201.779 138.89 214.536 153.564 230.649 165.207C231.997 166.182 233.524 164.102 232.175 163.127C216.224 151.602 203.656 137.092 191.178 122.067C190.117 120.786 188.105 122.405 189.166 123.686Z" fill="#FF8200"/>
<path d="M183.13 126.777C196.191 142.626 210.177 157.693 225.016 171.899C226.203 173.035 228.225 171.427 227.028 170.279C212.188 156.077 198.202 141.013 185.143 125.165C184.086 123.882 182.077 125.503 183.131 126.784L183.13 126.777Z" fill="#FF8200"/>
<path d="M182.141 153.202L198.863 153.619L197.778 151.879C196.255 157.667 194.732 163.456 193.209 169.246C193.016 169.977 193.373 170.981 194.295 170.986L214.48 171.084L213.395 169.344C212.187 171.638 211.231 174.055 210.542 176.553C210.12 178.165 210.008 182.679 208.154 183.444C206.61 184.075 207.674 186.424 209.214 185.795C210.965 185.076 211.419 184.191 212.037 182.37C213.435 178.24 213.771 174.274 215.808 170.265C216.169 169.551 215.506 168.528 214.719 168.524L194.533 168.426L195.622 170.167C197.143 164.378 198.666 158.589 200.191 152.8C200.386 152.055 200.021 151.081 199.102 151.059L182.383 150.643C180.73 150.602 180.471 153.168 182.139 153.208L182.141 153.202Z" fill="#FF8200"/>
<path d="M188.286 146.39C187.55 151.511 186.814 156.633 186.08 161.756C185.99 162.384 186.568 163.181 187.245 163.157C193.505 162.958 199.754 161.745 205.878 160.485L204.375 159.094C203.713 165.576 203.068 172.1 202.125 178.564C201.995 179.475 202.848 179.986 203.627 179.955L219.665 179.351C221.323 179.288 220.883 176.747 219.237 176.808L203.198 177.415L204.701 178.806C205.639 172.343 206.284 165.83 206.948 159.334C206.964 159.138 206.935 158.941 206.864 158.758C206.793 158.575 206.681 158.41 206.537 158.276C206.393 158.142 206.22 158.042 206.032 157.984C205.843 157.926 205.644 157.912 205.45 157.941C199.564 159.154 193.502 160.399 187.489 160.592L188.653 161.996C189.387 156.874 190.122 151.752 190.859 146.63C191.092 144.989 188.521 144.746 188.286 146.39Z" fill="#FF8200"/>
<path d="M174.841 162.1C183.265 171.606 192.54 180.326 202.551 188.152C203.862 189.179 205.382 187.097 204.075 186.071C194.244 178.385 185.137 169.821 176.866 160.485C175.768 159.244 173.754 160.859 174.857 162.106L174.841 162.1Z" fill="#FF8200"/>
<path d="M169.504 167.864C175.223 177.995 185.659 184.756 194.513 191.96L195.062 189.648L193.957 189.808C192.313 190.047 192.737 192.592 194.385 192.351L195.491 192.189C196.642 192.022 196.87 190.553 196.04 189.877C187.587 183.002 177.311 176.464 171.86 166.807C171.05 165.369 168.687 166.417 169.504 167.864Z" fill="#FF8200"/>
<path d="M163.831 178.087C168.779 184.963 174.91 190.91 181.939 195.652C183.315 196.584 184.845 194.505 183.466 193.572C176.621 188.958 170.653 183.167 165.839 176.469C164.868 175.12 162.856 176.757 163.831 178.087Z" fill="#FF8200"/>
<path d="M165.518 173.662C171.987 181.03 179.034 187.911 186.835 193.877C187.639 194.49 188.566 193.221 187.765 192.609C180.058 186.722 173.123 179.947 166.742 172.676C166.076 171.917 164.852 172.903 165.518 173.662Z" fill="#FF8200"/>
<path d="M223.122 105.232L216.687 111.772C215.532 112.94 213.883 114.155 214.352 115.966C214.604 116.937 216.16 116.686 215.904 115.706C215.536 114.292 219.043 111.601 219.936 110.71C221.329 109.29 222.723 107.873 224.119 106.457C224.82 105.744 223.839 104.515 223.131 105.236L223.122 105.232Z" fill="#FF8200"/>
<path d="M227.704 108.724C225.295 111.438 222.928 114.185 220.601 116.963C219.478 118.31 217.619 119.732 218.368 121.628C218.743 122.567 220.179 121.92 219.8 120.983C219.36 119.881 223.482 115.974 224.086 115.263C225.687 113.389 227.327 111.508 228.975 109.651C229.646 108.896 228.369 107.976 227.704 108.724Z" fill="#FF8200"/>
<path d="M230.271 113.441L222.311 122.645C221.647 123.411 222.924 124.33 223.579 123.572L231.543 114.366C232.191 113.597 230.93 112.681 230.271 113.441Z" fill="#FF8200"/>
<path d="M235.816 116.736C232.824 120.243 229.754 123.68 226.604 127.047C225.915 127.785 227.198 128.689 227.876 127.971C231.019 124.602 234.089 121.166 237.087 117.664C237.736 116.892 236.469 115.973 235.816 116.736Z" fill="#FF8200"/>
<path d="M241.306 121.205L232.18 131.594C231.512 132.351 232.788 133.274 233.452 132.519L242.589 122.137C243.257 121.38 241.981 120.457 241.321 121.211L241.306 121.205Z" fill="#FF8200"/>
<path d="M246.536 125.918C243.473 129.679 240.032 133.118 236.266 136.179C235.478 136.82 236.471 138.029 237.254 137.4C241.124 134.249 244.66 130.712 247.807 126.843C248.46 126.062 247.171 125.135 246.536 125.918Z" fill="#FF8200"/>
<path d="M252.543 129.428C249.294 133.417 245.812 137.211 242.116 140.792C241.395 141.494 242.378 142.72 243.105 142.013C246.899 138.34 250.474 134.447 253.81 130.355C254.463 129.574 253.177 128.648 252.543 129.428Z" fill="#FF8200"/>
<path d="M198.582 126.77C201.287 127.794 202.884 123.605 200.177 122.579C197.469 121.554 195.875 125.745 198.582 126.77Z" fill="#FF8200"/>
<path d="M205.088 132.826C207.792 133.85 209.39 129.66 206.682 128.635C203.975 127.61 202.38 131.801 205.088 132.826Z" fill="#FF8200"/>
<path d="M212.03 139.844C214.734 140.868 216.332 136.679 213.624 135.654C210.917 134.628 209.322 138.819 212.03 139.844Z" fill="#FF8200"/>
<path d="M218.921 148.051C221.626 149.075 223.223 144.886 220.516 143.861C217.808 142.836 216.214 147.026 218.921 148.051Z" fill="#FF8200"/>
<path d="M225.524 151.75L225.391 152.1C224.974 153.196 225.54 154.612 226.692 154.992C227.25 155.192 227.864 155.168 228.405 154.926C228.946 154.683 229.372 154.24 229.592 153.691L229.725 153.341C230.142 152.244 229.576 150.829 228.42 150.451C227.862 150.251 227.249 150.274 226.709 150.517C226.168 150.759 225.744 151.201 225.524 151.75Z" fill="#FF8200"/>
<path d="M177.207 162.961C175.139 164.751 173.358 166.847 171.926 169.175C171.398 170.039 172.667 170.962 173.197 170.1C174.549 167.888 176.233 165.896 178.19 164.194C178.953 163.533 177.966 162.309 177.202 162.973L177.207 162.961Z" fill="#FF8200"/>
<path d="M180.679 167.447C178.429 169.162 176.6 171.366 175.331 173.891C174.875 174.782 176.347 175.339 176.803 174.448C177.965 172.18 179.627 170.203 181.664 168.667C182.47 168.051 181.483 166.826 180.679 167.447Z" fill="#FF8200"/>
<path d="M184.381 171.544L179.406 176.748C178.71 177.476 179.99 178.387 180.677 177.675C182.336 175.941 183.996 174.198 185.657 172.446C186.354 171.717 185.073 170.807 184.389 171.523L184.381 171.544Z" fill="#FF8200"/>
<path d="M188.172 175.369C186.738 176.952 185.31 178.528 183.887 180.096C183.204 180.844 184.481 181.764 185.154 181.023L189.441 176.292C190.122 175.547 188.845 174.628 188.169 175.368L188.172 175.369Z" fill="#FF8200"/>
<path d="M192.151 178.654C190.599 180.193 189.05 181.722 187.503 183.241C186.79 183.949 187.773 185.175 188.491 184.465L193.136 179.874C193.851 179.171 192.869 177.944 192.151 178.654Z" fill="#FF8200"/>
<path d="M197.081 182.512L192.255 187.418C191.554 188.131 192.536 189.36 193.244 188.639L198.069 183.734C198.77 183.021 197.787 181.795 197.081 182.512Z" fill="#FF8200"/>
<path d="M145.943 74.4258C153.149 58.9121 171.127 54.7691 186.454 51.8482C198.319 49.6077 210.417 49.0784 222.193 46.3614C228.12 44.9945 239.133 43.0588 241.757 36.5363C244.438 29.8726 236.699 27.5342 231.632 28.0534C228.333 28.385 212.546 36.0149 218.03 40.3486C220.278 42.1245 223.551 39.7672 225.259 38.2842C228.751 35.2511 230.895 30.6237 229.896 25.986C227.823 16.3669 216.578 16.174 210.528 22.1966C203.81 28.866 202.304 39.7594 205.137 48.5037C209.637 62.3974 223.934 66.4994 234.671 74.374C247.676 83.9048 252.349 101.266 246.3 116.126C245.677 117.662 248.093 118.577 248.716 117.041C254.345 103.18 251.345 86.3995 240.463 75.862C234.043 69.6467 225.555 66.4116 218.34 61.3056C209.293 54.9074 204.214 44.5612 207.151 33.4905C208.479 28.4794 211.848 22.4341 217.223 21.0247C227.172 18.431 231.34 32.0396 222.974 36.7846C218.116 39.5521 221.785 35.7744 223.685 34.3182C225.538 32.8936 228.001 31.3776 230.346 30.8161C233.462 30.0964 241.26 30.2426 239.32 35.603C237.229 41.3777 224.493 43.2386 219.541 44.2837C211.734 45.9343 203.847 46.552 195.963 47.649C177.024 50.2868 152.487 54.1645 143.5 73.4975C142.799 75.0038 145.218 75.9196 145.916 74.4121L145.943 74.4258Z" fill="#1B1B1B"/>
<path d="M116.628 67.6047C113.317 72.1519 111.95 78.0307 110.43 83.3516C109.941 85.0659 110.747 83.5921 109.71 84.8719C108.752 86.0542 107.545 87.0964 106.529 88.2281C96.1634 99.757 88.0953 113.754 83.7538 128.637C80.2175 140.732 77.4393 156.884 85.1642 168.073C90.0299 175.124 98.9677 177.906 106.478 173.329C120.082 165.014 126.454 145.102 131.263 131.044C131.8 129.476 129.427 128.577 128.847 130.13C126.627 136.078 123.534 150.265 133.405 151.164C143.139 152.05 148.502 133.801 150.607 127.203C152.806 120.314 154.474 113.146 155.146 105.938C155.412 103.044 154.904 99.9741 155.24 97.139C155.471 95.1782 156.912 92.9493 157.732 91.0379C158.907 88.2938 162.257 82.9921 159.843 80.2531C157.507 77.597 151.791 76.2725 148.666 75.0825C141.855 72.4424 134.902 70.1835 127.838 68.3163C125.251 67.6483 119.336 65.2956 116.891 67.3607C115.622 68.436 117.243 70.4421 118.512 69.3668C119.961 68.1438 126.447 70.5997 127.875 70.9633C132.677 72.2461 137.415 73.7779 142.102 75.4178C146.303 76.8878 150.513 78.418 154.561 80.2697C155.32 80.6174 157.667 81.3038 158.072 82.1236C158.395 82.7774 157.136 85.667 156.647 86.9241C155.482 89.9308 153.124 93.3185 152.596 96.4887C152.25 98.5936 152.877 101.202 152.759 103.389C152.59 106.209 152.26 109.017 151.772 111.8C149.916 122.717 146.614 135.485 139.76 144.46C138.504 146.11 136.686 148.395 134.439 148.614C130.644 148.992 129.303 145.001 129.187 142.019C129.044 138.333 129.993 134.493 131.28 131.047L128.864 130.132C124.401 143.187 119.15 158.464 108.863 168.218C101.248 175.431 91.017 173.995 86.0627 164.525C79.4109 151.805 83.9366 134.44 88.7595 121.961C93.4348 109.98 100.278 98.9582 108.947 89.4448C110.334 87.9182 111.9 86.7252 112.722 84.8998C115.036 79.7518 115.296 73.897 118.754 69.1503C119.696 67.7849 117.607 66.2639 116.628 67.6047Z" fill="#1B1B1B"/>
<path d="M225.566 99.4981C221.909 99.5308 218.976 102.542 216.559 104.982C215.146 106.41 213.81 107.914 212.52 109.456C212.054 110.009 209.911 112.653 210.454 112.281C211.224 111.75 209.432 112.482 209.036 112.591C207.523 113 206.035 113.531 204.557 114.045C199.727 115.703 195.015 117.686 190.455 119.982C181.709 124.416 171.782 130.686 168.184 140.302C166.053 145.987 168.648 149.602 174.686 149.082C181.245 148.518 187.957 145.425 193.777 142.49L192.436 140.31C181.97 149.433 171.402 160.159 164.751 172.411C161.894 177.669 159.154 184.657 162.489 190.335C166.618 197.352 176.014 197.642 183.142 196.514C193.446 194.884 203.453 190.384 212.303 185.014C222.385 178.888 229.665 170.38 236.13 160.595C238.651 156.77 241.031 152.841 243.205 148.806C243.69 147.905 244.105 147.375 243.852 147.658C244.885 146.539 246.27 145.615 247.415 144.613C250.674 141.761 260.835 134.85 259.431 129.652C258.702 126.955 255.468 124.391 253.575 122.551C250.137 119.208 246.497 116.076 242.823 112.999C237.391 108.452 231.851 104.03 226.202 99.7317C224.877 98.7233 223.355 100.808 224.675 101.811C234.485 109.275 244.595 116.912 253.175 125.777C254.197 126.827 257.186 129.241 257.11 130.878C256.968 133.79 250.737 138.142 248.712 139.991C245.061 143.332 242.162 145.48 239.769 149.716C234.533 158.977 228.454 168.547 220.58 175.806C213.748 182.103 205.02 186.658 196.43 190.05C188.648 193.127 177.559 196.849 169.376 193.063C161.356 189.353 163.242 180.961 166.504 174.563C172.818 162.18 183.64 151.402 194.044 142.329C195.108 141.399 194.067 139.467 192.702 140.152C187.462 142.775 181.666 145.406 175.839 146.322C170.657 147.142 168.792 145.238 171.034 140.148C173.584 134.38 178.866 130.002 184.024 126.622C192.292 121.194 201.255 118.681 210.214 114.901C215.788 112.546 218.521 102.153 225.311 102.063C226.967 102.045 227.23 99.476 225.566 99.4981Z" fill="#1B1B1B"/>
<path d="M47.8115 151.128C48.6075 151.393 50.9779 149.174 51.4235 148.748C52.6662 147.557 53.0768 146.827 52.493 145.325C51.643 143.13 49.608 141.083 47.8743 139.563C42.312 134.694 31.6339 133.47 28.1053 141.579C24.8874 148.976 30.6642 158.892 33.9979 165.259C38.9309 174.68 44.3941 183.865 49.9643 192.926C52.0072 196.247 54.0631 199.568 56.2606 202.787C56.737 203.485 57.3724 204.891 58.1108 205.328C58.667 205.656 57.5197 205.353 58.1828 205.368C58.6921 205.38 59.5549 204.809 60.0206 204.609C61.5375 203.944 66.3147 202.22 66.0366 200.354C65.8697 199.254 64.1937 197.546 63.5926 196.631C56.8403 186.36 50.0869 176.086 43.7193 165.575C41.0992 161.254 37.4926 156.283 37.5471 151.014C37.567 149.177 38.1062 146.916 40.1491 146.404C43.2855 145.616 46.4364 149.388 48.1747 151.349C48.8887 152.155 47.6863 153.32 46.9697 152.513C45.7834 151.178 42.1766 146.666 39.9856 148.324C38.4129 149.519 39.3665 153.106 39.8191 154.598C40.593 157.141 42.0575 159.478 43.393 161.759C47.0607 168.022 50.9915 174.136 54.9176 180.24C58.5225 185.853 62.161 191.439 65.8331 197C66.4124 197.881 67.7075 199.198 67.8923 200.289C68.2305 202.299 65.7303 203.559 64.2672 204.388C62.9754 205.119 59.4812 207.49 57.8525 207.134C56.5243 206.845 55.4768 204.605 54.7949 203.605C48.3798 194.207 42.6799 184.261 37.0835 174.365C31.6221 164.71 15.0349 137.345 36.3085 134.039C43.152 132.977 49.6178 137.585 53.1638 143.12C54.188 144.725 55.102 146.306 54.1236 148.128C53.2532 149.748 49.4654 153.431 47.335 152.724C46.3185 152.402 46.7858 150.786 47.8115 151.128Z" fill="white"/>
<path d="M65.1599 198.375C60.7613 198.976 56.2967 198.906 51.9192 198.168C50.8552 197.986 51.3401 196.388 52.3937 196.563C56.4824 197.248 60.6514 197.311 64.7591 196.751C65.8159 196.606 66.234 198.229 65.1599 198.375Z" fill="white"/>
<path d="M59.8254 190.828C55.0645 190.492 50.3632 189.573 45.8274 188.091C44.8037 187.758 45.2735 186.152 46.3025 186.488C50.6988 187.933 55.2565 188.832 59.8728 189.167C60.9446 189.245 60.9065 190.918 59.8258 190.839L59.8254 190.828Z" fill="white"/>
<path d="M54.1878 182.296C49.4878 181.744 44.8619 180.685 40.3918 179.135C39.3765 178.782 39.8442 177.176 40.8684 177.529C45.1974 179.042 49.6786 180.079 54.2328 180.624C55.296 180.748 55.2631 182.424 54.1878 182.296Z" fill="white"/>
<path d="M48.0546 172.448C43.4397 171.652 38.8975 170.483 34.4731 168.951C33.4563 168.6 33.9256 166.992 34.9498 167.345C39.3733 168.878 43.9148 170.048 48.5291 170.843C49.591 171.025 49.1077 172.63 48.0546 172.448Z" fill="white"/>
<path d="M41.476 162.134C37.1639 161.306 32.9775 159.924 29.0217 158.022C28.0471 157.554 28.9231 156.128 29.8893 156.588C33.7263 158.417 37.7849 159.742 41.9636 160.529C43.0213 160.73 42.5421 162.333 41.4865 162.132L41.476 162.134Z" fill="white"/>
<path d="M38.1041 154.505C33.701 152.786 29.2315 150.942 26.0555 147.302C25.3468 146.491 26.5487 145.323 27.26 146.136C30.248 149.562 34.4356 151.281 38.5807 152.899C39.5786 153.29 39.1119 154.9 38.1041 154.505Z" fill="white"/>
<path d="M38.4367 148.328C34.925 145.311 32.1654 141.521 30.3763 137.256C29.9611 136.275 31.4205 135.449 31.8404 136.44C33.568 140.572 36.2409 144.244 39.6454 147.161C40.4638 147.868 39.2536 149.029 38.443 148.327L38.4367 148.328Z" fill="white"/>
<path d="M42.5303 136.443C41.6354 139.682 41.5336 143.088 42.2335 146.374C42.4534 147.428 40.8162 147.83 40.6046 146.774C39.8453 143.198 39.9537 139.493 40.9208 135.967C41.2039 134.928 42.8128 135.401 42.5303 136.443Z" fill="white"/>
<path d="M50.4344 141.894C48.3319 143.544 46.7847 145.795 45.9994 148.345C45.6803 149.374 44.0698 148.903 44.3905 147.872C45.2511 145.043 46.9509 142.541 49.2659 140.695C50.105 140.028 51.2793 141.224 50.4344 141.894Z" fill="white"/>
<path d="M295.054 183.984C292.96 183.697 290.948 184.654 290.778 186.957C290.712 187.917 290.992 188.868 291.568 189.64C292.145 190.412 292.979 190.952 293.92 191.164C294.379 191.26 294.853 191.265 295.315 191.179C295.777 191.092 296.217 190.916 296.61 190.659C297.003 190.403 297.342 190.072 297.607 189.685C297.872 189.298 298.058 188.863 298.154 188.405C298.662 186.212 297.173 184.4 295.054 183.984C294.036 183.777 293.602 185.341 294.622 185.544C295.84 185.782 296.825 186.557 296.607 187.902C296.427 189.006 295.479 189.795 294.349 189.604C291.827 189.191 291.678 185.136 294.622 185.544C295.643 185.682 296.084 184.127 295.054 183.984Z" fill="white"/>
<path d="M299.692 169.094C297.966 174.042 296.272 179.001 294.612 183.972C294.284 184.963 295.856 185.387 296.173 184.403C297.823 179.427 299.516 174.468 301.254 169.524C301.598 168.54 300.032 168.116 299.692 169.094Z" fill="white"/>
<path d="M292.511 190.114C290.476 195.216 288.674 200.396 287.105 205.652C286.807 206.651 288.37 207.077 288.669 206.082C290.239 200.82 292.04 195.641 294.072 190.544C294.458 189.578 292.891 189.158 292.511 190.114Z" fill="white"/>
<path d="M296.346 190.211C298.897 194.464 301.702 198.559 304.748 202.475C305.384 203.302 306.525 202.144 305.892 201.333C302.938 197.52 300.217 193.533 297.743 189.394C297.21 188.502 295.808 189.315 296.346 190.211Z" fill="white"/>
<path d="M298.212 187.34C302.4 185.155 306.573 182.941 310.73 180.698C311.646 180.203 310.829 178.807 309.9 179.302C305.745 181.547 301.573 183.76 297.384 185.943C296.459 186.425 297.276 187.819 298.201 187.34H298.212Z" fill="white"/>
<path d="M282.303 173.837C284.889 177.891 287.79 181.738 290.979 185.341C291.669 186.123 292.812 184.975 292.123 184.197C289.027 180.696 286.212 176.957 283.703 173.015C283.145 172.14 281.743 172.951 282.303 173.843V173.837Z" fill="white"/>
<path d="M277.665 193.152C282.069 191.823 286.502 190.596 290.962 189.472C291.972 189.218 291.545 187.66 290.533 187.915C286.071 189.037 281.638 190.264 277.235 191.594C276.24 191.894 276.663 193.456 277.665 193.152Z" fill="white"/>
<path d="M295.222 170.19C295.83 172.033 296.57 173.83 297.436 175.568C297.548 175.749 297.726 175.88 297.932 175.934C298.138 175.988 298.357 175.96 298.544 175.857C300.58 174.711 302.601 173.539 304.607 172.341C305.502 171.809 304.688 170.411 303.79 170.945C301.782 172.138 299.761 173.31 297.727 174.461L298.834 174.751C298.032 173.142 297.346 171.477 296.783 169.77C296.46 168.787 294.894 169.207 295.222 170.2V170.19Z" fill="white"/>
<path d="M293.54 175.456C293.978 177.384 294.667 179.247 295.591 180.997C295.7 181.181 295.877 181.314 296.085 181.368C296.292 181.423 296.512 181.393 296.698 181.287L300.542 178.792C301.413 178.227 300.602 176.829 299.725 177.398L295.881 179.892L296.99 180.182C296.141 178.552 295.509 176.819 295.11 175.025C294.881 174.012 293.318 174.44 293.548 175.454L293.54 175.456Z" fill="white"/>
<path d="M280.472 177.37C282.292 177.347 284.112 177.416 285.926 177.577C286.371 177.616 286.722 177.163 286.736 176.768C286.783 175.289 286.974 173.818 287.309 172.376C287.543 171.365 285.982 170.929 285.747 171.948C285.383 173.531 285.175 175.145 285.125 176.768L285.936 175.961C284.123 175.799 282.303 175.73 280.483 175.754C279.446 175.767 279.446 177.382 280.483 177.37H280.472Z" fill="white"/>
<path d="M283.848 182.238L289.252 182.375C289.666 182.375 290.104 181.994 290.062 181.566C289.878 179.749 290.004 177.914 290.436 176.139C290.682 175.129 289.121 174.691 288.874 175.71C288.4 177.624 288.254 179.604 288.443 181.566L289.252 180.757L283.848 180.623C282.811 180.598 282.811 182.214 283.848 182.238Z" fill="white"/>
<path d="M306.678 177.709C305.803 179.004 305.023 180.361 304.343 181.767C304.284 181.875 304.25 181.994 304.243 182.117C304.236 182.239 304.256 182.362 304.302 182.475C304.348 182.589 304.42 182.691 304.51 182.774C304.601 182.857 304.709 182.919 304.826 182.955L310.771 184.976C311.76 185.313 312.185 183.753 311.202 183.418L305.257 181.397L305.743 182.585C306.421 181.174 307.201 179.814 308.077 178.516C308.662 177.651 307.248 176.842 306.678 177.701V177.709Z" fill="white"/>
<path d="M301.834 179.756C300.683 181.512 299.741 183.396 299.029 185.37C298.982 185.542 298.993 185.725 299.06 185.889C299.128 186.054 299.248 186.192 299.402 186.282C300.896 187.101 302.487 187.731 304.138 188.156C305.148 188.415 305.589 186.857 304.567 186.597C303.049 186.211 301.586 185.636 300.213 184.886L300.586 185.8C301.257 183.961 302.143 182.207 303.226 180.574C303.8 179.701 302.396 178.89 301.828 179.756H301.834Z" fill="white"/>
<path d="M298.17 197.132C298.628 195.395 298.9 193.614 298.981 191.82L297.957 192.6C299.757 193.087 301.601 193.399 303.462 193.53C304.499 193.605 304.499 191.989 303.462 191.913C301.746 191.788 300.046 191.496 298.388 191.04C298.267 191.009 298.141 191.005 298.018 191.03C297.896 191.054 297.781 191.105 297.681 191.18C297.581 191.255 297.5 191.352 297.443 191.463C297.386 191.573 297.354 191.695 297.351 191.82C297.275 193.469 297.022 195.106 296.596 196.701C296.331 197.709 297.894 198.149 298.16 197.132H298.17Z" fill="white"/>
<path d="M301.996 203.025C302.589 201.156 302.895 199.208 302.904 197.247L301.88 198.027C303.794 198.445 305.734 198.741 307.686 198.915C308.722 199.01 308.722 197.392 307.686 197.299C305.876 197.136 304.079 196.86 302.305 196.472C302.184 196.44 302.058 196.437 301.935 196.461C301.813 196.486 301.697 196.537 301.598 196.612C301.498 196.687 301.417 196.783 301.36 196.894C301.303 197.005 301.271 197.127 301.268 197.251C301.259 199.067 300.972 200.87 300.418 202.598C300.103 203.593 301.662 204.017 301.979 203.029L301.996 203.025Z" fill="white"/>
<path d="M288.707 195.528C290.155 195.076 291.552 194.477 292.877 193.739L291.769 193.449L293.623 197.284C294.075 198.221 295.473 197.402 295.021 196.469C294.403 195.191 293.785 193.912 293.169 192.632C292.976 192.235 292.418 192.144 292.06 192.343C290.858 193.014 289.59 193.559 288.275 193.968C287.284 194.279 287.707 195.83 288.707 195.528Z" fill="white"/>
<path d="M286.521 201.943C287.721 201.397 289.111 200.466 290.409 200.214L289.621 200.007C290.035 200.489 290.293 201.397 290.568 201.982L291.501 203.962C291.945 204.903 293.341 204.084 292.899 203.147L291.593 200.375C291.338 199.833 291.116 198.946 290.506 198.698C289.928 198.464 289.237 198.942 288.741 199.167L285.702 200.549C284.754 200.979 285.577 202.373 286.531 201.945L286.521 201.943Z" fill="white"/>
<path d="M283.581 187.203C284.699 188.328 285.933 189.332 287.263 190.197C287.168 189.828 287.071 189.46 286.973 189.092C286.263 190.214 285.626 191.381 285.067 192.586C284.632 193.523 286.027 194.346 286.465 193.413C287.024 192.208 287.662 191.04 288.373 189.917C288.476 189.731 288.503 189.513 288.449 189.307C288.395 189.101 288.264 188.924 288.082 188.813C286.87 188.019 285.745 187.101 284.725 186.072C283.991 185.332 282.847 186.473 283.581 187.214V187.203Z" fill="white"/>
<path d="M278.206 189.945C279.348 190.587 280.568 191.083 281.835 191.419C281.648 191.088 281.46 190.757 281.271 190.426C280.855 191.825 280.519 193.245 280.265 194.681C280.087 195.699 281.646 196.129 281.829 195.112C282.081 193.675 282.416 192.253 282.832 190.855C282.884 190.648 282.854 190.43 282.748 190.245C282.643 190.06 282.47 189.923 282.266 189.862C281.134 189.563 280.044 189.122 279.023 188.55C278.113 188.042 277.296 189.436 278.206 189.945Z" fill="white"/>
<path d="M75.8346 16.0019C73.9491 14.8837 71.3485 15.7813 70.3354 17.6568C69.3416 19.4898 70.3065 21.6415 72.0184 22.6243C72.8312 23.1214 73.8082 23.277 74.7357 23.0573C75.6632 22.8375 76.4657 22.2602 76.9676 21.4516C77.4657 20.6562 77.6728 19.7134 77.5536 18.7831C77.4345 17.8528 76.9964 16.9922 76.3138 16.3473C75.2982 15.4172 73.9382 17.061 74.9475 17.9852C76.3086 19.2366 74.8589 21.7958 73.0713 20.7939C72.3717 20.4031 71.8182 19.5702 72.1577 18.7615C72.6184 17.6859 74.0004 17.3956 74.9363 17.9501C76.1237 18.6542 76.9839 16.7037 75.8165 16.0087L75.8346 16.0019Z" fill="white"/>
<path d="M48.1296 37.1516C45.8645 35.5014 42.4877 35.559 40.5484 37.756C38.6801 39.8828 38.925 43.3899 40.9688 45.322C43.08 47.3115 47.2962 47.5095 49.3817 45.3754C51.701 42.9982 50.8371 39.5605 48.6532 37.472C47.6589 36.5215 46.2989 38.1652 47.2868 39.1099C48.6091 40.3738 49.3554 42.7154 47.6744 44.0701C46.2451 45.2287 43.3759 44.9111 42.2102 43.5345C39.6034 40.4647 43.633 36.5086 46.7707 38.7929C47.8808 39.5943 49.2549 37.9659 48.137 37.155L48.1296 37.1516Z" fill="white"/>
<path d="M83.0842 61.0476L94.5506 57.7987C95.5414 57.5044 95.5507 55.9619 94.5082 55.7451L83.5341 53.4505C83.7902 53.8835 84.049 54.3137 84.3079 54.7467C85.1142 52.4802 85.9232 50.2146 86.735 47.9499C87.0387 47.0972 86.1046 46.5438 85.3931 46.6653L78.4371 47.8547L79.8089 48.8538C79.2786 45.4296 78.7501 42.0035 78.2235 38.5756C78.0396 37.3823 76.5468 37.1692 76.1207 38.3449C74.7998 41.8418 73.4789 45.3433 72.1582 48.8494L73.4576 48.0776L66.4507 46.1371C65.7272 45.9383 64.8398 46.718 65.163 47.4757C66.0326 49.5159 66.8986 51.5572 67.761 53.5994L68.4805 52.2725L57.6937 54.6556C56.6003 54.8972 56.802 56.4216 57.7361 56.7092L68.8769 60.1618L68.106 58.8682C67.2514 61.3658 66.3986 63.8624 65.5476 66.3581C65.2135 67.3347 66.4029 67.88 67.1425 67.5279L72.903 64.8317L71.2783 63.9447L72.1872 74.8422C72.2029 75.094 72.3072 75.3323 72.4817 75.5148C72.6563 75.6974 72.8898 75.8127 73.1412 75.8403C73.3926 75.8678 73.6457 75.806 73.8559 75.6656C74.066 75.5252 74.2198 75.3153 74.29 75.0729L77.7742 63.8824L76.22 64.5499L83.7243 68.1019C83.9102 68.1978 84.1201 68.2378 84.3284 68.2171C84.5367 68.1963 84.7345 68.1157 84.8978 67.9851C85.0611 67.8544 85.1829 67.6793 85.2484 67.4809C85.3139 67.2826 85.3203 67.0695 85.2668 66.8676C84.7818 64.4853 84.2969 62.1029 83.812 59.7205C83.5371 58.3784 81.4902 58.993 81.765 60.3296C82.2481 62.7121 82.733 65.0944 83.2198 67.4768L84.7623 66.2425L77.258 62.6905C77.1141 62.617 76.9558 62.5762 76.7942 62.5708C76.6327 62.5655 76.472 62.5957 76.3235 62.6595C76.1751 62.7232 76.0426 62.8189 75.9354 62.9397C75.8283 63.0604 75.7492 63.2032 75.7038 63.358L72.2194 74.543L74.3222 74.7737L73.4133 63.8762C73.3406 63.0148 72.5337 62.6397 71.7885 62.9892L66.0253 65.6853L67.6175 66.8579C68.4813 64.3602 69.3341 61.8635 70.1759 59.3681C70.3677 58.8163 69.9162 58.2311 69.4022 58.0719L58.2614 54.6192L58.3038 56.6729L69.0906 54.2898C69.61 54.175 70.0238 53.468 69.8075 52.9657C68.9414 50.9235 68.0754 48.8822 67.2095 46.8419L65.9244 48.1777L72.9313 50.1183C73.5307 50.2868 74.0248 49.8767 74.2281 49.3493C75.5508 45.8523 76.8717 42.3498 78.1905 38.842L76.0878 38.6113C76.6199 42.0391 77.1484 45.4651 77.6731 48.8895C77.7873 49.6322 78.2951 50.019 79.0476 49.8885L86.0036 48.7018L84.6617 47.4172C83.8554 49.6837 83.0464 51.9493 82.2346 54.2141C82.1675 54.4878 82.2111 54.7769 82.3558 55.0189C82.5006 55.2609 82.7349 55.4364 83.0082 55.5075L93.9823 57.8021L93.9398 55.743L82.4733 58.992C81.1605 59.3806 81.7684 61.4226 83.0842 61.0476Z" fill="white"/>
</g>
<defs>
<clipPath id="clip0_80_12525">
<rect x="0.304138" y="0.696289" width="329.198" height="217.303" rx="20" fill="white"/>
</clipPath>
</defs>
</svg>
