<svg width="123" height="111" viewBox="0 0 123 111" fill="none" xmlns="http://www.w3.org/2000/svg">
<path d="M113.384 -11.3346L112.292 32.3791C112.268 33.3692 113.805 33.3692 113.829 32.3791C114.193 17.8079 114.558 3.23664 114.922 -11.3346C114.946 -12.3247 113.409 -12.3247 113.384 -11.3346Z" fill="white"/>
<path d="M110.695 37.9119L110.842 35.5357C110.878 34.9595 110.699 33.6248 111.039 33.1595L110.376 33.5437C111.09 33.4704 111.867 33.6446 112.579 33.7199C113.382 33.8031 114.216 33.8347 115.013 33.9714C115.271 34.0169 115.117 33.5753 115.21 34.205C115.243 34.5796 115.254 34.9558 115.243 35.3317L115.32 37.8109L116.752 37.4148L116.66 37.201C116.266 36.2901 114.944 37.0762 115.334 37.9812L115.424 38.195C115.735 38.9158 116.878 38.5297 116.857 37.799L116.774 35.0941C116.756 34.5001 116.874 33.708 116.609 33.1516C116.091 32.0585 114.051 32.312 113.067 32.211C112.042 32.1041 110.026 31.3992 109.526 32.714C109.302 33.2961 109.4 34.1832 109.361 34.801C109.298 35.8347 109.232 36.8677 109.164 37.9C109.101 38.8901 110.638 38.8901 110.701 37.9L110.695 37.9119Z" fill="white"/>
<path d="M113.159 37.3275C106.899 37.6958 102.095 44.06 103.147 50.248C103.684 53.4162 105.451 55.1211 107.702 57.1785C110.179 59.4517 111.243 62.5982 111.751 65.8733C111.863 66.6119 113.128 66.6119 113.232 65.8733C113.752 62.4694 115.015 59.9764 117.704 57.8676C119.967 56.0855 121.655 54.1053 122.328 51.2183C123.833 44.7907 120.108 37.6879 113.159 37.3196C112.176 37.2681 112.176 38.8146 113.159 38.8681C121.91 39.3295 123.329 51.0816 117.5 56.0716C115.975 57.3765 114.401 58.2874 113.417 60.1111C112.532 61.7467 112.026 63.6358 111.747 65.4694H113.228C112.581 61.214 110.954 58.0913 107.812 55.2518C102.01 50.0124 104.88 39.3631 113.155 38.876C114.141 38.8166 114.149 37.2701 113.159 37.3275Z" fill="white"/>
<path d="M113.493 53.2345C112.155 53.2345 107.813 45.5001 109.818 44.8268C111.823 44.1536 113.163 47.5178 113.163 47.5178C113.163 47.5178 113.83 44.1516 115.835 44.8268C117.839 45.5021 114.829 53.2345 113.493 53.2345Z" fill="white"/>
<path d="M111.466 33.2823V37.6545C111.466 38.2584 112.402 38.2604 112.402 37.6545V33.2823C112.402 32.6764 111.466 32.6744 111.466 33.2823Z" fill="white"/>
<path d="M113.22 33.5064L113.324 37.6548C113.34 38.2588 114.274 38.2627 114.259 37.6548C114.225 36.2727 114.19 34.8899 114.154 33.5064C114.141 32.9025 113.204 32.9005 113.22 33.5064Z" fill="white"/>
<path d="M106.04 47.6321C105.987 48.2921 106.077 48.9558 106.303 49.5777C106.529 50.1997 106.885 50.7653 107.348 51.2359C107.769 51.6716 108.43 51.0043 108.009 50.5706C107.633 50.1871 107.345 49.7251 107.167 49.2172C106.988 48.7094 106.922 48.1683 106.974 47.6321C107.023 47.038 106.087 47.038 106.04 47.6321Z" fill="white"/>
<path d="M108.928 53.3674C109.53 53.3674 109.53 52.4248 108.928 52.4248C108.326 52.4248 108.324 53.3674 108.928 53.3674Z" fill="white"/>
<path d="M48.9631 54.5839C48.9807 55.6172 48.9631 56.654 48.9141 57.6873C48.239 59.333 47.1318 60.0007 45.5924 59.6904C43.8194 60.0713 41.5979 59.7786 39.7794 59.8209C38.3603 59.8526 35.2243 60.5262 33.9629 59.9549C31.0687 58.6571 32.0708 56.379 32.0568 54.2806L30.6868 55.6595L50.3332 55.9593C52.0851 55.9875 52.0851 53.2332 50.3332 53.205L30.6868 52.9053C30.3265 52.9133 29.9832 53.0607 29.7281 53.3168C29.473 53.5729 29.3256 53.9181 29.3167 54.2806C29.3167 56.721 28.1604 59.9231 30.4169 61.7922C32.5193 63.5555 36.6294 62.6492 39.0506 62.5928L45.5924 62.4447C46.8818 62.4129 48.9246 62.7091 50.1194 62.0179C52.3479 60.7272 51.6997 56.6364 51.6997 54.5839C51.6997 52.8101 48.9631 52.8065 48.9631 54.5839Z" fill="white"/>
<path d="M36.5132 53.0646L36.8917 47.7747L35.5216 49.1501L39.5897 49.0478C40.7179 49.0196 42.4173 48.667 43.486 49.0902L42.6661 48.4589C43.3669 49.5169 43.055 51.8903 42.985 53.0964C42.8798 54.8597 45.6164 54.8597 45.7215 53.0964C45.8301 51.2485 46.3137 47.3939 44.2148 46.4347C43.062 45.9092 41.4853 46.2442 40.2694 46.276L35.5216 46.3959C35.1614 46.4049 34.8185 46.5531 34.564 46.8099C34.3095 47.0667 34.1631 47.4122 34.1551 47.7747L33.7767 53.0646C33.6505 54.8279 36.3871 54.8279 36.5132 53.0646Z" fill="white"/>
<path d="M40.8338 -4.71562C39.799 12.2519 38.7665 29.2171 37.7364 46.1799C37.6312 47.9432 40.3678 47.9432 40.4764 46.1799C41.5066 29.2171 42.5379 12.2519 43.5703 -4.71562C43.679 -6.47891 40.9389 -6.47891 40.8338 -4.71562Z" fill="white"/>
<path d="M31.8461 61.3896C29.565 66.9439 22.2243 65.8825 17.3469 66.9334C13.7869 67.6987 9.98866 68.9224 6.83514 70.8479C1.92967 73.856 -0.789363 79.3751 0.205748 85.1622C1.29897 91.5312 6.51278 96.07 12.5465 97.5758C16.9124 98.662 21.5305 98.1118 25.8333 99.5683C31.0086 101.332 34.8244 105.165 37.2175 110.018C37.8868 111.368 39.6352 110.539 39.7684 109.312C40.8967 98.9899 61.4926 99.4801 68.7913 97.0821C73.9841 95.3787 79.6534 92.2506 81.055 86.4812C82.3234 81.1913 79.2014 76.4198 75.0983 73.4328C72.0394 71.2111 68.4409 70.1708 64.8213 69.335C60.7743 68.4075 49.0923 67.6845 49.716 61.4777C49.8947 59.7145 47.1546 59.7145 46.9794 61.4777C46.3487 67.7304 53.5948 69.6559 58.3321 70.7808C63.0694 71.9058 68.1045 72.3467 72.3478 74.8964C78.3605 78.5252 80.9814 85.7088 74.9617 90.84C65.6868 98.7431 38.7803 93.5202 37.0529 109.319L39.6037 108.614C37.151 103.641 33.2967 99.6565 28.1634 97.5017C19.8066 93.9963 8.40838 97.6569 3.86381 87.4334C-1.50769 75.3513 12.508 70.273 21.6181 69.0035C27.0842 68.2453 32.1614 67.8044 34.4985 62.109C35.1713 60.4727 32.5258 59.7568 31.8601 61.3755L31.8461 61.3896Z" fill="white"/>
<path d="M38.4543 74.7344C35.928 75.14 33.5033 76.8927 33.4893 79.6716C33.4893 82.3906 36.1067 83.9882 38.5734 84.1257C40.9596 84.2632 42.8762 82.5846 42.9323 80.1512C42.9954 77.3511 40.6793 75.5032 38.2686 74.6709C37.2524 74.3183 36.8145 75.9405 37.8271 76.2896C39.3338 76.808 40.921 77.8166 41.2119 79.5235C41.5027 81.2304 40.3289 82.567 38.5734 82.4506C36.9616 82.3413 35.031 81.3115 35.1571 79.4706C35.2903 77.5204 37.2174 76.6105 38.8958 76.339C39.947 76.1697 39.5055 74.5546 38.4543 74.7238V74.7344Z" fill="white"/>
<path d="M38.3002 69.0434C37.9216 70.9899 37.6735 72.9598 37.5574 74.9398C37.4943 75.9978 39.1587 75.9978 39.2253 74.9398C39.3309 73.1092 39.558 71.2878 39.905 69.4877C40.1083 68.4298 38.5035 67.9819 38.3002 69.0434Z" fill="white"/>
<path d="M37.508 83.3189C37.3258 85.3149 37.1412 87.3133 36.9544 89.314C36.8563 90.372 38.5206 90.372 38.6187 89.314L39.1759 83.3189C39.274 82.2609 37.6096 82.2609 37.508 83.3189Z" fill="white"/>
<path d="M29.8903 73.3089C31.0912 75.1704 32.6378 76.7809 34.4454 78.0521C35.3214 78.6799 36.1553 77.2269 35.2864 76.6062C33.7243 75.4901 32.3886 74.0836 31.3515 72.4625C30.7698 71.5597 29.3262 72.399 29.9114 73.3089H29.8903Z" fill="white"/>
<path d="M41.7233 78.5606C43.1913 77.1101 44.8128 75.8258 46.5587 74.7307C47.4662 74.1594 46.6323 72.71 45.7177 73.2813C43.8501 74.4515 42.1158 75.8245 40.546 77.3756C39.7786 78.1339 40.9594 79.3188 41.7233 78.5606Z" fill="white"/>
<path d="M29.0747 83.858C30.986 83.0202 32.834 82.0431 34.6039 80.9345C35.5149 80.3667 34.6774 78.9137 33.7629 79.4886C31.9922 80.5947 30.1443 81.5706 28.2338 82.4086C27.2527 82.8388 28.1006 84.2847 29.0747 83.858Z" fill="white"/>
<path d="M41.938 82.412C43.6437 83.2204 45.1876 84.3368 46.4931 85.7058C47.2359 86.4852 48.4132 85.3002 47.6704 84.5209C46.2727 83.049 44.6214 81.8445 42.7964 80.966C41.8329 80.5041 40.9849 81.9465 41.9555 82.412H41.938Z" fill="white"/>
<path d="M35.4589 71.6377C36.291 72.7053 37.3603 73.5617 38.5809 74.138C38.7414 74.2277 38.9263 74.2634 39.1084 74.2399C39.2906 74.2164 39.4605 74.135 39.5935 74.0075L41.9832 71.3344C42.6839 70.5339 41.5242 69.3454 40.8059 70.1495L38.4127 72.8226L39.4218 72.6921C38.3248 72.1789 37.3642 71.4115 36.6187 70.4528C35.9564 69.6064 34.7826 70.8054 35.4414 71.6377H35.4589Z" fill="white"/>
<path d="M29.705 77.1535L32.9497 76.6562C33.0902 76.6209 33.2186 76.5478 33.3211 76.4447C33.4235 76.3415 33.4962 76.2123 33.5313 76.0708C33.8384 74.7196 33.9634 73.333 33.9027 71.9483C33.8502 70.8903 32.1858 70.8656 32.2349 71.9483C32.2988 73.1828 32.1951 74.4202 31.9265 75.6265C32.1192 75.429 32.3119 75.235 32.5082 75.0411L29.2636 75.5348C28.2124 75.697 28.6539 77.2981 29.705 77.1535Z" fill="white"/>
<path d="M28.3945 80.7942C29.4182 81.052 30.3949 81.471 31.2887 82.0356L30.8753 81.3091C30.7352 82.5747 30.6965 83.8495 30.7596 85.1213C30.8157 86.1969 32.4801 86.204 32.4275 85.1213C32.3615 83.8496 32.399 82.5746 32.5396 81.3091C32.5377 81.1659 32.4989 81.0256 32.427 80.902C32.3552 80.7784 32.2527 80.6757 32.1297 80.6038C31.1126 79.9641 30.0025 79.4882 28.8395 79.1932C27.7883 78.9287 27.3538 80.5474 28.3945 80.8118V80.7942Z" fill="white"/>
<path d="M35.6967 88.96L39.2497 86.1387L37.8481 85.7861C38.0229 86.4544 38.3669 87.0656 38.8465 87.5601C39.3262 88.0546 39.9251 88.4154 40.5847 88.6073C41.6078 88.9353 42.0458 87.3166 41.0262 86.9922C40.6417 86.8773 40.2939 86.6627 40.0178 86.37C39.7417 86.0772 39.5469 85.7165 39.4529 85.3241C39.2742 84.6611 38.5349 84.5729 38.0513 84.9714L34.4984 87.7927C33.6574 88.4627 34.8488 89.6442 35.6757 88.9776L35.6967 88.96Z" fill="white"/>
<path d="M47.505 80.1736L45.2975 81.2845C44.7299 81.5701 44.0466 81.8099 43.7488 82.4236C43.5105 82.9102 43.6227 83.4075 43.7173 83.9153C43.889 84.804 44.0676 85.6786 44.2569 86.5779C44.4706 87.6358 46.0754 87.188 45.8652 86.1335C45.7215 85.4282 45.0558 83.6896 45.4026 83.1042C45.5708 82.8221 46.5729 82.5153 46.8743 82.3601L48.3459 81.6195C49.306 81.1364 48.4616 79.6905 47.505 80.1736Z" fill="white"/>
<path d="M42.2172 72.9811C41.9019 74.2118 41.6951 75.5696 42.5676 76.617C42.9104 77.0376 43.4011 77.3091 43.9376 77.3752C44.1794 77.407 45.5599 77.213 45.574 77.2588C45.8928 78.285 47.5011 77.8478 47.1788 76.8145C46.8984 75.9152 46.054 75.5167 45.157 75.6013C44.6069 75.6507 44.0112 75.954 43.6994 75.3298C43.3875 74.7056 43.6643 73.9967 43.808 73.4254C44.0778 72.3674 42.4695 71.9372 42.2032 72.9811H42.2172Z" fill="white"/>
<path d="M23.2967 67.1914C17.8446 76.484 18.2231 87.4798 21.7935 97.3895C22.1439 98.3946 23.7697 97.9608 23.4018 96.9452C19.9785 87.4481 19.4985 76.9671 24.7368 68.0272C25.2834 67.0962 23.8433 66.2639 23.2967 67.1809V67.1914Z" fill="white"/>
<path d="M16.927 68.2842C13.1603 72.3503 12.3404 77.9153 12.372 83.3074C12.3895 86.5765 12.5051 95.5235 16.0686 97.3009C16.1797 97.3619 16.3029 97.3972 16.4293 97.4043C16.5557 97.4113 16.6821 97.3899 16.7992 97.3416C16.9164 97.2933 17.0213 97.2193 17.1065 97.125C17.1916 97.0307 17.2548 96.9185 17.2914 96.7965L17.358 96.6343C17.4064 96.4565 17.3952 96.2675 17.3261 96.0967C17.2571 95.9258 17.1341 95.7826 16.9761 95.6892L16.857 95.6152C15.9354 95.0544 15.105 96.5038 16.016 97.0646C15.9074 96.8248 15.7953 96.5885 15.6867 96.3593L16.9095 95.8585C13.9172 94.3668 13.9943 85.3986 14.0328 82.5915C14.0959 77.8941 14.8142 73.031 18.1079 69.4762C18.8367 68.6862 17.6629 67.4978 16.927 68.2913V68.2842Z" fill="white"/>
<path d="M60.0596 71.0165C62.2706 79.0395 63.2727 88.7516 60.0981 96.6653C59.6952 97.6668 61.307 98.1006 61.7065 97.1131C64.9966 88.9033 63.9594 78.9019 61.6679 70.5721C61.3806 69.5318 59.7723 69.9762 60.0596 71.0165Z" fill="white"/>
<path d="M66.4334 71.833C69.5029 78.946 69.6603 86.9906 66.8714 94.2197C66.493 95.2318 68.1048 95.6691 68.4797 94.6675C71.3818 87.0009 71.1627 78.4917 67.87 70.9866C67.4495 69.9991 66.0129 70.8526 66.4334 71.833Z" fill="white"/>
<path d="M17.897 74.5225C19.6489 74.5225 19.6489 71.7646 17.897 71.7646C16.145 71.7646 16.145 74.5225 17.897 74.5225Z" fill="white"/>
<path d="M16.1101 81.1113C17.8621 81.1113 17.8621 78.3535 16.1101 78.3535C14.3582 78.3535 14.3582 81.1113 16.1101 81.1113Z" fill="white"/>
<path d="M17.673 87.1415L17.3751 86.8418C16.1278 85.5899 14.1936 87.5471 15.441 88.792L15.7388 89.0918C16.9862 90.3472 18.9204 88.3864 17.673 87.1415Z" fill="white"/>
<path d="M65.4976 76.6185C67.2495 76.6185 67.2495 73.8643 65.4976 73.8643C63.7456 73.8643 63.7456 76.6185 65.4976 76.6185Z" fill="white"/>
<path d="M66.0933 82.6137C67.8452 82.6137 67.8452 79.8594 66.0933 79.8594C64.3413 79.8594 64.3413 82.6137 66.0933 82.6137Z" fill="white"/>
<path d="M67.1653 87.8175V87.5178C67.1653 85.7545 64.4287 85.7545 64.4287 87.5178V87.8175C64.4287 89.5808 67.1653 89.5808 67.1653 87.8175Z" fill="white"/>
</svg>
