<svg width="105" height="109" viewBox="0 0 105 109" fill="none" xmlns="http://www.w3.org/2000/svg">
<g opacity="0.25">
<path d="M36.5848 43.9126C36.0585 48.4084 35.2681 52.864 34.218 57.2555C34.1108 57.7373 34.1274 58.2409 34.2661 58.7175C34.4049 59.1941 34.6611 59.6274 35.0099 59.9755L42.1445 66.6988C43.8404 68.294 46.3345 71.7934 48.7098 72.4071C51.0852 73.0208 54.9063 71.0902 57.1245 70.481C60.1761 69.6533 64.4447 69.3098 67.1793 67.6266C69.3382 66.2978 69.6707 61.1956 70.237 59.0403C70.8787 56.6152 73.3136 51.767 71.2485 49.4601L58.0476 34.6608C57.1293 33.6375 55.7516 33.7343 54.6591 34.2444L37.8326 42.1346C34.5809 43.659 37.5598 48.5602 40.7493 47.0387L57.5776 39.1929L54.1891 38.7765L67.3958 53.5773L66.6096 50.8587C65.4033 55.4144 64.1988 59.9706 62.9963 64.5272L64.8933 62.5019L48.5306 66.9652L51.2486 67.6675L38.8246 55.968L39.6108 58.6865C40.6609 54.2951 41.4513 49.8394 41.9776 45.3437C42.4103 41.7075 36.9898 40.263 36.5848 43.9126Z" fill="white"/>
<path d="M47.5591 70.8895L41.8621 95.0705C41.0204 98.6432 46.5005 100.051 47.3422 96.4779L53.0392 72.2968C53.8809 68.7241 48.4009 67.3168 47.5591 70.8895Z" fill="white"/>
<path d="M57.6393 12.7454C56.0662 19.8784 54.8782 27.099 54.0803 34.3748C53.6629 37.9976 59.123 39.4593 59.5471 35.7815C60.3442 28.5117 61.5309 21.2971 63.1019 14.1698C63.9064 10.5899 58.4396 9.18323 57.6351 12.7632L57.6393 12.7454Z" fill="white"/>
<path d="M33.9322 59.2068C26.6662 63.6129 18.9238 67.2677 11.2533 70.8782C7.99829 72.3998 10.9516 77.291 14.1676 75.7781C21.8425 72.1751 29.5864 68.5144 36.8466 64.1067C39.9288 62.2452 37.0087 57.3437 33.9322 59.2068Z" fill="white"/>
<path d="M62.5613 67.3942C69.5142 72.7143 75.1692 79.6123 81.9082 85.2159C84.6904 87.5336 88.5589 83.4836 85.7549 81.1539C78.637 75.2267 72.6051 68.0746 65.2472 62.4367C62.3534 60.2281 59.6807 65.2079 62.5627 67.3883L62.5613 67.3942Z" fill="white"/>
<path d="M70.3771 51.5759C77.4949 45.4657 86.6075 42.2964 94.9912 38.4549C98.2494 36.9465 95.3017 32.0564 92.078 33.5486C83.1791 37.6717 73.9217 41.1178 66.3565 47.6403C63.6147 49.9922 67.6748 53.9695 70.3865 51.6412L70.3771 51.5759Z" fill="white"/>
<path d="M19.7394 24.8407C26.1282 31.8758 32.5036 39.0203 39.3505 45.5962C41.9787 48.1579 45.8571 44.0696 43.2002 41.5256C36.3547 34.9438 29.9851 27.8008 23.5891 20.7702C21.1198 18.055 17.292 22.1375 19.7394 24.8407Z" fill="white"/>
<path d="M49.0303 13.1935C51.3949 17.686 54.5285 21.6245 57.6809 25.5616C58.4946 26.5744 59.9436 26.2399 60.7616 25.5292C64.0762 22.7248 67.5905 20.1757 71.2762 17.9026C73.6601 16.4109 71.3802 12.58 68.9949 14.0775C64.9983 16.5633 61.1929 19.3541 57.6104 22.4265L60.6897 22.4C57.7714 18.7492 54.9282 15.0926 52.7361 10.9394C51.3982 8.38646 47.6886 10.6835 49.0234 13.2231L49.0303 13.1935Z" fill="white"/>
<path d="M47.1653 25.2259C50.4595 27.6789 53.2344 30.7746 56.2773 33.5135C56.6995 33.9166 57.2556 34.1389 57.8292 34.134C58.4028 34.1291 58.9494 33.8972 59.3545 33.4871C61.958 31.0276 65.3819 30.1513 68.673 29.0027C71.3093 28.0798 70.0661 23.795 67.4097 24.7253C63.3487 26.1448 59.431 27.3196 56.211 30.3652L59.2881 30.3388C55.9407 27.3271 52.8837 24.046 49.2709 21.3542C46.9851 19.656 44.9173 23.5499 47.1653 25.2259Z" fill="white"/>
<path d="M17.726 33.7189C21.3538 31.8208 25.5923 32.3374 29.3974 31.0761C33.5989 29.6468 34.8982 25.676 34.8111 21.4726C34.7532 18.5908 30.3919 18.6774 30.4485 21.5651C30.5308 25.5786 28.9964 26.8985 25.2998 27.4335C21.8707 27.9306 18.5601 28.2635 15.4335 29.914C12.9362 31.2177 15.2347 35.0493 17.7176 33.7544L17.726 33.7189Z" fill="white"/>
<path d="M26.9644 45.7759C31.0863 44.7381 36.4794 46.4081 39.822 43.1421C43.0252 39.9974 42.2416 33.4435 43.0529 29.3474C43.6191 26.535 39.3713 25.4252 38.8023 28.2494C38.0402 32.0561 38.5067 36.4886 36.6714 39.9803C36.071 41.1219 32.5271 40.7982 31.4577 40.8619C29.5179 40.8739 27.5863 41.0791 25.6902 41.4746C22.9582 42.1601 24.2324 46.4613 26.9586 45.7744L26.9644 45.7759Z" fill="white"/>
<path d="M9.28983 63.9006C12.019 65.6122 15.8813 66.9057 18.1217 69.2837C19.5378 70.7882 17.132 77.3256 16.7194 79.0874C16.0638 81.8872 20.3108 82.9845 20.9665 80.1846C21.8763 76.2992 23.8857 71.1126 21.9547 67.2292C21.2788 65.8531 19.8121 64.9332 18.5717 64.1786C16.2003 62.7544 13.7438 61.5096 11.3965 60.035C9.04928 58.5605 6.87727 62.4155 9.29122 63.8947L9.28983 63.9006Z" fill="white"/>
<path d="M25.0666 56.7793C22.8541 57.9832 23.8879 60.416 25.5348 61.5213C27.5934 62.8967 30.1412 63.4477 32.3321 64.5739L31.2585 62.0742C30.2502 66.2208 29.0197 70.184 28.9659 74.4953C28.9078 77.3763 33.2806 77.2718 33.3151 74.3595C33.3835 70.4864 34.616 66.8573 35.5169 63.1426C35.6282 62.6682 35.5839 62.1674 35.3907 61.7172C35.1976 61.267 34.8663 60.8922 34.4477 60.6504C33.2975 60.0574 32.0777 59.6038 30.8878 59.1013C30.1975 58.8097 29.5144 58.5136 28.834 58.2057C28.5513 58.0697 28.2803 57.9368 27.9959 57.7815C27.4672 57.4057 27.4964 57.5706 28.0631 58.2584L27.8545 60.0177L27.3385 60.6147C29.8134 59.2645 27.5125 55.4216 25.0505 56.7689L25.0666 56.7793Z" fill="white"/>
<path d="M37.2031 93.1699C39.621 91.7644 42.283 90.3656 45.0137 91.7654C47.7443 93.1652 49.3441 96.716 50.7501 99.2333C52.1561 101.751 55.862 99.4625 54.4604 96.9525C52.4364 93.2986 50.1795 89.4594 46.3964 87.5187C42.6132 85.578 38.3088 87.3798 34.9144 89.3349C32.4821 90.7491 34.7678 94.5708 37.1915 93.1669L37.2031 93.1699Z" fill="white"/>
<path d="M39.6234 81.1485C42.5799 80.3775 45.2372 78.9972 48.1232 78.1079C49.659 77.6339 53.5103 82.9966 54.3512 83.9146C56.3089 86.0408 59.2828 82.8393 57.3557 80.7397C55.1849 78.3707 52.0594 73.6835 48.4304 73.6301C45.1307 73.5864 41.5199 76.0478 38.3617 76.8669C35.6543 77.5708 36.916 81.8523 39.6234 81.1485Z" fill="white"/>
<path d="M78.3134 90.0465L80.6711 79.1112C80.1774 79.6131 79.6742 80.1819 79.1794 80.715C82.3107 80.2151 85.4783 79.9643 88.6538 79.9647C91.4709 79.9685 91.3243 75.4866 88.471 75.4798C84.9192 75.5022 81.3785 75.8126 77.882 76.4079C77.5146 76.5108 77.1823 76.7135 76.9201 76.9946C76.6579 77.2758 76.4753 77.6251 76.3916 78.0058L74.05 88.9515C73.4534 91.7622 77.6965 92.8645 78.3004 90.0494L78.3134 90.0465Z" fill="white"/>
<path d="M67.1564 77.8638C67.9807 74.593 68.5654 71.2606 68.9058 67.8944L66.8011 70.1745C71.3892 70.731 75.8479 69.7886 80.3016 68.7883C83.0399 68.1687 81.7657 63.8773 79.0346 64.4924C74.919 65.4165 70.8918 66.1999 66.6547 65.6964C65.37 65.5532 64.6348 66.9041 64.5428 67.981C64.2118 70.9456 63.6671 73.8782 62.9133 76.755C62.2592 79.5482 66.5109 80.6467 67.1592 77.852L67.1564 77.8638Z" fill="white"/>
<path d="M74.6013 33.0142C71.8267 36.179 70.5143 40.678 69.5264 44.7386C69.3981 45.3141 69.4956 45.9212 69.7981 46.4297C70.1005 46.9383 70.5839 47.3079 71.1446 47.4593C74.5503 48.4146 77.5779 50.0901 80.6313 51.8919C83.0901 53.3387 85.1909 49.4461 82.731 48.0304C79.3409 46.0348 75.9352 44.2112 72.1648 43.1554C72.7056 44.0563 73.2392 44.9617 73.7786 45.8686C74.5731 42.6074 75.5223 38.7381 77.7614 36.2024C79.6278 34.0737 76.474 30.9374 74.6018 33.0646L74.6013 33.0142Z" fill="white"/>
<path d="M85.6423 29.7122C84.778 32.5345 84.0065 35.513 82.7273 38.159C82.2433 39.1729 82.4614 40.6892 83.5899 41.2135C86.3626 42.5697 89.0409 44.1237 91.6046 45.864C94.0013 47.4208 96.0925 43.5184 93.7118 41.972C91.1485 40.231 88.4702 38.677 85.6971 37.3216L86.5553 40.3687C88.0105 37.3655 88.9144 34.0058 89.891 30.8097C90.7256 28.0615 86.4729 26.9817 85.6423 29.7122Z" fill="white"/>
</g>
</svg>
