<svg width="63" height="64" viewBox="0 0 63 64" fill="none" xmlns="http://www.w3.org/2000/svg">
<g opacity="0.5">
<path d="M13.8068 16.4159C24.7382 26.8973 35.9859 37.328 45.8639 48.8288C47.0874 50.2504 49.4467 48.4416 48.2115 47.008C38.1745 35.3295 26.7267 24.7213 15.6122 14.0621C14.2557 12.7605 12.458 15.1246 13.8038 16.4171L13.8068 16.4159Z" fill="white"/>
<path d="M16.4255 50.0199L49.2744 13.3526C50.5443 11.9366 48.2122 10.1996 46.9499 11.609C35.9954 23.8166 25.0428 36.0347 14.0922 48.2631C12.8264 49.6807 15.1585 51.4178 16.4208 50.0084L16.4255 50.0199Z" fill="white"/>
<path d="M30.7879 8.29128C29.9456 24.2332 28.8444 40.3984 29.1996 56.3351C29.2416 58.229 32.1777 57.8198 32.1352 55.9498C31.7893 40.2702 32.8798 24.3467 33.7167 8.66802C33.8153 6.78991 30.8888 6.40204 30.7879 8.29128Z" fill="white"/>
<path d="M7.80212 34.7248C23.5211 34.3255 39.4035 33.4848 55.0747 31.8311C56.9649 31.6308 56.615 28.7438 54.7388 28.9451C39.0792 30.5939 23.1969 31.4346 7.4733 31.8559C5.57831 31.9036 5.94688 34.7861 7.81211 34.7408L7.80212 34.7248Z" fill="white"/>
<path d="M26.7366 54.1964C28.5222 52.3594 30.409 50.6355 32.0465 48.6545L30.2218 48.6776C31.885 50.6299 33.3434 52.742 34.9523 54.7373C35.8712 55.8762 37.7066 54.4608 36.7824 53.3173C35.1735 51.3221 33.722 49.1935 32.0519 47.2576C31.9427 47.1228 31.804 47.0146 31.646 46.9411C31.488 46.8676 31.3148 46.8306 31.1392 46.8329C30.9636 46.8352 30.7902 46.8768 30.6318 46.9546C30.4734 47.0323 30.3341 47.1442 30.2242 47.282C28.5925 49.2606 26.7011 50.9898 24.9154 52.8267C23.8787 53.8948 25.7132 55.2555 26.7395 54.1951L26.7366 54.1964Z" fill="white"/>
<path d="M43.2819 49.64C43.2586 47.5408 43.0854 45.3928 43.4909 43.3135C43.5905 42.7893 48.8695 43.5191 49.821 43.3375C51.2822 43.0643 51.016 40.7899 49.5572 41.0688C47.4005 41.4807 42.9424 39.534 41.5595 42.0487C40.3647 44.2048 40.9742 47.6079 40.9991 49.9528C41.0169 51.4301 43.3032 51.1091 43.2732 49.6605L43.2819 49.64Z" fill="white"/>
<path d="M52.2843 35.5141C51.4837 33.7051 50.3632 32.0704 49.5654 30.2601L49.1947 31.607C50.8339 30.1975 51.8681 28.4346 52.719 26.4842C53.3151 25.1177 51.1868 24.2562 50.5907 25.6227C49.9044 27.1962 49.1173 28.6662 47.7911 29.8095C47.5926 29.9668 47.4496 30.1828 47.3833 30.4252C47.317 30.6677 47.331 30.9237 47.4233 31.1551C48.221 32.9653 49.3415 34.6 50.1422 36.409C50.736 37.7559 52.8794 36.8638 52.2843 35.5141Z" fill="white"/>
<path d="M40.2492 10.9421C40.6312 13.0938 41.0802 15.4172 40.8587 17.6113C40.7935 18.2884 41.371 19.0691 42.1364 18.8947C44.4308 18.3759 47.0788 18.9445 49.3477 19.367C50.8107 19.6389 51.1321 17.3624 49.6803 17.0926C47.2258 16.636 44.359 16.0607 41.8736 16.6323L43.1513 17.9156C43.3912 15.5074 42.9715 13.0127 42.5481 10.6515C42.2969 9.20315 39.9946 9.50196 40.2686 10.9475L40.2492 10.9421Z" fill="white"/>
<path d="M26.3195 10.3979C28.0649 12.3179 30.1363 13.8654 32.1565 15.4545C32.6864 15.8709 33.3379 15.6662 33.7713 15.2218C35.2136 13.7349 36.5966 12.1951 38.1006 10.7667C39.1722 9.75193 37.7847 7.94564 36.7068 8.98671C35.0577 10.5533 33.536 12.2388 31.9539 13.8685L33.5687 13.6359C31.6871 12.1677 29.752 10.7691 28.1418 8.99515C27.1633 7.91906 25.3264 9.32793 26.3196 10.4316L26.3195 10.3979Z" fill="white"/>
<path d="M12.9049 21.502C13.3391 21.1858 14.9769 21.1624 15.6376 21.065C16.8971 20.9178 18.1399 20.6415 19.3461 20.2406C19.5777 20.1404 19.7718 19.9692 19.8996 19.7525C20.0274 19.5357 20.082 19.285 20.0554 19.0374C20.0136 17.4526 20.0699 15.8652 20.224 14.2841C20.3395 12.8166 18.0644 12.5196 17.9459 13.9884C17.7782 15.7679 17.7202 17.5541 17.7722 19.3372L18.4828 18.1368C17.2256 18.6047 15.8378 18.7293 14.5205 18.9257C13.5554 19.0726 12.3251 19.1146 11.5046 19.7136C10.3011 20.5872 11.6997 22.3797 12.9002 21.4905L12.9049 21.502Z" fill="white"/>
<path d="M10.0469 39.5654C11.4678 37.5327 13.1006 35.6316 14.6935 33.7337C14.8501 33.5312 14.9354 33.2839 14.9358 33.0306C14.9362 32.7773 14.8519 32.5323 14.696 32.3343C13.0485 30.2598 11.3928 28.182 9.85527 26.0242C8.99916 24.8244 7.16774 26.2498 8.03439 27.4418C9.57187 29.5996 11.2288 31.6803 12.8792 33.7536L12.8816 32.3542C11.2858 34.2534 9.63834 36.1606 8.23206 38.1872C7.37889 39.4036 9.20316 40.7881 10.0616 39.5593L10.0469 39.5654Z" fill="white"/>
<path d="M12.8056 46.4418C15.5102 45.9629 18.2164 45.4799 20.9244 44.9928L19.6458 44.0057C19.937 46.6869 19.2901 49.3951 19.5825 52.0792C19.7427 53.5473 22.0362 53.2413 21.8742 51.7774C21.583 49.0961 22.2299 46.3879 21.9375 43.7038C21.9005 43.4032 21.7451 43.1313 21.5053 42.9472C21.2655 42.763 20.9607 42.6817 20.6572 42.7208C17.9527 43.2109 15.2468 43.6949 12.5396 44.1727C11.0727 44.4307 11.3371 46.7039 12.8009 46.4303L12.8056 46.4418Z" fill="white"/>
</g>
</svg>
