<svg width="333" height="242" viewBox="0 0 333 242" fill="none" xmlns="http://www.w3.org/2000/svg">
<path d="M-6.97041 218.683C25.1921 197.946 61.5326 185.224 95.5821 168.114C111.329 160.198 126.698 151.324 140.667 140.528C153.948 130.264 166.795 118.068 175.2 103.338C177.17 99.9167 178.849 96.3359 180.221 92.6336C181.446 89.2779 182.837 85.3553 181.225 81.8884C179.726 78.6725 176.159 76.817 172.734 76.6083C168.471 76.3449 164.568 78.4586 161.166 80.7984C150.451 88.1291 139.308 101.091 145.207 114.887C151.268 129.018 169.144 133.088 182.955 132.281C198.759 131.371 213.671 124.374 226.524 115.444C240.694 105.627 252.488 92.9382 264.502 80.6903C270.754 74.315 277.094 68.0017 283.89 62.195C289.601 57.315 295.913 51.6558 303.278 49.4938C306.499 48.55 309.753 48.5398 312.818 50.0125C314.727 50.9576 315.867 47.8179 313.955 46.8886C307.963 43.9766 301.199 46.0835 295.747 49.2225C289.026 53.0906 283.008 58.3928 277.292 63.5882C264.694 75.0364 253.483 87.9035 240.968 99.4452C229.676 109.864 217.024 119.106 202.55 124.568C189.027 129.675 172.253 131.673 159.077 124.491C152.969 121.163 147.653 115.733 146.957 108.521C146.31 101.971 149.792 95.8993 154.063 91.226C156.302 88.8156 158.766 86.6245 161.421 84.6826C164.67 82.2673 168.692 79.4425 172.964 79.9561C174.706 80.1664 176.526 80.9424 177.633 82.3498C178.954 84.0388 178.729 86.1498 178.21 88.1001C177.169 91.7512 175.751 95.2842 173.979 98.642C166.642 113.06 154.584 125.005 142.152 135.108C128.947 145.841 114.322 154.672 99.2456 162.505C67.376 179.064 33.3229 191.15 2.20755 209.221C-1.61656 211.438 -5.38434 213.748 -9.09579 216.151C-10.8874 217.304 -8.71617 219.83 -6.93665 218.682L-6.97041 218.683Z" fill="#1B1B1B"/>
<path d="M-4.46743 211.866C-5.29399 210.793 -6.12054 209.72 -6.9471 208.647C-7.15227 208.385 -7.35743 208.124 -7.55643 207.854C-7.5808 207.802 -7.60704 207.746 -7.66544 207.705C-7.78811 207.546 -7.58697 207.81 -7.60921 207.825C-7.63146 207.84 -7.68231 207.668 -7.68794 207.656C-7.80659 207.496 -7.63791 207.931 -7.65045 207.737C-7.66298 207.542 -7.6521 207.87 -7.65022 207.874C-7.67069 207.968 -7.70183 208.06 -7.74302 208.147C-7.79746 208.324 -7.77626 208.202 -7.74302 208.147C-7.74302 208.147 -7.98102 208.361 -7.83522 208.253C-7.58999 208.066 -7.35253 207.872 -7.11374 207.702L-6.33921 207.169L-5.94525 206.912L-5.99348 206.935L-5.72495 206.765C-5.43819 206.583 -5.14768 206.408 -4.85315 206.232C-4.72854 206.174 -4.61115 206.089 -4.48841 206.027C-4.36567 205.965 -4.02212 205.81 -4.33566 205.956C-4.2633 205.922 -4.12372 205.97 -4.28742 205.934C-4.37974 205.925 -4.47145 205.91 -4.56206 205.89C-4.80209 205.743 -4.26895 205.984 -4.56206 205.89C-4.36676 206.005 -4.61567 205.964 -4.59579 205.818C-4.5598 205.867 -4.51768 205.912 -4.47044 205.95C-4.3774 206.054 -4.28961 206.161 -4.20741 206.273C-3.81476 206.79 -3.44248 207.326 -3.06403 207.854L-0.261966 211.764C0.0250272 212.098 0.432305 212.305 0.871078 212.339C1.30985 212.374 1.74454 212.234 2.08037 211.949C2.40629 211.657 2.60762 211.251 2.6428 210.815C2.67799 210.379 2.54435 209.946 2.26946 209.605L-0.63653 205.577C-1.64599 204.178 -2.6567 202.462 -4.64573 202.636C-5.45496 202.778 -6.22007 203.106 -6.88043 203.595C-7.64128 204.062 -8.37051 204.534 -9.09466 205.038C-9.81881 205.542 -10.5309 206.041 -10.8516 206.885C-11.2391 207.922 -10.8946 208.892 -10.3193 209.769C-9.83881 210.485 -9.27553 211.147 -8.75243 211.828C-8.22934 212.509 -7.62 213.301 -7.05272 214.035C-6.76558 214.369 -6.35837 214.576 -5.91947 214.612C-5.48058 214.647 -5.04543 214.508 -4.7085 214.224C-4.38066 213.933 -4.17793 213.527 -4.14269 213.09C-4.10746 212.653 -4.24243 212.22 -4.51942 211.88L-4.46743 211.866Z" fill="#1B1B1B"/>
<path d="M19.2195 202.318C18.8932 204.116 19.2174 205.972 20.134 207.553C20.613 208.456 21.3596 209.188 22.2713 209.65C22.9345 209.94 23.6616 210.053 24.3815 209.977C25.8309 209.798 27.1552 209.067 28.0785 207.935C29.1702 206.687 29.4556 205.032 29.3526 203.426C29.238 201.595 28.4743 199.842 27.7257 198.195C27.5392 197.795 27.2016 197.486 26.7871 197.335C26.3726 197.184 25.9151 197.204 25.5153 197.39C25.1156 197.577 24.8062 197.914 24.6553 198.329C24.5044 198.743 24.5244 199.201 24.7108 199.6C24.9957 200.211 25.2731 200.806 25.5034 201.458C25.569 201.598 25.6123 201.754 25.6637 201.906C25.6846 201.983 25.7097 202.057 25.739 202.131C25.7221 202.095 25.6284 201.747 25.6996 202.046C25.7708 202.346 25.8765 202.688 25.9351 203.013C25.9937 203.338 26.0217 203.619 26.0608 203.933C26.0998 204.248 26.07 203.523 26.0495 203.909L26.0433 204.137C26.0392 204.308 26.0252 204.477 26.0016 204.646C25.9941 204.703 25.8996 205.183 25.9575 204.95C26.0155 204.718 25.9052 205.122 25.8881 205.169C25.8709 205.216 25.7991 205.377 25.7586 205.479C25.6899 205.667 25.9478 205.161 25.8401 205.328L25.7339 205.51C25.6717 205.607 25.6076 205.701 25.5377 205.792L25.4329 205.924C25.2763 206.134 25.5371 205.812 25.5513 205.801C25.3506 205.958 25.1844 206.158 24.9778 206.313C24.5758 206.5 24.7711 206.468 24.9778 206.313C24.8773 206.36 24.7821 206.428 24.6817 206.475C24.5812 206.522 24.4807 206.569 24.3802 206.616C23.987 206.77 24.7095 206.545 24.3802 206.616C24.2743 206.641 24.1725 206.664 24.0629 206.681C23.9533 206.697 23.5916 206.719 23.9273 206.705C24.2631 206.69 23.8601 206.697 23.7928 206.689C23.7424 206.686 23.6922 206.68 23.6425 206.671C23.3695 206.642 23.7277 206.675 23.7941 206.713C23.7004 206.671 23.603 206.638 23.5032 206.614C23.2771 206.538 23.6537 206.695 23.6693 206.707C23.6269 206.677 23.5818 206.65 23.5345 206.628C23.4702 206.585 23.13 206.328 23.3767 206.521C23.6235 206.714 23.3767 206.521 23.3505 206.465C23.3243 206.408 23.2123 206.294 23.1472 206.207C23.0932 206.142 23.0447 206.073 23.002 206.001C23.1895 206.403 23.0245 206.049 22.9814 205.956C22.9046 205.792 22.8258 205.623 22.749 205.458C22.6582 205.295 22.5914 205.12 22.5509 204.939C22.5644 205.241 22.6087 205.147 22.5846 205.011C22.5605 204.875 22.5217 204.771 22.4952 204.651C22.4687 204.532 22.4297 204.29 22.4088 204.109C22.3992 204.026 22.3995 203.942 22.3859 203.861C22.3812 204.176 22.3557 203.659 22.3859 203.861C22.388 203.452 22.427 203.044 22.5025 202.642C22.5425 202.207 22.4109 201.774 22.1358 201.435C21.8607 201.096 21.4639 200.878 21.0302 200.827C20.5952 200.798 20.1652 200.935 19.8285 201.213C19.4919 201.49 19.274 201.885 19.2195 202.318Z" fill="#1B1B1B"/>
<path d="M21.1603 208.452C20.825 211.225 21.1115 214.037 21.9989 216.684C22.8453 219.255 24.4599 221.962 27.2421 222.681C27.9495 222.882 28.6923 222.927 29.4188 222.812C30.1454 222.698 30.8381 222.426 31.4491 222.016C32.5158 221.197 33.2824 220.048 33.6298 218.748C34.3461 216.4 34.3801 213.896 33.728 211.528C32.9887 208.795 31.4155 206.36 29.2275 204.563C28.8635 204.316 28.4172 204.222 27.9844 204.3C27.5516 204.379 27.1667 204.623 26.9123 204.982C26.6698 205.348 26.578 205.793 26.6561 206.224C26.7341 206.656 26.9761 207.04 27.3312 207.298C27.3518 207.342 27.837 207.742 27.6358 207.552C27.8177 207.722 27.984 207.879 28.1611 208.08C28.4978 208.444 28.8088 208.83 29.0918 209.237C29.1368 209.333 29.2199 209.417 29.2809 209.506C29.4352 209.742 29.1853 209.301 29.3034 209.554C29.4215 209.807 29.5557 209.98 29.6687 210.201C29.8927 210.613 30.0912 211.039 30.2629 211.475C30.321 211.6 30.3791 211.724 30.405 211.864C30.4257 211.908 30.4977 212.178 30.4257 211.908C30.4872 212.124 30.5448 212.342 30.5945 212.554C30.7096 213.036 30.7937 213.524 30.8462 214.017C30.8976 214.367 30.9152 214.721 30.8987 215.074C30.8874 215.57 30.8434 216.065 30.7669 216.555C30.7597 216.602 30.644 217.204 30.7006 216.948C30.651 217.167 30.5914 217.385 30.5161 217.602C30.4399 217.855 30.3503 218.104 30.2476 218.348C30.2275 218.358 30.0774 218.697 30.1546 218.558C30.2318 218.419 30.0114 218.786 29.9887 218.821C30.0136 218.78 29.6841 219.218 29.8152 219.069C29.9463 218.919 29.6809 219.19 29.6525 219.213C29.6241 219.236 29.3424 219.451 29.5 219.348C29.6576 219.245 29.3553 219.415 29.3191 219.432C29.283 219.449 28.9606 219.555 29.1503 219.511C29.34 219.466 28.8494 219.558 28.8813 219.553C28.8451 219.57 28.5734 219.565 28.825 219.579C28.6845 219.579 28.5442 219.57 28.4051 219.55C28.381 219.561 28.0359 219.482 28.2015 219.523C28.3671 219.563 28.0324 219.464 27.9989 219.456C27.8666 219.41 27.7351 219.358 27.6043 219.302C27.671 219.33 27.8149 219.439 27.5341 219.256C27.1244 219.02 26.7688 218.701 26.4902 218.319C25.9076 217.51 25.4578 216.612 25.158 215.661C25.074 215.443 25.0039 215.219 24.9481 214.991C24.8684 214.715 24.8007 214.433 24.7389 214.154C24.6053 213.554 24.504 212.948 24.4353 212.338C24.3122 211.143 24.3319 209.938 24.4937 208.748C24.5131 208.529 24.4892 208.308 24.4234 208.099C24.3576 207.889 24.2511 207.695 24.11 207.526C23.969 207.358 23.7961 207.218 23.6013 207.117C23.4066 207.015 23.1936 206.953 22.9748 206.933C22.7559 206.914 22.5353 206.938 22.3257 207.004C22.1161 207.07 21.9214 207.176 21.7529 207.317C21.5845 207.458 21.4454 207.631 21.3437 207.826C21.242 208.021 21.1797 208.233 21.1603 208.452Z" fill="#0536FC"/>
<path d="M43.8194 189.586L42.3147 185.834L41.5664 183.956L41.2041 183.053C41.1835 182.993 41.1565 182.935 41.1235 182.88C41.1347 182.905 41.1818 183.215 41.1746 183.043C41.1674 182.87 41.158 183.217 41.1601 183.211C41.0812 183.431 40.9797 183.642 40.8571 183.841C40.8571 183.841 41.1629 183.616 41.1852 183.6C41.2074 183.585 41.4213 183.456 41.2656 183.563C41.1099 183.67 41.3339 183.531 41.35 183.524C41.6424 183.353 41.9385 183.19 42.2462 183.042C42.5538 182.894 42.8572 182.757 43.1835 182.649C43.272 182.608 43.6061 182.506 43.3443 182.574C43.481 182.51 43.6324 182.489 43.7782 182.455C43.8304 182.431 44.2308 182.376 44.0057 182.408C43.7806 182.439 44.3012 182.485 44.0791 182.408C43.857 182.33 44.0791 182.408 44.096 182.444C44.1128 182.48 43.8664 182.277 43.9843 182.393C43.9843 182.393 44.1321 182.5 44.1281 182.502C44.1241 182.504 43.8988 182.252 44.0735 182.469C44.2481 182.686 44.3863 182.857 44.5274 183.065C44.6172 183.194 44.7047 183.33 44.7905 183.461C44.6287 183.208 44.8617 183.614 44.9292 183.685C45.7077 184.97 46.3706 186.321 46.9102 187.724C47.0975 188.122 47.4352 188.431 47.8494 188.582C48.2636 188.733 48.7206 188.713 49.1205 188.528C49.5131 188.334 49.8158 187.996 49.9656 187.584C50.1155 187.172 50.1009 186.719 49.925 186.318C49.3562 184.842 48.6517 183.423 47.8206 182.077C47.4372 181.376 46.9692 180.725 46.427 180.138C46.095 179.798 45.6949 179.531 45.2529 179.355C44.8109 179.179 44.3368 179.098 43.8615 179.118C43.006 179.195 42.1702 179.419 41.3908 179.78C40.5808 180.126 39.8068 180.551 39.0802 181.049C38.6476 181.298 38.3005 181.673 38.0843 182.123C37.868 182.573 37.7927 183.078 37.8683 183.571C38.0816 184.379 38.3725 185.165 38.7368 185.917L40.7799 191.022C40.9681 191.421 41.3058 191.728 41.7197 191.879C42.1335 192.03 42.5901 192.011 42.9902 191.827C43.3828 191.633 43.6855 191.295 43.8353 190.883C43.9851 190.471 43.9706 190.018 43.7947 189.617L43.8194 189.586Z" fill="#1B1B1B"/>
<path d="M39.2301 181.003C37.7805 179.153 35.5183 178.143 34.2126 176.403C33.0464 174.857 32.5606 172.451 32.6523 170.401C32.6668 170.16 32.6779 169.9 32.7176 169.681C32.7372 169.544 32.7547 169.414 32.7842 169.278C32.7662 169.355 32.704 169.526 32.8035 169.225C32.8341 169.122 32.8606 169.022 32.8971 168.922C32.8971 168.922 33.0859 168.477 32.9869 168.684C32.888 168.892 33.1239 168.464 33.1156 168.477C33.1674 168.399 33.4483 168.141 33.2105 168.345L33.4399 168.155C33.1626 168.284 33.3676 168.189 33.4399 168.155C33.5123 168.121 33.7173 168.025 33.4399 168.155C33.3676 168.189 33.8963 168.084 33.6597 168.101C33.4231 168.119 34.2703 168.193 33.9075 168.108C34.156 168.172 34.3981 168.259 34.6306 168.368C34.3954 168.262 34.6306 168.368 34.6775 168.395C34.7927 168.464 34.9079 168.532 35.021 168.607C35.2197 168.739 35.4182 168.882 35.6066 169.034C35.9946 169.346 36.3593 169.686 36.6979 170.052C37.5553 170.928 38.343 171.869 39.0536 172.868C40.5472 175.034 41.6405 177.449 42.2815 180.001C42.3637 180.431 42.609 180.813 42.9663 181.067C43.3236 181.321 43.7652 181.427 44.1988 181.363C45.0271 181.187 45.7821 180.35 45.5627 179.449C44.8465 176.508 43.6148 173.718 41.9246 171.206C41.1491 170.047 40.2703 168.959 39.2989 167.958C38.4295 166.987 37.4138 166.158 36.2885 165.5C34.9953 164.826 33.5611 164.521 32.1786 165.082C31.5382 165.376 30.974 165.813 30.5296 166.36C30.0852 166.906 29.7727 167.548 29.616 168.235C28.9003 170.898 29.3399 174.055 30.4586 176.538C31.1676 178.074 32.2296 179.42 33.5578 180.466C34.7282 181.423 35.8215 182.078 36.692 183.189C36.9783 183.525 37.3862 183.733 37.826 183.768C38.0438 183.785 38.2629 183.76 38.4707 183.692C38.6785 183.625 38.871 183.517 39.0372 183.375C39.2035 183.234 39.3401 183.061 39.4394 182.866C39.5387 182.671 39.5987 182.459 39.616 182.241C39.6333 182.024 39.6075 181.804 39.5402 181.597C39.4728 181.389 39.3651 181.196 39.2234 181.03L39.2301 181.003Z" fill="#0536FC"/>
<path d="M67.3761 181.141C67.8955 182.971 68.5641 184.756 69.3753 186.477C69.7745 187.334 70.1943 188.381 71.005 188.923C71.8464 189.43 72.8485 189.599 73.8097 189.396C74.5784 189.236 75.3032 188.911 75.9343 188.443C76.5654 187.976 77.0877 187.377 77.4653 186.689C78.273 185.158 78.4794 183.381 78.044 181.706C77.5269 179.744 76.5928 177.916 75.3054 176.347C75.0176 176.014 74.6105 175.808 74.172 175.773C73.7334 175.737 73.2986 175.876 72.9612 176.158C72.6333 176.449 72.4306 176.855 72.3953 177.292C72.3601 177.729 72.4951 178.163 72.7721 178.502C72.9772 178.764 73.1784 179.027 73.3635 179.298L73.5504 179.573C73.5354 179.541 73.4328 179.374 73.5373 179.545C73.6417 179.717 73.7347 179.874 73.8292 180.045C74.1514 180.605 74.4248 181.191 74.6464 181.798C74.7027 181.918 74.7564 182.202 74.697 181.906C74.731 182.042 74.7749 182.178 74.8049 182.316C74.8762 182.636 74.9289 182.959 74.9629 183.285C75.002 183.599 74.9761 183.093 74.9734 183.412C74.9696 183.551 74.9658 183.69 74.9561 183.826C74.9464 183.963 74.9228 184.101 74.9091 184.24C74.9091 184.24 74.8624 184.496 74.9013 184.307C74.9402 184.117 74.8511 184.472 74.8468 184.484C74.8113 184.6 74.7697 184.714 74.7224 184.826L74.6444 184.994C74.572 185.175 74.695 184.883 74.7028 184.889C74.5674 185.118 74.4134 185.335 74.2426 185.539C74.1026 185.722 74.4642 185.343 74.2857 185.485C74.2294 185.511 74.1999 185.574 74.1552 185.614C74.1104 185.654 73.9665 185.766 73.8711 185.844C73.6275 186.046 74.1283 185.724 73.8429 185.857C73.7183 185.916 73.5937 185.974 73.4691 186.032C73.1113 186.199 73.6741 186.01 73.3927 186.067L73.0479 186.125C72.7491 186.167 73.307 186.156 73.0157 186.14C72.9561 186.13 72.896 186.124 72.8356 186.122C72.6529 186.129 73.0476 186.209 72.8356 186.122C72.6237 186.034 73.1027 186.369 72.9854 186.233C72.8681 186.097 73.0341 186.337 73.0341 186.337C72.9807 186.25 72.9373 186.157 72.9048 186.06C72.7473 185.722 72.5639 185.392 72.3984 185.058C72.046 184.302 71.6936 183.547 71.4074 182.765C71.261 182.388 71.1204 182.013 70.9901 181.628C70.8945 181.423 70.8468 181.206 70.7738 180.976C70.8337 181.178 70.7888 181.008 70.7738 180.976C70.7138 180.774 70.69 180.701 70.6426 180.547C70.4014 179.715 69.6715 178.979 68.7253 179.185C67.9289 179.356 67.1021 180.207 67.3633 181.103L67.3761 181.141Z" fill="#1B1B1B"/>
<path d="M70.5557 188.657C70.3474 191.721 70.9786 194.783 72.3812 197.515C73.6803 200.007 75.7681 202.753 78.5767 203.591C79.3178 203.834 80.1006 203.922 80.877 203.851C81.6535 203.78 82.4073 203.552 83.0923 203.179C83.7426 202.787 84.2963 202.253 84.7124 201.618C85.1286 200.982 85.3965 200.261 85.4964 199.508C85.6572 198.162 85.5357 196.797 85.1396 195.5C83.9081 190.7 80.9918 186.501 76.9226 183.672C76.5601 183.42 76.1125 183.323 75.6783 183.402C75.2441 183.48 74.8589 183.728 74.6074 184.091C74.356 184.453 74.2588 184.901 74.3374 185.335C74.4159 185.769 74.6638 186.154 75.0263 186.406C78.7511 189.01 81.6508 193.266 82.2076 197.797L82.2463 198.195C82.2749 198.529 82.2489 198.316 82.2669 198.24C82.2692 198.503 82.2528 198.765 82.2176 199.026C82.205 199.125 82.1902 199.23 82.1696 199.332C82.235 199.042 82.1374 199.347 82.1192 199.434C82.0818 199.555 82.0354 199.673 81.9805 199.787C82.1234 199.496 81.88 199.908 81.8674 199.933C81.6211 200.307 81.9829 199.845 81.7814 200.032C81.6814 200.126 81.5749 200.214 81.4627 200.293C81.7639 200.089 80.9972 200.481 81.1693 200.43C81.3413 200.379 80.8699 200.491 80.8978 200.488C80.7861 200.511 80.6746 200.524 80.5631 200.536C80.0516 200.594 80.6976 200.552 80.4024 200.538C80.2307 200.531 80.0595 200.515 79.8898 200.488C79.5994 200.443 80.2159 200.61 79.732 200.454C79.6219 200.417 79.5077 200.383 79.3998 200.34C79.2046 200.278 79.0188 200.19 78.8473 200.079C78.6017 199.919 78.36 199.758 78.1248 199.579C78.0335 199.509 77.9443 199.433 77.8551 199.357C78.0354 199.513 77.6561 199.161 77.6598 199.169C77.2555 198.759 76.8777 198.324 76.5287 197.866C76.171 197.418 75.8554 196.938 75.5857 196.432C75.2507 195.829 74.9588 195.203 74.7122 194.559C74.4967 194.028 74.3291 193.479 74.2114 192.918C73.8967 191.622 73.7852 190.286 73.8811 188.956C73.9124 188.519 73.7733 188.086 73.4929 187.749C73.2126 187.412 72.8127 187.196 72.3769 187.147C71.9356 187.108 71.4968 187.245 71.1558 187.527C70.8147 187.81 70.5991 188.216 70.5557 188.657Z" fill="#FF8200"/>
<path d="M96.165 166.279C96.217 164.669 95.5697 163.302 94.9483 161.864C94.8771 161.711 94.8058 161.559 94.7547 161.397C94.7191 161.32 94.6835 161.244 94.6479 161.167C94.5673 160.995 94.5766 161.015 94.676 161.228C94.6564 161.104 94.6244 160.983 94.5807 160.866C94.5454 160.706 94.532 160.541 94.5007 160.38C94.4694 160.218 94.4834 160.216 94.4951 160.441C94.4921 160.358 94.4924 160.274 94.496 160.191C94.5 160.116 94.5099 160.043 94.5199 159.969C94.5505 159.794 94.5395 159.833 94.489 160.082L94.6306 159.693C94.5094 159.916 94.4907 159.949 94.5802 159.794C94.6143 159.736 94.6516 159.679 94.692 159.625C94.7307 159.569 94.7726 159.515 94.8175 159.464C94.6416 159.653 94.6129 159.686 94.7413 159.563C95.1021 159.287 94.5012 159.636 94.7644 159.518C95.1664 159.33 94.5125 159.513 94.8046 159.499C95.2722 159.452 94.5648 159.488 94.8681 159.499C95.042 159.525 95.0026 159.514 94.7459 159.468C94.8089 159.487 94.8718 159.507 94.9326 159.532C95.2177 159.629 94.6524 159.33 94.9125 159.542C95.0145 159.632 95.1245 159.714 95.2412 159.785C95.0535 159.613 95.0245 159.582 95.152 159.709L95.3047 159.858C96.3253 160.924 97.2434 162.106 98.2029 163.229C98.4892 163.565 98.8971 163.773 99.337 163.808C99.7768 163.843 100.212 163.702 100.548 163.415C100.884 163.129 101.092 162.721 101.127 162.281C101.162 161.841 101.021 161.406 100.734 161.07C99.8614 160.048 98.9986 159.016 98.1174 158.008C97.1727 156.927 96.0401 156.114 94.5476 156.198C93.0551 156.282 91.9789 157.396 91.4718 158.67C90.9229 160.022 91.2413 161.513 91.7452 162.824C91.988 163.45 92.3075 164.03 92.5479 164.672C92.6192 164.825 92.6703 164.987 92.7236 165.143C92.7423 165.183 92.8122 165.385 92.7348 165.167C92.6575 164.949 92.7517 165.203 92.7522 165.257C92.7906 165.417 92.8206 165.58 92.8421 165.743C92.8665 165.796 92.8587 165.863 92.8648 165.929C92.9073 166.335 92.8724 165.578 92.8592 165.99C92.8276 166.424 92.9674 166.853 93.2485 167.185C93.5295 167.517 93.9295 167.726 94.3626 167.766C94.7958 167.807 95.2276 167.676 95.5655 167.402C95.9035 167.128 96.1206 166.733 96.1704 166.301L96.165 166.279Z" fill="#1B1B1B"/>
<path d="M91.6845 157.425C89.9048 156.078 88.3609 154.444 87.1159 152.591C86.5301 151.666 86.0652 150.669 85.7326 149.625C85.7998 149.853 85.6949 149.481 85.6823 149.433L85.5889 149.075C85.5268 148.806 85.4747 148.536 85.4265 148.265C85.3784 147.994 85.3565 147.779 85.3332 147.54C85.3207 147.419 85.3121 147.296 85.3036 147.172C85.2668 146.632 85.285 147.416 85.2959 146.873C85.3062 146.36 85.3507 145.849 85.429 145.342C85.4465 145.155 85.4889 144.97 85.5551 144.794C85.5891 144.681 85.6306 144.57 85.6793 144.462C85.5661 144.681 85.8179 144.182 85.6793 144.462L85.7476 144.43C85.8462 144.355 85.8302 144.362 85.6994 144.453C85.7195 144.443 86.0402 144.323 85.7122 144.417C85.8158 144.39 85.9211 144.371 86.0274 144.359C85.7883 144.392 86.0274 144.359 86.0828 144.362C86.4661 144.386 86.8293 144.541 87.1105 144.803C87.4642 145.069 87.7879 145.372 88.0759 145.708C88.4925 146.15 88.8967 146.608 89.288 147.101C90.011 147.979 90.6713 148.908 91.2638 149.879C92.6264 152.133 93.6349 154.582 94.254 157.142C94.3271 157.577 94.57 157.965 94.9294 158.221C95.2887 158.477 95.7351 158.58 96.1702 158.507C96.6053 158.434 96.9935 158.191 97.2495 157.831C97.5055 157.472 97.6083 157.026 97.5352 156.591C96.8805 153.767 95.8011 151.06 94.3338 148.56C93.5853 147.294 92.7463 146.084 91.8234 144.94C90.969 143.788 89.9458 142.772 88.7885 141.926C88.1759 141.492 87.4667 141.213 86.7223 141.114C85.978 141.016 85.2207 141.099 84.516 141.359C82.985 141.98 82.4063 143.478 82.1468 144.989C81.7624 147.66 82.2081 150.386 83.4235 152.796C84.8698 155.782 87.2249 158.188 89.8185 160.213C89.9974 160.349 90.2018 160.447 90.4194 160.501C90.6371 160.555 90.8635 160.565 91.085 160.53C91.3066 160.494 91.5186 160.414 91.7085 160.295C91.8984 160.175 92.0621 160.019 92.1898 159.834C92.3176 159.65 92.4067 159.442 92.4518 159.222C92.4969 159.002 92.4971 158.775 92.4523 158.556C92.4076 158.336 92.3188 158.127 92.1914 157.943C92.0639 157.758 91.9005 157.601 91.7108 157.481L91.6845 157.425Z" fill="#E1FF8D"/>
<path d="M116.292 157.367C117.426 158.37 118.6 159.335 119.805 160.251C120.427 160.724 121.059 161.186 121.7 161.638C121.99 161.84 122.284 162.041 122.576 162.237C122.865 162.452 123.201 162.595 123.555 162.657C123.965 162.663 124.371 162.574 124.741 162.398C126.297 161.856 127.609 160.778 128.441 159.356C128.999 158.274 128.717 157.27 128.072 156.327C127.663 155.736 127.205 155.18 126.704 154.665C125.546 153.448 124.201 152.423 122.72 151.629C122.357 151.396 121.924 151.3 121.497 151.358C121.056 151.435 120.664 151.683 120.404 152.048C119.973 152.739 120.004 153.928 120.825 154.367C121.648 154.799 122.428 155.309 123.155 155.889C123.335 156.035 123.523 156.207 123.688 156.341C123.512 156.183 123.613 156.273 123.711 156.389L123.96 156.63C124.288 156.966 124.6 157.31 124.892 157.663C125.038 157.84 125.18 158.018 125.32 158.213C125.377 158.284 125.429 158.362 125.482 158.435C125.702 158.739 125.373 158.129 125.501 158.476C125.453 158.349 125.432 158.214 125.438 158.079C125.434 157.994 125.454 157.91 125.497 157.837C125.551 157.723 125.537 157.734 125.448 157.859L125.282 158.079C125.02 158.421 125.426 157.948 125.251 158.118C125.075 158.287 124.914 158.446 124.75 158.586C124.662 158.661 124.569 158.734 124.478 158.801C124.478 158.801 124.102 159.045 124.324 158.912C124.546 158.779 124.196 158.972 124.151 158.992L123.842 159.137L123.528 159.283C123.444 159.322 123.048 159.448 123.432 159.328L124.661 159.601C122.396 158.078 120.233 156.409 118.186 154.605C117.529 154.025 116.312 154.323 115.87 155.024C115.632 155.39 115.543 155.834 115.622 156.264C115.7 156.695 115.941 157.078 116.293 157.337L116.292 157.367Z" fill="#1B1B1B"/>
<path d="M123.481 162.808C123.803 165.535 125.604 167.823 127.532 169.659C129.402 171.445 131.626 172.845 134.316 172.569C135.592 172.438 136.772 171.832 137.62 170.87C138.469 169.909 138.924 168.663 138.895 167.38C138.854 164.512 137.007 162.388 134.94 160.621C132.792 158.784 130.354 157.323 127.54 156.829C127.1 156.789 126.663 156.925 126.323 157.207C125.984 157.489 125.771 157.894 125.73 158.334C125.69 158.773 125.826 159.21 126.108 159.55C126.39 159.889 126.795 160.102 127.235 160.143C127.391 160.162 127.545 160.195 127.696 160.241C127.927 160.304 128.153 160.37 128.379 160.446C128.832 160.603 129.273 160.789 129.701 161.004C129.523 160.916 129.787 161.052 129.799 161.056L130.112 161.233C130.325 161.354 130.53 161.479 130.729 161.611C131.14 161.874 131.533 162.151 131.92 162.445C132.678 163.005 133.388 163.627 134.044 164.303C134.361 164.635 134.654 164.989 134.92 165.363C135.036 165.554 135.143 165.751 135.239 165.953C135.292 166.066 135.344 166.178 135.398 166.295C135.453 166.411 135.519 166.689 135.445 166.395C135.499 166.603 135.542 166.814 135.573 167.026C135.586 167.127 135.597 167.235 135.604 167.344C135.589 167.312 135.602 167.12 135.589 167.312C135.585 167.524 135.566 167.736 135.532 167.945C135.491 168.204 135.601 167.737 135.521 167.985L135.39 168.354C135.366 168.409 135.24 168.61 135.377 168.39L135.203 168.647C135.203 168.647 135.029 168.85 135.139 168.73C135.25 168.61 135.024 168.828 134.993 168.857C134.963 168.886 134.685 169.079 134.851 168.972C135.017 168.866 134.726 169.031 134.686 169.049L134.477 169.147C134.075 169.334 134.722 169.126 134.275 169.207C134.059 169.253 133.839 169.284 133.618 169.298C133.848 169.288 133.364 169.279 133.293 169.273L132.959 169.228C132.686 169.189 133.152 169.285 132.886 169.218C132.634 169.149 132.387 169.061 132.147 168.956C132.037 168.913 131.929 168.863 131.824 168.808C131.863 168.829 131.974 168.89 131.824 168.808C131.673 168.727 131.42 168.561 131.225 168.427C131.03 168.293 130.886 168.183 130.723 168.054C130.63 167.98 130.535 167.902 130.446 167.826C130.446 167.826 130.077 167.509 130.23 167.638C129.396 166.874 128.636 166.032 127.962 165.123C127.331 164.288 126.93 163.302 126.8 162.264C126.722 161.831 126.477 161.445 126.118 161.19C125.76 160.935 125.315 160.83 124.881 160.898C124.45 160.981 124.068 161.227 123.814 161.584C123.559 161.941 123.452 162.383 123.514 162.817L123.481 162.808Z" fill="#FF8200"/>
<path d="M140.464 135.382L138.067 134.209L136.789 133.567L136.233 133.298L135.959 133.162C135.841 133.109 135.834 133.103 135.948 133.137C135.93 133.298 136.485 133.743 136.21 133.994C136.304 133.911 136.371 133.542 136.425 133.404L136.894 132.207C137.037 131.822 137.177 131.439 137.334 131.052C137.36 130.991 137.583 130.535 137.447 130.779C137.478 130.721 137.723 130.323 137.529 130.609C137.67 130.498 137.69 130.478 137.59 130.551C137.542 130.603 137.476 130.633 137.405 130.637C137.598 130.611 137.605 130.603 137.433 130.624L137.586 130.636C137.775 130.665 137.791 130.668 137.637 130.642C137.712 130.666 137.793 130.692 137.865 130.721C138.046 130.784 138.219 130.86 138.393 130.94C139.165 131.295 139.928 131.693 140.684 132.064C141.44 132.436 142.042 132.762 142.785 133.16L143.833 133.728C144.011 133.826 144.189 133.914 144.359 134.016C144.45 134.066 144.538 134.121 144.622 134.182C144.512 134.084 144.428 133.96 144.377 133.821C144.327 133.682 144.312 133.533 144.334 133.387C144.309 133.606 144.328 133.829 144.39 134.042C144.452 134.254 144.555 134.452 144.695 134.624C144.834 134.796 145.007 134.939 145.202 135.043C145.397 135.148 145.611 135.212 145.831 135.233C146.052 135.253 146.274 135.23 146.485 135.164C146.697 135.097 146.892 134.989 147.061 134.846C147.23 134.703 147.369 134.528 147.469 134.331C147.57 134.133 147.63 133.918 147.646 133.697C147.691 132.482 147 131.693 145.991 131.136C145.207 130.704 144.413 130.281 143.617 129.865C142.821 129.448 141.889 128.972 141.016 128.538C140.3 128.134 139.55 127.793 138.774 127.518C138.326 127.356 137.849 127.287 137.373 127.314C136.897 127.341 136.431 127.463 136.004 127.674C135.165 128.201 134.535 129.003 134.223 129.943C133.898 130.756 133.599 131.585 133.291 132.404C132.897 133.449 132.774 134.559 133.575 135.458C134.03 135.893 134.568 136.232 135.157 136.457L136.539 137.134C137.496 137.598 138.451 138.065 139.404 138.534C140.189 138.916 141.27 138.339 141.534 137.54C141.674 137.125 141.649 136.672 141.463 136.274C141.278 135.877 140.947 135.566 140.539 135.406L140.464 135.382Z" fill="#1B1B1B"/>
<path d="M132.072 131.383C131.771 131.524 131.936 131.447 132.012 131.411C131.904 131.445 131.794 131.472 131.682 131.492C131.634 131.514 131.024 131.559 131.268 131.558C131.039 131.558 130.81 131.544 130.582 131.515C130.376 131.498 130.172 131.46 129.972 131.403C129.123 131.156 128.309 130.802 127.549 130.351C127.115 130.093 126.7 129.812 126.298 129.515C125.904 129.224 125.53 128.908 125.176 128.57C124.451 127.925 123.856 127.148 123.423 126.279C123.359 126.144 123.315 126 123.292 125.851C123.262 125.787 123.243 125.199 123.237 125.481C123.235 125.423 123.303 124.824 123.243 125.106C123.266 124.997 123.31 124.903 123.337 124.803C123.419 124.486 123.216 124.859 123.421 124.617C123.492 124.485 123.595 124.373 123.72 124.291C123.74 124.282 123.989 124.112 123.809 124.22C123.922 124.168 124.038 124.114 124.151 124.061C124.56 123.877 124.987 123.738 125.426 123.647C125.842 123.542 126.263 123.438 126.686 123.368C127.093 123.259 127.52 123.25 127.931 123.341C127.852 123.329 127.705 123.255 128.001 123.367C128.112 123.402 128.22 123.445 128.325 123.495C128.247 123.453 128.177 123.387 128.419 123.559C128.514 123.627 128.614 123.693 128.711 123.765C129.058 124.054 129.382 124.372 129.677 124.714C131.385 126.541 132.827 128.601 133.959 130.832C134.145 131.231 134.483 131.541 134.897 131.692C135.312 131.843 135.769 131.823 136.169 131.636C136.569 131.45 136.878 131.112 137.029 130.698C137.18 130.283 137.16 129.826 136.973 129.426C135.695 126.895 134.068 124.557 132.139 122.48C131.15 121.409 130.078 120.431 128.59 120.117C127.343 119.912 126.065 120.004 124.86 120.388C123.37 120.77 121.942 121.225 120.919 122.431C120.507 122.958 120.208 123.565 120.042 124.213C119.876 124.862 119.846 125.538 119.955 126.199C120.324 128.963 122.794 131.237 125.002 132.718C127.447 134.352 130.562 135.596 133.456 134.423C133.853 134.234 134.16 133.896 134.311 133.483C134.461 133.069 134.443 132.613 134.26 132.213C134.068 131.819 133.73 131.515 133.317 131.365C132.905 131.215 132.451 131.23 132.05 131.408L132.072 131.383Z" fill="#0536FC"/>
<path d="M165.355 117.573C166.866 118.189 168.385 118.822 169.888 119.423C171.608 120.089 173.434 119.986 174.857 118.701C176.057 117.613 176.688 116.037 177.075 114.496C177.372 113.339 177.205 112.213 176.283 111.381C175.663 110.867 174.981 110.433 174.253 110.091C172.677 109.295 170.999 108.717 169.267 108.373C168.411 108.195 167.497 109.047 167.456 109.873C167.428 110.31 167.568 110.741 167.846 111.077C168.125 111.414 168.523 111.631 168.957 111.684C169.152 111.725 169.174 111.73 169.032 111.698L169.353 111.779C169.515 111.821 169.676 111.863 169.836 111.911C170.208 112.016 170.577 112.137 170.943 112.27C171.308 112.404 171.616 112.529 171.948 112.673C172.126 112.751 172.301 112.831 172.477 112.916C172.477 112.916 172.933 113.148 172.692 113.021C173.037 113.203 173.36 113.404 173.702 113.602C173.702 113.602 174.113 113.875 174.115 113.899C174.041 113.972 173.916 113.536 173.924 113.543C173.921 113.431 173.892 113.474 173.899 113.647C173.929 113.501 173.921 113.525 173.872 113.714C173.823 113.903 173.774 114.029 173.726 114.188C173.614 114.557 173.481 114.92 173.327 115.274C173.314 115.31 173.099 115.719 173.23 115.486C173.119 115.675 172.999 115.859 172.87 116.036C172.69 116.281 172.962 115.993 172.707 116.2C172.654 116.224 172.301 116.516 172.55 116.356C172.473 116.392 171.921 116.615 172.223 116.538C172.163 116.566 171.72 116.582 172.011 116.588C171.971 116.606 171.527 116.535 171.795 116.586C171.585 116.536 171.38 116.468 171.182 116.382C169.6 115.794 168.053 115.11 166.493 114.472C166.079 114.326 165.623 114.347 165.225 114.533C164.826 114.719 164.517 115.054 164.363 115.466C164.221 115.881 164.245 116.336 164.431 116.734C164.616 117.132 164.949 117.442 165.358 117.6L165.355 117.573Z" fill="#1B1B1B"/>
<path d="M172.65 118.849C173.811 120.778 175.519 122.318 177.557 123.275C179.542 124.214 182.261 124.767 184.216 123.512C186.1 122.306 186.673 119.724 186.16 117.648C185.637 115.616 184.383 113.847 182.639 112.679C181.684 112.016 180.607 111.549 179.47 111.304C178.334 111.058 177.16 111.04 176.017 111.25C175.801 111.286 175.595 111.364 175.41 111.48C175.225 111.596 175.064 111.747 174.937 111.925C174.811 112.103 174.72 112.304 174.671 112.517C174.622 112.73 174.616 112.95 174.652 113.166C174.688 113.381 174.766 113.588 174.882 113.773C174.998 113.958 175.149 114.119 175.327 114.245C175.505 114.372 175.706 114.462 175.919 114.512C176.132 114.561 176.353 114.567 176.568 114.531C176.746 114.492 176.923 114.463 177.098 114.44C177.186 114.429 177.659 114.404 177.353 114.41C177.736 114.402 178.118 114.428 178.496 114.488C178.577 114.504 179.04 114.606 178.757 114.533C178.904 114.577 179.054 114.615 179.2 114.664C179.345 114.714 179.538 114.781 179.706 114.849L179.987 114.968C179.996 114.988 180.286 115.117 180.144 115.041C180.001 114.966 180.257 115.106 180.292 115.129C180.327 115.152 180.425 115.204 180.489 115.247C180.641 115.343 180.79 115.44 180.93 115.531C181.07 115.622 181.214 115.751 181.353 115.862C181.353 115.862 181.551 116.044 181.421 115.924C181.292 115.803 181.568 116.07 181.595 116.097C181.84 116.356 182.068 116.631 182.277 116.919C182.468 117.182 182.21 116.775 182.366 117.059C182.453 117.244 182.563 117.417 182.645 117.604C182.727 117.791 182.795 117.926 182.848 118.102C182.96 118.343 182.791 117.854 182.848 118.102C182.88 118.17 182.888 118.25 182.903 118.325C182.94 118.502 182.968 118.68 182.986 118.859C182.997 118.937 183.004 119.016 183.007 119.094C182.992 118.798 182.998 119.147 182.994 119.203C182.986 119.383 182.965 119.559 182.933 119.721C182.927 119.782 182.855 120.017 182.944 119.745L182.878 119.962C182.848 120.054 182.66 120.46 182.807 120.186C182.719 120.356 182.61 120.515 182.484 120.659C182.754 120.357 182.224 120.825 182.424 120.687C182.624 120.55 182.07 120.852 182.301 120.769C181.963 120.889 181.598 120.913 181.247 120.84C181.047 120.82 180.848 120.791 180.646 120.758C180.622 120.769 180.277 120.69 180.445 120.725C180.612 120.759 180.328 120.696 180.328 120.696C179.932 120.587 179.542 120.453 179.163 120.295C178.824 120.174 178.502 120.012 178.204 119.812C177.824 119.581 177.462 119.323 177.119 119.04L176.926 118.876C177.117 119.046 176.852 118.803 176.817 118.77C176.661 118.613 176.508 118.454 176.362 118.287C176.216 118.121 176.07 117.934 175.944 117.768C175.91 117.696 175.846 117.632 175.796 117.568C175.479 117.138 175.948 117.84 175.672 117.386C175.22 116.647 174.32 116.132 173.462 116.581C172.738 116.958 172.165 117.998 172.658 118.791L172.65 118.849Z" fill="#E1FF8D"/>
<path d="M173.99 76.1331C173.938 75.795 173.905 75.4543 173.891 75.1125C173.903 75.464 173.893 75.0332 173.895 74.9539C173.894 74.7832 173.901 74.6088 173.921 74.4525L173.936 74.3379C173.961 74.16 173.954 74.1876 173.904 74.4164C173.928 74.4051 174.173 73.9435 173.867 74.3896C173.97 74.2436 173.942 74.2666 173.774 74.4624C173.884 74.3722 173.884 74.3722 173.774 74.4624C173.707 74.5208 173.625 74.5591 173.537 74.573L173.822 74.5332C174.385 74.4613 174.954 74.4014 175.523 74.3614C175.559 74.3445 176.065 74.3385 175.833 74.3441C175.601 74.3496 176.097 74.3434 176.142 74.3466C176.422 74.3483 176.706 74.358 176.989 74.3876C177.264 74.399 177.538 74.435 177.807 74.4953C177.429 74.3877 177.807 74.4953 177.895 74.5275C177.984 74.5596 178.22 74.6455 178.387 74.6996C178.674 74.7908 178.221 74.5225 178.461 74.7433C178.257 74.5374 178.139 74.2619 178.131 73.9723C178.102 74.1521 178.108 74.1444 178.155 73.9611L178.077 74.2665L177.958 74.7236C177.615 76.0874 177.259 77.4587 176.891 78.8376C176.675 79.677 176.973 80.6833 177.884 80.9681C178.677 81.22 179.796 80.8695 180.019 79.9728L181.072 75.9338C181.287 75.1043 181.626 74.2365 181.353 73.3897C181.202 72.9607 180.953 72.5727 180.627 72.2563C180.3 71.9398 179.904 71.7036 179.471 71.5663C178.195 71.1231 176.841 70.9496 175.494 71.0568C174.922 71.0789 174.353 71.1288 173.786 71.1927C173.001 71.2043 172.24 71.4618 171.609 71.9288C170.304 73.056 170.488 75.1723 170.707 76.7002C170.784 77.1334 171.028 77.519 171.386 77.7738C171.745 78.0286 172.189 78.1322 172.624 78.0622C173.054 77.9801 173.436 77.7347 173.69 77.3774C173.944 77.0201 174.05 76.5785 173.986 76.1449L173.99 76.1331Z" fill="#1B1B1B"/>
<path d="M174.383 70.2983C173.709 68.0838 173.424 65.7691 173.542 63.4573C173.579 62.9504 173.622 62.4118 173.698 61.892C173.749 61.4284 173.849 60.9716 173.997 60.5291C174.077 60.2812 174.165 60.0396 174.265 59.8022L174.408 59.4906C174.307 59.6942 174.445 59.444 174.458 59.4186C174.597 59.2021 174.745 58.9859 174.896 58.7837C175.046 58.5814 174.619 59.0202 174.976 58.6926L175.273 58.4269C175.372 58.3463 175.476 58.2638 175.587 58.1874C175.518 58.2193 175.313 58.3149 175.611 58.1762C175.804 58.0862 176.013 57.9887 176.182 57.91C176.62 57.7057 176 57.9408 176.27 57.8688C176.372 57.8458 176.47 57.8246 176.575 57.8097C176.681 57.7947 176.981 57.787 176.677 57.7866C176.83 57.7888 176.978 57.8028 177.133 57.8189C176.848 57.7854 177.371 57.8989 177.457 57.9369C177.268 57.8584 177.514 57.9643 177.541 57.9809C177.662 58.0616 177.78 58.1482 177.895 58.2366C178.123 58.4095 177.762 58.0981 177.971 58.2943C178.077 58.3964 178.176 58.5023 178.276 58.6121C178.474 58.8279 178.642 59.0627 178.823 59.2918C178.838 59.324 179.012 59.5609 178.875 59.3508C178.923 59.4553 178.998 59.5526 179.055 59.6534C179.165 59.8905 179.3 60.1165 179.407 60.3555C179.516 60.5959 179.612 60.8416 179.696 61.0916C179.662 61.0193 179.628 60.8298 179.728 61.16C179.773 61.3299 179.818 61.4998 179.849 61.6713C179.88 61.8427 179.932 62.122 179.961 62.3629C179.978 62.5049 179.992 62.6501 180.003 62.7986C180.019 63.0847 180.004 62.6021 180.002 62.8918C180 63.1814 179.988 63.4172 179.963 63.6785C179.952 63.7913 179.939 63.91 179.92 64.0265C179.92 64.0265 179.848 64.4512 179.876 64.3309C179.549 65.5721 179.064 66.7665 178.435 67.8851C177.749 69.2474 177.055 70.6035 176.365 71.9677C175.956 72.77 176.588 73.8211 177.358 74.0982C178.284 74.435 179.08 73.9071 179.489 73.1047L181.563 69.0202C182.201 67.8427 182.694 66.5923 183.032 65.2962C183.347 63.926 183.37 62.5047 183.099 61.125C182.828 59.7454 182.27 58.4381 181.461 57.2884C180.728 56.1346 179.648 55.2419 178.378 54.7377C177.092 54.3447 175.705 54.4528 174.496 55.0403C171.923 56.2399 170.772 58.9448 170.39 61.5992C169.966 64.7054 170.212 67.8663 171.111 70.8696C171.36 71.6979 172.076 72.4358 173.028 72.2316C173.819 72.0588 174.658 71.2027 174.39 70.3144L174.383 70.2983Z" fill="#FF8200"/>
<path d="M144.697 99.2769C144.013 99.0613 143.344 98.8011 142.695 98.4979L142.278 98.296C142.571 98.4429 142.027 98.1582 141.979 98.1271C141.846 98.052 141.711 97.9729 141.58 97.892C141.427 97.7784 141.268 97.6728 141.105 97.5754C141.201 97.5304 141.358 97.8879 141.385 97.9342C141.364 97.7432 141.364 97.7333 141.373 97.9101C141.377 97.8348 141.377 97.7614 141.377 97.688C141.386 97.3707 141.405 97.0538 141.425 96.7408C141.446 96.4279 141.505 96.0624 141.566 95.7208C141.576 95.6675 141.676 95.1801 141.64 95.3537C141.603 95.5273 141.72 95.0424 141.735 94.9912C141.825 94.6603 141.919 94.3375 142.051 94.0117C142.3 93.3379 142.1 94.263 141.348 94.3933C141.13 94.3973 141.112 94.4106 141.296 94.4177C141.123 94.3812 141.091 94.3763 141.211 94.4034C141.814 94.5806 142.404 94.7955 142.979 95.0471C143.046 95.0747 143.569 95.3449 143.226 95.157L143.59 95.3594C143.869 95.5278 144.142 95.7039 144.405 95.8897C144.668 96.0754 144.922 96.2848 145.182 96.5062C145.442 96.7276 145 96.3167 145.275 96.5901C145.41 96.7227 145.539 96.8533 145.669 96.9838C145.955 97.3195 146.363 97.5277 146.803 97.5626C147.243 97.5975 147.678 97.4563 148.014 97.1699C148.35 96.8836 148.558 96.4757 148.593 96.0358C148.628 95.596 148.487 95.1603 148.2 94.8247C147.276 93.8383 146.196 93.011 145.003 92.376C144.369 92.032 143.708 91.7411 143.027 91.5064C142.293 91.2661 141.452 90.9832 140.681 91.1665C138.897 91.6019 138.521 93.9648 138.248 95.511C138.14 96.1595 138.081 96.8152 138.072 97.4726C138.051 98.6031 138.271 99.5278 139.167 100.285C139.843 100.792 140.578 101.215 141.355 101.545C142.073 101.889 142.813 102.183 143.572 102.425C143.986 102.575 144.444 102.555 144.844 102.368C145.243 102.181 145.553 101.843 145.703 101.429C145.854 101.014 145.833 100.556 145.646 100.156C145.459 99.7566 145.121 99.4475 144.707 99.297L144.697 99.2769Z" fill="#1B1B1B"/>
<path d="M137.166 97.5149C136.676 97.607 136.181 97.6743 135.684 97.7165L135.35 97.7351C135.428 97.7333 135.62 97.7365 135.283 97.7372C134.945 97.738 134.729 97.736 134.45 97.7244C134.01 97.7044 133.559 97.6504 133.127 97.6069C132.689 97.549 132.254 97.4622 131.827 97.3471C130.888 97.0978 129.976 96.7578 129.102 96.3321C128.803 96.183 128.973 96.2651 129.038 96.2986L128.743 96.1377C128.528 96.0128 128.315 95.882 128.102 95.7512C127.658 95.4705 127.234 95.1599 126.832 94.8215C126.673 94.6732 126.523 94.5161 126.383 94.3509C126.264 94.2246 126.167 94.0799 126.095 93.9223C126.017 93.777 125.97 93.6168 125.959 93.4523C125.992 93.6913 125.959 93.3492 125.963 93.2838C125.973 93.1396 125.993 92.9963 126.023 92.8548C125.965 93.0874 126.07 92.7351 126.091 92.686L126.211 92.356L126.355 92.0345C126.49 91.7365 126.169 92.3509 126.437 91.8641C126.62 91.4276 126.911 91.0455 127.284 90.7542C127.164 90.8105 127.361 90.7186 127.425 90.6886C127.28 90.7561 127.558 90.6268 127.562 90.6249C127.828 90.5644 128.098 90.5267 128.371 90.5121C128.846 90.4814 129.484 90.5068 130.019 90.5115C131.139 90.5109 132.256 90.5898 133.364 90.7478C134.408 90.9078 135.409 91.2723 136.312 91.8205C136.714 92.0621 137.077 92.3653 137.386 92.719C137.485 92.8248 137.575 92.9345 137.663 93.05C137.68 93.0862 137.919 93.4201 137.839 93.2909C137.759 93.1617 137.981 93.5964 137.963 93.5562C138.038 93.717 138.111 93.8738 138.184 94.0306C138.373 94.4279 138.711 94.735 139.124 94.8855C139.538 95.036 139.994 95.0179 140.394 94.8351C140.787 94.6408 141.089 94.3027 141.239 93.8911C141.389 93.4795 141.375 93.026 141.199 92.6248C140.172 90.0449 137.638 88.3585 135.019 87.7154C133.636 87.3957 132.223 87.226 130.804 87.2093C129.279 87.1716 127.648 87.0516 126.194 87.5873C124.675 88.149 123.795 89.5477 123.161 90.959C122.823 91.6363 122.639 92.38 122.621 93.1369C122.603 93.8938 122.753 94.6452 123.06 95.3375C124.211 97.7124 127.089 99.2674 129.477 100.116C132.115 101.055 134.952 101.291 137.709 100.8C137.925 100.764 138.131 100.685 138.316 100.569C138.501 100.454 138.662 100.302 138.788 100.124C138.915 99.9465 139.006 99.7453 139.055 99.5324C139.104 99.3195 139.11 99.0991 139.074 98.8836C139.038 98.6682 138.96 98.462 138.844 98.2768C138.728 98.0916 138.577 97.931 138.399 97.8043C138.221 97.6775 138.02 97.5871 137.807 97.5381C137.594 97.489 137.373 97.4824 137.158 97.5186L137.166 97.5149Z" fill="#E1FF8D"/>
<path d="M177.855 132.039L178.219 134.141C178.313 134.839 178.452 135.531 178.636 136.212C178.852 137.031 179.38 137.734 180.107 138.169C180.827 138.525 181.6 138.764 182.395 138.878C183.7 139.126 185.401 139.405 186.619 138.753C186.981 138.568 187.3 138.308 187.554 137.99C187.808 137.673 187.992 137.305 188.094 136.911C188.241 136.183 188.273 135.437 188.188 134.699L187.884 130.016C187.83 129.145 186.785 128.478 185.966 128.654C185.537 128.739 185.157 128.985 184.904 129.341C184.651 129.698 184.544 130.138 184.604 130.571C184.697 132.028 184.792 133.488 184.889 134.95C184.9 135.151 184.906 135.353 184.927 135.554C184.947 135.755 184.939 135.695 184.928 135.441L184.928 135.661C184.929 135.769 184.914 135.873 184.909 135.978C184.904 136.083 184.893 136.123 184.944 135.874C184.928 135.94 184.908 136.006 184.883 136.069C185.008 135.847 185.025 135.81 184.933 135.957C185.123 135.766 185.142 135.743 184.993 135.876L185.159 135.769C184.99 135.848 185.01 135.838 185.223 135.739L185.011 135.789C184.855 135.802 184.698 135.796 184.544 135.772C183.876 135.737 183.212 135.653 182.556 135.519L182.286 135.464C182.477 135.507 182.481 135.505 182.286 135.464C182.091 135.423 182.042 135.402 181.926 135.363L181.69 135.277C181.883 135.388 181.901 135.394 181.745 135.301C181.589 135.207 181.616 135.204 181.785 135.335C181.874 135.524 181.89 135.561 181.836 135.444C181.805 135.387 181.777 135.328 181.754 135.267C181.673 135.094 181.679 135.106 181.77 135.303C181.706 135.134 181.671 134.955 181.666 134.775L181.484 133.724C181.356 132.976 181.222 132.227 181.086 131.463C181.05 131.247 180.971 131.041 180.855 130.856C180.739 130.671 180.588 130.51 180.41 130.383C180.232 130.257 180.031 130.166 179.818 130.117C179.605 130.068 179.385 130.062 179.169 130.098C178.954 130.134 178.748 130.212 178.563 130.328C178.377 130.444 178.217 130.595 178.09 130.773C177.963 130.951 177.873 131.152 177.824 131.365C177.775 131.578 177.768 131.799 177.805 132.014L177.855 132.039Z" fill="#1B1B1B"/>
<path d="M178.252 137.016C177.547 138.951 177.319 141.028 177.59 143.07C177.86 145.112 178.62 147.058 179.805 148.742C180.433 149.67 181.393 150.32 182.488 150.56C183.051 150.645 183.626 150.603 184.171 150.439C184.717 150.274 185.218 149.99 185.641 149.608C187.246 148.243 187.975 146.019 188.286 144C188.564 141.805 188.455 139.578 187.964 137.421C187.928 137.205 187.85 136.999 187.734 136.814C187.618 136.629 187.467 136.468 187.289 136.341C187.111 136.215 186.91 136.124 186.697 136.075C186.484 136.026 186.263 136.02 186.048 136.056C185.833 136.092 185.626 136.17 185.441 136.286C185.256 136.402 185.095 136.553 184.969 136.731C184.713 137.091 184.61 137.537 184.683 137.972C184.837 138.742 184.964 139.519 185.046 140.304C185.063 140.477 185.076 140.652 185.089 140.827C185.095 140.892 185.122 141.379 185.113 141.182C185.132 141.59 185.125 141.994 185.104 142.4C185.083 142.807 185.05 143.145 184.998 143.517C184.975 143.689 184.947 143.859 184.924 144.041C184.906 144.127 184.891 144.212 184.871 144.295C184.917 144.088 184.845 144.396 184.827 144.463C184.73 144.82 184.615 145.173 184.483 145.519C184.376 145.815 184.24 146.1 184.076 146.369C183.983 146.515 183.884 146.649 183.783 146.789C183.628 147.003 183.796 146.817 183.615 146.975L183.359 147.192C183.339 147.202 183.123 147.337 183.276 147.256C183.429 147.175 182.81 147.41 183.164 147.308C183.124 147.327 182.845 147.349 183.124 147.327C183.026 147.338 182.949 147.247 183.021 147.316C183.092 147.386 182.925 147.258 182.933 147.274C182.94 147.29 183.149 147.403 182.976 147.283L182.785 147.147C182.995 147.304 182.795 147.167 182.768 147.111C182.643 146.969 182.52 146.83 182.409 146.676C182.379 146.612 182.114 146.232 182.237 146.434C182.164 146.277 182.059 146.135 181.978 145.982C181.787 145.626 181.616 145.259 181.466 144.885C181.392 144.726 181.331 144.564 181.283 144.397C181.165 144.071 181.219 144.261 181.251 144.329L181.178 144.079C181.075 143.687 180.991 143.29 180.927 142.89C180.682 141.308 180.841 139.689 181.391 138.186C181.475 137.979 181.516 137.757 181.512 137.533C181.508 137.31 181.46 137.09 181.369 136.886C181.278 136.682 181.147 136.498 180.984 136.346C180.82 136.193 180.628 136.075 180.418 135.999C180.208 135.923 179.985 135.889 179.762 135.901C179.539 135.913 179.321 135.969 179.12 136.067C178.919 136.165 178.74 136.302 178.594 136.471C178.447 136.64 178.336 136.836 178.267 137.049L178.252 137.016Z" fill="#E1FF8D"/>
<path d="M205.611 123.039C205.167 121.96 204.724 120.874 204.278 119.79L203.943 118.968C203.89 118.855 203.838 118.743 203.785 118.63L203.722 118.493C203.637 118.312 203.778 118.824 203.782 118.622C203.779 118.573 203.771 118.524 203.758 118.476C203.797 118.561 203.754 118.752 203.738 118.833C203.709 118.949 203.657 119.059 203.585 119.154C203.585 119.154 203.336 119.398 203.474 119.274C203.612 119.151 203.334 119.374 203.329 119.372C203.397 119.344 203.465 119.313 203.53 119.278C203.666 119.214 203.803 119.15 203.943 119.115C204.48 118.903 205.022 118.7 205.557 118.494L206.391 118.183L206.73 118.06C206.472 118.116 207.088 117.937 206.73 118.06L207.031 118.002C207.324 117.949 206.702 117.999 206.999 118.017C207.104 118.022 207.286 118.099 206.867 117.986C206.91 117.995 207.083 118.071 206.867 117.986C206.651 117.901 206.802 117.962 206.867 117.986C206.795 117.936 206.639 117.75 206.771 117.918C206.904 118.086 207.069 118.293 207.21 118.491L207.437 118.821C207.463 118.877 207.492 118.938 207.548 118.985C207.687 119.189 207.396 118.733 207.529 118.945C208.215 120.064 208.771 121.257 209.188 122.502C209.28 122.7 209.411 122.878 209.572 123.025C209.733 123.173 209.921 123.287 210.127 123.361C210.332 123.436 210.55 123.47 210.768 123.461C210.986 123.452 211.2 123.399 211.398 123.307C211.596 123.215 211.774 123.084 211.921 122.923C212.069 122.762 212.183 122.573 212.257 122.368C212.382 121.95 212.363 121.502 212.203 121.096C211.788 119.803 211.212 118.567 210.488 117.418C210.126 116.783 209.7 116.186 209.217 115.637C208.887 115.293 208.481 115.031 208.032 114.871C207.582 114.711 207.102 114.657 206.629 114.715C205.963 114.827 205.314 115.022 204.698 115.298C204.052 115.54 203.407 115.782 202.761 116.034C201.933 116.357 201.165 116.705 200.731 117.548C200.298 118.392 200.482 119.27 200.809 120.096C201.394 121.561 202.009 123.016 202.606 124.475C202.794 124.873 203.132 125.181 203.545 125.332C203.959 125.482 204.416 125.464 204.816 125.28C205.21 125.087 205.514 124.749 205.664 124.337C205.814 123.925 205.799 123.47 205.621 123.069L205.611 123.039Z" fill="#1B1B1B"/>
<path d="M202.862 116.059C201.938 114.381 200.914 112.72 200.112 110.979C199.952 110.644 199.819 110.297 199.716 109.941C199.667 109.743 199.627 109.541 199.599 109.344C199.589 109.26 199.58 109.177 199.574 109.091C199.554 108.817 199.565 109.292 199.578 109.016C199.583 108.822 199.602 108.628 199.636 108.436C199.596 108.655 199.684 108.277 199.705 108.208C199.733 108.131 199.765 108.056 199.801 107.982C199.913 107.739 199.685 108.144 199.842 107.924L199.978 107.733C199.863 107.831 199.891 107.862 199.978 107.733C200.094 107.635 200.392 107.423 200.25 107.509C200.109 107.594 200.443 107.419 200.504 107.39L200.697 107.3C200.394 107.417 200.616 107.338 200.697 107.3C200.866 107.275 201.032 107.242 201.205 107.225C200.965 107.215 201.459 107.194 201.205 107.225L201.429 107.233C201.582 107.247 201.732 107.265 201.88 107.287C201.941 107.293 202.175 107.365 201.904 107.276L202.124 107.339C202.291 107.394 202.454 107.46 202.619 107.53C202.35 107.415 202.756 107.613 202.834 107.664C202.972 107.758 203.106 107.859 203.234 107.967C203.461 108.16 203.111 107.839 203.317 108.051C203.381 108.114 203.447 108.181 203.508 108.25C203.65 108.41 203.783 108.576 203.907 108.749C203.918 108.774 204.13 109.081 204.045 108.94C203.959 108.798 204.112 109.084 204.107 109.072C204.185 109.241 204.262 109.406 204.341 109.575C204.537 109.974 204.703 110.387 204.839 110.811C204.777 110.615 204.882 110.903 204.89 110.919C204.94 111.028 204.957 111.157 204.989 111.279C205.048 111.521 205.107 111.763 205.158 112.008C205.265 112.511 205.35 113.019 205.422 113.529C205.558 114.509 205.62 115.498 205.607 116.487C205.577 116.924 205.716 117.355 205.995 117.692C206.274 118.029 206.672 118.246 207.107 118.298C207.546 118.335 207.982 118.198 208.322 117.916C208.661 117.634 208.876 117.23 208.92 116.792C208.985 114.529 208.705 112.27 208.091 110.092C207.461 108.017 206.375 105.856 204.401 104.761C202.683 103.805 200.446 103.561 198.686 104.563C196.685 105.697 195.897 108.026 196.341 110.217C196.649 111.502 197.152 112.731 197.834 113.862C198.492 115.062 199.152 116.26 199.814 117.456C200 117.855 200.338 118.165 200.752 118.316C201.167 118.467 201.624 118.447 202.024 118.26C202.424 118.074 202.733 117.736 202.884 117.322C203.035 116.907 203.015 116.45 202.829 116.05L202.862 116.059Z" fill="#FF8200"/>
<path d="M231.529 112.367L233.214 113.881C233.737 114.411 234.295 114.907 234.884 115.363C236.389 116.389 238.168 115.838 239.666 115.125C240.373 114.781 241.045 114.368 241.67 113.892C242.036 113.652 242.344 113.335 242.573 112.962C242.802 112.59 242.946 112.172 242.995 111.737C242.966 110.885 242.73 110.053 242.305 109.314C241.977 108.646 241.596 108.005 241.167 107.397C240.254 106.094 239.109 104.969 237.789 104.079C237.61 103.954 237.408 103.866 237.194 103.82C236.981 103.774 236.76 103.77 236.545 103.809C236.111 103.887 235.726 104.135 235.474 104.498C235.223 104.86 235.126 105.308 235.204 105.742C235.283 106.176 235.531 106.561 235.893 106.813C236.209 107.028 236.512 107.248 236.801 107.49C236.912 107.581 237.018 107.673 237.127 107.769C236.833 107.505 237.27 107.918 237.318 107.969C237.785 108.437 238.21 108.944 238.588 109.486C238.627 109.57 238.695 109.642 238.746 109.72C238.632 109.539 238.658 109.531 238.746 109.72L238.97 110.105C239.153 110.436 239.325 110.772 239.476 111.117C239.536 111.246 239.596 111.375 239.664 111.519C239.731 111.664 239.74 111.684 239.76 111.778C239.698 111.572 239.686 111.558 239.741 111.738C239.717 111.627 239.717 111.513 239.74 111.403C239.764 111.292 239.811 111.188 239.877 111.097L239.813 111.19C240.115 110.839 239.765 111.213 239.669 111.258C239.572 111.303 239.387 111.472 239.239 111.575L239.049 111.703C239.214 111.6 239.214 111.6 239.049 111.703C238.728 111.853 238.427 112.047 238.099 112.195C237.914 112.281 237.729 112.367 237.531 112.425L237.245 112.525L237.301 112.499C237.151 112.534 236.99 112.565 236.86 112.602C236.73 112.638 236.687 112.629 236.897 112.618C236.711 112.597 236.723 112.612 236.918 112.663C236.579 112.556 237.152 112.862 236.861 112.645C236.728 112.55 236.598 112.45 236.468 112.339C236.338 112.228 236.342 112.226 236.468 112.339L236.29 112.177L235.874 111.799C235.274 111.256 234.675 110.718 234.084 110.186C233.792 109.869 233.397 109.665 232.969 109.61C232.523 109.573 232.08 109.712 231.736 109.999C231.15 110.547 230.86 111.719 231.547 112.343L231.529 112.367Z" fill="#1B1B1B"/>
<path d="M236.318 115.416C236.62 117.436 237.548 119.31 238.972 120.774C240.396 122.239 242.243 123.219 244.254 123.578C246.652 123.987 249.307 123.091 250.328 120.746C251.287 118.532 250.487 115.734 249.231 113.818C247.74 111.533 245.304 110.433 242.841 109.497C242.427 109.345 241.969 109.365 241.569 109.551C241.169 109.737 240.859 110.074 240.708 110.489C240.556 110.903 240.576 111.361 240.762 111.761C240.948 112.161 241.286 112.471 241.7 112.622C242.532 112.92 243.346 113.264 244.138 113.653C244.774 113.995 245.359 114.422 245.88 114.921C246.467 115.523 246.9 116.258 247.143 117.063C247.227 117.244 247.173 117.128 247.156 117.091C247.208 117.204 247.222 117.339 247.249 117.459C247.275 117.579 247.322 117.836 247.346 118.025C247.371 118.214 247.375 118.276 247.386 118.403C247.373 118.375 247.387 118.227 247.386 118.403C247.391 118.625 247.378 118.847 247.348 119.067C247.339 119.149 247.326 119.23 247.309 119.31C247.361 119.075 247.295 119.341 247.28 119.373C247.265 119.404 247.076 119.776 247.195 119.589C247.137 119.687 247.07 119.78 246.997 119.867C247.033 119.85 247.133 119.73 246.997 119.867C246.96 119.884 246.698 120.109 246.852 119.998C247.006 119.887 246.707 120.065 246.675 120.08C246.643 120.095 246.146 120.278 246.382 120.217C246.184 120.269 245.983 120.307 245.779 120.332C245.692 120.345 245.605 120.353 245.517 120.356C245.594 120.354 245.758 120.371 245.415 120.359C245.209 120.348 245.003 120.336 244.802 120.313C244.723 120.301 244.235 120.21 244.499 120.273C244.322 120.228 244.147 120.178 243.973 120.122C243.8 120.065 243.629 120.003 243.461 119.935C243.376 119.901 242.896 119.679 243.135 119.803C242.835 119.645 242.546 119.468 242.27 119.271C242.122 119.164 241.975 119.057 241.833 118.942C241.771 118.893 241.713 118.841 241.655 118.79C241.517 118.673 241.782 118.927 241.569 118.713C241.274 118.417 240.997 118.103 240.74 117.773C240.7 117.689 240.376 117.233 240.541 117.504C240.444 117.348 240.355 117.189 240.27 117.028C240.075 116.662 239.911 116.28 239.781 115.886C239.84 116.127 239.691 115.629 239.781 115.886C239.738 115.793 239.731 115.684 239.708 115.582C239.655 115.352 239.625 115.131 239.59 114.888C239.517 114.453 239.274 114.064 238.914 113.808C238.554 113.552 238.107 113.449 237.671 113.522C237.236 113.596 236.847 113.839 236.591 114.199C236.335 114.559 236.232 115.006 236.305 115.441L236.318 115.416Z" fill="#0536FC"/>
<path d="M252.299 89.319L250.951 85.1072L250.617 84.0544L250.425 83.4538C250.56 83.8802 250.459 83.5262 250.414 83.4297C250.396 83.3521 250.382 83.2736 250.373 83.1945C250.372 83.4345 250.375 83.4624 250.384 83.2821C250.357 83.3925 250.119 83.763 250.314 83.5302C249.952 83.9727 250.716 83.2693 250.24 83.6135C250.38 83.5141 250.537 83.4311 250.682 83.3438L251.62 82.7841L252.056 82.5222L252.269 82.4228C252.171 82.4731 252.061 82.4922 251.952 82.4776C251.743 82.4811 251.539 82.414 251.374 82.2872C251.516 82.3923 251.494 82.3679 251.304 82.2119C251.401 82.2304 251.561 82.4888 251.62 82.5539C251.849 82.8142 252.062 83.0819 252.265 83.3593C252.368 83.4971 252.464 83.6386 252.565 83.7822C252.666 83.9259 252.674 83.9419 252.565 83.7822C252.595 83.8465 252.625 83.9108 252.677 83.9698C252.857 84.2625 253.022 84.5626 253.176 84.8724C253.33 85.1822 253.467 85.4955 253.611 85.805C253.684 85.9618 253.757 86.1185 253.792 86.2882C253.822 86.3525 254.008 86.9509 253.892 86.5647C253.981 87.0012 254.229 87.3893 254.586 87.6552C254.944 87.8994 255.382 87.9967 255.809 87.9267C256.596 87.7558 257.44 86.9018 257.171 86.0095C256.732 84.5478 256.083 83.1573 255.246 81.8811C254.433 80.6306 253.298 78.9527 251.597 79.178C250.883 79.2716 250.271 79.7331 249.66 80.0815C248.909 80.4435 248.224 80.9285 247.632 81.5163C246.486 82.868 247.294 84.6104 247.753 86.0457C248.245 87.5976 248.741 89.151 249.241 90.7057C249.506 91.5365 250.722 91.8892 251.451 91.5103C252.333 91.0502 252.539 90.1907 252.255 89.3L252.299 89.319Z" fill="#1B1B1B"/>
<path d="M248.198 79.8892C247.15 78.278 246.444 76.468 246.125 74.5722C246.047 74.1606 245.997 73.7442 245.975 73.3259C245.984 73.6397 246.001 73.025 246.006 72.9637C246.012 72.9023 246.03 72.7619 246.049 72.6553C246.008 72.8209 246.013 72.8091 246.073 72.644C246.105 72.5476 246.142 72.4532 246.186 72.3614L246.131 72.475C246.25 72.3215 246.249 72.3075 246.116 72.4428C246.189 72.368 246.269 72.2998 246.354 72.239C246.185 72.3177 246.2 72.34 246.354 72.239C246.507 72.138 246.539 72.1528 246.354 72.239C246.454 72.2157 246.556 72.1992 246.659 72.1898C246.514 72.1938 246.502 72.1994 246.622 72.2066C246.743 72.2139 247.196 72.2818 246.928 72.2209C247.137 72.2714 247.343 72.3394 247.541 72.4242C247.721 72.5065 247.745 72.5151 247.604 72.4537C247.676 72.4938 247.746 72.5381 247.813 72.5864C247.861 72.6175 248.234 72.9035 248.114 72.803C248.76 73.3666 249.251 74.0864 249.539 74.8937C249.875 75.7374 250.095 76.6224 250.194 77.5249C250.327 78.5346 250.376 79.5538 250.424 80.5691C250.468 81.4394 251.537 82.1056 252.341 81.9311C252.77 81.846 253.15 81.5999 253.404 81.2434C253.657 80.8869 253.764 80.4469 253.703 80.0139C253.682 78.0173 253.377 76.034 252.797 74.1236C252.194 72.3689 251.016 70.5786 249.363 69.6564C247.709 68.7341 245.298 68.4836 243.825 70.0268C242.425 71.4966 242.505 73.5783 242.867 75.4554C243.348 77.8188 244.3 80.061 245.667 82.0483C246.162 82.796 247.383 82.7699 248.011 82.2374C248.761 81.5991 248.697 80.6449 248.2 79.8932L248.198 79.8892Z" fill="#E1FF8D"/>
<path d="M275.36 68.5241C275.739 70.1989 276.619 71.7189 277.882 72.883C279.256 74.0774 281.235 73.316 282.745 72.8175C284.206 72.3898 285.471 71.4622 286.319 70.1968C286.733 69.5479 286.986 68.809 287.056 68.0422C287.086 67.1704 286.893 66.3054 286.496 65.5287C285.774 63.981 284.962 62.4706 284.128 60.9755C283.986 60.6836 283.762 60.4389 283.484 60.2709C283.206 60.1028 282.885 60.0184 282.561 60.0278C282.23 60.0355 281.91 60.143 281.642 60.3361C281.374 60.5292 281.171 60.799 281.059 61.1099C281 61.3524 280.938 61.5967 280.882 61.8432C280.672 62.6847 280.953 63.6845 281.875 63.9737C282.656 64.2212 283.789 63.8791 284.006 62.9802L284.187 62.245L281.113 62.3813C281.883 63.7596 282.617 65.1547 283.308 66.5745C283.398 66.7675 283.496 66.9765 283.578 67.1534C283.623 67.2499 283.666 67.3423 283.711 67.4388C283.667 67.259 283.666 67.2689 283.723 67.4629C283.753 67.5272 283.749 67.6025 283.758 67.6762C283.768 67.7499 283.772 67.7579 283.762 67.5473C283.787 67.7059 283.774 67.8682 283.723 68.0205C283.779 67.8038 283.777 67.7799 283.731 67.9533C283.705 68.0339 283.681 68.1087 283.651 68.1813L283.601 68.293C283.527 68.4596 283.533 68.4419 283.63 68.2402C283.625 68.3552 283.423 68.5619 283.357 68.6514L283.201 68.8416C283.336 68.6905 283.364 68.6576 283.279 68.7465C283.193 68.8355 283.067 68.9431 282.953 69.0353L282.757 69.1807C282.922 69.1038 282.914 69.1076 282.733 69.1919C282.408 69.37 282.073 69.5266 281.728 69.6605C281.672 69.6868 281.065 69.8766 281.395 69.7765L280.933 69.9087C280.572 70.004 280.204 70.107 279.835 70.1763C279.774 70.2044 279.699 70.2004 279.635 70.2105C279.846 70.2103 279.86 70.2087 279.671 70.1937C279.784 70.1986 279.894 70.2338 279.988 70.2956C279.837 70.1803 279.848 70.1945 280.005 70.3318C279.756 70.2277 279.492 69.7244 279.339 69.5218C279.185 69.3192 279.22 69.3519 279.339 69.5218C279.295 69.4294 279.252 69.3369 279.181 69.2576C279.11 69.1782 279.052 68.9802 278.994 68.8556C278.936 68.731 278.821 68.4858 278.735 68.3009C278.649 68.116 278.649 68.116 278.735 68.3009C278.694 68.2124 278.679 68.1069 278.656 68.005C278.573 67.575 278.327 67.1936 277.97 66.94C277.613 66.6863 277.172 66.58 276.739 66.643C275.92 66.8191 275.141 67.6569 275.376 68.5603L275.36 68.5241Z" fill="#1B1B1B"/>
<path d="M278.586 72.8663C278.54 76.0038 278.982 79.1294 279.897 82.131C280.749 85.0077 282.489 88.1944 285.668 88.9241C288.847 89.6539 291.503 86.9029 291.997 83.9321C292.184 82.4778 292.062 81.0007 291.64 79.5966C291.224 78.0135 290.679 76.467 290.012 74.9724C289.243 73.2556 288.296 71.6237 287.188 70.1032C286.531 69.1963 285.604 68.1847 284.342 68.7733C284.047 68.9108 283.793 69.1222 283.604 69.3868C283.416 69.6515 283.299 69.9604 283.265 70.2837C283.233 70.6793 283.331 71.0744 283.545 71.4086C283.76 71.7428 284.077 71.9975 284.45 72.1337C284.865 72.2805 285.322 72.2584 285.721 72.0723C286.12 71.8862 286.43 71.5508 286.585 71.1383C286.725 70.7236 286.699 70.2709 286.514 69.8742C286.329 69.4776 285.999 69.1673 285.591 69.0079L285.507 68.9738L286.591 70.2496L286.572 70.1558L286.479 71.0065L286.516 70.9063L286.04 71.6175L286.132 71.5744L284.896 71.9256L285.005 71.9385L284.213 71.647C284.095 71.3937 284.481 71.7912 284.213 71.647C284.29 71.7675 284.377 71.8808 284.474 71.9855C284.662 72.2406 284.849 72.4958 285.026 72.7606C285.355 73.2339 285.609 73.6535 285.908 74.1796C286.525 75.2931 287.064 76.4482 287.52 77.6366C287.94 78.677 288.276 79.7491 288.526 80.8429C288.806 81.799 288.848 82.8088 288.65 83.785C288.686 83.6213 288.542 84.0996 288.51 84.188C288.478 84.2764 288.431 84.3862 288.387 84.4803C288.505 84.2295 288.348 84.5328 288.306 84.5912C288.265 84.6496 288.19 84.7725 288.127 84.8561C288.063 84.9397 287.866 85.1784 288.06 84.9654C287.877 85.1551 287.678 85.3282 287.464 85.4829C287.732 85.2898 287.247 85.5841 287.167 85.6216C286.886 85.7528 287.079 85.6629 287.167 85.6216C287.075 85.6647 286.965 85.6618 286.87 85.6869C286.436 85.806 287.01 85.7146 286.76 85.7038C286.654 85.7011 286.548 85.6916 286.443 85.6753C286.175 85.6342 286.706 85.8074 286.262 85.6227C286.167 85.5799 286.069 85.5421 285.97 85.5095C285.909 85.484 285.562 85.2543 285.406 85.1409C285.251 85.0275 285.216 84.9948 285.125 84.9149C285.282 85.0522 285.063 84.8557 285.051 84.8415C284.865 84.6505 284.688 84.4503 284.522 84.2417C284.428 84.124 284.342 84.0026 284.25 83.8791C284.093 83.6585 284.241 83.859 284.175 83.7183C283.916 83.2712 283.688 82.8068 283.493 82.3285C283.302 81.8661 283.141 81.3917 283.012 80.9085C282.292 78.3776 281.924 75.7594 281.919 73.128C281.948 72.6911 281.808 72.2598 281.528 71.9231C281.248 71.5864 280.849 71.3701 280.415 71.3189C279.976 71.2831 279.541 71.4206 279.203 71.7018C278.865 71.983 278.65 72.3856 278.605 72.8232L278.586 72.8663Z" fill="#FF8200"/>
</svg>
