<svg width="84" height="114" viewBox="0 0 84 114" fill="none" xmlns="http://www.w3.org/2000/svg">
<path d="M26.3771 13.1558C25.5543 8.9115 29.3379 5.72196 32.8102 3.14237C36.2825 0.562777 40.8317 -0.272731 45.1427 0.168849C49.4537 0.61043 53.5454 2.23062 57.4148 4.15895C61.227 6.06506 64.9693 8.36826 67.4346 11.8278C65.0551 10.8748 62.8504 9.48333 60.3915 8.76854C57.9326 8.05375 55.0131 8.13317 53.1293 9.8709C51.2454 11.6086 52.1286 16.0435 55.9884 18.9757C55.9884 18.9757 45.1332 13.1176 38.8812 13.1303L26.3771 13.1558Z" fill="#0536FC"/>
<path d="M57.0878 24.3148C58.8004 26.3465 59.7698 28.901 59.8362 31.5574C59.9026 34.2137 59.0621 36.8135 57.4532 38.9282C53.552 44.1192 46.6773 45.571 40.5715 44.5258C34.0335 43.4076 26.8507 39.9099 24.1377 33.5086C21.6248 27.5774 23.388 21.1761 27.8514 16.7476C28.8045 15.7945 30.3134 17.2844 29.3445 18.2439C25.186 22.3737 23.7279 28.378 26.568 33.715C28.8426 37.9942 33.4998 40.3483 37.9506 41.7175C42.6364 43.1598 47.8528 43.3281 52.1987 40.7644C57.4849 37.6607 59.7341 30.84 55.5915 25.8015C54.7338 24.7564 56.2269 23.2601 57.0878 24.3053V24.3148Z" fill="#1B1B1B"/>
<path d="M57.8502 26.9494C48.3848 20.6764 37.1507 17.6186 25.8118 18.229C24.4521 18.2989 24.4553 16.1831 25.8118 16.1164C37.5311 15.4931 49.1407 18.6502 58.9303 25.1227C60.0613 25.8661 59.0034 27.6992 57.8629 26.9494H57.8502Z" fill="#1B1B1B"/>
<path d="M57.4085 27.8701C57.7071 25.3635 57.8024 22.4917 55.7978 20.7381C54.6129 19.7024 52.5193 19.1306 51.0866 18.5842C48.5187 17.5661 45.8984 16.686 43.2366 15.9474C40.5713 15.2485 37.7629 15.0801 35.015 14.9944C33.8999 14.9531 24.2296 14.6386 26.5773 18.7113C27.2571 19.893 25.4305 20.9573 24.7506 19.7787C23.4036 17.4405 25.8689 14.108 28.0926 13.228C31.6856 11.8048 37.4167 12.8468 41.0986 13.3932C45.4668 14.0286 49.9048 15.706 53.9362 17.4564C58.9747 19.6452 60.1977 22.2947 59.5338 27.8669C59.3749 29.2012 57.2592 29.217 57.4212 27.8669L57.4085 27.8701Z" fill="#1B1B1B"/>
<path d="M27.5049 12.7516C27.4573 4.39656 38.3411 -0.308331 45.489 0.0157058C54.7018 0.438225 65.4681 6.70612 70.4812 14.4163C71.0848 15.3408 69.922 16.3446 69.0357 15.8618C66.5768 14.5275 64.0639 12.5833 61.3033 11.9193C59.2765 11.4333 56.1092 12.6468 55.3594 14.7785C54.7781 16.4431 57.4339 19.4357 58.3107 20.3284C59.1271 21.1639 58.0597 22.6634 57.04 21.9899C53.4946 19.6835 49.6697 17.5423 45.6987 16.0651C40.3393 14.0732 34.2207 14.2702 28.5755 13.7968C27.2285 13.6825 27.2158 11.573 28.5755 11.681C34.4177 12.1735 40.7078 11.9638 46.261 14.0255C50.4131 15.5663 54.4 17.752 58.1074 20.1632L56.8366 21.8247C54.2952 19.2165 51.3725 14.1812 54.759 11.0234C59.2701 6.8046 66.1321 11.8653 70.1254 14.0351L68.6513 15.4805C64.6548 9.33972 56.6937 4.52364 49.6538 2.79544C43.0937 1.18478 29.5635 3.66589 29.6112 12.7485C29.627 14.1145 27.5113 14.1145 27.5049 12.7516Z" fill="#1B1B1B"/>
<path d="M69.2867 14.5281C69.3847 14.1309 69.6121 13.7777 69.9331 13.524C70.254 13.2704 70.6503 13.1307 71.0594 13.1271C71.9648 13.1081 72.6478 13.6799 73.1688 14.3693C74.2775 15.856 74.4935 17.9813 72.6001 18.9407C70.9768 19.7604 69.1056 18.8327 68.2574 17.3523C67.3234 15.7448 67.8222 13.3749 69.8458 12.9746C71.1737 12.711 71.7519 14.7505 70.4081 15.0142C69.166 15.2588 70.3509 17.0442 71.1801 17.1268C71.7043 17.1808 72.0283 16.879 71.9076 16.3707C71.8155 16.0972 71.6721 15.8438 71.4851 15.6241C71.4022 15.5076 71.3063 15.401 71.1991 15.3064C70.999 15.227 71.0435 15.1571 71.3294 15.0936C71.0117 16.4183 68.9785 15.8592 69.2899 14.5313L69.2867 14.5281Z" fill="#1B1B1B"/>
<path d="M51.4011 41.848C60.2455 44.4657 67.7301 51.4198 66.3005 61.3982C64.6517 72.9206 51.8745 75.3286 42.1216 75.2746C31.511 75.2175 20.6271 71.9072 17.66 60.4674C15.1566 50.8734 21.1195 41.4636 30.1767 38.2518C31.4474 37.7943 32.0129 39.8402 30.739 40.2881C22.2727 43.2934 17.0595 52.4523 20.0807 61.1695C23.4386 70.862 32.9533 73.1271 42.1343 73.162C50.3242 73.1906 61.9514 71.7007 64.0545 62.059C66.0559 52.9034 58.9461 46.2828 50.8484 43.8875C49.5459 43.4999 50.0986 41.4604 51.4075 41.848H51.4011Z" fill="#1B1B1B"/>
<path d="M59.7846 69.2642C71.0973 74.1819 81.6603 84.945 78.2992 98.3163C74.8047 112.275 57.3162 114.683 45.3046 113.444C32.2796 112.097 15.5217 108.476 8.56765 95.9972C2.01701 84.243 9.49211 72.0248 20.1027 66.0206C21.2909 65.3503 22.3583 67.1738 21.1702 67.8473C10.1592 74.0802 3.50378 87.1275 12.5927 98.1321C20.1409 107.281 34.0745 110.16 45.3141 111.329C56.433 112.482 72.8763 110.693 76.2692 97.754C79.5255 85.3263 69.0165 75.5638 58.7267 71.0908C57.4814 70.5476 58.5583 68.7273 59.7941 69.2642H59.7846Z" fill="#1B1B1B"/>
<path d="M46.8456 29.0998C43.8848 29.0998 43.8816 24.5029 46.8456 24.5029C49.8096 24.5029 49.8064 29.0998 46.8456 29.0998Z" fill="#1B1B1B"/>
<path d="M32.6005 28.0861C29.6428 28.0861 29.6397 23.4893 32.6005 23.4893C35.5613 23.4893 35.5645 28.0861 32.6005 28.0861Z" fill="#1B1B1B"/>
<path d="M36.3015 56.1221L36.0505 56.1634C35.3319 56.3356 34.5749 56.236 33.9252 55.8839C33.6122 55.7016 33.3383 55.4594 33.1191 55.1711C32.9 54.8827 32.7399 54.5539 32.6481 54.2036C32.5563 53.8532 32.5346 53.4882 32.5842 53.1294C32.6338 52.7707 32.7538 52.4252 32.9372 52.1129C33.2994 51.5443 33.8903 50.9566 34.5828 50.8422L34.8338 50.8041C35.5521 50.631 36.309 50.7294 36.9591 51.0805C37.5776 51.4477 38.0322 52.0376 38.2298 52.7293C38.3264 53.0844 38.3514 53.4551 38.3034 53.82C38.2554 54.1848 38.1354 54.5365 37.9503 54.8546C37.5881 55.42 36.9972 56.0109 36.3047 56.1253L36.3015 56.1221Z" fill="#1B1B1B"/>
<path d="M36.0885 67.4183L35.8407 67.4596C35.122 67.632 34.365 67.5324 33.7154 67.18C33.0838 66.8107 32.6246 66.2057 32.4388 65.4981C32.2529 64.7904 32.3556 64.0379 32.7242 63.4059C33.0895 62.8404 33.6773 62.2527 34.373 62.1352L34.624 62.0971C35.3422 61.924 36.0991 62.0224 36.7493 62.3734C37.0621 62.5563 37.3357 62.799 37.5547 63.0876C37.7737 63.3763 37.9336 63.7053 38.0253 64.0557C38.1171 64.4062 38.1389 64.7714 38.0894 65.1303C38.04 65.4892 37.9203 65.8349 37.7373 66.1475C37.3719 66.713 36.7842 67.3039 36.0885 67.4183Z" fill="#1B1B1B"/>
<path d="M41.3308 31.1493C41.8359 33.3731 40.3301 35.8161 37.9062 35.7811C37.3616 35.7705 36.8264 35.637 36.3407 35.3906C35.8549 35.1441 35.4312 34.7911 35.101 34.3579C34.2274 33.1793 34.4148 31.7592 34.723 30.4154C35.0311 29.0716 37.0675 29.6498 36.7625 30.9777C36.5147 32.0515 36.3717 33.6209 37.9062 33.6685C38.9132 33.6971 39.4946 32.6075 39.2944 31.7116C38.9926 30.3868 41.0322 29.8214 41.3308 31.1493Z" fill="#1B1B1B"/>
<path d="M17.1864 55.2168C13.6051 54.3283 10.2698 52.6447 7.42809 50.2908C4.58642 47.937 2.31135 44.9733 0.771725 41.62C0.209425 40.3905 2.04246 39.3168 2.5984 40.5525C4.00414 43.6659 6.098 46.4197 8.7223 48.6065C11.3466 50.7933 14.4329 52.3562 17.7487 53.1773C19.0671 53.495 18.508 55.5472 17.1864 55.2168Z" fill="#1B1B1B"/>
<path d="M8.90775 40.8062C10.0709 43.9038 10.772 47.1557 10.9886 50.4574C11.0839 51.8171 8.96811 51.8107 8.8728 50.4574C8.65444 47.3458 7.979 44.2833 6.86822 41.3685C6.38852 40.0977 8.43123 39.5418 8.90775 40.8062Z" fill="#1B1B1B"/>
<path d="M77.1911 35.8411C77.0354 42.5124 72.8324 54.0793 64.5091 53.9204C63.1526 53.895 63.1463 51.7792 64.5091 51.8047C71.5522 51.9413 74.9482 41.3211 75.0753 35.8411C75.107 34.4845 77.2228 34.4782 77.1911 35.8411Z" fill="#1B1B1B"/>
<path d="M83.0169 42.0671C82.3815 43.8239 81.6381 45.7618 79.9862 46.8101C78.1849 47.957 76.0469 47.6012 74.0804 47.1691C72.7525 46.88 73.3148 44.8405 74.6427 45.1328C75.9707 45.425 77.6512 45.8349 78.9188 44.9835C80.0497 44.2306 80.5421 42.7152 80.9774 41.5048C81.4316 40.2341 83.4775 40.7805 83.0169 42.0671Z" fill="#1B1B1B"/>
<path d="M68.1847 82.3278C69.0869 82.8948 69.8614 83.643 70.4591 84.5252C71.0568 85.4073 71.4648 86.4039 71.657 87.452C71.8031 88.2621 70.5642 88.6115 70.418 87.7951C70.2682 86.9079 69.9341 86.0619 69.4372 85.3117C68.9404 84.5615 68.2919 83.9238 67.5335 83.4397C66.8377 82.9949 67.4826 81.8798 68.1688 82.3278H68.1847Z" fill="#1B1B1B"/>
<path d="M68.9151 88.062C70.0093 89.2971 70.7655 90.7942 71.1103 92.4079C71.2787 93.218 70.0397 93.5611 69.8681 92.751C69.5895 91.3523 68.9512 90.0505 68.0161 88.9737C67.4728 88.3383 68.3814 87.4361 68.9278 88.062H68.9151Z" fill="#1B1B1B"/>
<path d="M70.1505 95.4639C70.5454 96.0694 70.7541 96.7774 70.7509 97.5003C70.7509 98.3294 69.4643 98.3294 69.4611 97.5003C69.4644 97.0054 69.317 96.5212 69.0386 96.112C68.5812 95.4195 69.6962 94.7714 70.1505 95.4766V95.4639Z" fill="#1B1B1B"/>
<path d="M14.3272 81.899C13.8563 82.7035 13.5153 83.5773 13.317 84.4881C13.1359 85.2982 11.8937 84.9551 12.0748 84.1482C12.3014 83.1288 12.6863 82.1512 13.2153 81.2509C13.6315 80.5361 14.7465 81.181 14.3272 81.8863V81.899Z" fill="#1B1B1B"/>
<path d="M15.2266 86.324V88.3604C15.2266 89.1863 13.9399 89.1895 13.9399 88.3604V86.324C13.9399 85.4949 15.2266 85.4949 15.2266 86.324Z" fill="#1B1B1B"/>
</svg>
